<svg width="62" height="510" viewBox="0 0 62 510" fill="none" xmlns="http://www.w3.org/2000/svg">
<path d="M50.6667 91C50.6667 93.9455 53.0545 96.3333 56 96.3333C58.9455 96.3333 61.3333 93.9455 61.3333 91C61.3333 88.0545 58.9455 85.6667 56 85.6667C53.0545 85.6667 50.6667 88.0545 50.6667 91ZM50.6667 419C50.6667 421.946 53.0545 424.333 56 424.333C58.9455 424.333 61.3333 421.946 61.3333 419C61.3333 416.055 58.9455 413.667 56 413.667C53.0545 413.667 50.6667 416.055 50.6667 419ZM56 91V90H31V91V92H56V91ZM1 121H0V147.769H1H2V121H1ZM1 147.769H0V201.7H1H2V147.769H1ZM1 201.7H0V256.892H1H2V201.7H1ZM1 256.892H0V308.3H1H2V256.892H1ZM1 308.3H0V365.069H1H2V308.3H1ZM1 365.069H0V389H1H2V365.069H1ZM31 419V420H56V419V418H31V419ZM1 389H0C0 406.121 13.8792 420 31 420V419V418C14.9837 418 2 405.016 2 389H1ZM31 91V90C13.8792 90 0 103.879 0 121H1H2C2 104.984 14.9837 92 31 92V91Z" fill="#0336BC"/>
<path d="M50.6667 254.995C50.6662 257.941 53.0537 260.329 55.9992 260.329C58.9448 260.33 61.3329 257.942 61.3333 254.997C61.3338 252.051 58.9463 249.663 56.0008 249.663C53.0552 249.662 50.6671 252.05 50.6667 254.995ZM1 254.988L0.999858 255.988L55.9999 255.996L56 254.996L56.0001 253.996L1.00014 253.988L1 254.988Z" fill="#0336BC"/>
</svg>
