<svg width="211" height="329" viewBox="0 0 211 329" fill="none" xmlns="http://www.w3.org/2000/svg">
<g filter="url(#filter0_d_11400_56419)">
<path d="M163.753 185.562L163.707 185.547L143.639 179.122L140.494 182.553C141.585 186.305 143.402 191.87 147.361 196.788C149.376 199.061 152.379 202.775 154.85 206.545C156.086 208.431 157.193 210.338 157.978 212.089C158.754 213.824 159.229 215.442 159.169 216.749L159.787 232.797V232.809C159.787 233.743 160.141 234.421 160.74 234.874C161.351 235.336 162.248 235.588 163.361 235.588H177.388V201.983C176.591 199.925 176.153 197.482 176.153 195.135C176.153 185.429 183.631 177.533 192.89 177.533H194.681V173.464C192.585 173.065 187.558 172.573 182.385 173.514C179.785 173.986 177.529 176.018 175.753 178.434C173.984 180.841 172.731 183.576 172.122 185.354L172.051 185.562H163.753Z" fill="white" stroke="#6F6464" stroke-width="0.617603"/>
<path d="M58.6748 185.562L58.7188 185.548L78.623 179.424L82.0557 182.57C80.9619 186.316 79.025 191.872 75.0732 196.782H75.0723C73.0578 199.055 70.0528 202.773 67.5801 206.545C66.3439 208.431 65.2362 210.338 64.4521 212.089C63.6753 213.824 63.2002 215.442 63.2607 216.749L62.6426 232.797H62.6416V232.809C62.6416 233.743 62.2881 234.421 61.6895 234.874C61.0789 235.336 60.1819 235.588 59.0684 235.588H45.041V201.983C45.8381 199.925 46.2763 197.482 46.2764 195.135C46.2764 185.429 38.7974 177.533 29.5391 177.533H27.748V173.464C29.8435 173.065 34.8707 172.573 40.0449 173.514C42.6449 173.986 44.9002 176.018 46.6758 178.434C48.4451 180.841 49.6982 183.576 50.3076 185.354L50.3789 185.562H58.6748Z" fill="white" stroke="#6F6464" stroke-width="0.617603"/>
<path d="M144.627 116.959C144.578 117.085 144.627 117.234 144.756 117.312L148.687 119.671C150.606 116.421 153.646 111.607 156.735 107.384C158.323 105.213 159.928 103.193 161.402 101.62C162.865 100.06 164.238 98.8952 165.366 98.4971L165.416 98.4795H194.808V87.0547H192.708C183.45 87.0547 175.971 79.1589 175.971 69.4531C175.971 65.6433 177.424 62.0328 179.365 59.168V42.1162L172.223 44.9736C169.843 55.9542 165.153 79.101 164.54 83.3916L164.534 83.4326L164.518 83.4697C163.581 85.6549 162.093 88.1433 161.1 89.6914C158.081 94.3967 154.511 99.8182 151.416 104.771C148.317 109.729 145.716 114.185 144.627 116.959Z" fill="white" stroke="#6F6464" stroke-width="0.617603"/>
<path d="M77.623 117.266C77.6724 117.393 77.6229 117.543 77.4941 117.62L73.5615 119.98C71.6419 116.731 68.601 111.917 65.5117 107.693C63.9244 105.523 62.3203 103.503 60.8457 101.93C59.3834 100.37 58.0087 99.2047 56.8809 98.8066L56.8311 98.7891H27.749V87.3633H29.54C38.7983 87.3632 46.2773 79.4677 46.2773 69.7617C46.2773 65.9528 44.8234 62.344 42.8828 59.4795V41.832L49.7168 44.9648C52.0995 55.9497 57.0953 79.4113 57.708 83.7012L57.7178 83.7705L57.7568 83.8291C60.2253 87.5313 60.175 87.5159 61.7686 90C64.7833 94.6994 68.2093 100.124 71.1523 105.073C74.0994 110.029 76.5491 114.488 77.623 117.266Z" fill="white" stroke="#6F6464" stroke-width="0.617603"/>
<path d="M142.28 116.714C140.803 120.008 138.301 129.799 138.301 144.182V176.915C138.301 179.246 138.955 184.308 142.205 190.405L141.17 192.417C133.935 195.266 112.226 199.225 82.5801 192.386L80.3896 189.754C83.3456 183.949 83.9526 179.162 83.9531 176.915V144.182C83.9531 129.838 81.4649 120.06 79.9863 116.74L82.8711 112.99L139.667 112.069L142.28 116.714Z" fill="white" stroke="#6F6464" stroke-width="0.617603"/>
<path d="M27.4736 236.188V236.203C27.4736 238.036 29.2223 239.6 31.4854 239.601H41.3672C42.522 239.601 43.4537 239.348 44.0879 238.884C44.7092 238.429 45.0732 237.752 45.0732 236.821V236.82L45.1045 201.783C40.4998 209.047 35.1612 211.81 31.4824 212.116L31.4814 212.115L26.2217 212.7L27.4736 236.188Z" fill="white" stroke="#6F6464" stroke-width="0.617603"/>
<path d="M195.151 235.878V235.895C195.151 237.728 193.403 239.291 191.14 239.291H181.258C180.103 239.291 179.171 239.038 178.537 238.574C177.955 238.148 177.598 237.526 177.556 236.684L177.552 236.512L177.521 202.081C179.78 205.572 182.442 207.974 184.861 209.55C187.481 211.256 189.83 212.007 191.079 212.115V212.116H191.089L196.402 212.407L195.151 235.878Z" fill="white" stroke="#6F6464" stroke-width="0.617603"/>
<path d="M179.371 60.4727C181.033 58.254 184.781 53.8937 190.116 52.7822L190.143 52.7773L190.169 52.7764L199.442 52.4775V35.627C196.549 33.1845 192.189 31.7774 186.898 31.7773C184.576 31.7773 182.199 31.8528 180.275 32.332L179.371 41.9863V60.4727Z" fill="white" stroke="#6F6464" stroke-width="0.617603"/>
<path d="M42.8789 60.4727C41.2174 58.254 37.4686 53.8937 32.1338 52.7822L32.1074 52.7773L32.0811 52.7764L22.8076 52.4775V35.627C25.7011 33.1845 30.0611 31.7774 35.3516 31.7773C37.6736 31.7773 40.0508 31.8528 41.9746 32.332L42.8789 41.9863V60.4727Z" fill="white" stroke="#6F6464" stroke-width="0.617603"/>
<path d="M148.288 228.884C148.266 230.222 148.27 231.969 147.75 233.435C147.472 234.217 147.051 234.898 146.412 235.384C145.776 235.868 144.896 236.18 143.662 236.18H78.8945C77.6604 236.18 76.78 235.867 76.1436 235.383C75.5048 234.897 75.0833 234.217 74.8057 233.435C74.2858 231.969 74.2911 230.221 74.2695 228.883L148.288 228.884Z" fill="white" stroke="#6F6464" stroke-width="0.617603"/>
<path d="M148.299 227.915C148.241 230.089 146.227 231.883 143.688 231.883H79.1836C76.644 231.883 74.6302 230.088 74.5732 227.914L74.0791 209.032L148.793 209.277L148.299 227.915Z" fill="white" stroke="#6F6464" stroke-width="0.617603"/>
<path d="M71.6377 86.7451L76.1279 47.8564C76.9018 41.157 82.5753 36.1016 89.3193 36.1016H133.186C140.021 36.1018 145.737 41.2823 146.394 48.085C147.704 61.6629 149.673 82.2254 150.012 86.7451H71.6377Z" fill="white" stroke="#6F6464" stroke-width="0.617603"/>
<path d="M150.625 239.623L150.444 247.901C150.433 248.405 150.022 248.807 149.519 248.808H130.529C129.752 248.807 129.251 247.845 129.715 247.149C131.504 244.47 132.866 241.427 133.636 239.316C133.776 238.932 134.135 238.676 134.533 238.676H149.698C150.218 238.676 150.636 239.104 150.625 239.623Z" fill="white" stroke="#6F6464" stroke-width="0.617603"/>
<path d="M151.336 256.454C152.485 256.787 152.953 258.058 152.701 259.391L151.228 267.181C151.135 267.668 151.125 268.162 151.119 268.629C151.113 269.104 151.111 269.55 151.046 269.985C150.825 271.453 149.561 272.642 147.957 272.643H74.2197C72.4583 272.643 71.0668 271.283 70.9219 269.627C70.8936 269.303 70.896 268.976 70.8945 268.628C70.8931 268.286 70.8875 267.926 70.8389 267.566L69.6113 258.482C69.5566 258.077 69.5619 257.669 69.6602 257.329C69.7567 256.996 69.9371 256.741 70.2305 256.597C70.812 256.31 71.4952 256.221 71.8623 256.273L72.2148 256.324V251.953H150.033V256.276H150.342C150.567 256.276 150.926 256.335 151.336 256.454Z" fill="white" stroke="#6F6464" stroke-width="0.617603"/>
<path d="M67.9824 24.7588C67.9586 24.9434 68.102 25.1072 68.2881 25.1074H154.705C154.753 25.1074 154.779 25.0968 154.793 25.0889C154.807 25.0809 154.821 25.0681 154.834 25.0449C154.864 24.9925 154.886 24.8904 154.862 24.748L152.786 12.1855C152.417 9.94934 150.483 8.30877 148.217 8.30859H74.1807C71.8521 8.30859 69.8856 10.0374 69.5869 12.3467L67.9824 24.7588Z" fill="white" stroke="#6F6464" stroke-width="0.617603"/>
<path d="M72.2148 239.354V248.249C72.2148 248.761 72.63 249.176 73.1416 249.176H92.3877C93.1288 249.176 93.6039 248.32 93.2031 247.655C91.2908 244.485 89.9802 241.273 89.1943 239.013C89.0603 238.627 88.7012 238.37 88.2998 238.371L73.1377 238.428C72.6276 238.43 72.2149 238.844 72.2148 239.354Z" fill="white" stroke="#6F6464" stroke-width="0.617603"/>
<path d="M142.316 180.403L162.753 188.029H172.702C173.925 185.73 175.572 182.522 178.831 179.877C182.132 177.197 187.058 175.116 194.812 175.062V142.625C186.943 142.32 169.703 142.035 161.197 143.25L161.196 143.249L142.316 146.296V180.403Z" fill="white" stroke="#6F6464" stroke-width="0.617603"/>
<path d="M142.316 146.29L161.104 143.26L161.109 143.259C169.67 142.036 186.939 142.323 194.812 142.627V96.3174C194.812 96.055 194.673 95.6015 194.187 95.207C193.701 94.8136 192.85 94.4648 191.416 94.4648C188.454 94.4648 174.129 94.6705 166.716 94.7734L166.698 94.7744L166.682 94.7725C166.264 94.7307 165.409 94.8463 163.947 95.8037C162.488 96.7596 160.452 98.538 157.683 101.769C151.691 108.759 143.856 123.279 142.316 138.911V146.29Z" fill="white" stroke="#6F6464" stroke-width="0.617603"/>
<path d="M79.9336 180.403L59.4971 188.029H49.5479C48.3254 185.73 46.6775 182.522 43.4189 179.877C40.1178 177.197 35.1919 175.116 27.4375 175.062V142.625C35.3068 142.32 52.5473 142.035 61.0527 143.25L61.0537 143.249L79.9336 146.296V180.403Z" fill="white" stroke="#6F6464" stroke-width="0.617603"/>
<path d="M79.9336 146.29L61.1455 143.26L61.1406 143.259C52.5803 142.036 35.3113 142.323 27.4375 142.627V96.3174C27.4377 96.055 27.5768 95.6015 28.0635 95.207C28.5491 94.8136 29.4001 94.4648 30.834 94.4648C33.7958 94.4648 48.1207 94.6705 55.5342 94.7734L55.5518 94.7744L55.5684 94.7725C55.9855 94.7307 56.8414 94.8463 58.3027 95.8037C59.7618 96.7596 61.7984 98.538 64.5674 101.769C70.5594 108.759 78.3944 123.279 79.9336 138.911V146.29Z" fill="white"/>
<path d="M79.9336 146.29L61.1455 143.26L61.1406 143.259C52.5803 142.036 35.3113 142.323 27.4375 142.627V96.3174C27.4377 96.055 27.5768 95.6015 28.0635 95.207C28.5491 94.8136 29.4001 94.4648 30.834 94.4648C33.7958 94.4648 48.1207 94.6705 55.5342 94.7734L55.5518 94.7744L55.5684 94.7725C55.9855 94.7307 56.8414 94.8463 58.3027 95.8037C59.7618 96.7596 61.7984 98.538 64.5674 101.769C70.5594 108.759 78.3944 123.279 79.9336 138.911V146.29Z" fill="#FFE0E0" fillOpacity="0.62"/>
<path d="M79.9336 146.29L61.1455 143.26L61.1406 143.259C52.5803 142.036 35.3113 142.323 27.4375 142.627V96.3174C27.4377 96.055 27.5768 95.6015 28.0635 95.207C28.5491 94.8136 29.4001 94.4648 30.834 94.4648C33.7958 94.4648 48.1207 94.6705 55.5342 94.7734L55.5518 94.7744L55.5684 94.7725C55.9855 94.7307 56.8414 94.8463 58.3027 95.8037C59.7618 96.7596 61.7984 98.538 64.5674 101.769C70.5594 108.759 78.3944 123.279 79.9336 138.911V146.29Z" stroke="#6F6464" stroke-width="0.617603"/>
<circle cx="195.427" cy="69.7604" r="15.1313" transform="rotate(90 195.427 69.7604)" fill="white" stroke="#6F6464" stroke-width="0.617603"/>
<circle cx="195.427" cy="195.135" r="15.1313" transform="rotate(90 195.427 195.135)" fill="white" stroke="#6F6464" stroke-width="0.617603"/>
<circle cx="15.4401" cy="15.4401" r="15.1313" transform="matrix(0 1 1 0 12 54.3203)" fill="white" stroke="#6F6464" stroke-width="0.617603"/>
<circle cx="15.4401" cy="15.4401" r="15.1313" transform="matrix(0 1 1 0 12 179.695)" fill="white" stroke="#6F6464" stroke-width="0.617603"/>
<path d="M123.177 77.79C127.21 77.6892 138.25 79.3018 149.986 86.5791L142.088 116.046C134.097 114.916 110.942 113.403 79.5508 116.061L71.6436 86.5566C75.394 83.7162 85.9317 78.2104 99.6572 77.8057L100.323 77.79H123.177Z" fill="white" stroke="#6F6464" stroke-width="0.617603"/>
<path d="M148.71 209.133C137.523 212.498 107.424 217.072 73.8242 209.106C73.8657 208.928 73.9238 208.676 73.998 208.365C74.1532 207.716 74.3749 206.809 74.6377 205.781C75.1639 203.723 75.8561 201.185 76.5244 199.248C77.1812 197.344 78.1809 194.961 79.0186 193.048C79.4369 192.093 79.8134 191.256 80.0859 190.659C80.2222 190.361 80.3322 190.122 80.4082 189.958C80.409 189.956 80.4103 189.955 80.4111 189.953C91.3573 193.602 103.794 194.59 114.996 194.245C126.118 193.902 136.045 192.244 142.121 190.564L145.422 199.868L148.71 209.133Z" fill="white" stroke="#6F6464" stroke-width="0.617603"/>
<path d="M194.795 177.843H198.827V87.0547H194.795V177.843Z" fill="white" stroke="#6F6464" stroke-width="0.617603"/>
<path d="M27.4551 177.843H23.4229V87.0547H27.4551V177.843Z" fill="white" stroke="#6F6464" stroke-width="0.617603"/>
<path d="M161.771 139.915L144.163 143.497V138.025C145.181 130.109 149.598 110.877 162.676 98.8818L161.771 139.915Z" fill="white" stroke="#6F6464" stroke-width="0.617603"/>
<path d="M195.43 80.8783C189.29 80.8783 184.313 75.9011 184.313 69.7614C184.313 63.6217 189.29 58.6445 195.43 58.6445C201.57 58.6445 206.547 63.6217 206.547 69.7614C206.547 75.9011 201.57 80.8783 195.43 80.8783Z" fill="white"/>
<path d="M205.929 67.291L199.361 69.1675C198.764 69.3382 198.764 70.1846 199.361 70.3552L205.929 72.2318M184.931 67.291L191.499 69.1675C192.096 69.3382 192.096 70.1846 191.499 70.3552L184.931 72.2318M198.537 59.434L196.878 66.0604C196.728 66.6629 197.461 67.0861 197.907 66.6542L202.816 61.9044M188.038 77.6193L192.947 72.8695C193.394 72.4376 194.127 72.8608 193.976 73.4633L192.317 80.0897M188.038 61.9044L192.947 66.6542C193.394 67.0861 194.127 66.6629 193.976 66.0604L192.317 59.434M198.537 80.0897L196.878 73.4633C196.728 72.8608 197.461 72.4376 197.907 72.8695L202.816 77.6193M195.43 80.8783C189.29 80.8783 184.313 75.9011 184.313 69.7614C184.313 63.6217 189.29 58.6445 195.43 58.6445C201.57 58.6445 206.547 63.6217 206.547 69.7614C206.547 75.9011 201.57 80.8783 195.43 80.8783Z" stroke="#6F6464" stroke-width="0.617603"/>
<path d="M195.43 206.249C189.29 206.249 184.313 201.272 184.313 195.132C184.313 188.993 189.29 184.016 195.43 184.016C201.57 184.016 206.547 188.993 206.547 195.132C206.547 201.272 201.57 206.249 195.43 206.249Z" fill="white"/>
<path d="M205.929 192.662L199.361 194.539C198.764 194.709 198.764 195.556 199.361 195.726L205.929 197.603M184.931 192.662L191.499 194.539C192.096 194.709 192.096 195.556 191.499 195.726L184.931 197.603M198.537 184.805L196.878 191.431C196.728 192.034 197.461 192.457 197.907 192.025L202.816 187.276M188.038 202.99L192.947 198.241C193.394 197.809 194.127 198.232 193.976 198.834L192.317 205.461M188.038 187.276L192.947 192.025C193.394 192.457 194.127 192.034 193.976 191.431L192.317 184.805M198.537 205.461L196.878 198.834C196.728 198.232 197.461 197.809 197.907 198.241L202.816 202.99M195.43 206.249C189.29 206.249 184.313 201.272 184.313 195.132C184.313 188.993 189.29 184.016 195.43 184.016C201.57 184.016 206.547 188.993 206.547 195.132C206.547 201.272 201.57 206.249 195.43 206.249Z" stroke="#6F6464" stroke-width="0.617603"/>
<path d="M175.973 69.7617C175.973 78.1856 181.787 85.1554 189.396 86.5068C182.675 84.2149 177.826 77.5759 177.826 69.7617C177.826 61.9473 182.674 55.3064 189.396 53.0146C181.787 54.366 175.973 61.3377 175.973 69.7617Z" fill="white" stroke="#6F6464" stroke-width="0.617603"/>
<path d="M175.973 195.133C175.973 203.557 181.787 210.526 189.396 211.878C182.675 209.586 177.826 202.947 177.826 195.133C177.826 187.318 182.674 180.677 189.396 178.386C181.787 179.737 175.973 186.709 175.973 195.133Z" fill="white" stroke="#6F6464" stroke-width="0.617603"/>
<path d="M161.152 185.736L144.164 179.479V148.484L161.455 147.291L161.152 185.736Z" fill="white" stroke="#6F6464" stroke-width="0.617603"/>
<path d="M169.176 133.375C169.176 134.894 169.039 136.26 168.821 137.238C168.712 137.73 168.586 138.106 168.457 138.353C168.392 138.476 168.334 138.551 168.289 138.593C168.27 138.611 168.256 138.619 168.249 138.622C168.242 138.618 168.228 138.61 168.209 138.593C168.164 138.551 168.107 138.476 168.042 138.353C167.913 138.106 167.786 137.73 167.677 137.238C167.459 136.26 167.323 134.894 167.323 133.375C167.323 131.856 167.459 130.49 167.677 129.512C167.786 129.02 167.913 128.643 168.042 128.396C168.107 128.273 168.164 128.197 168.209 128.156C168.228 128.138 168.242 128.13 168.249 128.127C168.256 128.13 168.27 128.138 168.289 128.156C168.334 128.197 168.392 128.273 168.457 128.396C168.586 128.643 168.712 129.02 168.821 129.512C169.039 130.49 169.176 131.856 169.176 133.375Z" fill="white" stroke="#6F6464" stroke-width="0.617603"/>
<path d="M99.8786 80.2379L122.912 77.817C123.116 77.7959 123.395 77.9897 123.437 78.3834C123.478 78.7769 123.245 79.0238 123.041 79.0456L100.008 81.4665C99.8034 81.4879 99.5234 81.2949 99.4819 80.9011C99.4405 80.5071 99.6742 80.2594 99.8786 80.2379Z" fill="white" stroke="#6F6464" stroke-width="0.617603"/>
<path d="M99.8786 211.851L122.912 209.43C123.116 209.409 123.395 209.603 123.437 209.997C123.478 210.39 123.245 210.637 123.041 210.659L100.008 213.08C99.8034 213.101 99.5234 212.908 99.4819 212.514C99.4405 212.12 99.6742 211.873 99.8786 211.851Z" fill="white" stroke="#6F6464" stroke-width="0.617603"/>
<path d="M133.355 129.978V176.298C133.355 176.678 133.262 177.007 133.128 177.23C132.99 177.46 132.842 177.533 132.737 177.533C132.633 177.533 132.485 177.46 132.348 177.23C132.213 177.007 132.12 176.678 132.12 176.298V129.978C132.12 129.598 132.213 129.269 132.348 129.045C132.485 128.815 132.633 128.742 132.737 128.742C132.842 128.742 132.99 128.815 133.128 129.045C133.262 129.269 133.355 129.598 133.355 129.978Z" fill="white" stroke="#6F6464" stroke-width="0.617603"/>
<path d="M90.1289 129.978V176.298C90.1289 176.678 90.0356 177.007 89.9014 177.23C89.7634 177.46 89.6155 177.533 89.5107 177.533C89.406 177.533 89.2589 177.46 89.1211 177.23C88.9868 177.007 88.8936 176.678 88.8936 176.298V129.978C88.8936 129.598 88.9868 129.269 89.1211 129.045C89.2589 128.815 89.406 128.742 89.5107 128.742C89.6155 128.742 89.7634 128.815 89.9014 129.045C90.0356 129.269 90.1289 129.598 90.1289 129.978Z" fill="white" stroke="#6F6464" stroke-width="0.617603"/>
<path d="M46.2773 97.7061V139.395C46.2773 139.726 46.1869 140.011 46.0576 140.205C45.9268 140.401 45.7796 140.475 45.6592 140.475C45.5388 140.474 45.3924 140.401 45.2617 140.205C45.1324 140.011 45.042 139.726 45.042 139.395V97.7061C45.042 97.3748 45.1323 97.0886 45.2617 96.8945C45.3924 96.6987 45.5389 96.6251 45.6592 96.625C45.7796 96.625 45.9268 96.6984 46.0576 96.8945C46.187 97.0886 46.2773 97.3748 46.2773 97.7061ZM46.2773 145.59V178.593C46.2773 179.082 45.9527 179.384 45.6592 179.384C45.3658 179.384 45.042 179.081 45.042 178.593V145.59C45.042 145.101 45.3658 144.798 45.6592 144.798C45.9527 144.798 46.2773 145.101 46.2773 145.59Z" fill="white" stroke="#6F6464" stroke-width="0.617603"/>
<path d="M177.207 97.7061V139.395C177.207 139.726 177.117 140.011 176.987 140.205C176.856 140.401 176.709 140.475 176.589 140.475C176.468 140.474 176.322 140.401 176.191 140.205C176.062 140.011 175.972 139.726 175.972 139.395V97.7061C175.972 97.3748 176.062 97.0886 176.191 96.8945C176.322 96.6987 176.469 96.6251 176.589 96.625C176.709 96.625 176.856 96.6984 176.987 96.8945C177.117 97.0886 177.207 97.3748 177.207 97.7061ZM177.207 145.59V178.593C177.207 179.082 176.882 179.384 176.589 179.384C176.295 179.384 175.972 179.081 175.972 178.593V145.59C175.972 145.101 176.295 144.798 176.589 144.798C176.882 144.798 177.207 145.101 177.207 145.59Z" fill="white" stroke="#6F6464" stroke-width="0.617603"/>
<path d="M169.176 179.695C169.176 181.215 169.039 182.581 168.821 183.559C168.712 184.05 168.586 184.427 168.457 184.673C168.392 184.796 168.334 184.872 168.289 184.913C168.27 184.931 168.256 184.939 168.249 184.942C168.242 184.939 168.228 184.931 168.209 184.913C168.164 184.872 168.107 184.796 168.042 184.673C167.913 184.427 167.786 184.05 167.677 183.559C167.459 182.581 167.323 181.215 167.323 179.695C167.323 178.176 167.459 176.81 167.677 175.832C167.786 175.341 167.913 174.963 168.042 174.717C168.107 174.594 168.164 174.518 168.209 174.477C168.228 174.459 168.242 174.451 168.249 174.447C168.256 174.451 168.27 174.459 168.289 174.477C168.334 174.518 168.392 174.593 168.457 174.717C168.586 174.963 168.712 175.341 168.821 175.832C169.039 176.81 169.176 178.176 169.176 179.695Z" fill="white" stroke="#6F6464" stroke-width="0.617603"/>
<path d="M161.152 200.366C161.152 202.113 159.267 203.038 157.981 201.948C153.567 198.204 147.686 192.056 144.44 184.879L161.152 191.33V200.366Z" fill="white" stroke="#6F6464" stroke-width="0.617603"/>
<path d="M60.4717 139.915L78.0791 143.497V138.025C77.0608 130.109 72.6444 110.877 59.5664 98.8818L60.4717 139.915Z" fill="white" stroke="#6F6464" stroke-width="0.617603"/>
<path d="M27.4378 80.8783C21.2982 80.8783 16.321 75.9011 16.321 69.7614C16.321 63.6217 21.2982 58.6445 27.4378 58.6445C33.5775 58.6445 38.5547 63.6217 38.5547 69.7614C38.5547 75.9011 33.5775 80.8783 27.4378 80.8783Z" fill="white"/>
<path d="M37.9371 67.291L31.3691 69.1675C30.7718 69.3382 30.7718 70.1846 31.3691 70.3552L37.9371 72.2318M16.9386 67.291L23.5066 69.1675C24.1038 69.3382 24.1038 70.1846 23.5066 70.3552L16.9386 72.2318M30.5451 59.434L28.8863 66.0604C28.7355 66.6629 29.4685 67.0861 29.9149 66.6542L34.824 61.9044M20.0459 77.6193L24.955 72.8695C25.4015 72.4376 26.1345 72.8608 25.9836 73.4633L24.3248 80.0897M20.0459 61.9044L24.955 66.6542C25.4015 67.0861 26.1345 66.6629 25.9836 66.0604L24.3248 59.434M30.5451 80.0897L28.8863 73.4633C28.7355 72.8608 29.4685 72.4376 29.9149 72.8695L34.824 77.6193M27.4378 80.8783C21.2982 80.8783 16.321 75.9011 16.321 69.7614C16.321 63.6217 21.2982 58.6445 27.4378 58.6445C33.5775 58.6445 38.5547 63.6217 38.5547 69.7614C38.5547 75.9011 33.5775 80.8783 27.4378 80.8783Z" stroke="#6F6464" stroke-width="0.617603"/>
<path d="M64.8242 107.132C65.3862 107.915 65.2979 108.934 64.583 109.387C63.0392 110.365 61.2254 110.404 60.1367 109.875C59.9446 109.782 59.8171 109.555 59.8105 109.267L59.6299 101.279C61.6019 103.059 63.3241 105.043 64.8242 107.132Z" fill="white" stroke="#6F6464" stroke-width="0.617603"/>
<path d="M157.426 107.132C156.864 107.915 156.952 108.934 157.667 109.387C159.211 110.365 161.025 110.404 162.113 109.875C162.305 109.782 162.433 109.555 162.439 109.267L162.62 101.279C160.648 103.059 158.926 105.043 157.426 107.132Z" fill="white" stroke="#6F6464" stroke-width="0.617603"/>
<path d="M27.4378 206.249C21.2982 206.249 16.321 201.272 16.321 195.132C16.321 188.993 21.2982 184.016 27.4378 184.016C33.5775 184.016 38.5547 188.993 38.5547 195.132C38.5547 201.272 33.5775 206.249 27.4378 206.249Z" fill="white"/>
<path d="M37.9371 192.662L31.3691 194.539C30.7718 194.709 30.7718 195.556 31.3691 195.726L37.9371 197.603M16.9386 192.662L23.5066 194.539C24.1038 194.709 24.1038 195.556 23.5066 195.726L16.9386 197.603M30.5451 184.805L28.8863 191.431C28.7355 192.034 29.4685 192.457 29.9149 192.025L34.824 187.276M20.0459 202.99L24.955 198.241C25.4015 197.809 26.1345 198.232 25.9836 198.834L24.3248 205.461M20.0459 187.276L24.955 192.025C25.4015 192.457 26.1345 192.034 25.9836 191.431L24.3248 184.805M30.5451 205.461L28.8863 198.834C28.7355 198.232 29.4685 197.809 29.9149 198.241L34.824 202.99M27.4378 206.249C21.2982 206.249 16.321 201.272 16.321 195.132C16.321 188.993 21.2982 184.016 27.4378 184.016C33.5775 184.016 38.5547 188.993 38.5547 195.132C38.5547 201.272 33.5775 206.249 27.4378 206.249Z" stroke="#6F6464" stroke-width="0.617603"/>
<path d="M46.8945 69.7617C46.8945 78.1808 40.7681 85.1673 32.7305 86.5107C39.7984 84.2245 44.9101 77.5909 44.9102 69.7617C44.9102 61.9324 39.7985 55.2979 32.7305 53.0117C40.7682 54.3551 46.8945 61.3425 46.8945 69.7617Z" fill="white" stroke="#6F6464" stroke-width="0.617603"/>
<path d="M47.5117 195.133C47.5117 203.55 41.2289 210.544 32.9766 211.884C40.2183 209.6 45.4629 202.969 45.4629 195.133C45.4629 187.298 40.2203 180.666 32.9805 178.382C41.231 179.723 47.5117 186.717 47.5117 195.133Z" fill="white" stroke="#6F6464" stroke-width="0.617603"/>
<path d="M61.0977 185.736L78.0859 179.479V148.484L60.7949 147.291L61.0977 185.736Z" fill="white" stroke="#6F6464" stroke-width="0.617603"/>
<path d="M53.0664 133.375C53.0664 134.894 53.2036 136.26 53.4209 137.238C53.5301 137.73 53.6558 138.106 53.7852 138.353C53.8499 138.476 53.9084 138.551 53.9531 138.593C53.9725 138.611 53.986 138.619 53.9932 138.622C54.0004 138.618 54.0141 138.61 54.0332 138.593C54.0779 138.551 54.1355 138.476 54.2002 138.353C54.3296 138.106 54.4562 137.73 54.5654 137.238C54.7828 136.26 54.9189 134.894 54.9189 133.375C54.9189 131.856 54.7827 130.49 54.5654 129.512C54.4562 129.02 54.3296 128.643 54.2002 128.396C54.1355 128.273 54.0779 128.197 54.0332 128.156C54.0138 128.138 54.0003 128.13 53.9932 128.127C53.9861 128.13 53.9727 128.138 53.9531 128.156C53.9084 128.197 53.85 128.273 53.7852 128.396C53.6557 128.643 53.5301 129.02 53.4209 129.512C53.2036 130.49 53.0664 131.856 53.0664 133.375Z" fill="white" stroke="#6F6464" stroke-width="0.617603"/>
<path d="M53.0664 179.695C53.0664 181.215 53.2036 182.581 53.4209 183.559C53.5301 184.05 53.6558 184.427 53.7852 184.673C53.8499 184.796 53.9084 184.872 53.9531 184.913C53.9725 184.931 53.986 184.939 53.9932 184.942C54.0004 184.939 54.0141 184.931 54.0332 184.913C54.0779 184.872 54.1355 184.796 54.2002 184.673C54.3296 184.427 54.4562 184.05 54.5654 183.559C54.7828 182.581 54.9189 181.215 54.9189 179.695C54.9189 178.176 54.7827 176.81 54.5654 175.832C54.4562 175.341 54.3296 174.963 54.2002 174.717C54.1355 174.594 54.0779 174.518 54.0332 174.477C54.0138 174.459 54.0003 174.451 53.9932 174.447C53.9861 174.451 53.9727 174.459 53.9531 174.477C53.9084 174.518 53.85 174.593 53.7852 174.717C53.6557 174.963 53.5301 175.341 53.4209 175.832C53.2036 176.81 53.0664 178.176 53.0664 179.695Z" fill="white" stroke="#6F6464" stroke-width="0.617603"/>
<path d="M61.0977 200.366C61.0979 202.113 62.9829 203.038 64.2686 201.948C68.6831 198.204 74.5638 192.056 77.8096 184.879L61.0977 191.33V200.366Z" fill="white" stroke="#6F6464" stroke-width="0.617603"/>
<path d="M156.649 33.418C156.807 34.0244 156.352 34.6188 155.736 34.6191H138.384C136.021 31.7757 135.909 30.1415 136.27 29.2461C136.611 28.4002 137.406 28.0696 137.687 27.9492H155.37C155.39 28.0525 155.414 28.1824 155.445 28.333C155.519 28.6868 155.624 29.164 155.749 29.7109C155.999 30.8054 156.328 32.1842 156.649 33.418Z" fill="white" stroke="#6F6464" stroke-width="0.617603"/>
<path d="M66.46 33.418C66.3025 34.0244 66.7575 34.6188 67.373 34.6191H84.7256C87.0885 31.7757 87.2007 30.1415 86.8398 29.2461C86.4988 28.4002 85.7032 28.0696 85.4229 27.9492H67.7393C67.7196 28.0525 67.6955 28.1824 67.6641 28.333C67.5902 28.6868 67.4851 29.164 67.3604 29.7109C67.1108 30.8054 66.7809 32.1842 66.46 33.418Z" fill="white" stroke="#6F6464" stroke-width="0.617603"/>
<path d="M94.4678 32.3955C94.6469 29.2276 95.2525 24.656 96.5137 20.835C97.1664 18.8571 97.9876 17.1018 98.999 15.8467C100.008 14.5948 101.183 13.8672 102.554 13.8672H120.91C121.858 14.0083 123.48 15.0465 125.003 17.9199C126.503 20.7509 127.878 25.3174 128.394 32.3955H94.4678Z" fill="white" stroke="#6F6464" stroke-width="0.617603"/>
<path d="M94.502 249.839C94.7017 251.023 95.2018 252.646 95.9297 254.018C96.3304 254.772 96.7906 255.435 97.293 255.905C97.7954 256.375 98.3169 256.633 98.8477 256.633H123.391C124.398 256.578 125.397 256.176 126.272 255.113C127.119 254.086 127.86 252.427 128.355 249.839H94.502Z" fill="white" stroke="#6F6464" stroke-width="0.617603"/>
<path d="M119.52 194.259C117.355 194.267 114.17 194.336 111.179 194.372C108.321 194.407 105.624 194.409 104.203 194.292C104.274 194.758 104.376 195.307 104.55 195.776C104.784 196.408 105.082 196.727 105.453 196.727H117.987C118.207 196.716 118.372 196.672 118.508 196.595C118.643 196.518 118.77 196.395 118.894 196.193C119.122 195.82 119.316 195.218 119.52 194.259Z" fill="white" stroke="#6F6464" stroke-width="0.617603"/>
<path d="M121.004 262.454V269.248C121.004 269.759 120.589 270.174 120.077 270.174H102.784C102.273 270.174 101.859 269.759 101.858 269.248V262.454C101.858 261.943 102.273 261.527 102.784 261.527H120.077C120.589 261.527 121.004 261.942 121.004 262.454Z" fill="white" stroke="#6F6464" stroke-width="0.617603"/>
<path d="M58.6289 193.899V199.458C58.6287 199.97 58.2137 200.384 57.7021 200.384H52.7617C52.2502 200.384 51.8351 199.97 51.835 199.458V193.899C51.835 193.388 52.2501 192.973 52.7617 192.973H57.7021C58.2138 192.973 58.6289 193.388 58.6289 193.899Z" fill="white" stroke="#6F6464" stroke-width="0.617603"/>
<path d="M113.217 40.0771C113.578 40.4389 113.578 41.025 113.217 41.3867L111.47 43.1338C111.108 43.4955 110.522 43.4955 110.16 43.1338L108.413 41.3867C108.051 41.0249 108.051 40.4389 108.413 40.0771L110.16 38.3301C110.522 37.9686 111.108 37.9685 111.47 38.3301L113.217 40.0771Z" fill="white" stroke="#6F6464" stroke-width="0.617603"/>
<path d="M113.834 241.206C114.196 241.568 114.195 242.154 113.834 242.516L112.087 244.263C111.725 244.624 111.139 244.624 110.777 244.263L109.03 242.516C108.669 242.154 108.669 241.568 109.03 241.206L110.777 239.459C111.139 239.097 111.725 239.097 112.087 239.459L113.834 241.206Z" fill="white" stroke="#6F6464" stroke-width="0.617603"/>
<circle cx="75.9239" cy="263.381" r="2.47041" transform="rotate(90 75.9239 263.381)" fill="white" stroke="#6F6464" stroke-width="0.617603"/>
<circle cx="75.6114" cy="16.3378" r="2.47041" transform="rotate(90 75.6114 16.3378)" fill="white" stroke="#6F6464" stroke-width="0.617603"/>
<circle cx="147.252" cy="263.381" r="2.47041" transform="rotate(90 147.252 263.381)" fill="white" stroke="#6F6464" stroke-width="0.617603"/>
<circle cx="147.252" cy="16.3378" r="2.47041" transform="rotate(90 147.252 16.3378)" fill="white" stroke="#6F6464" stroke-width="0.617603"/>
<path d="M111.302 188.65L111.391 188.495L116.017 180.465C116.037 180.43 116.069 180.363 116.1 180.3C116.134 180.229 116.177 180.141 116.229 180.042C116.331 179.843 116.463 179.606 116.61 179.393C116.762 179.173 116.914 179.006 117.048 178.92C117.112 178.879 117.158 178.867 117.188 178.864C117.212 178.862 117.241 178.866 117.28 178.893C117.339 178.932 117.395 179.016 117.395 179.22C117.394 179.422 117.336 179.678 117.243 179.949C117.06 180.488 116.773 180.998 116.723 181.085L116.718 181.093L112.699 189.13L112.628 189.273L112.704 189.414C112.77 189.536 112.84 189.727 112.893 189.937C112.946 190.146 112.976 190.352 112.976 190.503C112.976 191.526 112.146 192.355 111.123 192.355C110.1 192.355 109.271 191.526 109.271 190.503C109.271 189.48 110.1 188.65 111.123 188.65H111.302Z" fill="white" stroke="#6F6464" stroke-width="0.617603"/>
<path d="M162.408 235.587C162.491 234.474 162.748 231.342 162.891 229.64C162.931 229.161 163.33 228.793 163.812 228.793H170.097C170.573 228.793 170.971 229.153 171.019 229.627L171.614 235.587H162.408ZM179.385 42.0605L172.264 44.9092V37.127C173.777 35.0031 176.913 33.1713 180.255 32.1973L179.385 42.0605Z" fill="white" stroke="#6F6464" stroke-width="0.617603"/>
<path d="M49.9814 44.9844L42.8613 41.7598L41.9941 32.5039C43.6136 32.9652 45.1887 33.5688 46.5547 34.3125C48.0095 35.1046 49.2097 36.0464 49.9814 37.126V44.9844ZM59.2461 230.814V235.586H51.2168V233.375C51.2168 232.744 51.2177 232.11 51.2178 231.633V230.824C51.221 230.347 51.2421 229.976 51.2871 229.688C51.3323 229.399 51.3986 229.215 51.4756 229.094C51.6047 228.891 51.815 228.793 52.3428 228.793H58.2676C58.5314 228.793 58.7029 228.818 58.8203 228.864C58.9236 228.905 58.9937 228.965 59.0508 229.072C59.1147 229.192 59.1663 229.377 59.1992 229.671C59.2319 229.962 59.2442 230.335 59.2461 230.814Z" fill="white" stroke="#6F6464" stroke-width="0.617603"/>
<g clip-path="url(#clip0_11400_56419)">
<rect x="34.5469" y="291.715" width="30.7544" height="8.20117" fill="#FFE0E0"/>
<rect x="65.3047" y="291.715" width="30.7544" height="8.20117" fill="#FFC2C2"/>
<rect x="96.0547" y="291.715" width="30.7544" height="8.20117" fill="#FFA3A3"/>
<rect x="126.812" y="291.715" width="30.7544" height="8.20117" fill="#FF8585"/>
<rect x="157.562" y="291.715" width="30.7544" height="8.20117" fill="#FF6666"/>
</g>
<path d="M86.4401 310.305H84.5658V304.515H86.4995C87.0668 304.515 87.554 304.631 87.9611 304.863C88.3682 305.092 88.6801 305.423 88.8969 305.855C89.1155 306.285 89.2248 306.8 89.2248 307.401C89.2248 308.004 89.1146 308.523 88.8941 308.956C88.6754 309.39 88.3588 309.723 87.9442 309.957C87.5295 310.189 87.0282 310.305 86.4401 310.305ZM85.4394 309.541H86.3921C86.8331 309.541 87.1997 309.458 87.4918 309.293C87.7839 309.125 88.0026 308.883 88.1477 308.566C88.2928 308.248 88.3654 307.859 88.3654 307.401C88.3654 306.947 88.2928 306.562 88.1477 306.245C88.0045 305.928 87.7905 305.688 87.506 305.524C87.2214 305.36 86.868 305.278 86.4458 305.278H85.4394V309.541ZM91.507 310.401C91.2318 310.401 90.983 310.35 90.7606 310.248C90.5382 310.144 90.362 309.995 90.232 309.799C90.1038 309.603 90.0397 309.362 90.0397 309.078C90.0397 308.833 90.0868 308.631 90.1811 308.473C90.2753 308.314 90.4025 308.189 90.5627 308.097C90.7229 308.004 90.902 307.935 91.0999 307.888C91.2978 307.84 91.4994 307.805 91.7049 307.78C91.965 307.75 92.1761 307.725 92.3382 307.707C92.5002 307.686 92.618 307.653 92.6915 307.608C92.765 307.562 92.8018 307.489 92.8018 307.387V307.367C92.8018 307.12 92.7321 306.929 92.5926 306.793C92.455 306.658 92.2496 306.59 91.9763 306.59C91.6917 306.59 91.4674 306.653 91.3034 306.779C91.1414 306.904 91.0292 307.042 90.967 307.195L90.1726 307.014C90.2668 306.75 90.4044 306.537 90.5854 306.375C90.7682 306.211 90.9783 306.092 91.2158 306.019C91.4533 305.943 91.703 305.906 91.965 305.906C92.1384 305.906 92.3221 305.926 92.5163 305.968C92.7123 306.008 92.8951 306.081 93.0647 306.188C93.2362 306.296 93.3766 306.449 93.4859 306.649C93.5953 306.847 93.6499 307.104 93.6499 307.421V310.305H92.8244V309.711H92.7905C92.7358 309.82 92.6538 309.928 92.5445 310.033C92.4352 310.139 92.2948 310.226 92.1233 310.296C91.9518 310.366 91.7463 310.401 91.507 310.401ZM91.6907 309.722C91.9245 309.722 92.1242 309.676 92.2901 309.584C92.4578 309.491 92.5851 309.371 92.6717 309.222C92.7603 309.071 92.8046 308.91 92.8046 308.738V308.179C92.7745 308.209 92.716 308.237 92.6293 308.264C92.5445 308.288 92.4475 308.31 92.3382 308.329C92.2288 308.346 92.1224 308.362 92.0187 308.377C91.915 308.39 91.8283 308.401 91.7586 308.411C91.5946 308.431 91.4448 308.466 91.3091 308.515C91.1753 308.564 91.0678 308.635 90.9868 308.727C90.9076 308.818 90.8681 308.938 90.8681 309.089C90.8681 309.298 90.9453 309.457 91.0999 309.564C91.2544 309.67 91.4514 309.722 91.6907 309.722ZM94.7758 310.305V305.962H95.5872V306.669H95.6409C95.7314 306.43 95.8793 306.243 96.0847 306.109C96.2902 305.974 96.5361 305.906 96.8226 305.906C97.1129 305.906 97.356 305.974 97.552 306.109C97.7499 306.245 97.896 306.432 97.9902 306.669H98.0354C98.1391 306.437 98.304 306.253 98.5302 306.115C98.7563 305.975 99.0259 305.906 99.3387 305.906C99.7326 305.906 100.054 306.029 100.303 306.276C100.553 306.523 100.679 306.895 100.679 307.393V310.305H99.8335V307.472C99.8335 307.178 99.7534 306.965 99.5932 306.833C99.433 306.701 99.2417 306.635 99.0193 306.635C98.7441 306.635 98.5302 306.72 98.3775 306.89C98.2249 307.057 98.1485 307.273 98.1485 307.537V310.305H97.3061V307.418C97.3061 307.183 97.2325 306.993 97.0855 306.85C96.9385 306.707 96.7472 306.635 96.5116 306.635C96.3514 306.635 96.2035 306.678 96.0678 306.762C95.934 306.845 95.8256 306.961 95.7427 307.11C95.6616 307.259 95.6211 307.431 95.6211 307.627V310.305H94.7758ZM103.075 310.401C102.8 310.401 102.551 310.35 102.329 310.248C102.107 310.144 101.93 309.995 101.8 309.799C101.672 309.603 101.608 309.362 101.608 309.078C101.608 308.833 101.655 308.631 101.75 308.473C101.844 308.314 101.971 308.189 102.131 308.097C102.291 308.004 102.47 307.935 102.668 307.888C102.866 307.84 103.068 307.805 103.273 307.78C103.533 307.75 103.745 307.725 103.907 307.707C104.069 307.686 104.186 307.653 104.26 307.608C104.333 307.562 104.37 307.489 104.37 307.387V307.367C104.37 307.12 104.301 306.929 104.161 306.793C104.023 306.658 103.818 306.59 103.545 306.59C103.26 306.59 103.036 306.653 102.872 306.779C102.71 306.904 102.598 307.042 102.535 307.195L101.741 307.014C101.835 306.75 101.973 306.537 102.154 306.375C102.337 306.211 102.547 306.092 102.784 306.019C103.022 305.943 103.271 305.906 103.533 305.906C103.707 305.906 103.891 305.926 104.085 305.968C104.281 306.008 104.464 306.081 104.633 306.188C104.805 306.296 104.945 306.449 105.054 306.649C105.164 306.847 105.218 307.104 105.218 307.421V310.305H104.393V309.711H104.359C104.304 309.82 104.222 309.928 104.113 310.033C104.004 310.139 103.863 310.226 103.692 310.296C103.52 310.366 103.315 310.401 103.075 310.401ZM103.259 309.722C103.493 309.722 103.693 309.676 103.859 309.584C104.026 309.491 104.153 309.371 104.24 309.222C104.329 309.071 104.373 308.91 104.373 308.738V308.179C104.343 308.209 104.284 308.237 104.198 308.264C104.113 308.288 104.016 308.31 103.907 308.329C103.797 308.346 103.691 308.362 103.587 308.377C103.483 308.39 103.397 308.401 103.327 308.411C103.163 308.431 103.013 308.466 102.878 308.515C102.744 308.564 102.636 308.635 102.555 308.727C102.476 308.818 102.437 308.938 102.437 309.089C102.437 309.298 102.514 309.457 102.668 309.564C102.823 309.67 103.02 309.722 103.259 309.722ZM108.165 312.024C107.82 312.024 107.523 311.978 107.274 311.888C107.027 311.797 106.826 311.678 106.669 311.529C106.513 311.38 106.396 311.217 106.319 311.04L107.045 310.74C107.096 310.823 107.164 310.911 107.249 311.003C107.336 311.097 107.452 311.177 107.599 311.243C107.748 311.309 107.94 311.342 108.173 311.342C108.494 311.342 108.759 311.264 108.968 311.108C109.177 310.953 109.282 310.706 109.282 310.367V309.513H109.228C109.177 309.605 109.103 309.708 109.007 309.821C108.913 309.934 108.783 310.032 108.617 310.115C108.451 310.198 108.236 310.24 107.97 310.24C107.627 310.24 107.318 310.16 107.043 309.999C106.769 309.837 106.553 309.599 106.392 309.284C106.234 308.967 106.155 308.578 106.155 308.117C106.155 307.655 106.233 307.259 106.389 306.929C106.548 306.599 106.765 306.347 107.04 306.171C107.315 305.994 107.627 305.906 107.975 305.906C108.245 305.906 108.463 305.951 108.629 306.041C108.794 306.13 108.923 306.234 109.016 306.352C109.11 306.471 109.183 306.576 109.234 306.666H109.296V305.962H110.124V310.401C110.124 310.774 110.037 311.08 109.864 311.32C109.691 311.559 109.456 311.736 109.16 311.851C108.866 311.966 108.534 312.024 108.165 312.024ZM108.156 309.539C108.4 309.539 108.605 309.482 108.773 309.369C108.942 309.254 109.071 309.09 109.157 308.877C109.246 308.662 109.29 308.405 109.29 308.105C109.29 307.813 109.247 307.556 109.16 307.333C109.073 307.111 108.946 306.938 108.778 306.813C108.611 306.687 108.403 306.624 108.156 306.624C107.902 306.624 107.69 306.69 107.52 306.822C107.351 306.952 107.223 307.129 107.136 307.353C107.051 307.577 107.009 307.828 107.009 308.105C107.009 308.39 107.052 308.64 107.139 308.854C107.225 309.069 107.354 309.237 107.523 309.358C107.695 309.478 107.906 309.539 108.156 309.539ZM113.129 310.392C112.701 310.392 112.333 310.301 112.024 310.118C111.717 309.933 111.479 309.674 111.311 309.341C111.146 309.005 111.063 308.612 111.063 308.162C111.063 307.717 111.146 307.325 111.311 306.986C111.479 306.646 111.713 306.382 112.013 306.191C112.314 306.001 112.667 305.906 113.07 305.906C113.315 305.906 113.552 305.946 113.782 306.027C114.012 306.108 114.219 306.236 114.401 306.409C114.584 306.582 114.728 306.808 114.834 307.085C114.94 307.36 114.992 307.694 114.992 308.088V308.388H111.54V307.755H114.164C114.164 307.532 114.119 307.335 114.028 307.164C113.938 306.99 113.811 306.854 113.647 306.754C113.485 306.654 113.294 306.604 113.076 306.604C112.838 306.604 112.631 306.662 112.454 306.779C112.278 306.894 112.143 307.045 112.046 307.232C111.952 307.416 111.905 307.617 111.905 307.834V308.329C111.905 308.619 111.956 308.866 112.058 309.069C112.161 309.273 112.306 309.428 112.49 309.536C112.675 309.641 112.891 309.694 113.138 309.694C113.298 309.694 113.444 309.671 113.576 309.626C113.708 309.579 113.822 309.509 113.918 309.417C114.014 309.325 114.088 309.211 114.139 309.075L114.939 309.219C114.875 309.455 114.76 309.661 114.594 309.838C114.43 310.013 114.223 310.15 113.975 310.248C113.728 310.344 113.446 310.392 113.129 310.392ZM121.263 306.036C121.233 305.768 121.108 305.561 120.89 305.414C120.671 305.265 120.396 305.19 120.064 305.19C119.827 305.19 119.621 305.228 119.448 305.304C119.274 305.377 119.14 305.479 119.044 305.609C118.949 305.737 118.902 305.883 118.902 306.047C118.902 306.185 118.934 306.303 118.998 306.403C119.064 306.503 119.15 306.587 119.256 306.655C119.363 306.721 119.478 306.776 119.6 306.822C119.723 306.865 119.841 306.901 119.954 306.929L120.519 307.076C120.704 307.121 120.893 307.183 121.088 307.26C121.282 307.337 121.462 307.439 121.627 307.565C121.793 307.692 121.927 307.848 122.029 308.035C122.133 308.221 122.184 308.444 122.184 308.705C122.184 309.032 122.1 309.324 121.93 309.578C121.762 309.833 121.518 310.033 121.198 310.18C120.879 310.327 120.494 310.401 120.041 310.401C119.608 310.401 119.233 310.332 118.916 310.194C118.6 310.057 118.352 309.862 118.173 309.609C117.994 309.355 117.895 309.053 117.876 308.705H118.752C118.769 308.914 118.837 309.088 118.956 309.228C119.077 309.365 119.23 309.468 119.417 309.536C119.605 309.602 119.812 309.635 120.036 309.635C120.283 309.635 120.502 309.596 120.695 309.519C120.889 309.44 121.041 309.33 121.153 309.191C121.264 309.049 121.319 308.885 121.319 308.696C121.319 308.525 121.27 308.384 121.172 308.275C121.076 308.166 120.945 308.075 120.779 308.003C120.615 307.932 120.43 307.869 120.222 307.814L119.538 307.627C119.075 307.501 118.707 307.316 118.436 307.07C118.166 306.825 118.031 306.501 118.031 306.098C118.031 305.764 118.122 305.473 118.303 305.224C118.484 304.976 118.729 304.782 119.038 304.645C119.347 304.505 119.696 304.436 120.084 304.436C120.476 304.436 120.822 304.504 121.121 304.642C121.423 304.78 121.66 304.969 121.834 305.21C122.007 305.45 122.098 305.725 122.105 306.036H121.263ZM124.99 310.392C124.569 310.392 124.207 310.297 123.904 310.107C123.602 309.915 123.371 309.65 123.209 309.312C123.046 308.975 122.965 308.589 122.965 308.153C122.965 307.712 123.048 307.323 123.214 306.986C123.38 306.646 123.614 306.382 123.915 306.191C124.217 306.001 124.572 305.906 124.981 305.906C125.311 305.906 125.605 305.967 125.863 306.09C126.121 306.21 126.33 306.38 126.488 306.598C126.648 306.817 126.743 307.072 126.773 307.365H125.951C125.906 307.161 125.802 306.986 125.64 306.839C125.48 306.692 125.265 306.618 124.995 306.618C124.76 306.618 124.553 306.68 124.376 306.805C124.201 306.927 124.064 307.103 123.966 307.331C123.868 307.557 123.819 307.824 123.819 308.133C123.819 308.45 123.867 308.723 123.963 308.953C124.059 309.183 124.195 309.361 124.37 309.488C124.548 309.614 124.756 309.677 124.995 309.677C125.155 309.677 125.301 309.648 125.431 309.589C125.563 309.529 125.673 309.443 125.761 309.332C125.852 309.221 125.915 309.087 125.951 308.931H126.773C126.743 309.212 126.652 309.462 126.499 309.683C126.347 309.903 126.142 310.077 125.886 310.203C125.631 310.329 125.333 310.392 124.99 310.392ZM128.941 310.401C128.666 310.401 128.417 310.35 128.195 310.248C127.972 310.144 127.796 309.995 127.666 309.799C127.538 309.603 127.474 309.362 127.474 309.078C127.474 308.833 127.521 308.631 127.615 308.473C127.709 308.314 127.837 308.189 127.997 308.097C128.157 308.004 128.336 307.935 128.534 307.888C128.732 307.84 128.934 307.805 129.139 307.78C129.399 307.75 129.61 307.725 129.772 307.707C129.934 307.686 130.052 307.653 130.126 307.608C130.199 307.562 130.236 307.489 130.236 307.387V307.367C130.236 307.12 130.166 306.929 130.027 306.793C129.889 306.658 129.684 306.59 129.41 306.59C129.126 306.59 128.902 306.653 128.738 306.779C128.576 306.904 128.463 307.042 128.401 307.195L127.607 307.014C127.701 306.75 127.839 306.537 128.02 306.375C128.202 306.211 128.412 306.092 128.65 306.019C128.887 305.943 129.137 305.906 129.399 305.906C129.573 305.906 129.756 305.926 129.95 305.968C130.146 306.008 130.329 306.081 130.499 306.188C130.67 306.296 130.811 306.449 130.92 306.649C131.029 306.847 131.084 307.104 131.084 307.421V310.305H130.259V309.711H130.225C130.17 309.82 130.088 309.928 129.979 310.033C129.869 310.139 129.729 310.226 129.557 310.296C129.386 310.366 129.181 310.401 128.941 310.401ZM129.125 309.722C129.359 309.722 129.558 309.676 129.724 309.584C129.892 309.491 130.019 309.371 130.106 309.222C130.194 309.071 130.239 308.91 130.239 308.738V308.179C130.209 308.209 130.15 308.237 130.064 308.264C129.979 308.288 129.882 308.31 129.772 308.329C129.663 308.346 129.557 308.362 129.453 308.377C129.349 308.39 129.263 308.401 129.193 308.411C129.029 308.431 128.879 308.466 128.743 308.515C128.609 308.564 128.502 308.635 128.421 308.727C128.342 308.818 128.302 308.938 128.302 309.089C128.302 309.298 128.38 309.457 128.534 309.564C128.689 309.67 128.886 309.722 129.125 309.722ZM133.055 304.515V310.305H132.21V304.515H133.055ZM136.064 310.392C135.636 310.392 135.268 310.301 134.959 310.118C134.651 309.933 134.414 309.674 134.246 309.341C134.08 309.005 133.997 308.612 133.997 308.162C133.997 307.717 134.08 307.325 134.246 306.986C134.414 306.646 134.648 306.382 134.947 306.191C135.249 306.001 135.601 305.906 136.005 305.906C136.25 305.906 136.487 305.946 136.717 306.027C136.947 306.108 137.153 306.236 137.336 306.409C137.519 306.582 137.663 306.808 137.769 307.085C137.874 307.36 137.927 307.694 137.927 308.088V308.388H134.475V307.755H137.099C137.099 307.532 137.053 307.335 136.963 307.164C136.873 306.99 136.745 306.854 136.581 306.754C136.419 306.654 136.229 306.604 136.01 306.604C135.773 306.604 135.565 306.662 135.388 306.779C135.213 306.894 135.077 307.045 134.981 307.232C134.887 307.416 134.84 307.617 134.84 307.834V308.329C134.84 308.619 134.891 308.866 134.993 309.069C135.096 309.273 135.24 309.428 135.425 309.536C135.61 309.641 135.826 309.694 136.072 309.694C136.233 309.694 136.379 309.671 136.511 309.626C136.643 309.579 136.757 309.509 136.853 309.417C136.949 309.325 137.022 309.211 137.073 309.075L137.873 309.219C137.809 309.455 137.694 309.661 137.528 309.838C137.364 310.013 137.158 310.15 136.909 310.248C136.662 310.344 136.381 310.392 136.064 310.392Z" fill="#303030"/>
</g>
<defs>
<filter id="filter0_d_11400_56419" x="0" y="0" width="222.867" height="328.023" filterUnits="userSpaceOnUse" color-interpolation-filters="sRGB">
<feFlood flood-opacity="0" result="BackgroundImageFix"/>
<feColorMatrix in="SourceAlpha" type="matrix" values="0 0 0 0 0 0 0 0 0 0 0 0 0 0 0 0 0 0 127 0" result="hardAlpha"/>
<feOffset dy="4"/>
<feGaussianBlur stdDeviation="6"/>
<feComposite in2="hardAlpha" operator="out"/>
<feColorMatrix type="matrix" values="0 0 0 0 0 0 0 0 0 0 0 0 0 0 0 0 0 0 0.14 0"/>
<feBlend mode="normal" in2="BackgroundImageFix" result="effect1_dropShadow_11400_56419"/>
<feBlend mode="normal" in="SourceGraphic" in2="effect1_dropShadow_11400_56419" result="shape"/>
</filter>
<clipPath id="clip0_11400_56419">
<rect x="34.5469" y="291.715" width="153.772" height="8.20117" rx="4.10059" fill="white"/>
</clipPath>
</defs>
</svg>
