<svg width="365" height="26" viewBox="0 0 365 26" fill="none" xmlns="http://www.w3.org/2000/svg">
<rect x="13.4767" y="0.2111" width="281.608" height="24.9098" rx="2.3221" fill="white"/>
<rect x="13.4767" y="0.2111" width="281.608" height="24.9098" rx="2.3221" stroke="#DFDFDF" strokeWidth="0.422201"/>
<path d="M23.3681 16H20.6831V11.1777H23.3681V11.6724H21.2439V13.2326H23.246V13.7208H21.2439V15.5052H23.3681V16ZM26.0662 12.3189C26.495 12.3189 26.8193 12.4245 27.0392 12.6356C27.2591 12.8445 27.3691 13.1809 27.3691 13.6449V16H26.8281V13.6812C26.8281 13.3799 26.7589 13.1545 26.6203 13.005C26.484 12.8555 26.274 12.7807 25.9903 12.7807C25.5901 12.7807 25.3086 12.894 25.1459 13.1205C24.9832 13.347 24.9018 13.6757 24.9018 14.1067V16H24.3543V12.3849H24.7963L24.8787 12.9061H24.9084C24.9854 12.7785 25.0832 12.6719 25.202 12.5861C25.3207 12.4982 25.4538 12.4322 25.6011 12.3882C25.7484 12.342 25.9035 12.3189 26.0662 12.3189ZM29.6648 15.6174C29.7549 15.6174 29.8473 15.6097 29.9419 15.5943C30.0364 15.5789 30.1134 15.5602 30.1727 15.5382V15.9637C30.109 15.9923 30.0199 16.0165 29.9056 16.0363C29.7934 16.0561 29.6835 16.066 29.5757 16.066C29.3844 16.066 29.2107 16.033 29.0546 15.967C28.8984 15.8988 28.7731 15.7845 28.6785 15.624C28.5862 15.4635 28.54 15.2414 28.54 14.9577V12.8137H28.0255V12.5465L28.5433 12.3321L28.761 11.5471H29.0909V12.3849H30.1497V12.8137H29.0909V14.9412C29.0909 15.1677 29.1425 15.337 29.2459 15.4492C29.3514 15.5613 29.4911 15.6174 29.6648 15.6174ZM32.2969 12.3189C32.6048 12.3189 32.8687 12.3871 33.0886 12.5234C33.3085 12.6598 33.4767 12.8511 33.5932 13.0974C33.7098 13.3415 33.768 13.6273 33.768 13.955V14.2947H31.2711C31.2777 14.7191 31.3833 15.0424 31.5878 15.2644C31.7923 15.4865 32.0803 15.5976 32.452 15.5976C32.6807 15.5976 32.883 15.5767 33.0589 15.5349C33.2348 15.4931 33.4173 15.4316 33.6064 15.3502V15.8318C33.4239 15.9131 33.2425 15.9725 33.0622 16.0099C32.8841 16.0473 32.673 16.066 32.4289 16.066C32.0814 16.066 31.778 15.9956 31.5185 15.8549C31.2612 15.7119 31.0611 15.503 30.9182 15.2282C30.7753 14.9533 30.7038 14.6169 30.7038 14.2188C30.7038 13.8296 30.7687 13.4932 30.8984 13.2095C31.0303 12.9237 31.2151 12.7038 31.4525 12.5498C31.6922 12.3959 31.9737 12.3189 32.2969 12.3189ZM32.2903 12.7675C31.9979 12.7675 31.7648 12.8632 31.5911 13.0545C31.4174 13.2458 31.314 13.513 31.281 13.856H33.1941C33.1919 13.6405 33.1578 13.4514 33.0919 13.2887C33.0281 13.1238 32.9302 12.9962 32.7983 12.9061C32.6664 12.8137 32.497 12.7675 32.2903 12.7675ZM36.3408 12.3189C36.4134 12.3189 36.4893 12.3233 36.5684 12.3321C36.6476 12.3387 36.718 12.3486 36.7795 12.3618L36.7103 12.8698C36.6509 12.8544 36.5849 12.8423 36.5123 12.8335C36.4398 12.8247 36.3716 12.8203 36.3078 12.8203C36.1627 12.8203 36.0253 12.85 35.8955 12.9094C35.768 12.9665 35.6559 13.0501 35.5591 13.16C35.4623 13.2678 35.3865 13.3986 35.3315 13.5526C35.2765 13.7043 35.249 13.8736 35.249 14.0605V16H34.6982V12.3849H35.1534L35.2128 13.0512H35.2359C35.3106 12.9171 35.4008 12.795 35.5063 12.6851C35.6119 12.5729 35.7339 12.4839 35.8725 12.4179C36.0132 12.3519 36.1693 12.3189 36.3408 12.3189ZM38.6464 12.3849H39.2336L40.0318 14.4827C40.078 14.6059 40.1208 14.7246 40.1604 14.8389C40.2 14.9511 40.2352 15.0588 40.266 15.1622C40.2968 15.2655 40.3209 15.3656 40.3385 15.4624H40.3616C40.3924 15.3524 40.4364 15.2084 40.4936 15.0303C40.5507 14.8499 40.6123 14.6663 40.6783 14.4794L41.4336 12.3849H42.024L40.4507 16.531C40.3671 16.7531 40.2693 16.9467 40.1571 17.1116C40.0472 17.2765 39.913 17.4029 39.7547 17.4909C39.5964 17.5811 39.4051 17.6261 39.1808 17.6261C39.0774 17.6261 38.9862 17.6195 38.907 17.6063C38.8279 17.5953 38.7597 17.5822 38.7025 17.5668V17.1281C38.7509 17.1391 38.8092 17.149 38.8773 17.1578C38.9477 17.1665 39.0203 17.1709 39.095 17.1709C39.2314 17.1709 39.349 17.1446 39.448 17.0918C39.5491 17.0412 39.636 16.9664 39.7085 16.8675C39.7811 16.7685 39.8438 16.6509 39.8965 16.5146L40.0945 16.0066L38.6464 12.3849ZM45.7183 14.1859C45.7183 14.4827 45.6798 14.7477 45.6029 14.9808C45.5259 15.2139 45.4148 15.4107 45.2697 15.5712C45.1246 15.7317 44.9487 15.8549 44.742 15.9406C44.5375 16.0242 44.3055 16.066 44.046 16.066C43.8041 16.066 43.582 16.0242 43.3797 15.9406C43.1796 15.8549 43.0059 15.7317 42.8585 15.5712C42.7134 15.4107 42.6002 15.2139 42.5188 14.9808C42.4396 14.7477 42.4001 14.4827 42.4001 14.1859C42.4001 13.79 42.4671 13.4536 42.6013 13.1765C42.7354 12.8973 42.9267 12.6851 43.1752 12.5399C43.4259 12.3926 43.7238 12.3189 44.0691 12.3189C44.3989 12.3189 44.687 12.3926 44.9333 12.5399C45.1818 12.6873 45.3742 12.9006 45.5105 13.1798C45.649 13.4569 45.7183 13.7922 45.7183 14.1859ZM42.9674 14.1859C42.9674 14.4761 43.0059 14.7279 43.0828 14.9412C43.1598 15.1545 43.2786 15.3194 43.4391 15.436C43.5996 15.5525 43.8063 15.6108 44.0592 15.6108C44.3099 15.6108 44.5155 15.5525 44.676 15.436C44.8387 15.3194 44.9586 15.1545 45.0355 14.9412C45.1125 14.7279 45.151 14.4761 45.151 14.1859C45.151 13.8978 45.1125 13.6493 45.0355 13.4404C44.9586 13.2293 44.8398 13.0666 44.6793 12.9522C44.5188 12.8379 44.311 12.7807 44.0559 12.7807C43.6799 12.7807 43.4039 12.905 43.228 13.1534C43.0543 13.4019 42.9674 13.7461 42.9674 14.1859ZM49.65 12.3849V16H49.2015L49.1223 15.492H49.0926C49.0178 15.6174 48.9211 15.7229 48.8023 15.8087C48.6836 15.8944 48.5495 15.9582 48.3999 16C48.2526 16.044 48.0954 16.066 47.9283 16.066C47.6424 16.066 47.4027 16.0198 47.2092 15.9274C47.0157 15.8351 46.8695 15.6921 46.7705 15.4986C46.6737 15.3051 46.6254 15.0566 46.6254 14.7532V12.3849H47.1795V14.7136C47.1795 15.0149 47.2477 15.2403 47.384 15.3898C47.5203 15.5371 47.7281 15.6108 48.0074 15.6108C48.2757 15.6108 48.489 15.5602 48.6473 15.4591C48.8078 15.3579 48.9233 15.2095 48.9937 15.0138C49.064 14.8159 49.0992 14.574 49.0992 14.2881V12.3849H49.65ZM52.4504 12.3189C52.523 12.3189 52.5988 12.3233 52.678 12.3321C52.7572 12.3387 52.8275 12.3486 52.8891 12.3618L52.8198 12.8698C52.7605 12.8544 52.6945 12.8423 52.6219 12.8335C52.5494 12.8247 52.4812 12.8203 52.4174 12.8203C52.2723 12.8203 52.1349 12.85 52.0051 12.9094C51.8776 12.9665 51.7654 13.0501 51.6687 13.16C51.5719 13.2678 51.4961 13.3986 51.4411 13.5526C51.3861 13.7043 51.3586 13.8736 51.3586 14.0605V16H50.8078V12.3849H51.263L51.3224 13.0512H51.3454C51.4202 12.9171 51.5104 12.795 51.6159 12.6851C51.7215 12.5729 51.8435 12.4839 51.982 12.4179C52.1228 12.3519 52.2789 12.3189 52.4504 12.3189ZM56.4943 15.6174C56.5845 15.6174 56.6768 15.6097 56.7714 15.5943C56.8659 15.5789 56.9429 15.5602 57.0023 15.5382V15.9637C56.9385 15.9923 56.8494 16.0165 56.7351 16.0363C56.6229 16.0561 56.513 16.066 56.4052 16.066C56.2139 16.066 56.0402 16.033 55.8841 15.967C55.728 15.8988 55.6026 15.7845 55.5081 15.624C55.4157 15.4635 55.3695 15.2414 55.3695 14.9577V12.8137H54.855V12.5465L55.3728 12.3321L55.5905 11.5471H55.9204V12.3849H56.9792V12.8137H55.9204V14.9412C55.9204 15.1677 55.9721 15.337 56.0754 15.4492C56.181 15.5613 56.3206 15.6174 56.4943 15.6174ZM59.3771 12.3189C59.4497 12.3189 59.5256 12.3233 59.6047 12.3321C59.6839 12.3387 59.7543 12.3486 59.8158 12.3618L59.7466 12.8698C59.6872 12.8544 59.6212 12.8423 59.5487 12.8335C59.4761 12.8247 59.4079 12.8203 59.3442 12.8203C59.199 12.8203 59.0616 12.85 58.9319 12.9094C58.8043 12.9665 58.6922 13.0501 58.5954 13.16C58.4987 13.2678 58.4228 13.3986 58.3678 13.5526C58.3128 13.7043 58.2854 13.8736 58.2854 14.0605V16H57.7345V12.3849H58.1897L58.2491 13.0512H58.2722C58.3469 12.9171 58.4371 12.795 58.5426 12.6851C58.6482 12.5729 58.7702 12.4839 58.9088 12.4179C59.0495 12.3519 59.2056 12.3189 59.3771 12.3189ZM61.0462 12.3849V16H60.4986V12.3849H61.0462ZM60.779 11.0325C60.8691 11.0325 60.9461 11.0622 61.0099 11.1216C61.0758 11.1788 61.1088 11.2689 61.1088 11.3921C61.1088 11.513 61.0758 11.6032 61.0099 11.6625C60.9461 11.7219 60.8691 11.7516 60.779 11.7516C60.6844 11.7516 60.6053 11.7219 60.5415 11.6625C60.4799 11.6032 60.4491 11.513 60.4491 11.3921C60.4491 11.2689 60.4799 11.1788 60.5415 11.1216C60.6053 11.0622 60.6844 11.0325 60.779 11.0325ZM63.9059 12.3189C64.3567 12.3189 64.7162 12.474 64.9845 12.784C65.2528 13.0941 65.3869 13.5603 65.3869 14.1826C65.3869 14.5938 65.3253 14.939 65.2022 15.2183C65.0791 15.4975 64.9053 15.7086 64.681 15.8516C64.4589 15.9945 64.1962 16.066 63.8927 16.066C63.7014 16.066 63.5332 16.0407 63.3881 15.9901C63.2429 15.9395 63.1187 15.8714 63.0153 15.7856C62.912 15.6998 62.8262 15.6064 62.758 15.5052H62.7185C62.7251 15.591 62.7328 15.6943 62.7416 15.8153C62.7526 15.9362 62.758 16.0418 62.758 16.1319V17.6162H62.2072V12.3849H62.6591L62.7317 12.9193H62.758C62.8284 12.8093 62.9142 12.7093 63.0153 12.6191C63.1165 12.5267 63.2396 12.4542 63.3848 12.4014C63.5321 12.3464 63.7058 12.3189 63.9059 12.3189ZM63.8103 12.7807C63.5596 12.7807 63.3573 12.8291 63.2033 12.9259C63.0516 13.0226 62.9406 13.1677 62.8702 13.3612C62.7998 13.5526 62.7624 13.7933 62.758 14.0836V14.1892C62.758 14.4948 62.791 14.7532 62.857 14.9643C62.9252 15.1754 63.0362 15.3359 63.1901 15.4459C63.3463 15.5558 63.5552 15.6108 63.8168 15.6108C64.0411 15.6108 64.2281 15.5503 64.3776 15.4294C64.5271 15.3084 64.6382 15.1402 64.7107 14.9247C64.7855 14.707 64.8229 14.4574 64.8229 14.176C64.8229 13.7494 64.7393 13.4107 64.5722 13.16C64.4073 12.9072 64.1533 12.7807 63.8103 12.7807ZM68.1807 16V11.1777H68.7414V16H68.1807ZM73.8969 13.5427C73.8969 14.0858 73.7979 14.5399 73.6 14.9049C73.4021 15.2677 73.1152 15.5415 72.7391 15.7262C72.3653 15.9087 71.9112 16 71.3769 16H70.0674V11.1777H71.522C72.0124 11.1777 72.4346 11.2678 72.7886 11.4482C73.1426 11.6263 73.4153 11.8912 73.6066 12.2431C73.8001 12.5927 73.8969 13.0259 73.8969 13.5427ZM73.3065 13.5625C73.3065 13.1293 73.2339 12.7719 73.0888 12.4905C72.9458 12.209 72.7347 12.0001 72.4555 11.8638C72.1784 11.7252 71.8387 11.656 71.4362 11.656H70.6281V15.5184H71.3109C71.975 15.5184 72.4731 15.3546 72.8051 15.027C73.1393 14.6993 73.3065 14.2111 73.3065 13.5625Z" fill="#7D7D7D"/>
<rect x="293.008" width="58.0208" height="25.332" rx="2.5332" fill="#2D65F2"/>
<path d="M309.171 11.1274C308.975 11.1274 308.801 11.1659 308.65 11.2428C308.5 11.3176 308.374 11.4264 308.27 11.5694C308.169 11.7123 308.092 11.8849 308.04 12.0872C307.987 12.2895 307.96 12.5171 307.96 12.77C307.96 13.1108 308.002 13.4022 308.086 13.6441C308.171 13.8838 308.303 14.0674 308.481 14.1949C308.66 14.3203 308.889 14.3829 309.171 14.3829C309.367 14.3829 309.562 14.3609 309.758 14.317C309.956 14.273 310.17 14.2103 310.401 14.129V14.9866C310.188 15.0745 309.978 15.1372 309.771 15.1746C309.564 15.2141 309.332 15.2339 309.075 15.2339C308.578 15.2339 308.169 15.1317 307.848 14.9272C307.529 14.7205 307.293 14.4324 307.139 14.063C306.985 13.6914 306.908 13.2582 306.908 12.7634C306.908 12.3984 306.958 12.0641 307.057 11.7607C307.156 11.4572 307.301 11.1944 307.492 10.9724C307.683 10.7503 307.92 10.5787 308.201 10.4578C308.483 10.3369 308.806 10.2764 309.171 10.2764C309.411 10.2764 309.65 10.3072 309.89 10.3687C310.132 10.4281 310.363 10.5106 310.583 10.6161L310.253 11.4473C310.072 11.3616 309.891 11.2868 309.709 11.223C309.526 11.1593 309.347 11.1274 309.171 11.1274ZM314.702 13.3175C314.702 13.6254 314.661 13.8981 314.577 14.1356C314.496 14.373 314.376 14.5742 314.217 14.7392C314.061 14.9019 313.872 15.025 313.65 15.1086C313.43 15.1922 313.182 15.2339 312.905 15.2339C312.645 15.2339 312.407 15.1922 312.189 15.1086C311.973 15.025 311.785 14.9019 311.625 14.7392C311.467 14.5742 311.343 14.373 311.255 14.1356C311.17 13.8981 311.127 13.6254 311.127 13.3175C311.127 12.9085 311.199 12.5622 311.345 12.2785C311.49 11.9949 311.696 11.7794 311.965 11.632C312.233 11.4847 312.553 11.411 312.924 11.411C313.27 11.411 313.575 11.4847 313.841 11.632C314.11 11.7794 314.32 11.9949 314.471 12.2785C314.625 12.5622 314.702 12.9085 314.702 13.3175ZM312.153 13.3175C312.153 13.5594 312.179 13.7628 312.232 13.9278C312.285 14.0927 312.367 14.2169 312.479 14.3005C312.591 14.384 312.738 14.4258 312.918 14.4258C313.096 14.4258 313.24 14.384 313.35 14.3005C313.462 14.2169 313.544 14.0927 313.594 13.9278C313.647 13.7628 313.673 13.5594 313.673 13.3175C313.673 13.0735 313.647 12.8712 313.594 12.7106C313.544 12.5479 313.462 12.4259 313.35 12.3445C313.238 12.2631 313.092 12.2225 312.911 12.2225C312.645 12.2225 312.452 12.3137 312.331 12.4962C312.212 12.6787 312.153 12.9525 312.153 13.3175ZM317.628 11.411C318.022 11.411 318.338 11.5188 318.578 11.7343C318.818 11.9476 318.938 12.2906 318.938 12.7634V15.168H317.932V13.0141C317.932 12.7502 317.883 12.5512 317.786 12.4171C317.692 12.2829 317.542 12.2159 317.338 12.2159C317.03 12.2159 316.82 12.3203 316.708 12.5292C316.596 12.7381 316.54 13.0394 316.54 13.433V15.168H315.534V11.4803H316.302L316.437 11.952H316.493C316.573 11.8244 316.67 11.7211 316.787 11.6419C316.906 11.5628 317.037 11.5045 317.179 11.4671C317.325 11.4297 317.474 11.411 317.628 11.411ZM321.527 14.4324C321.637 14.4324 321.743 14.4214 321.847 14.3994C321.952 14.3774 322.057 14.35 322.16 14.317V15.0657C322.052 15.1141 321.918 15.1537 321.758 15.1845C321.599 15.2174 321.426 15.2339 321.237 15.2339C321.017 15.2339 320.819 15.1988 320.643 15.1284C320.469 15.0558 320.332 14.9316 320.231 14.7557C320.132 14.5775 320.082 14.3302 320.082 14.0135V12.2357H319.601V11.8102L320.155 11.4737L320.445 10.6953H321.088V11.4803H322.121V12.2357H321.088V14.0135C321.088 14.1542 321.128 14.2598 321.207 14.3302C321.288 14.3983 321.395 14.4324 321.527 14.4324ZM323.915 11.4803V15.168H322.909V11.4803H323.915ZM323.414 10.0356C323.563 10.0356 323.692 10.0708 323.799 10.1411C323.907 10.2093 323.961 10.338 323.961 10.5271C323.961 10.714 323.907 10.8437 323.799 10.9163C323.692 10.9866 323.563 11.0218 323.414 11.0218C323.262 11.0218 323.132 10.9866 323.024 10.9163C322.919 10.8437 322.866 10.714 322.866 10.5271C322.866 10.338 322.919 10.2093 323.024 10.1411C323.132 10.0708 323.262 10.0356 323.414 10.0356ZM327.068 11.411C327.462 11.411 327.778 11.5188 328.018 11.7343C328.258 11.9476 328.378 12.2906 328.378 12.7634V15.168H327.372V13.0141C327.372 12.7502 327.323 12.5512 327.227 12.4171C327.132 12.2829 326.982 12.2159 326.778 12.2159C326.47 12.2159 326.26 12.3203 326.148 12.5292C326.036 12.7381 325.98 13.0394 325.98 13.433V15.168H324.974V11.4803H325.742L325.877 11.952H325.934C326.013 11.8244 326.111 11.7211 326.227 11.6419C326.346 11.5628 326.477 11.5045 326.62 11.4671C326.765 11.4297 326.914 11.411 327.068 11.411ZM332.798 11.4803V15.168H332.026L331.891 14.6963H331.838C331.759 14.8216 331.66 14.9239 331.541 15.003C331.422 15.0822 331.291 15.1405 331.148 15.1779C331.005 15.2152 330.857 15.2339 330.703 15.2339C330.439 15.2339 330.209 15.1878 330.014 15.0954C329.818 15.0008 329.665 14.8546 329.555 14.6567C329.447 14.4588 329.394 14.2015 329.394 13.8849V11.4803H330.4V13.6342C330.4 13.8981 330.447 14.0971 330.541 14.2312C330.636 14.3653 330.787 14.4324 330.993 14.4324C331.198 14.4324 331.358 14.3862 331.475 14.2939C331.591 14.1993 331.673 14.0619 331.719 13.8816C331.767 13.6991 331.792 13.477 331.792 13.2153V11.4803H332.798ZM335.374 11.411C335.715 11.411 336.008 11.477 336.254 11.6089C336.501 11.7387 336.691 11.9278 336.825 12.1763C336.959 12.4248 337.026 12.7282 337.026 13.0867V13.5748H334.648C334.659 13.8585 334.744 14.0817 334.902 14.2444C335.063 14.4049 335.285 14.4852 335.568 14.4852C335.804 14.4852 336.019 14.461 336.215 14.4126C336.411 14.3642 336.612 14.2917 336.818 14.1949V14.9734C336.636 15.0635 336.445 15.1295 336.244 15.1713C336.047 15.213 335.806 15.2339 335.522 15.2339C335.153 15.2339 334.825 15.1658 334.539 15.0294C334.256 14.8931 334.032 14.6853 333.87 14.406C333.709 14.1268 333.629 13.7749 333.629 13.3505C333.629 12.9195 333.701 12.5611 333.847 12.2752C333.994 11.9872 334.198 11.7717 334.46 11.6287C334.722 11.4836 335.026 11.411 335.374 11.411ZM335.38 12.1268C335.185 12.1268 335.022 12.1895 334.892 12.3148C334.765 12.4402 334.691 12.637 334.671 12.9052H336.083C336.081 12.7557 336.053 12.6227 336 12.5061C335.95 12.3896 335.873 12.2972 335.77 12.2291C335.668 12.1609 335.539 12.1268 335.38 12.1268Z" fill="white"/>
</svg>
