<svg width="855" height="778" viewBox="0 0 855 778" fill="none" xmlns="http://www.w3.org/2000/svg">
<g clip-path="url(#clip0_10886_63100)" filter="url(#filter0_f_10886_63100)">
<path d="M408.134 768.919L363.43 743.706L228.707 667.73L202.501 652.955C201.352 652.571 200.447 652.065 199.858 651.484C199.491 651.146 199.27 650.831 199.097 650.443C197.049 645.206 196.092 638.457 195.601 632.314C195.343 629.085 195.232 626.025 195.148 623.451C194.972 616.529 194.926 605.988 197.409 593.298L404.931 711.319C402.665 723.546 402.709 733.699 402.885 740.45C402.946 743.341 403.108 746.862 403.416 750.504C403.905 756.283 404.884 762.496 406.834 767.394C407.056 767.976 407.497 768.46 408.134 768.919Z" fill="#E9E9F9"/>
<path d="M460.902 768.183L653.783 656.248L468.581 765.769C467.193 766.601 464.487 767.414 460.902 768.183Z" stroke="white" stroke-width="0.754215" stroke-miterlimit="10"/>
<path d="M808.397 360.002C806.436 358.092 803.38 356.769 801.861 355.488C775.059 332.724 675.13 394.754 644.027 410.119C638.79 412.716 633.181 413.882 629.167 416.935C610.557 431.274 596.145 440.08 579.895 458.562C562.817 443.382 484.912 377.483 375.074 338.343C390.161 322.004 403.963 313.443 421.43 299.936C462.106 268.572 550.284 221.093 586.514 234.174C688.559 260.498 770.166 324.487 799.766 350.834C799.79 350.858 808.004 359.421 808.397 360.002Z" fill="#EFEFFB"/>
<path d="M405.282 657.104C397.94 664.058 384.874 662.293 372.603 658.217C355.493 652.511 350.687 641.966 359.653 638.186C364.745 636.051 370.348 633.452 375.486 630.539C389.876 622.364 417.628 605.436 428.316 604.588C439.027 603.74 452.83 612.012 454.305 614.386C456.787 618.285 421.787 641.463 405.282 657.104Z" stroke="white" stroke-width="0.754215" stroke-miterlimit="10"/>
<path d="M579.896 458.584C578.997 459.633 578.05 460.681 577.151 461.778L577.127 461.827C566.442 474.576 554.85 491.775 540.658 517.656C528.744 539.446 521.289 554.003 514.456 565.716C512.99 565.334 511.5 564.952 510.033 564.521C507.834 563.947 505.634 563.325 503.459 562.703L503.435 562.679C482.588 556.649 462.735 549.083 444.05 540.493C389.242 515.446 343.989 481.831 310.886 452.56L310.837 452.536C309.44 451.304 308.044 450.071 306.696 448.838C313.528 437.077 320.983 422.495 332.97 400.68C345.127 378.451 355.408 362.619 364.85 350.506C368.37 345.973 371.77 341.975 375.098 338.366C377.347 339.157 379.597 339.973 381.821 340.814C468.563 372.961 534.529 421.181 564.927 445.922C571.786 451.478 576.833 455.829 579.896 458.584Z" fill="#DAD9EB"/>
<path d="M568.303 470.199C567.404 471.247 566.457 472.296 565.559 473.393L565.534 473.441C554.85 486.191 543.257 503.389 529.066 529.27C521.123 543.805 515.167 555.101 510.033 564.499C507.834 563.926 505.634 563.304 503.459 562.682L503.435 562.658C482.588 556.627 462.735 549.062 444.05 540.472C389.242 515.424 343.989 481.81 310.886 452.539L310.837 452.515C309.44 451.282 308.043 450.049 306.696 448.816C313.528 437.055 320.983 422.473 332.97 400.658C345.127 378.43 355.408 362.597 364.85 350.484C366.659 351.108 368.492 351.635 370.229 352.429C373.677 353.992 377.126 355.581 380.574 357.217C363.884 381.044 349.13 412.272 340.721 431.836C336.492 441.741 340.877 445.365 350.079 439.763L438.282 386.576C489.637 414.602 533.697 443.363 553.334 457.536C560.484 462.727 565.24 467.492 568.303 470.199Z" fill="#C9C6CD"/>
<path d="M760.216 433.663L567.699 550.43C558.472 556.032 554.087 552.407 558.34 542.503C569.843 515.76 593.453 466.666 619.291 447.293C655.615 420.077 740.264 369.359 769.129 372.488C769.495 372.487 775.232 372.632 779.01 382.744C780.245 386.091 782.13 392.956 783.843 399.677C786.276 409.091 775.578 424.318 760.216 433.663Z" stroke="white" stroke-width="0.754215" stroke-miterlimit="10"/>
<path d="M847.321 431.269C846.298 426.076 842.078 415.601 836.39 404.04C835.528 402.295 834.642 400.525 833.731 398.756C826.223 384.142 816.93 368.856 809.256 360.898C808.961 360.608 808.692 360.342 808.422 360.076C808.422 360.076 808.422 360.052 808.398 360.027C808.349 359.979 808.275 359.907 808.226 359.858C806.142 357.754 800.892 351.535 799.276 350.497C783.905 340.654 690.614 374.164 642.453 407.333C637.634 410.633 633.181 413.883 629.192 416.961C610.581 431.299 596.145 440.106 579.896 458.587C578.997 459.636 578.05 460.684 577.151 461.781L577.127 461.83C566.442 474.579 554.85 491.778 540.658 517.659C528.744 539.449 521.289 554.007 514.456 565.719C500.913 588.974 489.664 601.022 450.588 635.39C402.807 677.423 402.414 721.85 402.885 740.454C403.088 747.958 403.65 759.396 406.834 767.397C407.056 767.979 407.497 768.488 408.134 768.922L408.232 769.019C415.502 773.821 437.252 779.775 460.854 768.208L460.902 768.208L491.751 750.294L572.462 703.455L653.759 656.273L657.167 654.267L748.782 600.118L832.144 550.862L835.942 548.611C843.733 544.06 849.794 528.828 851.049 519.957C853.942 500.295 850.565 447.626 847.321 431.269ZM760.192 433.687L567.674 550.454C558.448 556.056 554.063 552.431 558.316 542.527C569.819 515.784 593.429 466.69 619.267 447.317C655.567 420.101 740.24 369.383 769.105 372.512C769.471 372.511 775.208 372.632 778.962 382.768C780.196 386.091 782.081 392.981 783.819 399.701C786.276 409.115 775.554 424.318 760.192 433.687Z" fill="#D6D6E6"/>
<path d="M577.664 675.813C577.702 684.678 575.839 694.135 572.462 703.428L491.75 750.267C488.359 744.89 486.399 737.66 486.361 728.794C486.235 699.794 506.609 664.316 531.784 649.706C556.96 635.121 577.538 646.836 577.664 675.813Z" fill="#6B7178"/>
<path d="M574.62 677.6C574.738 704.707 555.769 737.749 532.249 751.405C508.73 765.06 489.546 754.164 489.429 727.058C489.311 699.952 508.28 666.909 531.824 653.278C555.344 639.598 574.503 650.494 574.62 677.6Z" fill="#79818D"/>
<path d="M532.211 742.565C512.928 753.749 497.17 744.782 497.074 722.582C496.977 700.382 512.579 673.232 531.838 662.048C551.097 650.865 566.855 659.832 566.951 682.032C567.071 704.232 551.47 731.382 532.211 742.565Z" fill="#B2B6BD"/>
<path d="M532.203 740.814C513.772 751.508 498.724 742.926 498.632 721.722C498.54 700.494 513.463 674.537 531.894 663.842C550.325 653.148 565.374 661.73 565.466 682.934C565.533 704.138 550.61 730.119 532.203 740.814Z" fill="#C3C8CF"/>
<path d="M532.099 716.72C525.209 720.709 519.581 717.503 519.547 709.585C519.512 701.643 525.084 691.927 531.974 687.938C538.865 683.949 544.493 687.155 544.527 695.073C544.561 702.991 538.989 712.707 532.099 716.72Z" fill="#B2B6BD"/>
<path d="M532.074 711.034C527.911 713.457 524.485 711.528 524.465 706.719C524.444 701.91 527.811 696.042 531.999 693.619C536.162 691.196 539.564 693.149 539.584 697.934C539.605 702.743 536.238 708.611 532.074 711.034Z" fill="white"/>
<path d="M537.439 664.721L531.938 685.269L526.288 671.182C528.088 669.717 529.962 668.445 531.861 667.344C533.784 666.267 535.635 665.36 537.439 664.721Z" fill="#7D7D7D"/>
<path d="M514.747 683.423L521.515 696.315L506.922 697.059C507.937 694.723 509.123 692.361 510.455 690.024C511.787 687.711 513.218 685.494 514.747 683.423Z" fill="#7D7D7D"/>
<path d="M502.159 713.209L517.209 710.909L502.214 726.058C501.865 724.189 501.685 722.125 501.675 719.939C501.666 717.729 501.827 715.494 502.159 713.209Z" fill="#7D7D7D"/>
<path d="M507.069 736.6L521.595 720.433L514.972 741.083C513.433 740.774 511.991 740.246 510.645 739.474C509.323 738.727 508.123 737.761 507.069 736.6Z" fill="#7D7D7D"/>
<path d="M526.61 739.915L532.111 719.366L537.761 733.454C535.961 734.895 534.087 736.19 532.188 737.292C530.265 738.369 528.413 739.251 526.61 739.915Z" fill="#7D7D7D"/>
<path d="M549.302 721.213L542.534 708.321L557.127 707.577C556.088 709.938 554.902 712.275 553.57 714.612C552.262 716.925 550.831 719.118 549.302 721.213Z" fill="#7D7D7D"/>
<path d="M561.89 691.428L546.84 693.728L561.834 678.579C562.184 680.472 562.364 682.512 562.374 684.698C562.383 686.884 562.222 689.143 561.89 691.428Z" fill="#7D7D7D"/>
<path d="M556.98 668.037L542.43 684.204L549.052 663.53C550.591 663.839 552.034 664.391 553.38 665.138C554.725 665.91 555.926 666.876 556.98 668.037Z" fill="#7D7D7D"/>
<path d="M835.851 527.648C835.884 535.104 834.551 543.004 832.144 550.86L748.782 600.115C746.1 595.002 744.582 588.45 744.549 580.654C744.423 551.653 764.797 516.175 789.972 501.565C815.147 486.931 835.726 498.623 835.851 527.648Z" fill="#6B7178"/>
<path d="M832.808 529.41C832.925 556.517 813.956 589.559 790.437 603.19C766.893 616.846 747.734 605.95 747.616 578.844C747.499 551.737 766.467 518.695 790.011 505.039C813.531 491.408 832.691 502.328 832.808 529.41Z" fill="#79818D"/>
<path d="M790.374 594.397C771.091 605.581 755.333 596.614 755.237 574.414C755.141 552.214 770.742 525.064 790.025 513.88C809.284 502.696 825.042 511.664 825.138 533.864C825.259 556.064 809.658 583.214 790.374 594.397Z" fill="#B2B6BD"/>
<path d="M790.367 592.623C771.936 603.317 756.887 594.735 756.795 573.531C756.703 552.303 771.626 526.346 790.057 515.651C808.488 504.957 823.537 513.515 823.629 534.743C823.696 555.971 808.798 581.953 790.367 592.623Z" fill="#C3C8CF"/>
<path d="M790.262 568.556C783.372 572.545 777.72 569.339 777.685 561.421C777.651 553.478 783.223 543.763 790.113 539.774C797.004 535.785 802.631 538.991 802.666 546.909C802.749 554.827 797.153 564.543 790.262 568.556Z" fill="#B2B6BD"/>
<path d="M790.238 562.847C786.074 565.27 782.649 563.341 782.628 558.532C782.607 553.723 785.974 547.855 790.138 545.432C794.301 543.009 797.727 544.938 797.747 549.747C797.793 554.556 794.426 560.448 790.238 562.847Z" fill="white"/>
<path d="M795.627 516.553L790.126 537.101L784.475 523.014C786.275 521.573 788.149 520.277 790.048 519.176C791.947 518.075 793.823 517.192 795.627 516.553Z" fill="#7D7D7D"/>
<path d="M772.934 535.255L779.703 548.147L765.109 548.891C766.124 546.53 767.31 544.193 768.643 541.856C769.975 539.543 771.406 537.326 772.934 535.255Z" fill="#7D7D7D"/>
<path d="M760.346 565.041L775.397 562.741L760.402 577.89C760.052 576.021 759.872 573.957 759.863 571.771C759.853 569.561 760.015 567.326 760.346 565.041Z" fill="#7D7D7D"/>
<path d="M765.256 588.435L779.783 572.269L773.16 592.943C771.621 592.634 770.178 592.082 768.833 591.335C767.511 590.563 766.287 589.597 765.256 588.435Z" fill="#7D7D7D"/>
<path d="M784.773 591.723L790.274 571.175L795.924 585.263C794.124 586.703 792.25 587.999 790.351 589.1C788.452 590.201 786.601 591.084 784.773 591.723Z" fill="#7D7D7D"/>
<path d="M807.49 573.022L800.722 560.129L815.315 559.386C814.3 561.746 813.089 564.083 811.757 566.421C810.425 568.734 808.994 570.951 807.49 573.022Z" fill="#7D7D7D"/>
<path d="M820.053 543.264L805.003 545.564L819.998 530.415C820.348 532.308 820.527 534.348 820.537 536.534C820.571 538.72 820.409 540.955 820.053 543.264Z" fill="#7D7D7D"/>
<path d="M815.168 519.846L800.641 536.013L807.264 515.338C808.803 515.647 810.246 516.2 811.592 516.947C812.913 517.743 814.113 518.709 815.168 519.846Z" fill="#7D7D7D"/>
<path d="M771.856 427.345L567.674 550.453C558.448 556.055 554.063 552.431 558.316 542.526C569.819 515.783 593.114 467.273 617.038 445.625C648.038 417.558 741.201 365.734 770.065 368.864C770.431 368.862 774.751 368.698 778.962 382.767C779.977 386.188 782.081 392.98 783.795 399.7C786.276 409.09 787.218 417.975 771.856 427.345Z" fill="#9292AA"/>
<path d="M438.282 386.572L350.079 439.759C340.877 445.361 336.492 441.737 340.721 431.832C349.13 412.268 363.884 381.04 380.574 357.213C400.239 366.431 419.736 376.451 438.282 386.572Z" fill="#DADADA"/>
<path d="M594.161 517.426C594.161 517.426 578.401 536.051 591.598 545.612C595.271 548.268 643.006 551.996 645.458 537.728C648.482 520.178 605.097 506.302 594.161 517.426Z" fill="#BEBEBE"/>
<path d="M514.456 565.718C500.913 588.973 489.664 601.021 450.588 635.389C420.169 662.166 408.939 689.905 404.931 711.321L197.409 593.3C201.613 572.029 212.943 544.727 242.851 518.39C281.878 484.046 293.152 472.022 306.696 448.84C340.12 478.935 386.515 511.452 443.647 537.582C465.634 547.664 496.934 560.742 514.456 565.718Z" fill="#ECECFA"/>
<path d="M402.248 661.152C394.882 668.082 381.816 666.342 369.57 662.266C352.459 656.559 361.528 642.65 372.452 634.588C385.761 624.766 414.595 609.509 425.282 608.636C435.994 607.788 443.633 613.172 444.572 615.791C446.77 621.854 418.754 645.511 402.248 661.152Z" fill="white"/>
<path d="M217.039 560.691C220.295 551.714 239.301 527.075 258.143 515.577C260.626 514.061 267.623 512.087 267.955 521.194C268.288 530.301 232.622 585.568 223.647 581.672C219.025 579.676 215.302 565.434 217.039 560.691Z" fill="white"/>
<path d="M590.014 523.566C590.014 523.566 573.844 549.188 574.466 551.906C575.088 554.623 575.051 557.223 580.321 556.884C585.617 556.545 586.368 549.668 586.368 549.668L591.502 540.197L590.329 522.981" fill="#BEBEBE"/>
<path d="M316.238 431.648C316.238 431.648 309.514 412.052 316.148 410.808C322.782 409.565 327.086 411.49 327.086 411.49L316.238 431.648Z" fill="#D6D9E2"/>
<path d="M833.731 398.756C824.354 403.533 810.605 407.6 807.573 406.229C801.263 403.439 793.473 368.86 793.459 365.508C793.44 361.112 803.662 360.096 808.226 359.858C808.275 359.906 808.348 359.979 808.397 360.027C808.422 360.051 808.422 360.076 808.422 360.076C808.692 360.342 808.961 360.608 809.256 360.898C816.93 368.856 826.223 384.142 833.731 398.756Z" fill="#9292AA"/>
<path d="M317.396 670.581C317.396 670.581 329.331 659.113 335.153 662.051C360.153 674.67 396.201 690.763 396.201 690.763C396.201 690.763 405.393 693.954 412.753 685.785C412.753 685.785 406.151 699.95 404.692 712.611C403.234 725.272 316.567 670.778 316.567 670.778" fill="#B5B5B5"/>
<path d="M253.147 629.976C253.147 629.976 254.736 619.233 251.058 615.412C247.38 611.565 205.792 590.104 205.792 590.104C205.792 590.104 200.56 588.062 200.626 580.751C200.626 580.751 198.431 586.76 197.267 594.246C196.079 601.683 253.147 629.976 253.147 629.976Z" fill="#B5B5B5"/>
<path d="M282.501 619.752C288.104 618.842 294.667 619.793 300.743 622.085C306.818 624.375 312.368 627.991 315.96 632.368L315.96 632.369C319.542 636.761 320.457 641.025 319.182 644.373C317.908 647.721 314.389 650.3 308.784 651.198L308.783 651.198C303.168 652.109 296.604 651.157 290.532 648.865C284.459 646.574 278.915 642.958 275.323 638.58C271.729 634.2 270.809 629.943 272.083 626.595C273.358 623.248 276.883 620.663 282.5 619.752L282.501 619.752Z" fill="#C9D0D5" stroke="#D3D3D3" stroke-width="0.754215"/>
<path d="M255.111 424.18C255.136 429.851 252.127 435.102 247.222 437.948L153.357 492.416C142.825 498.528 129.622 490.963 129.57 478.786L128.028 122.957C128.003 117.287 131.012 112.036 135.917 109.189L229.781 54.7211C240.314 48.6092 253.516 56.1743 253.569 68.3516L255.111 424.18Z" fill="#DDDDEB"/>
<path d="M241.338 62.0725L241.803 169.575L140.692 229.06L140.223 120.756L241.338 62.0725Z" fill="#9292AA"/>
<path d="M127.988 113.79L62.3877 76.6933L187.846 2.86906L253.451 40.986L127.988 113.79Z" fill="#EFEFFB"/>
<path d="M129.688 506.153L64.0878 469.056L62.3877 76.6953L127.988 113.792L129.688 506.153Z" fill="#EFEFFB"/>
<path d="M177.244 383.966L193.245 313.749L172.768 325.618L189.764 242.694L220.734 224.732L196.854 296.245L214.165 286.188L177.244 383.966Z" fill="white"/>
<path d="M178.944 173.688C178.947 174.228 178.66 174.728 178.192 174.999L166.203 181.944C165.2 182.525 163.944 181.804 163.939 180.645L163.776 142.976C163.773 142.437 164.06 141.937 164.526 141.666L176.515 134.702C177.518 134.119 178.776 134.839 178.781 135.999L178.944 173.688Z" fill="white"/>
<path d="M199.226 161.918C199.228 162.458 198.942 162.958 198.475 163.229L186.486 170.193C185.483 170.776 184.225 170.055 184.22 168.895L184.057 131.207C184.055 130.667 184.342 130.166 184.809 129.895L196.798 122.951C197.801 122.37 199.058 123.09 199.063 124.25L199.226 161.918Z" fill="white"/>
<path d="M213.396 153.695C213.398 154.235 213.112 154.735 212.646 155.006L206.768 158.421C205.765 159.004 204.507 158.283 204.502 157.123L204.339 119.458C204.336 118.919 204.623 118.419 205.089 118.148L210.967 114.733C211.97 114.15 213.228 114.87 213.233 116.03L213.396 153.695Z" fill="white"/>
<path d="M224.366 139.101C224.368 139.64 224.082 140.14 223.616 140.411L222.632 140.984C221.629 141.568 220.37 140.847 220.365 139.687L220.3 124.714C220.298 124.172 220.586 123.671 221.056 123.4L222.039 122.834C223.042 122.256 224.296 122.977 224.301 124.134L224.366 139.101Z" fill="white"/>
<path d="M82.9059 281.117C85.4666 279.633 89.0823 279.796 93.1858 282.132C97.2869 284.466 101.026 288.494 103.746 293.137C106.466 297.78 108.147 303.002 108.168 307.705C108.188 312.41 106.549 315.619 103.989 317.103C101.428 318.587 97.8124 318.423 93.7089 316.088C89.6078 313.754 85.8686 309.726 83.1484 305.083C80.4283 300.44 78.7473 295.218 78.7269 290.515C78.7065 285.81 80.346 282.601 82.9059 281.117Z" fill="#BDC6CA" stroke="#D3D3D3" stroke-width="0.754215"/>
<path d="M94.4883 299.606L76.0452 318.901L76.9439 526.309C77.0016 539.617 67.5868 556.003 55.9326 562.925L16.2635 586.411C4.60917 593.308 4.51006 604.64 16.0767 611.702L238.616 747.534C250.183 754.596 259.523 749.516 259.465 736.208L259.178 669.933" stroke="#BEC3D3" stroke-width="3.01686" stroke-miterlimit="10"/>
<path d="M291.387 633.701L275.311 646.985L258.731 673.774" stroke="#CACEDC" stroke-width="3.77107" stroke-miterlimit="10"/>
</g>
<defs>
<filter id="filter0_f_10886_63100" x="-2.26264" y="-2.26264" width="857.867" height="781.271" filterUnits="userSpaceOnUse" color-interpolation-filters="sRGB">
<feFlood flood-opacity="0" result="BackgroundImageFix"/>
<feBlend mode="normal" in="SourceGraphic" in2="BackgroundImageFix" result="shape"/>
<feGaussianBlur stdDeviation="1.13132" result="effect1_foregroundBlur_10886_63100"/>
</filter>
<clipPath id="clip0_10886_63100">
<rect width="850" height="773.07" fill="white" transform="translate(0 3.68359) rotate(-0.248269)"/>
</clipPath>
</defs>
</svg>
