<svg width="1128" height="1027" viewBox="0 0 1128 1027" fill="none" xmlns="http://www.w3.org/2000/svg">
<g clip-path="url(#clip0_10784_63308)" filter="url(#filter0_f_10784_63308)">
<path d="M536.736 1017.95L477.609 984.262L299.42 882.754L264.76 863.013C263.238 862.498 262.041 861.821 261.264 861.048C260.779 860.597 260.488 860.179 260.261 859.664C257.575 852.707 256.345 843.755 255.73 835.607C255.407 831.324 255.277 827.266 255.18 823.852C254.986 814.674 254.986 800.697 258.352 783.887L532.82 941.559C529.746 957.758 529.746 971.219 529.94 980.172C530.005 984.004 530.199 988.674 530.587 993.505C531.202 1001.17 532.464 1009.41 535.021 1015.92C535.312 1016.69 535.895 1017.34 536.736 1017.95Z" fill="#E9E9F9"/>
<path d="M606.704 1017.27L863.082 869.969L616.898 1014.12C615.054 1015.21 611.462 1016.27 606.704 1017.27Z" stroke="white" stroke-miterlimit="10"/>
<path d="M1069.78 478.074C1067.19 475.53 1063.15 473.759 1061.14 472.052C1025.74 441.715 892.888 523.386 851.561 543.578C844.603 546.991 837.159 548.505 831.819 552.531C807.062 571.435 787.903 583.028 766.253 607.439C743.696 587.215 640.782 499.393 495.376 446.868C515.474 425.291 533.823 414.02 557.06 396.211C611.17 354.86 728.356 292.416 776.317 309.967C911.464 345.457 1019.3 430.766 1058.39 465.869C1058.42 465.901 1069.26 477.301 1069.78 478.074Z" fill="#EFEFFB"/>
<path d="M533.597 869.678C523.823 878.856 506.509 876.441 490.263 870.966C467.609 863.302 461.298 849.293 473.208 844.333C479.972 841.531 487.415 838.118 494.244 834.286C513.37 823.529 550.264 801.244 564.439 800.181C578.646 799.118 596.898 810.164 598.84 813.321C602.109 818.505 555.571 849.035 533.597 869.678Z" stroke="white" stroke-miterlimit="10"/>
<path d="M766.253 607.469C765.055 608.854 763.793 610.239 762.596 611.688L762.563 611.752C748.324 628.595 732.854 651.332 713.89 685.565C697.967 714.388 687.999 733.646 678.873 749.136C676.931 748.621 674.957 748.106 673.016 747.526C670.103 746.753 667.19 745.916 664.31 745.079L664.278 745.046C636.672 736.931 610.394 726.786 585.668 715.289C513.144 681.765 453.337 636.936 409.615 597.937L409.55 597.905C407.706 596.262 405.861 594.62 404.081 592.977C413.207 577.423 423.175 558.132 439.195 529.277C455.441 499.875 469.163 478.942 481.752 462.936C486.444 456.946 490.975 451.665 495.409 446.898C498.386 447.961 501.364 449.056 504.309 450.183C619.132 493.305 706.317 557.617 746.479 590.594C755.541 598.001 762.207 603.798 766.253 607.469Z" fill="#DAD9EB"/>
<path d="M750.816 622.801C749.618 624.186 748.356 625.57 747.159 627.02L747.126 627.084C732.887 643.927 717.417 666.663 698.453 700.896C687.838 720.122 679.876 735.065 673.016 747.496C670.103 746.723 667.19 745.886 664.31 745.049L664.278 745.016C636.672 736.901 610.394 726.756 585.668 715.26C513.144 681.735 453.337 636.906 409.615 597.907L409.55 597.875C407.706 596.232 405.861 594.59 404.081 592.947C413.207 577.393 423.175 558.102 439.195 529.247C455.441 499.845 469.163 478.912 481.752 462.906C484.147 463.744 486.574 464.452 488.872 465.515C493.435 467.608 497.998 469.734 502.561 471.923C480.295 503.419 460.554 544.738 449.292 570.63C443.628 583.737 449.421 588.568 461.654 581.193L578.905 511.181C646.834 548.634 705.087 587.022 731.042 605.926C740.492 612.85 746.77 619.194 750.816 622.801Z" fill="#C9C6CD"/>
<path d="M1005.48 575.461L749.553 729.172C737.288 736.547 731.495 731.716 737.191 718.609C752.595 683.217 784.181 618.26 818.551 592.722C866.868 556.847 979.394 490.087 1017.65 494.403C1018.13 494.403 1025.74 494.628 1030.69 508.057C1032.31 512.501 1034.77 521.615 1037 530.536C1040.17 543.031 1025.9 563.159 1005.48 575.461Z" stroke="white" stroke-miterlimit="10"/>
<path d="M1120.98 572.786C1119.65 565.895 1114.12 551.982 1106.64 536.621C1105.51 534.302 1104.35 531.951 1103.15 529.6C1093.28 510.181 1081.05 489.86 1070.92 479.265C1070.53 478.878 1070.17 478.524 1069.82 478.17C1069.82 478.17 1069.82 478.138 1069.78 478.106C1069.72 478.041 1069.62 477.945 1069.56 477.88C1066.81 475.078 1059.88 466.802 1057.74 465.417C1037.42 452.278 913.535 496.172 849.49 539.874C843.082 544.221 837.159 548.504 831.852 552.562C807.094 571.466 787.903 583.06 766.253 607.47C765.055 608.855 763.793 610.24 762.596 611.689L762.563 611.754C748.324 628.596 732.854 651.333 713.89 685.566C697.967 714.389 687.999 733.647 678.873 749.137C660.782 779.893 645.798 795.801 593.792 841.145C530.199 896.601 529.422 955.503 529.94 980.171C530.166 990.122 530.846 1005.29 535.021 1015.92C535.312 1016.69 535.895 1017.37 536.736 1017.95L536.865 1018.08C546.477 1024.48 575.28 1032.5 606.64 1017.3H606.704L647.708 993.729L754.99 932.09L863.049 870L867.58 867.359L989.361 796.091L1100.17 731.264L1105.22 728.301C1115.58 722.311 1123.7 702.151 1125.41 690.397C1129.36 664.343 1125.19 594.492 1120.98 572.786ZM1005.45 575.492L749.521 729.203C737.256 736.578 731.463 731.747 737.158 718.64C752.563 683.247 784.149 618.291 818.518 592.753C866.804 556.877 979.361 490.118 1017.61 494.433C1018.1 494.433 1025.7 494.626 1030.62 508.088C1032.24 512.5 1034.7 521.646 1036.97 530.566C1040.17 543.062 1025.87 563.157 1005.45 575.492Z" fill="#D6D6E6"/>
<path d="M762.045 895.474C762.045 907.228 759.521 919.756 754.99 932.058L647.708 993.697C643.242 986.547 640.685 976.951 640.685 965.196C640.685 926.744 667.902 879.822 701.365 860.596C734.828 841.402 762.045 857.054 762.045 895.474Z" fill="#6B7178"/>
<path d="M758 897.824C758 933.764 732.66 977.465 701.398 995.435C670.135 1013.4 644.763 998.849 644.763 962.909C644.763 926.968 670.103 883.267 701.398 865.329C732.66 847.327 758 861.884 758 897.824Z" fill="#79818D"/>
<path d="M701.398 983.715C675.766 998.433 654.925 986.453 654.925 957.018C654.925 927.583 675.766 891.675 701.365 876.958C726.964 862.24 747.806 874.221 747.806 903.655C747.838 933.09 726.997 968.998 701.398 983.715Z" fill="#B2B6BD"/>
<path d="M701.398 981.393C676.899 995.467 656.996 984.002 656.996 955.887C656.996 927.741 676.931 893.411 701.43 879.338C725.929 865.264 745.832 876.729 745.832 904.843C745.799 932.958 725.864 967.32 701.398 981.393Z" fill="#C3C8CF"/>
<path d="M701.398 949.448C692.239 954.697 684.796 950.414 684.796 939.915C684.796 929.385 692.239 916.535 701.398 911.286C710.556 906.036 718 910.32 718 920.818C718 931.317 710.556 944.166 701.398 949.448Z" fill="#B2B6BD"/>
<path d="M701.398 941.913C695.864 945.101 691.333 942.525 691.333 936.148C691.333 929.772 695.831 922.011 701.398 918.822C706.932 915.634 711.43 918.243 711.43 924.587C711.43 930.963 706.932 938.725 701.398 941.913Z" fill="white"/>
<path d="M708.776 880.531L701.365 907.744L693.954 889.033C696.349 887.101 698.841 885.426 701.365 883.977C703.922 882.56 706.381 881.369 708.776 880.531Z" fill="#7D7D7D"/>
<path d="M678.582 905.199L687.482 922.332L668.129 923.234C669.488 920.142 671.074 917.018 672.854 913.927C674.634 910.867 676.543 907.937 678.582 905.199Z" fill="#7D7D7D"/>
<path d="M661.721 944.619L681.689 941.656L661.721 961.655C661.268 959.175 661.041 956.438 661.041 953.54C661.041 950.609 661.268 947.646 661.721 944.619Z" fill="#7D7D7D"/>
<path d="M668.096 975.664L687.449 954.312L678.55 981.654C676.511 981.235 674.601 980.527 672.821 979.496C671.074 978.498 669.488 977.21 668.096 975.664Z" fill="#7D7D7D"/>
<path d="M693.987 980.17L701.398 952.957L708.809 971.668C706.414 973.568 703.922 975.275 701.398 976.724C698.841 978.141 696.381 979.3 693.987 980.17Z" fill="#7D7D7D"/>
<path d="M724.181 955.503L715.281 938.37L734.634 937.469C733.243 940.593 731.657 943.684 729.877 946.776C728.129 949.835 726.22 952.734 724.181 955.503Z" fill="#7D7D7D"/>
<path d="M741.042 916.083L721.074 919.046L741.042 899.047C741.495 901.559 741.722 904.264 741.722 907.162C741.722 910.061 741.495 913.056 741.042 916.083Z" fill="#7D7D7D"/>
<path d="M734.667 885.038L715.281 906.389L724.181 879.016C726.22 879.434 728.129 880.175 729.909 881.173C731.689 882.204 733.275 883.492 734.667 885.038Z" fill="#7D7D7D"/>
<path d="M1105.22 700.511C1105.22 710.398 1103.41 720.864 1100.17 731.266L989.361 796.094C985.834 789.299 983.86 780.603 983.86 770.266C983.86 731.814 1011.08 684.892 1044.54 665.666C1078 646.408 1105.22 662.027 1105.22 700.511Z" fill="#6B7178"/>
<path d="M1101.17 702.829C1101.17 738.769 1075.83 782.47 1044.57 800.408C1013.28 818.378 987.937 803.822 987.937 767.882C987.937 731.942 1013.28 688.241 1044.57 670.27C1075.83 652.333 1101.17 666.921 1101.17 702.829Z" fill="#79818D"/>
<path d="M1044.54 788.75C1018.91 803.468 998.067 791.488 998.067 762.053C998.067 732.618 1018.91 696.71 1044.54 681.993C1070.14 667.276 1090.98 679.256 1090.98 708.69C1091.01 738.125 1070.17 774.033 1044.54 788.75Z" fill="#B2B6BD"/>
<path d="M1044.54 786.399C1020.04 800.472 1000.14 789.008 1000.14 760.893C1000.14 732.747 1020.07 698.417 1044.57 684.343C1069.07 670.27 1088.97 681.703 1088.97 709.849C1088.94 737.996 1069.04 772.358 1044.54 786.399Z" fill="#C3C8CF"/>
<path d="M1044.54 754.487C1035.38 759.736 1027.91 755.453 1027.91 744.954C1027.91 734.424 1035.35 721.574 1044.51 716.325C1053.67 711.075 1061.11 715.359 1061.11 725.857C1061.17 736.356 1053.7 749.205 1044.54 754.487Z" fill="#B2B6BD"/>
<path d="M1044.54 746.919C1039.01 750.107 1034.47 747.531 1034.47 741.154C1034.47 734.778 1038.97 727.016 1044.51 723.828C1050.04 720.64 1054.57 723.216 1054.57 729.593C1054.6 735.969 1050.11 743.763 1044.54 746.919Z" fill="white"/>
<path d="M1051.95 685.57L1044.54 712.783L1037.13 694.072C1039.52 692.172 1042.02 690.465 1044.54 689.016C1047.06 687.567 1049.56 686.408 1051.95 685.57Z" fill="#7D7D7D"/>
<path d="M1021.76 710.238L1030.66 727.371L1011.3 728.273C1012.66 725.149 1014.25 722.057 1016.03 718.966C1017.81 715.906 1019.72 712.976 1021.76 710.238Z" fill="#7D7D7D"/>
<path d="M1004.9 749.654L1024.86 746.691L1004.9 766.69C1004.44 764.211 1004.22 761.473 1004.22 758.575C1004.22 755.644 1004.44 752.681 1004.9 749.654Z" fill="#7D7D7D"/>
<path d="M1011.27 780.699L1030.62 759.348L1021.72 786.721C1019.69 786.303 1017.78 785.562 1016 784.564C1014.25 783.533 1012.63 782.245 1011.27 780.699Z" fill="#7D7D7D"/>
<path d="M1037.13 785.178L1044.54 757.965L1051.95 776.676C1049.56 778.576 1047.06 780.282 1044.54 781.732C1042.02 783.181 1039.56 784.34 1037.13 785.178Z" fill="#7D7D7D"/>
<path d="M1067.36 760.507L1058.46 743.374L1077.81 742.473C1076.45 745.596 1074.83 748.688 1073.05 751.78C1071.27 754.839 1069.36 757.77 1067.36 760.507Z" fill="#7D7D7D"/>
<path d="M1084.18 721.122L1064.22 724.085L1084.18 704.086C1084.64 706.598 1084.86 709.303 1084.86 712.201C1084.9 715.1 1084.67 718.063 1084.18 721.122Z" fill="#7D7D7D"/>
<path d="M1077.84 690.046L1058.49 711.397L1067.39 684.023C1069.43 684.442 1071.34 685.183 1073.12 686.181C1074.86 687.244 1076.45 688.532 1077.84 690.046Z" fill="#7D7D7D"/>
<path d="M1020.95 567.15L749.521 729.202C737.256 736.577 731.463 731.746 737.158 718.639C752.563 683.246 783.728 619.063 815.573 590.498C856.836 553.463 980.656 485.286 1018.91 489.602C1019.39 489.602 1025.12 489.409 1030.62 508.087C1031.95 512.628 1034.7 521.645 1036.93 530.566C1040.17 543.029 1041.37 554.816 1020.95 567.15Z" fill="#9292AA"/>
<path d="M578.905 511.179L461.654 581.191C449.421 588.566 443.628 583.735 449.292 570.628C460.554 544.736 480.295 503.418 502.561 471.922C528.581 484.256 554.374 497.653 578.905 511.179Z" fill="#DADADA"/>
<path d="M784.829 685.566C784.829 685.566 763.825 710.17 781.269 722.923C786.123 726.465 849.392 731.682 852.726 712.778C856.836 689.527 799.392 670.88 784.829 685.566Z" fill="#BEBEBE"/>
<path d="M678.873 749.139C660.782 779.894 645.798 795.803 593.792 841.147C553.306 876.475 538.257 913.188 532.82 941.56L258.352 783.888C264.048 755.709 279.226 719.576 319.032 684.827C370.974 639.516 385.99 623.639 404.081 592.98C448.224 633.075 509.551 676.454 585.151 711.428C614.245 724.922 655.669 742.441 678.873 749.139Z" fill="#ECECFA"/>
<path d="M529.552 875.025C519.746 884.171 502.432 881.788 486.218 876.313C463.564 868.649 475.668 850.26 490.198 839.632C507.901 826.686 546.218 806.623 560.393 805.528C574.6 804.465 584.698 811.647 585.927 815.125C588.808 823.176 551.526 854.382 529.552 875.025Z" fill="white"/>
<path d="M284.566 740.766C288.935 728.882 314.275 696.324 339.323 681.188C342.624 679.191 351.912 676.615 352.301 688.691C352.689 700.768 305.084 773.84 293.206 768.623C287.09 765.95 282.235 747.046 284.566 740.766Z" fill="white"/>
<path d="M779.295 693.683C779.295 693.683 757.709 727.562 758.518 731.169C759.327 734.776 759.262 738.222 766.253 737.803C773.275 737.384 774.311 728.271 774.311 728.271L781.172 715.743L779.715 692.91" fill="#BEBEBE"/>
<path d="M416.832 570.243C416.832 570.243 408.029 544.222 416.832 542.611C425.635 541.001 431.331 543.578 431.331 543.578L416.832 570.243Z" fill="#8AA0D7"/>
<path d="M1103.15 529.603C1090.69 535.883 1072.44 541.197 1068.42 539.361C1060.07 535.625 1049.94 489.734 1049.94 485.29C1049.94 479.461 1063.5 478.173 1069.56 477.883C1069.62 477.947 1069.72 478.044 1069.78 478.108C1069.82 478.14 1069.82 478.173 1069.82 478.173C1070.17 478.527 1070.53 478.881 1070.92 479.268C1081.04 489.863 1093.28 510.184 1103.15 529.603Z" fill="#9292AA"/>
<path d="M416.994 887.038C416.994 887.038 432.884 871.902 440.586 875.831C473.661 892.706 521.364 914.251 521.364 914.251C521.364 914.251 533.532 918.534 543.338 907.745C543.338 907.745 534.503 926.488 532.496 943.267C530.49 960.045 415.894 887.296 415.894 887.296" fill="#B5B5B5"/>
<path d="M332.042 832.838C332.042 832.838 334.21 818.603 329.356 813.515C324.501 808.394 269.484 779.7 269.484 779.7C269.484 779.7 262.559 776.963 262.688 767.27C262.688 767.27 259.743 775.224 258.158 785.143C256.539 794.997 332.042 832.838 332.042 832.838Z" fill="#B5B5B5"/>
<path d="M371.02 819.451C378.454 818.277 387.15 819.577 395.193 822.649C403.236 825.722 410.574 830.548 415.311 836.373C420.034 842.217 421.222 847.875 419.513 852.307C417.804 856.738 413.124 860.137 405.687 861.296H405.686C398.236 862.471 389.539 861.17 381.501 858.098C373.462 855.025 366.132 850.199 361.394 844.374C356.655 838.546 355.46 832.896 357.169 828.465C358.878 824.033 363.566 820.627 371.019 819.451H371.02Z" fill="#C9D0D5" stroke="#D3D3D3"/>
<path d="M335.828 572.143L169.063 667.951V147.722L335.828 51.9141V572.143Z" fill="#DDDDEB"/>
<path d="M319.647 79.8047V222.341L185.244 300.63V157.031L319.647 79.8047Z" fill="#9292AA"/>
<path d="M169.063 147.723L82.2985 98.1605L249.064 1L335.828 51.9151L169.063 147.723Z" fill="#EFEFFB"/>
<path d="M169.063 667.952L82.2985 618.389V98.1602L169.063 147.723V667.952Z" fill="#EFEFFB"/>
<path d="M232.818 506.222L254.436 413.216L227.219 428.835L250.229 318.986L291.394 295.348L259.323 390.028L282.333 376.792L232.818 506.222Z" fill="white"/>
<path d="M236.28 227.428C236.28 228.144 235.897 228.806 235.275 229.163L219.34 238.301C218.007 239.066 216.345 238.103 216.345 236.566V186.622C216.345 185.906 216.727 185.245 217.348 184.888L233.283 175.724C234.617 174.957 236.28 175.919 236.28 177.457V227.428Z" fill="white"/>
<path d="M263.239 211.94C263.239 212.656 262.856 213.317 262.236 213.674L246.3 222.838C244.967 223.605 243.303 222.643 243.303 221.105V171.134C243.303 170.417 243.687 169.756 244.308 169.399L260.244 160.261C261.577 159.496 263.239 160.458 263.239 161.995V211.94Z" fill="white"/>
<path d="M282.074 201.12C282.074 201.836 281.691 202.497 281.071 202.854L273.259 207.348C271.925 208.115 270.261 207.152 270.261 205.614V155.675C270.261 154.959 270.644 154.298 271.264 153.941L279.076 149.447C280.41 148.68 282.074 149.642 282.074 151.18V201.12Z" fill="white"/>
<path d="M296.702 181.83C296.702 182.545 296.32 183.206 295.7 183.563L294.393 184.317C293.06 185.085 291.394 184.123 291.394 182.584V162.732C291.394 162.014 291.779 161.35 292.403 160.995L293.711 160.249C295.044 159.488 296.702 160.451 296.702 161.986V181.83Z" fill="white"/>
<path d="M108.329 369.317C111.732 367.364 116.525 367.602 121.953 370.722C127.377 373.84 132.311 379.202 135.891 385.373C139.471 391.545 141.669 398.479 141.669 404.715C141.669 410.953 139.477 415.198 136.075 417.15C132.671 419.104 127.878 418.866 122.451 415.746C117.027 412.628 112.092 407.266 108.512 401.095C104.932 394.923 102.734 387.988 102.734 381.753C102.734 375.515 104.926 371.27 108.329 369.317Z" fill="#BDC6CA" stroke="#D3D3D3"/>
<path d="M123.579 393.898L99.0149 419.375V694.376C99.0149 712.021 86.4381 733.694 70.9463 742.804L18.2154 773.715C2.72359 782.793 2.52708 797.817 17.8223 807.247L312.101 988.621C327.396 998.051 339.809 991.37 339.809 973.725V885.851" stroke="#BEC3D3" stroke-width="4" stroke-miterlimit="10"/>
<path d="M382.722 837.992L361.33 855.511L339.194 890.936" stroke="#CACEDC" stroke-width="5" stroke-miterlimit="10"/>
</g>
<defs>
<filter id="filter0_f_10784_63308" x="-0.5" y="0.5" width="1128" height="1026" filterUnits="userSpaceOnUse" color-interpolation-filters="sRGB">
<feFlood flood-opacity="0" result="BackgroundImageFix"/>
<feBlend mode="normal" in="SourceGraphic" in2="BackgroundImageFix" result="shape"/>
<feGaussianBlur stdDeviation="0.25" result="effect1_foregroundBlur_10784_63308"/>
</filter>
<clipPath id="clip0_10784_63308">
<rect width="1127" height="1025" fill="white" transform="translate(0 1)"/>
</clipPath>
</defs>
</svg>
