<svg width="123" height="118" viewBox="0 0 123 118" fill="none" xmlns="http://www.w3.org/2000/svg">
<g filter="url(#filter0_f_8926_58900)">
<path d="M37.0006 42.3211L7.87537 59.6242C3.76597 62.0646 3.82061 65.9294 7.99679 68.253L63.6809 99.1754C84.5675 110.843 124.475 82.0714 107.747 73.0679L52.0042 42.1087C47.8281 39.7851 41.11 39.8782 37.0006 42.3211Z" fill="#B4B4B4" fillOpacity="0.85"/>
</g>
<path d="M39.4968 28.0229C40.9236 27.6354 46.9902 25.5193 54.2128 29.4303C55.924 30.3567 59.3752 32.2917 63.6507 34.7067C63.6507 34.7067 68.6539 39.7549 74.9605 42.9291C86.8922 48.936 94.9533 52.5124 94.9533 52.5124C94.9533 52.5124 94.7921 52.6875 94.2165 52.9282C90.7105 54.3909 82.4651 62.1581 76.6907 60.1942C69.9682 57.905 39.4968 28.0229 39.4968 28.0229Z" fill="#D8D8EC"/>
<path opacity="0.5" d="M89.9641 50.3972C89.9641 50.3972 75.8186 44.4527 73.8244 43.2496C71.8301 42.0489 70.1038 40.7494 69.4361 40.1271C68.7683 39.5048 68.9629 41.6141 72.4435 43.4912C77.1333 46.0208 89.9641 50.3972 89.9641 50.3972Z" fill="white"/>
<path d="M68.5729 35.9876C68.5811 36.5938 68.5396 37.4311 68.4965 38.529C68.4408 40.0003 68.6625 40.7614 69.3697 41.8842C69.6937 42.3984 70.386 43.1632 71.6621 43.9201C78.6767 48.0893 94.9483 52.512 94.9483 52.512L94.214 52.9278L74.8334 51.0397L66.3351 45.6454L66.0164 36.5708L67.3155 35.8618L68.5729 35.9876Z" fill="#595959"/>
<path d="M66.0079 36.5736L66.0242 37.0343C66.2015 37.4929 66.5044 38.1201 66.9127 38.3576C67.1411 38.4923 67.396 38.5515 67.6326 38.5483C68.0955 38.5421 68.4974 38.3011 68.515 37.9226C68.5212 37.8198 68.5223 37.7196 68.5285 37.6218C68.5616 36.9024 68.5703 36.4263 68.5645 35.9954L67.3044 35.8646L66.0079 36.5736Z" fill="#FAFAFF"/>
<path opacity="0.3" d="M66.0079 36.5736L66.0242 37.0343C66.2015 37.4929 66.5044 38.1201 66.9127 38.3576C67.1411 38.4923 67.396 38.5515 67.6326 38.5483C68.0955 38.5421 68.4974 38.3011 68.515 37.9226C68.5212 37.8198 68.5223 37.7196 68.5285 37.6218C68.5616 36.9024 68.5703 36.4263 68.5645 35.9954L67.3044 35.8646L66.0079 36.5736Z" fill="#7D7D7D"/>
<path d="M36.5213 30.9085C37.8758 27.5984 40.4373 27.5689 44.67 28.1105C45.1616 28.174 55.9811 30.2753 62.0509 32.4932C66.6361 34.17 67.9975 35.4694 68.3626 35.6724C69.2121 36.1469 67.8239 36.9673 66.8946 36.5439C66.9042 37.2553 66.8924 37.8692 66.9198 38.41C67.077 41.6671 67.6221 42.1533 69.2158 43.8855C69.8722 44.5981 71.8177 45.5439 72.8824 46.1208C74.8699 47.1963 74.7576 46.3335 80.0234 48.2766C82.2794 49.108 93.1154 52.9902 94.2702 52.9621L65.8149 71.2432L56.8479 78.1157L14.7338 45.5523L36.5213 30.9085Z" fill="#FAFAFF"/>
<path d="M66.8585 36.511L63.4691 34.307L35.9869 49.724L40.4344 52.1993L40.6586 69.1942L67.0879 53.5183L66.8585 36.511Z" fill="#FAFAFF"/>
<path opacity="0.25" d="M66.8585 36.511L63.4691 34.307L35.1934 48.7377L28.1532 49.7571L30.0529 55.3331L40.6586 69.1942L67.0879 53.5183L66.8585 36.511Z" fill="#7D7D7D"/>
<path opacity="0.3" d="M74.4503 62.3953C74.4503 62.3953 73.8819 53.2765 73.4496 46.4155C75.6867 47.5202 75.187 46.4847 79.9621 48.2491C81.9273 48.9742 90.409 52.0139 93.3208 52.7662C93.3208 52.7662 93.944 52.8856 94.2089 52.9346L77.5149 63.6542L74.4503 62.3953Z" fill="#7D7D7D"/>
<path d="M10.5263 61.3805L21.7362 54.7358L15.4122 51.2135L9.35485 55.1357L10.5263 61.3805Z" fill="#FAFAFF"/>
<path opacity="0.35" d="M10.5263 61.3805L21.7362 54.7358L15.4122 51.2135L9.35485 55.1357L10.5263 61.3805Z" fill="#7D7D7D"/>
<path d="M15.2679 59.774L13.6017 56.5872L17.4314 54.311C18.6498 53.5906 20.2864 53.6486 22.0943 54.6564C25.9358 56.7967 29.1019 62.4057 29.1664 67.1873C29.2001 69.6896 28.376 71.4694 27.0306 72.2892L27.0307 72.2917L26.9757 72.3225C26.9732 72.325 26.9707 72.3251 26.9682 72.3276L23.041 74.6553L21.2844 71.2945C18.0179 68.8684 15.4512 64.0354 15.2679 59.774Z" fill="#595959"/>
<path d="M15.2679 59.774L13.6017 56.5872L17.4314 54.311C18.6498 53.5906 20.2864 53.6486 22.0943 54.6564C25.9358 56.7967 29.1019 62.4057 29.1664 67.1873C29.2001 69.6896 28.376 71.4694 27.0306 72.2892L27.0307 72.2917L26.9757 72.3225C26.9732 72.325 26.9707 72.3251 26.9682 72.3276L23.041 74.6553L21.2844 71.2945C18.0179 68.8684 15.4512 64.0354 15.2679 59.774Z" fill="#2A2B39" fillOpacity="0.34"/>
<path d="M11.2767 61.8144C11.3322 65.9347 13.6963 70.6752 16.8092 73.2738C16.8143 73.2762 16.8194 73.2836 16.8219 73.2861C17.3157 73.6953 17.8264 74.0542 18.3512 74.3452C22.1928 76.488 25.2568 74.3448 25.1898 69.5657C25.1411 65.9539 23.3218 61.8673 20.7788 59.1634C20.7737 59.1585 20.7635 59.1511 20.7559 59.1412C19.9389 58.2754 19.0483 57.5534 18.1152 57.0349C14.2737 54.8971 11.2122 57.0353 11.2767 61.8144Z" fill="#595959"/>
<path d="M18.153 59.9137C15.7087 58.5513 13.7606 60.0306 13.8036 63.2191C13.8466 66.4052 15.8643 70.0932 18.3087 71.4556C20.7531 72.8181 22.7011 71.3388 22.6581 68.1502C22.6151 64.9617 20.5974 61.2762 18.153 59.9137Z" fill="#7D7D7D"/>
<path d="M16.2255 64.821C16.4004 66.4045 17.4371 68.079 18.5333 68.5577C19.0168 68.7667 19.4313 68.7135 19.7272 68.4515C20.1103 68.1206 20.3026 67.4491 20.2051 66.5611C20.0302 64.9777 18.9984 63.303 17.8973 62.8244C17.5985 62.6931 17.3264 62.6642 17.0931 62.725C17.0931 62.725 17.0906 62.7225 17.0906 62.725C16.4611 62.8813 16.0967 63.6679 16.2255 64.821Z" fill="#DFDFDF"/>
<path d="M16.6153 64.6154C16.7902 66.1988 17.827 67.8733 18.9231 68.3521C19.2193 68.4809 19.4915 68.5123 19.7272 68.4515C20.1103 68.1206 20.3026 67.4491 20.2051 66.5611C20.0302 64.9776 18.9984 63.303 17.8973 62.8244C17.5985 62.6931 17.3264 62.6642 17.0931 62.725C17.0931 62.725 17.0906 62.7225 17.0906 62.725C16.7101 63.0583 16.5178 63.7298 16.6153 64.6154Z" fill="#9D9D9D"/>
<path d="M11.2645 61.8072C11.3201 65.9276 13.6842 70.6681 16.797 73.2666C14.9487 71.3175 13.0145 68.0367 12.3052 64.8922C11.6843 62.1448 11.8499 58.1868 14.2116 57.1554C16.5558 56.1292 19.7394 58.1881 20.7437 59.1341C19.9267 58.2683 19.0362 57.5463 18.1031 57.0277C14.2616 54.89 11.2 57.0282 11.2645 61.8072Z" fill="#595959"/>
<g filter="url(#filter1_i_8926_58900)">
<path d="M9.18344 45.8096C10.538 42.4994 16.3269 39.0042 18.8346 40.2105C19.6173 40.5857 21.8393 41.8835 24.6361 43.4391C24.6361 43.4391 33.8464 48.8163 34.6959 49.2909C34.6959 49.2909 30.3269 49.2772 29.3429 49.6487C28.3563 50.0203 28.5628 50.7715 28.632 51.0512L29.1519 52.655C30.361 58.1527 38.9965 60.2809 40.8533 62.3026C41.5097 63.0153 42.0416 63.2661 43.1014 63.8531C44.1613 64.44 50.7422 67.9863 51.683 68.5123C53.3742 69.454 56.1083 70.6471 56.1083 70.6471L56.3264 86.8204L27.4013 70.8239C27.3954 70.3881 27.3668 69.945 27.3129 69.4973C26.7312 64.2467 22.7766 58.1974 18.5928 55.8713C14.0515 53.3422 10.4332 55.8111 10.5084 61.3866L9.77308 60.9782C7.15789 59.4527 7.83131 49.1146 9.18344 45.8096Z" fill="#EBEBF9"/>
</g>
<g filter="url(#filter2_i_8926_58900)">
<path d="M16.438 40.1136C17.3637 39.8932 18.2093 39.8968 18.8451 40.2039C19.6278 40.5792 21.8499 41.8795 24.6492 43.435C24.6492 43.435 26.2441 44.3204 28.4171 45.5287L48.1933 33.8306C48.1933 33.8306 40.4107 30.0074 37.6514 28.9899C34.892 27.97 17.1854 38.0568 16.438 40.1136Z" fill="#EBEBF9"/>
</g>
<path d="M42.4248 66.6025C42.4882 66.6367 42.5656 66.5906 42.5646 66.5205L42.5587 66.0821C42.5542 65.7515 42.0486 65.2047 41.4299 64.8598L40.517 64.351C39.8983 64.0061 39.3999 63.9953 39.4044 64.3259L39.4092 64.6841C39.4112 64.8344 39.4936 64.9711 39.6254 65.0445L42.4248 66.6025Z" fill="#595959"/>
<path d="M20.1144 46.4632C22.5535 44.0754 25.55 42.3339 28.4195 40.514C31.2641 38.712 34.1268 36.9397 37.0177 35.2147C39.3969 33.7948 41.7912 32.3821 44.2606 31.1187C44.9204 30.7816 45.5928 30.4394 46.2889 30.177C46.3815 30.1406 46.4691 30.1069 46.5518 30.0782C46.5618 30.0756 46.5718 30.0704 46.5843 30.0678C46.9276 29.9529 47.3612 29.8243 47.8602 29.6873C50.4127 28.9915 54.7723 28.1235 58.6152 28.3122C61.967 28.4774 78.9713 36.2898 80.8673 38.4162C82.5002 40.248 82.9647 40.9182 83.3618 41.4364C83.3618 41.4364 81.0331 39.6966 79.9089 40.1201C79.0025 40.463 72.5597 46.4096 68.1876 48.7834C62.9811 51.6094 55.774 54.4373 53.9834 55.2731C52.1928 56.109 53.3417 58.2605 53.3417 58.2605C52.4911 56.9567 52.071 56.2209 51.0404 55.3805C49.1371 53.8304 41.5233 50.0149 41.4092 49.9588C40.2738 49.3654 38.8735 49.0962 38.0226 49.0751L30.1503 49.4243L21.1319 47.6394C20.6509 47.6109 20.184 47.5119 19.7829 47.2593C19.6609 46.9779 19.8959 46.6766 20.1144 46.4632Z" fill="#FAFAFF"/>
<path opacity="0.5" d="M51.9526 56.0024C51.9526 56.0024 49.0137 53.6119 44.5581 51.0967C40.1025 48.5814 38.9637 48.5161 34.3967 48.5601C30.9142 48.5921 31.7208 48.83 28.2363 48.9095C28.0779 48.9142 23.809 48.248 23.6696 48.1722C23.5302 48.0964 22.9627 48.1239 22.594 47.9204C21.8871 47.8721 21.1528 47.7086 21.2505 47.6722C23.6445 46.7932 29.7297 46.5769 31.9938 45.3939C33.938 44.3781 35.8357 43.2703 37.7258 42.1625C42.9293 39.1137 47.8329 36.2216 52.9897 32.7024C57.805 29.4207 58.5036 28.4092 60.4884 28.7232C66.0345 30.372 79.2095 36.5675 80.8653 38.4241C80.8729 38.4315 80.878 38.4389 80.8857 38.4464L80.8783 39.3909C80.8783 39.3909 80.5974 39.6477 80.0999 40.0803C80.0346 40.0912 79.9694 40.1046 79.9093 40.128C79.088 40.4372 73.721 45.3522 69.4664 48.0375C69.0421 48.2963 68.6151 48.5501 68.1881 48.7913C63.7011 51.2268 57.7293 53.6622 55.0195 54.8236C53.1696 55.555 51.9526 56.0024 51.9526 56.0024Z" fill="#EBEBF9"/>
<path opacity="0.15" d="M23.2848 47.5253C24.6769 47.3687 26.0499 47.1022 27.4199 46.7981C28.9655 46.4541 30.5868 46.1291 32.0012 45.391C33.9455 44.3752 35.8431 43.2674 37.7358 42.1596C42.9367 39.1107 47.8428 36.2187 52.9997 32.6994C57.8074 29.4179 58.5085 28.4064 60.4908 28.7203C59.6873 28.4806 59.0411 28.3365 58.618 28.3147C54.0247 28.0885 48.6892 29.3755 46.5872 30.0703C45.7829 30.3367 45.0157 30.7353 44.2634 31.1213C41.7941 32.3846 39.4022 33.7973 37.0205 35.2173C34.1296 36.9423 31.2644 38.7145 28.4223 40.5165C25.5503 42.3365 22.5564 44.0804 20.1173 46.4657C19.8962 46.6816 19.6637 46.9804 19.7833 47.2644C20.4533 47.6862 21.3014 47.6823 22.0909 47.6316C22.4907 47.6061 22.8904 47.5707 23.2848 47.5253Z" fill="#7D7D7D"/>
<path d="M28.4305 41.923C34.5023 38.3238 38.824 35.5799 43.5377 32.7856C45.2554 31.7679 46.8759 31.007 49.1557 30.6205C50.3408 30.4191 52.3088 30.0443 53.3759 30.0475C55.1859 30.0907 54.1429 31.1294 50.5528 33.2572C46.9651 35.3874 37.1599 41.5046 35.0752 42.7402C32.9881 43.9809 29.8398 45.6568 25.6922 46.3841C21.5446 47.1115 18.4339 47.8474 28.4305 41.923Z" fill="#758294" fillOpacity="0.28"/>
<path d="M28.136 49.383C29.3188 48.6305 34.1138 48.5082 36.3165 48.3783C38.4565 48.2517 39.9354 48.5625 41.3874 49.302C41.4837 49.3508 41.5825 49.402 41.6814 49.4583C42.8531 50.1289 49.0716 53.6701 50.8968 54.6551C52.722 55.6401 53.016 56.9088 53.9237 58.7203C54.8315 60.5294 59.9666 70.6989 60.2549 72.1055C60.5457 73.5145 52.9908 69.7834 52.9908 69.7834C52.9908 69.7834 44.4457 65.0235 41.872 63.5902C41.4384 63.348 41.3191 63.2745 40.7939 62.9559C40.2687 62.6373 33.4497 58.6107 30.8448 56.5389C29.5474 55.5067 29.1726 54.7703 28.6544 52.9259C28.036 50.7372 27.395 49.8539 28.136 49.383ZM41.5545 62.4396C42.4069 62.9491 44.6032 64.0168 47.9104 65.9112C52.1586 68.3441 58.4197 71.1331 58.4627 71.1501C57.1187 67.9691 53.3314 60.3316 52.63 58.7027C51.926 57.0738 51.249 55.9531 50.3567 55.4716C48.3895 54.4083 42.2951 51.1085 41.1182 50.4329L41.1106 50.428C40.8494 50.2787 40.5246 50.451 40.5009 50.7494C40.4903 50.8974 40.4827 51.0753 40.4855 51.2857L40.6136 60.7813C40.621 61.3323 40.702 61.93 41.5545 62.4396ZM28.8303 50.293C29.0512 51.1819 29.9137 54.8655 31.0329 55.7447C31.9028 56.427 36.8173 59.3845 38.6298 60.545C39.3457 61.0013 39.4832 60.3756 39.4728 59.6067C39.4466 57.6655 39.3892 53.5953 39.3583 51.3009C39.3846 50.0855 39.0662 49.6113 38.0675 49.452C36.8317 49.2582 28.5535 49.1744 28.8303 50.293Z" fill="#04082C" fillOpacity="0.74"/>
<path opacity="0.5" d="M41.5626 62.436C42.4151 62.9456 44.6114 64.0132 47.9186 65.9077C52.1667 68.3406 58.4279 71.1296 58.4709 71.1465C57.1269 67.9655 53.3396 60.3281 52.6381 58.6991C51.9342 57.0702 51.2572 55.9495 50.3648 55.468C48.3976 54.4048 42.3032 51.1049 41.1264 50.4294L41.1188 50.4245C40.8576 50.2752 40.5327 50.4474 40.5091 50.7458C40.4985 50.8938 40.4908 51.0718 40.4936 51.2822L40.6217 60.7777C40.6292 61.3288 40.7102 61.9264 41.5626 62.436Z" fill="#7D7D7D"/>
<path opacity="0.5" d="M28.8472 50.2859C29.068 51.1748 29.9306 54.8583 31.0498 55.7376C31.9196 56.4198 36.8342 59.3773 38.6467 60.5378C39.3625 60.9941 39.5 60.3685 39.4897 59.5995C39.4635 57.6583 39.4061 53.5881 39.3751 51.2938C39.4015 50.0784 39.0831 49.6042 38.0843 49.4448C36.8486 49.251 28.5704 49.1673 28.8472 50.2859Z" fill="#9B9B9B"/>
<path d="M61.6745 71.4686C64.4992 69.3136 70.7486 64.6949 77.2767 60.7839C85.4825 55.8682 94.1855 52.9324 94.2031 52.9297C93.9786 53.8221 92.5861 55.2538 90.7096 56.8148C89.3782 57.925 87.8786 59.0601 86.1406 60.256C82.0379 63.1898 78.1445 65.2264 76.7343 66.0922C69.6679 70.0305 62.4642 73.1139 61.25 71.7149C61.245 71.7149 61.6695 71.4737 61.6745 71.4686Z" fill="#595959"/>
<path d="M61.2343 71.7241C61.5712 71.5091 72.7327 64.4492 77.8941 61.2656C82.8083 58.2331 92.9571 53.5167 94.1875 52.9414C93.1427 53.2862 85.4694 55.8799 77.2636 60.7956C70.7379 64.704 64.0616 69.569 61.2343 71.7241Z" fill="#595959"/>
<path d="M92.4164 49.9379L92.6847 50.9865C93.2832 52.0682 94.5925 53.4259 95.0564 53.3044C95.4702 53.1961 95.7138 52.5941 95.8346 51.8509L95.8345 51.8409C95.8928 51.5019 95.9206 51.1332 95.9282 50.7649C95.9527 49.5996 95.3927 46.8865 93.76 46.187C93.388 46.0292 93.055 46.1615 92.7992 46.4154C92.5857 46.6262 92.4235 46.919 92.3391 47.1932C92.076 48.0185 92.3806 49.8958 92.4164 49.9379Z" fill="#FAFAFF"/>
<path opacity="0.3" d="M92.4164 49.9379C92.5079 50.3726 92.6847 50.9865 92.6847 50.9865C93.2832 52.0682 94.5925 53.4259 95.0564 53.3044C95.4702 53.1961 95.7138 52.5941 95.8346 51.8509L95.8345 51.8409C95.8928 51.5019 95.9206 51.1332 95.9282 50.7649C95.9527 49.5996 95.3927 46.8865 93.76 46.187C93.388 46.0292 93.055 46.1615 92.7992 46.4154C92.5857 46.6262 92.4235 46.919 92.3391 47.1932C92.076 48.0185 92.3806 49.8958 92.4164 49.9379Z" fill="#7D7D7D"/>
<path d="M92.6847 50.9865C93.2832 52.0682 94.5925 53.4259 95.0564 53.3044C95.4702 53.1961 95.7138 52.5941 95.8346 51.8509L95.8345 51.8409C95.8928 51.5019 95.9206 51.1332 95.9282 50.7649C95.9527 49.5996 95.3927 46.8865 93.76 46.187C93.388 46.0292 93.055 46.1615 92.7992 46.4154L93.0274 46.9134C94.1712 47.3815 94.4992 49.1232 94.414 50.4546C94.3263 51.7861 93.3457 51.664 92.6847 50.9865Z" fill="#FAFAFF"/>
<path opacity="0.35" d="M92.6847 50.9865C93.2832 52.0682 94.5925 53.4259 95.0564 53.3044C95.4702 53.1961 95.7138 52.5941 95.8346 51.8509L95.8345 51.8409C95.8928 51.5019 95.9206 51.1332 95.9282 50.7649C95.9527 49.5996 95.3927 46.8865 93.76 46.187C93.388 46.0292 93.055 46.1615 92.7992 46.4154L93.0274 46.9134C94.1712 47.3815 94.4992 49.1232 94.414 50.4546C94.3263 51.7861 93.3457 51.664 92.6847 50.9865Z" fill="#AEAEB1"/>
<path d="M56.3647 86.8219L67.5721 80.1772L61.2482 76.655L56.2675 79.6182L56.3647 86.8219Z" fill="#FAFAFF"/>
<path opacity="0.35" d="M56.3647 86.8219L67.5721 80.1772L61.2482 76.655L56.2675 79.6182L56.3647 86.8219Z" fill="#7D7D7D"/>
<path d="M60.9944 85.1568L59.3282 81.9701L63.158 79.6938C64.3764 78.9734 66.0129 79.0315 67.8209 80.0392C71.6624 82.1795 74.8284 87.7885 74.8929 92.5676C74.9266 95.0699 74.1026 96.8497 72.7572 97.6695L72.7572 97.672L72.7022 97.7028C72.6998 97.7053 72.6972 97.7054 72.6948 97.7079L68.7676 100.036L67.0109 96.6748C63.7444 94.2512 61.1777 89.4182 60.9944 85.1568Z" fill="#595959"/>
<path d="M60.9944 85.1568L59.3282 81.9701L63.158 79.6938C64.3764 78.9734 66.0129 79.0315 67.8209 80.0392C71.6624 82.1795 74.8284 87.7885 74.8929 92.5676C74.9266 95.0699 74.1026 96.8497 72.7572 97.6695L72.7572 97.672L72.7022 97.7028C72.6998 97.7053 72.6972 97.7054 72.6948 97.7079L68.7676 100.036L67.0109 96.6748C63.7444 94.2512 61.1777 89.4182 60.9944 85.1568Z" fill="#2A2B39" fillOpacity="0.34"/>
<path d="M56.9798 87.1894C57.0354 91.3097 59.3995 96.0502 62.5123 98.6487C62.5174 98.6512 62.5225 98.6586 62.5251 98.6611C63.0188 99.0703 63.5295 99.4292 64.0544 99.7202C67.8959 101.863 70.9599 99.7198 70.8929 94.9407C70.8442 91.3289 69.0249 87.2423 66.4819 84.5384C66.4768 84.5335 66.4667 84.5261 66.459 84.5162C65.6395 83.6504 64.7514 82.9284 63.8183 82.4099C59.9769 80.2721 56.9153 82.4103 56.9798 87.1894Z" fill="#595959"/>
<path d="M63.8483 85.2926C61.404 83.9302 59.4559 85.4095 59.4989 88.598C59.5419 91.7841 61.5597 95.4721 64.004 96.8346C66.4484 98.197 68.3964 96.7177 68.3534 93.5291C68.3104 90.3406 66.2927 86.6551 63.8483 85.2926Z" fill="#7D7D7D"/>
<path d="M61.9415 90.207C62.1289 91.7902 63.1782 93.4571 64.2793 93.9283C64.7653 94.1346 65.1772 94.0765 65.4731 93.8119C65.8536 93.4786 66.0409 92.8072 65.9358 91.9168C65.7483 90.3335 64.7041 88.6666 63.598 88.1955C63.2993 88.0667 63.0246 88.0404 62.7939 88.1011C62.7939 88.1011 62.7914 88.0986 62.7914 88.1012C62.1619 88.265 61.8051 89.0539 61.9415 90.207Z" fill="#DFDFDF"/>
<path d="M62.3312 89.9963C62.5187 91.5796 63.568 93.2464 64.669 93.7176C64.9677 93.8438 65.2374 93.8727 65.4731 93.8119C65.8536 93.4786 66.0409 92.8072 65.9358 91.9168C65.7483 90.3335 64.7041 88.6666 63.598 88.1955C63.2993 88.0667 63.0246 88.0404 62.7939 88.1011C62.7939 88.1011 62.7914 88.0986 62.7914 88.1012C62.4134 88.4369 62.2262 89.1109 62.3312 89.9963Z" fill="#9D9D9D"/>
<path d="M56.9911 87.1901C57.0466 91.3104 59.4108 96.0509 62.5236 98.6494C60.6753 96.7003 58.7411 93.4195 58.0318 90.275C57.4109 87.5276 57.5764 83.5696 59.9382 82.5382C62.2824 81.512 65.466 83.5709 66.4703 84.5169C65.6508 83.6511 64.7627 82.9291 63.8296 82.4106C59.9882 80.2728 56.9266 82.411 56.9911 87.1901Z" fill="#595959"/>
<g filter="url(#filter3_i_8926_58900)">
<path d="M56.1341 70.6677C56.1341 70.6677 56.7866 70.5336 56.628 69.9696C56.628 69.9696 60.4963 71.671 61.3076 71.9256C63.0792 72.4805 69.6701 70.0442 76.7364 66.1033C78.1466 65.2401 82.0425 63.2034 86.1427 60.2696C87.8807 59.0737 89.3829 57.9386 90.7143 56.8309C92.1204 55.662 93.1594 54.5157 93.7954 53.7179C94.0181 53.4369 94.4759 52.6741 94.1908 52.0567C108.441 61.8628 116.237 65.8962 114.732 77.3178C114.732 77.3178 114.688 78.1551 114.406 79.8449C113.976 82.4236 112.653 86.8155 109.137 89.3581C105.907 91.694 105.685 91.8623 101.296 94.2965C96.9073 96.7281 90.975 98.5442 85.1702 98.4371C78.628 98.3149 72.8728 95.9099 72.6738 94.407C72.5893 93.7392 72.4595 93.0696 72.2818 92.398C71.8465 90.7229 71.1621 89.0562 70.2832 87.5173C68.9455 85.1704 67.1713 83.1175 65.2107 81.8012C64.9542 81.6268 64.6928 81.4674 64.4316 81.3207C60.197 78.9602 56.7611 80.9531 56.3804 85.7558C56.3524 86.1044 56.3421 86.4627 56.3472 86.841L56.1341 70.6677Z" fill="#EBEBF9"/>
</g>
<g filter="url(#filter4_i_8926_58900)">
<path d="M95.1261 95.1066C99.1836 94.0423 102.119 92.4069 104.984 90.6722C107.852 88.9374 109.708 87.3266 110.767 85.967C111.766 84.6834 112.36 83.0245 111.724 83.2635C110.67 84.1921 108.391 86.1669 106.934 87.0709C102.571 89.7853 97.9483 93.137 90.7689 93.3566C90.1473 93.3625 89.627 93.4071 89.3889 93.4804C87.6423 94.0301 92.3676 95.8327 95.1261 95.1066Z" fill="#A0A0A0" fillOpacity="0.49"/>
</g>
<g filter="url(#filter5_i_8926_58900)">
<path d="M80.288 92.0645C80.6898 92.004 81.6898 92.256 83.3948 92.719C85.0972 93.1821 85.5104 93.2216 86.1428 93.644C86.6811 94.0025 88.1183 95.1355 88.81 95.4794C89.9045 96.0233 88.8129 96.4414 85.7784 96.4848C82.7465 96.5282 81.6951 95.6355 80.9806 94.7157C80.2686 93.7959 79.3764 92.2046 80.288 92.0645Z" fill="#A0A0A0" fillOpacity="0.2"/>
</g>
<g filter="url(#filter6_i_8926_58900)">
<path d="M114.68 78.043C114.632 78.462 114.552 79.0568 114.422 79.8377C114.25 80.8721 113.928 82.2017 113.383 83.5845C113.162 83.7929 112.96 83.9334 112.826 83.9277C112.308 83.8996 112.741 83.0044 113.093 81.6719C113.445 80.3344 114.353 79.0319 114.68 78.043Z" fill="#A0A0A0" fillOpacity="0.48"/>
</g>
<path opacity="0.85" d="M106.246 74.4697C102.599 77.212 98.347 79.742 93.4404 82.0353C92.7727 82.3474 92.4463 83.156 92.8896 83.7413C93.5481 84.6117 94.4898 85.3957 95.3617 85.8549C96.0131 86.1993 97.1842 86.0733 97.8701 85.8035C101.725 84.286 104.934 82.4039 107.488 80.1598C108.04 79.6739 108.681 78.6907 108.696 77.9565C108.715 76.909 108.54 75.5035 108.165 74.5891C107.887 73.9089 106.836 74.0258 106.246 74.4697Z" fill="#DFDFDF"/>
<path d="M96.4475 85.273C96.8325 85.2678 97.2617 85.1893 97.5696 85.0674C101.325 83.5888 104.481 81.74 106.953 79.5672C107.425 79.1499 107.883 78.3646 107.89 77.9462C107.908 76.8912 107.72 75.6537 107.429 74.9211C107.297 74.6623 106.881 74.9911 106.724 75.1085C103.005 77.9069 98.6478 80.4809 93.7762 82.7612C93.6337 82.8282 93.5221 82.9525 93.4911 83.0807C93.4672 83.1737 93.4981 83.2284 93.5238 83.2656C94.0875 84.0096 94.9303 84.7348 95.7287 85.1549C95.8782 85.233 96.1456 85.277 96.4475 85.273Z" fill="#7D7D7D"/>
<path opacity="0.35" d="M96.4475 85.273C96.8325 85.2678 97.2617 85.1893 97.5696 85.0674C101.325 83.5888 104.481 81.74 106.953 79.5672C107.425 79.1499 107.883 78.3646 107.89 77.9462C107.908 76.8912 107.72 75.6537 107.429 74.9211C107.297 74.6623 106.881 74.9911 106.724 75.1085C103.005 77.9069 98.6478 80.4809 93.7762 82.7612C93.6337 82.8282 93.5221 82.9525 93.4911 83.0807C93.4672 83.1737 93.4981 83.2284 93.5238 83.2656C94.0875 84.0096 94.9303 84.7348 95.7287 85.1549C95.8782 85.233 96.1456 85.277 96.4475 85.273Z" fill="#595959"/>
<path d="M102.644 83.0289L103.422 82.833C102.819 80.4612 101.562 78.3162 101.507 78.2242L100.816 78.6294C100.831 78.6517 102.073 80.7719 102.644 83.0289Z" fill="#7D7D7D"/>
<path opacity="0.85" d="M102.644 83.0289L103.422 82.833C102.819 80.4612 101.562 78.3162 101.507 78.2242L100.816 78.6294C100.831 78.6517 102.073 80.7719 102.644 83.0289Z" fill="#DFDFDF"/>
<path d="M93.2634 83.4155C93.9897 83.1602 98.5841 81.0414 101.594 79.1495C104.663 77.2191 107.696 74.9837 107.728 74.9632L107.649 74.8565C107.619 74.8795 104.589 77.1124 101.524 79.0377C98.5222 80.9245 93.9428 83.0355 93.2189 83.2908L93.2634 83.4155Z" fill="#7D7D7D"/>
<path d="M93.6654 83.7911C94.2565 83.5827 98.744 81.5631 101.871 79.5994C104.94 77.6691 107.763 75.5642 107.791 75.5413L107.711 75.4346C107.684 75.4551 104.866 77.5599 101.801 79.4851C98.6845 81.4437 94.212 83.4555 93.6234 83.6639L93.6654 83.7911Z" fill="#7D7D7D"/>
<path d="M94.0777 84.172C94.7415 83.9376 99.0889 81.9825 102.156 80.0547C105.225 78.1244 107.836 76.1476 107.861 76.1272L107.779 76.0206C107.754 76.041 105.146 78.0152 102.084 79.9404C99.0269 81.8631 94.6944 83.8105 94.0332 84.0448L94.0777 84.172Z" fill="#7D7D7D"/>
<path d="M94.4796 84.5167C95.191 84.2666 99.3386 82.4194 102.43 80.4763C105.5 78.5459 107.898 76.6973 107.923 76.6794L107.841 76.5753C107.816 76.5932 105.423 78.4392 102.358 80.3645C99.2741 82.3025 95.1415 84.142 94.4327 84.3921L94.4796 84.5167Z" fill="#7D7D7D"/>
<path d="M94.8817 84.9001C95.4678 84.6943 99.5235 82.9361 102.708 80.934C105.777 79.0037 107.963 77.2832 107.986 77.2654L107.904 77.1612C107.881 77.1791 105.7 78.8945 102.636 80.8223C99.4615 82.8192 95.4208 84.5697 94.8372 84.7755L94.8817 84.9001Z" fill="#7D7D7D"/>
<path d="M95.2915 85.2733C95.8976 85.0597 99.8384 83.3631 102.99 81.3815C106.059 79.4512 108.036 77.8588 108.056 77.8435L107.972 77.7394C107.952 77.7547 105.983 79.342 102.921 81.2672C99.7789 83.2436 95.8531 84.9325 95.2495 85.1461L95.2915 85.2733Z" fill="#7D7D7D"/>
<path d="M95.6959 85.636C96.3923 85.3912 100.198 83.7515 103.267 81.8212C106.337 79.8909 108.101 78.4266 108.119 78.4113L108.032 78.3097C108.014 78.325 106.257 79.7817 103.195 81.7069C100.136 83.6321 96.3428 85.2666 95.6489 85.5089L95.6959 85.636Z" fill="#7D7D7D"/>
<g opacity="0.85">
<path d="M93.2634 83.4155C93.9897 83.1602 98.5841 81.0414 101.594 79.1495C104.663 77.2191 107.696 74.9837 107.728 74.9632L107.649 74.8565C107.619 74.8795 104.589 77.1124 101.524 79.0377C98.5222 80.9245 93.9428 83.0355 93.2189 83.2908L93.2634 83.4155Z" fill="#DFDFDF"/>
<path d="M93.6654 83.7911C94.2565 83.5827 98.744 81.5631 101.871 79.5994C104.94 77.6691 107.763 75.5642 107.791 75.5413L107.711 75.4346C107.684 75.4551 104.866 77.5599 101.801 79.4851C98.6845 81.4437 94.212 83.4555 93.6234 83.6639L93.6654 83.7911Z" fill="#DFDFDF"/>
<path d="M94.0777 84.172C94.7415 83.9376 99.0889 81.9825 102.156 80.0547C105.225 78.1244 107.836 76.1476 107.861 76.1272L107.779 76.0206C107.754 76.041 105.146 78.0152 102.084 79.9404C99.0269 81.8631 94.6944 83.8105 94.0332 84.0448L94.0777 84.172Z" fill="#DFDFDF"/>
<path d="M94.4796 84.5167C95.191 84.2666 99.3386 82.4194 102.43 80.4763C105.5 78.5459 107.898 76.6973 107.923 76.6794L107.841 76.5753C107.816 76.5932 105.423 78.4392 102.358 80.3645C99.2741 82.3025 95.1415 84.142 94.4327 84.3921L94.4796 84.5167Z" fill="#DFDFDF"/>
<path d="M94.8817 84.9001C95.4678 84.6943 99.5235 82.9361 102.708 80.934C105.777 79.0037 107.963 77.2832 107.986 77.2654L107.904 77.1612C107.881 77.1791 105.7 78.8945 102.636 80.8223C99.4615 82.8192 95.4208 84.5697 94.8372 84.7755L94.8817 84.9001Z" fill="#DFDFDF"/>
<path d="M95.2915 85.2733C95.8976 85.0597 99.8384 83.3631 102.99 81.3815C106.059 79.4512 108.036 77.8588 108.056 77.8435L107.972 77.7394C107.952 77.7547 105.983 79.342 102.921 81.2672C99.7789 83.2436 95.8531 84.9325 95.2495 85.1461L95.2915 85.2733Z" fill="#DFDFDF"/>
<path d="M95.6959 85.636C96.3923 85.3912 100.198 83.7515 103.267 81.8212C106.337 79.8909 108.101 78.4266 108.119 78.4113L108.032 78.3097C108.014 78.325 106.257 79.7817 103.195 81.7069C100.136 83.6321 96.3428 85.2666 95.6489 85.5089L95.6959 85.636Z" fill="#DFDFDF"/>
</g>
<g opacity="0.85" filter="url(#filter7_i_8926_58900)">
<path d="M80.8079 86.0117C80.2608 85.3752 79.8728 84.5988 80.3165 83.9064C80.7651 83.2089 81.8267 82.8088 82.5812 82.5807C84.8945 81.8806 87.4851 82.1387 89.612 83.285C90.1012 83.549 90.5761 83.8632 90.9292 84.2919C91.2822 84.7205 91.5061 85.2762 91.4431 85.8281C91.1481 88.4 87.3256 88.7872 85.3559 88.4731C84.0798 88.2698 82.8596 87.7402 81.835 86.9623C81.5324 86.7309 81.1403 86.398 80.8079 86.0117Z" fill="white"/>
</g>
<g opacity="0.85" filter="url(#filter8_i_8926_58900)">
<path d="M111.629 74.6044C111.484 74.6765 111.326 74.7237 111.152 74.7436C110.713 74.7946 110.272 74.5951 109.944 74.3014C109.615 74.0077 109.378 73.6226 109.159 73.2398C108.149 71.4722 105.736 66.6922 109.067 65.8581C110.128 65.5933 111.299 66.5871 111.906 67.3806C112.782 68.5262 113.198 70.0262 113.094 71.4581C113.021 72.4436 112.654 74.0995 111.629 74.6044Z" fill="white"/>
</g>
<path opacity="0.15" d="M93.0858 56.0807C93.0858 56.0807 100.131 62.181 105.656 72.1274L93.0858 56.0807Z" fill="#7D7D7D"/>
<path opacity="0.15" d="M91.6585 80.4184C91.6585 80.4184 80.6779 74.9548 64.6345 73.0819L91.6585 80.4184Z" fill="#7D7D7D"/>
<path opacity="0.15" d="M114.734 75.7578C113.914 78.2064 110.958 81.9566 106.532 84.6242C102.106 87.2918 96.3745 90.9616 89.8153 91.263C83.2586 91.5644 78.6692 86.7787 78.6692 86.7787C78.6692 86.7787 82.1182 92.0958 89.8274 92.1622C97.5366 92.2261 102.234 88.7657 106.776 85.9386C111.495 83.0015 114.235 78.871 114.734 75.7578Z" fill="#898989"/>
<path d="M75.3721 43.3062C76.7894 42.2223 78.1182 41.1046 79.3457 39.9407C79.8751 39.4475 80.3842 38.9446 80.8781 38.4294C85.8617 42.5885 90.3637 47.0522 94.2568 51.8999C95.0112 53.1598 91.9008 56.1554 87.2825 59.4921C77.6945 66.413 61.5983 74.8021 60.038 72.1877L52.0744 55.5027C61.286 52.0239 69.197 48.0191 75.3721 43.3062ZM60.9281 71.5744C60.9938 71.5911 61.1224 71.6144 61.3489 71.6114C65.1155 71.5606 77.6496 65.131 86.6568 58.6287C92.4764 54.4241 93.201 52.7358 93.2896 52.3964C90.0443 48.3792 86.2063 44.4427 81.8621 40.6683C81.3477 40.2218 80.5805 40.2472 80.0834 40.7099C80.0809 40.7124 80.0784 40.7149 80.0759 40.7175C78.8683 41.8636 77.5023 43.0194 76.0227 44.1492C70.5077 48.3597 63.5621 52.106 54.846 55.5705C54.1377 55.8531 53.814 56.6742 54.1429 57.3612L60.9281 71.5744Z" fill="#595959"/>
<path opacity="0.5" d="M60.9283 71.574C60.9939 71.5906 61.1226 71.614 61.349 71.6109C65.1157 71.5601 77.6497 65.1305 86.657 58.6282C92.4765 54.4236 93.2012 52.7354 93.2897 52.396C90.0445 48.3788 86.2064 44.4423 81.8622 40.6679C81.3478 40.2214 80.5806 40.2467 80.0835 40.7094C80.081 40.7119 80.0786 40.7145 80.0761 40.717C78.8685 41.8632 77.5024 43.019 76.0228 44.1487C70.5079 48.3592 63.5623 52.1055 54.8462 55.57C54.1378 55.8527 53.8142 56.6737 54.143 57.3607L60.9283 71.574Z" fill="#6D6D6D"/>
<path opacity="0.2" d="M86.6525 58.63C85.2019 59.6767 83.6583 60.7221 82.074 61.7406C78.7239 56.4847 73.775 49.4817 71.8649 47.0574C73.3319 46.1132 74.7156 45.1451 76.0183 44.1504C76.8528 43.5129 77.6494 42.8658 78.4031 42.2168C83.3097 46.6375 87.8616 53.3026 89.746 56.2509C88.9223 56.9359 87.9061 57.7237 86.6525 58.63Z" fill="white"/>
<path opacity="0.2" d="M68.897 48.8651C69.4863 48.5214 70.0655 48.1779 70.6321 47.8296C72.3143 49.9689 76.2654 55.1891 80.7863 62.5485C80.1474 62.948 79.5035 63.3425 78.8594 63.7269C76.6941 60.2989 72.9365 54.4874 68.897 48.8651Z" fill="white"/>
<path opacity="0.3" d="M70.6859 67.8012C66.126 70.0523 61.3555 71.6172 60.9567 70.598C60.5579 69.5787 57.1139 62.9538 56.1196 60.3217C55.1253 57.6921 54.8999 57.3995 55.5156 56.5895C56.1313 55.7796 59.6013 54.4426 65.2143 51.7138C70.8272 48.9851 76.0318 44.1525 76.0318 44.1525C70.5168 48.363 63.5712 52.1093 54.8552 55.5738C54.1468 55.8564 53.8231 56.6775 54.152 57.3645L60.9372 71.5778C61.0029 71.5944 61.1315 71.6177 61.358 71.6147C65.1247 71.5639 77.6587 65.1343 86.666 58.632C84.8123 60.0173 75.2459 65.5526 70.6859 67.8012Z" fill="#8F8F8F"/>
<path d="M52.2482 70.9089C52.805 73.3791 55.5672 73.8629 57.6296 73.7749C58.7237 73.7301 59.6193 73.5176 59.8914 73.3561C60.6829 72.887 60.3027 71.9426 59.8675 71.3974C59.1328 70.4753 55.8618 68.6481 53.8254 68.6129C52.6347 68.5864 51.8599 69.1755 52.2482 70.9089Z" fill="#FAFAFF"/>
<path opacity="0.3" d="M52.2482 70.9089C52.805 73.3791 55.5672 73.8629 57.6296 73.7749C58.7237 73.7301 59.6193 73.5176 59.8914 73.3561C60.6829 72.887 60.3027 71.9426 59.8675 71.3974C59.1328 70.4753 55.8618 68.6481 53.8254 68.6129C52.6347 68.5864 51.8599 69.1755 52.2482 70.9089Z" fill="#7D7D7D"/>
<path d="M52.2482 70.9089C52.805 73.3791 55.5672 73.8629 57.6296 73.7749C58.7237 73.7301 59.6193 73.5176 59.8914 73.3561C60.6829 72.887 60.3027 71.9426 59.8675 71.3974C60.2803 72.1484 58.1605 72.6454 56.2567 71.9947C54.3529 71.3415 52.9217 69.9052 53.8254 68.6129C52.6347 68.5864 51.8599 69.1755 52.2482 70.9089Z" fill="#FAFAFF"/>
<path opacity="0.35" d="M52.2482 70.9089C52.805 73.3791 55.5672 73.8629 57.6296 73.7749C58.7237 73.7301 59.6193 73.5176 59.8914 73.3561C60.6829 72.887 60.3027 71.9426 59.8675 71.3974C60.2803 72.1484 58.1605 72.6454 56.2567 71.9947C54.3529 71.3415 52.9217 69.9052 53.8254 68.6129C52.6347 68.5864 51.8599 69.1755 52.2482 70.9089Z" fill="#202020"/>
<g opacity="0.6" filter="url(#filter9_i_8926_58900)">
<path d="M66.3571 35.3142C66.2019 37.2623 64.0024 38.9911 62.3448 37.8828C60.6834 36.7703 59.3831 33.6817 59.5383 31.7336C59.6935 29.7855 61.9776 28.6645 63.6348 29.7767C65.2921 30.889 66.5123 33.3661 66.3571 35.3142Z" fill="#D8E7FF"/>
</g>
<g opacity="0.9" filter="url(#filter10_i_8926_58900)">
<path d="M65.6005 5.06834C58.505 0.316714 51.823 -0.416651 46.8897 2.24677C46.7373 2.32902 46.6047 2.44305 46.4962 2.57803C45.7432 3.51558 46.4757 4.9256 47.678 4.90173C52.6092 4.80384 60.2121 5.31651 65.3086 8.73203C71.1974 12.6746 75.7295 19.6061 79.1497 26.8158C79.6165 27.7999 80.8435 28.1622 81.7555 27.5666C82.488 27.0883 82.7637 26.1452 82.3811 25.3584C78.3527 17.075 72.4302 9.64206 65.6005 5.06834Z" fill="#D8E7FF"/>
</g>
<g opacity="0.8" filter="url(#filter11_i_8926_58900)">
<path d="M64.9539 13.2225C59.7368 9.7261 54.1453 9.67738 50.5348 11.7985C50.2831 11.9464 50.1287 12.213 50.1055 12.5041C50.0563 13.1224 50.6044 13.6251 51.223 13.5798C54.7638 13.3203 60.569 14.1436 64.6621 16.8861C68.7453 19.6183 71.9398 24.6514 74.2381 29.7443C74.6819 30.7277 75.9194 31.0773 76.7887 30.4381C77.4094 29.9818 77.6367 29.1564 77.3117 28.4579C74.4218 22.2468 70.0386 16.6261 64.9539 13.2225Z" fill="#D8E7FF"/>
</g>
<g opacity="0.7" filter="url(#filter12_i_8926_58900)">
<path d="M64.3084 21.3737C60.7847 19.0153 57.26 18.9289 55.0638 20.7392C54.9455 20.8367 54.8478 20.9563 54.7674 21.0868C54.0405 22.2661 55.0584 23.8451 56.4428 23.7927C59.0307 23.6949 62.2741 23.8707 64.0124 25.037C66.2576 26.5416 67.6635 30.2656 68.9296 32.9067C69.4011 33.89 70.6236 34.117 71.4946 33.4609C72.1608 32.9591 72.4269 32.0779 72.0987 31.3112C70.3676 27.2677 67.578 23.5659 64.3084 21.3737Z" fill="#D8E7FF"/>
</g>
<g opacity="0.6" filter="url(#filter13_i_8926_58900)">
<path d="M65.3426 36.1947C65.1875 38.1428 63.7163 38.8163 62.0546 37.7077C60.3932 36.5951 59.173 34.118 59.3282 32.1699C59.4834 30.2218 60.9545 29.5484 62.6162 30.6569C64.2776 31.7695 65.4978 34.2466 65.3426 36.1947Z" fill="#93B1FF"/>
</g>
<g filter="url(#filter14_i_8926_58900)">
<path d="M64.5764 5.94584C58.2333 1.69804 52.2206 0.661546 47.4923 2.39233C46.4043 2.7906 46.0057 4.05959 46.4874 5.11337C47.0415 6.3259 48.5297 6.76568 49.7994 6.3591C53.8587 5.05921 58.9365 6.02473 64.2849 9.60552C70.3258 13.654 75.5521 20.2605 79.0705 27.6075C79.4075 28.3111 80.2681 28.5963 80.9475 28.213C81.5457 27.8754 81.7876 27.1357 81.4904 26.5166C77.4599 18.1218 71.4821 10.5704 64.5764 5.94584Z" fill="#DEE7FF"/>
</g>
<g opacity="0.8" filter="url(#filter15_i_8926_58900)">
<path d="M63.9341 14.1007C59.2455 10.9586 54.8081 10.2661 51.3722 11.6762C50.4599 12.0506 50.1618 13.137 50.5715 14.0339L50.7404 14.4036C51.2669 15.5561 52.7333 15.913 53.9447 15.5414C56.6729 14.7045 60.0688 15.3692 63.6426 17.7604C67.8762 20.6009 71.519 25.3003 73.8953 30.4882C74.2266 31.2114 75.1036 31.518 75.7965 31.1271C76.3836 30.7959 76.6292 30.075 76.3471 29.4629C73.4613 23.2013 69.051 17.5299 63.9341 14.1007Z" fill="#CDDBFF"/>
</g>
<g opacity="0.7" filter="url(#filter16_i_8926_58900)">
<path d="M63.2416 22.3129C60.2368 20.3018 57.4033 19.9534 55.2799 21.0174C54.4985 21.4089 54.3197 22.3871 54.6835 23.1818C55.3008 24.5305 57.3164 24.771 58.7951 24.6539C60.0325 24.5559 61.4611 24.9748 62.9501 25.9726C65.3596 27.5872 67.3979 30.3607 68.6062 33.3572C68.9215 34.139 69.8499 34.5145 70.5837 34.0998C71.1433 33.7836 71.3952 33.1076 71.1486 32.5141C69.4265 28.3697 66.5832 24.5495 63.2416 22.3129Z" fill="#B7CBFF"/>
</g>
<defs>
<filter id="filter0_f_8926_58900" x="0.906723" y="36.5044" width="114.757" height="69.335" filterUnits="userSpaceOnUse" color-interpolation-filters="sRGB">
<feFlood flood-opacity="0" result="BackgroundImageFix"/>
<feBlend mode="normal" in="SourceGraphic" in2="BackgroundImageFix" result="shape"/>
<feGaussianBlur stdDeviation="1.9607" result="effect1_foregroundBlur_8926_58900"/>
</filter>
<filter id="filter1_i_8926_58900" x="7.99219" y="39.7645" width="48.3359" height="47.0558" filterUnits="userSpaceOnUse" color-interpolation-filters="sRGB">
<feFlood flood-opacity="0" result="BackgroundImageFix"/>
<feBlend mode="normal" in="SourceGraphic" in2="BackgroundImageFix" result="shape"/>
<feColorMatrix in="SourceAlpha" type="matrix" values="0 0 0 0 0 0 0 0 0 0 0 0 0 0 0 0 0 0 127 0" result="hardAlpha"/>
<feOffset dy="-0.408479"/>
<feGaussianBlur stdDeviation="0.10212"/>
<feComposite in2="hardAlpha" operator="arithmetic" k2="-1" k3="1"/>
<feColorMatrix type="matrix" values="0 0 0 0 0 0 0 0 0 0 0 0 0 0 0 0 0 0 0.25 0"/>
<feBlend mode="normal" in2="shape" result="effect1_innerShadow_8926_58900"/>
</filter>
<filter id="filter2_i_8926_58900" x="16.4375" y="28.5095" width="31.7578" height="17.0179" filterUnits="userSpaceOnUse" color-interpolation-filters="sRGB">
<feFlood flood-opacity="0" result="BackgroundImageFix"/>
<feBlend mode="normal" in="SourceGraphic" in2="BackgroundImageFix" result="shape"/>
<feColorMatrix in="SourceAlpha" type="matrix" values="0 0 0 0 0 0 0 0 0 0 0 0 0 0 0 0 0 0 127 0" result="hardAlpha"/>
<feOffset dy="-0.408479"/>
<feGaussianBlur stdDeviation="0.388055"/>
<feComposite in2="hardAlpha" operator="arithmetic" k2="-1" k3="1"/>
<feColorMatrix type="matrix" values="0 0 0 0 0 0 0 0 0 0 0 0 0 0 0 0 0 0 0.25 0"/>
<feBlend mode="normal" in2="shape" result="effect1_innerShadow_8926_58900"/>
</filter>
<filter id="filter3_i_8926_58900" x="56.1328" y="51.8544" width="58.7812" height="46.5871" filterUnits="userSpaceOnUse" color-interpolation-filters="sRGB">
<feFlood flood-opacity="0" result="BackgroundImageFix"/>
<feBlend mode="normal" in="SourceGraphic" in2="BackgroundImageFix" result="shape"/>
<feColorMatrix in="SourceAlpha" type="matrix" values="0 0 0 0 0 0 0 0 0 0 0 0 0 0 0 0 0 0 127 0" result="hardAlpha"/>
<feOffset dy="-0.408479"/>
<feGaussianBlur stdDeviation="0.10212"/>
<feComposite in2="hardAlpha" operator="arithmetic" k2="-1" k3="1"/>
<feColorMatrix type="matrix" values="0 0 0 0 0 0 0 0 0 0 0 0 0 0 0 0 0 0 0.25 0"/>
<feBlend mode="normal" in2="shape" result="effect1_innerShadow_8926_58900"/>
</filter>
<filter id="filter4_i_8926_58900" x="89.0078" y="83.2422" width="23.1808" height="12.0352" filterUnits="userSpaceOnUse" color-interpolation-filters="sRGB">
<feFlood flood-opacity="0" result="BackgroundImageFix"/>
<feBlend mode="normal" in="SourceGraphic" in2="BackgroundImageFix" result="shape"/>
<feColorMatrix in="SourceAlpha" type="matrix" values="0 0 0 0 0 0 0 0 0 0 0 0 0 0 0 0 0 0 127 0" result="hardAlpha"/>
<feOffset dx="0.408479"/>
<feGaussianBlur stdDeviation="0.10212"/>
<feComposite in2="hardAlpha" operator="arithmetic" k2="-1" k3="1"/>
<feColorMatrix type="matrix" values="0 0 0 0 0 0 0 0 0 0 0 0 0 0 0 0 0 0 0.25 0"/>
<feBlend mode="normal" in2="shape" result="effect1_innerShadow_8926_58900"/>
</filter>
<filter id="filter5_i_8926_58900" x="79.8984" y="92.0547" width="9.53236" height="4.42969" filterUnits="userSpaceOnUse" color-interpolation-filters="sRGB">
<feFlood flood-opacity="0" result="BackgroundImageFix"/>
<feBlend mode="normal" in="SourceGraphic" in2="BackgroundImageFix" result="shape"/>
<feColorMatrix in="SourceAlpha" type="matrix" values="0 0 0 0 0 0 0 0 0 0 0 0 0 0 0 0 0 0 127 0" result="hardAlpha"/>
<feOffset dx="0.408479"/>
<feGaussianBlur stdDeviation="0.10212"/>
<feComposite in2="hardAlpha" operator="arithmetic" k2="-1" k3="1"/>
<feColorMatrix type="matrix" values="0 0 0 0 0 0 0 0 0 0 0 0 0 0 0 0 0 0 0.25 0"/>
<feBlend mode="normal" in2="shape" result="effect1_innerShadow_8926_58900"/>
</filter>
<filter id="filter6_i_8926_58900" x="112.586" y="78.043" width="2.29799" height="5.88672" filterUnits="userSpaceOnUse" color-interpolation-filters="sRGB">
<feFlood flood-opacity="0" result="BackgroundImageFix"/>
<feBlend mode="normal" in="SourceGraphic" in2="BackgroundImageFix" result="shape"/>
<feColorMatrix in="SourceAlpha" type="matrix" values="0 0 0 0 0 0 0 0 0 0 0 0 0 0 0 0 0 0 127 0" result="hardAlpha"/>
<feOffset dx="0.408479"/>
<feGaussianBlur stdDeviation="0.10212"/>
<feComposite in2="hardAlpha" operator="arithmetic" k2="-1" k3="1"/>
<feColorMatrix type="matrix" values="0 0 0 0 0 0 0 0 0 0 0 0 0 0 0 0 0 0 0.25 0"/>
<feBlend mode="normal" in2="shape" result="effect1_innerShadow_8926_58900"/>
</filter>
<filter id="filter7_i_8926_58900" x="80.125" y="82.1953" width="11.5324" height="6.37109" filterUnits="userSpaceOnUse" color-interpolation-filters="sRGB">
<feFlood flood-opacity="0" result="BackgroundImageFix"/>
<feBlend mode="normal" in="SourceGraphic" in2="BackgroundImageFix" result="shape"/>
<feColorMatrix in="SourceAlpha" type="matrix" values="0 0 0 0 0 0 0 0 0 0 0 0 0 0 0 0 0 0 127 0" result="hardAlpha"/>
<feOffset dx="0.408479"/>
<feGaussianBlur stdDeviation="0.10212"/>
<feComposite in2="hardAlpha" operator="arithmetic" k2="-1" k3="1"/>
<feColorMatrix type="matrix" values="0 0 0 0 0 0 0 0 0 0 0 0 0 0 0 0 0 0 0.25 0"/>
<feBlend mode="normal" in2="shape" result="effect1_innerShadow_8926_58900"/>
</filter>
<filter id="filter8_i_8926_58900" x="107.367" y="65.8164" width="5.94643" height="8.93359" filterUnits="userSpaceOnUse" color-interpolation-filters="sRGB">
<feFlood flood-opacity="0" result="BackgroundImageFix"/>
<feBlend mode="normal" in="SourceGraphic" in2="BackgroundImageFix" result="shape"/>
<feColorMatrix in="SourceAlpha" type="matrix" values="0 0 0 0 0 0 0 0 0 0 0 0 0 0 0 0 0 0 127 0" result="hardAlpha"/>
<feOffset dx="0.408479"/>
<feGaussianBlur stdDeviation="0.10212"/>
<feComposite in2="hardAlpha" operator="arithmetic" k2="-1" k3="1"/>
<feColorMatrix type="matrix" values="0 0 0 0 0 0 0 0 0 0 0 0 0 0 0 0 0 0 0.25 0"/>
<feBlend mode="normal" in2="shape" result="effect1_innerShadow_8926_58900"/>
</filter>
<filter id="filter9_i_8926_58900" x="59.5234" y="29.3359" width="6.84375" height="9.79453" filterUnits="userSpaceOnUse" color-interpolation-filters="sRGB">
<feFlood flood-opacity="0" result="BackgroundImageFix"/>
<feBlend mode="normal" in="SourceGraphic" in2="BackgroundImageFix" result="shape"/>
<feColorMatrix in="SourceAlpha" type="matrix" values="0 0 0 0 0 0 0 0 0 0 0 0 0 0 0 0 0 0 127 0" result="hardAlpha"/>
<feOffset dy="1"/>
<feGaussianBlur stdDeviation="0.45"/>
<feComposite in2="hardAlpha" operator="arithmetic" k2="-1" k3="1"/>
<feColorMatrix type="matrix" values="0 0 0 0 0 0 0 0 0 0 0 0 0 0 0 0 0 0 0.25 0"/>
<feBlend mode="normal" in2="shape" result="effect1_innerShadow_8926_58900"/>
</filter>
<filter id="filter10_i_8926_58900" x="46.1875" y="0.714844" width="36.3672" height="28.0406" filterUnits="userSpaceOnUse" color-interpolation-filters="sRGB">
<feFlood flood-opacity="0" result="BackgroundImageFix"/>
<feBlend mode="normal" in="SourceGraphic" in2="BackgroundImageFix" result="shape"/>
<feColorMatrix in="SourceAlpha" type="matrix" values="0 0 0 0 0 0 0 0 0 0 0 0 0 0 0 0 0 0 127 0" result="hardAlpha"/>
<feOffset dy="1"/>
<feGaussianBlur stdDeviation="0.45"/>
<feComposite in2="hardAlpha" operator="arithmetic" k2="-1" k3="1"/>
<feColorMatrix type="matrix" values="0 0 0 0 0 0 0 0 0 0 0 0 0 0 0 0 0 0 0.25 0"/>
<feBlend mode="normal" in2="shape" result="effect1_innerShadow_8926_58900"/>
</filter>
<filter id="filter11_i_8926_58900" x="50.1016" y="10.3672" width="27.3594" height="21.2945" filterUnits="userSpaceOnUse" color-interpolation-filters="sRGB">
<feFlood flood-opacity="0" result="BackgroundImageFix"/>
<feBlend mode="normal" in="SourceGraphic" in2="BackgroundImageFix" result="shape"/>
<feColorMatrix in="SourceAlpha" type="matrix" values="0 0 0 0 0 0 0 0 0 0 0 0 0 0 0 0 0 0 127 0" result="hardAlpha"/>
<feOffset dy="1"/>
<feGaussianBlur stdDeviation="0.45"/>
<feComposite in2="hardAlpha" operator="arithmetic" k2="-1" k3="1"/>
<feColorMatrix type="matrix" values="0 0 0 0 0 0 0 0 0 0 0 0 0 0 0 0 0 0 0.25 0"/>
<feBlend mode="normal" in2="shape" result="effect1_innerShadow_8926_58900"/>
</filter>
<filter id="filter12_i_8926_58900" x="54.5234" y="19.4805" width="17.7188" height="15.2516" filterUnits="userSpaceOnUse" color-interpolation-filters="sRGB">
<feFlood flood-opacity="0" result="BackgroundImageFix"/>
<feBlend mode="normal" in="SourceGraphic" in2="BackgroundImageFix" result="shape"/>
<feColorMatrix in="SourceAlpha" type="matrix" values="0 0 0 0 0 0 0 0 0 0 0 0 0 0 0 0 0 0 127 0" result="hardAlpha"/>
<feOffset dy="1"/>
<feGaussianBlur stdDeviation="0.45"/>
<feComposite in2="hardAlpha" operator="arithmetic" k2="-1" k3="1"/>
<feColorMatrix type="matrix" values="0 0 0 0 0 0 0 0 0 0 0 0 0 0 0 0 0 0 0.25 0"/>
<feBlend mode="normal" in2="shape" result="effect1_innerShadow_8926_58900"/>
</filter>
<filter id="filter13_i_8926_58900" x="59.3125" y="30.125" width="6.54688" height="8.61719" filterUnits="userSpaceOnUse" color-interpolation-filters="sRGB">
<feFlood flood-opacity="0" result="BackgroundImageFix"/>
<feBlend mode="normal" in="SourceGraphic" in2="BackgroundImageFix" result="shape"/>
<feColorMatrix in="SourceAlpha" type="matrix" values="0 0 0 0 0 0 0 0 0 0 0 0 0 0 0 0 0 0 127 0" result="hardAlpha"/>
<feOffset dx="0.5" dy="0.5"/>
<feGaussianBlur stdDeviation="0.25"/>
<feComposite in2="hardAlpha" operator="arithmetic" k2="-1" k3="1"/>
<feColorMatrix type="matrix" values="0 0 0 0 0 0 0 0 0 0 0 0 0 0 0 0 0 0 0.08 0"/>
<feBlend mode="normal" in2="shape" result="effect1_innerShadow_8926_58900"/>
</filter>
<filter id="filter14_i_8926_58900" x="46.2891" y="1.59375" width="36.1281" height="27.2891" filterUnits="userSpaceOnUse" color-interpolation-filters="sRGB">
<feFlood flood-opacity="0" result="BackgroundImageFix"/>
<feBlend mode="normal" in="SourceGraphic" in2="BackgroundImageFix" result="shape"/>
<feColorMatrix in="SourceAlpha" type="matrix" values="0 0 0 0 0 0 0 0 0 0 0 0 0 0 0 0 0 0 127 0" result="hardAlpha"/>
<feOffset dx="1" dy="0.5"/>
<feGaussianBlur stdDeviation="0.4"/>
<feComposite in2="hardAlpha" operator="arithmetic" k2="-1" k3="1"/>
<feColorMatrix type="matrix" values="0 0 0 0 0 0 0 0 0 0 0 0 0 0 0 0 0 0 0.08 0"/>
<feBlend mode="normal" in2="shape" result="effect1_innerShadow_8926_58900"/>
</filter>
<filter id="filter15_i_8926_58900" x="50.3906" y="10.9805" width="26.8703" height="20.8164" filterUnits="userSpaceOnUse" color-interpolation-filters="sRGB">
<feFlood flood-opacity="0" result="BackgroundImageFix"/>
<feBlend mode="normal" in="SourceGraphic" in2="BackgroundImageFix" result="shape"/>
<feColorMatrix in="SourceAlpha" type="matrix" values="0 0 0 0 0 0 0 0 0 0 0 0 0 0 0 0 0 0 127 0" result="hardAlpha"/>
<feOffset dx="1" dy="0.5"/>
<feGaussianBlur stdDeviation="0.4"/>
<feComposite in2="hardAlpha" operator="arithmetic" k2="-1" k3="1"/>
<feColorMatrix type="matrix" values="0 0 0 0 0 0 0 0 0 0 0 0 0 0 0 0 0 0 0.08 0"/>
<feBlend mode="normal" in2="shape" result="effect1_innerShadow_8926_58900"/>
</filter>
<filter id="filter16_i_8926_58900" x="54.5" y="20.4297" width="17.5422" height="14.3398" filterUnits="userSpaceOnUse" color-interpolation-filters="sRGB">
<feFlood flood-opacity="0" result="BackgroundImageFix"/>
<feBlend mode="normal" in="SourceGraphic" in2="BackgroundImageFix" result="shape"/>
<feColorMatrix in="SourceAlpha" type="matrix" values="0 0 0 0 0 0 0 0 0 0 0 0 0 0 0 0 0 0 127 0" result="hardAlpha"/>
<feOffset dx="1" dy="0.5"/>
<feGaussianBlur stdDeviation="0.4"/>
<feComposite in2="hardAlpha" operator="arithmetic" k2="-1" k3="1"/>
<feColorMatrix type="matrix" values="0 0 0 0 0 0 0 0 0 0 0 0 0 0 0 0 0 0 0.08 0"/>
<feBlend mode="normal" in2="shape" result="effect1_innerShadow_8926_58900"/>
</filter>
</defs>
</svg>
