<svg width="191" height="40" viewBox="0 0 191 40" fill="none" xmlns="http://www.w3.org/2000/svg">
<path d="M0.341146 18C0.341146 19.4728 1.53505 20.6667 3.00781 20.6667C4.48057 20.6667 5.67448 19.4728 5.67448 18C5.67448 16.5272 4.48057 15.3333 3.00781 15.3333C1.53505 15.3333 0.341146 16.5272 0.341146 18ZM3.00781 18V18.5H43.0078V18V17.5H3.00781V18Z" fill="url(#paint0_linear_8981_50121)"/>
<g filter="url(#filter0_d_8981_50121)">
<rect x="43.3078" y="4.3" width="141.4" height="27.4" rx="13.7" stroke="#0A2540" stroke-width="0.6" shape-rendering="crispEdges"/>
<path d="M70.9062 14.4336L67.9121 23H66.4238L63.4297 14.4336H64.8711L66.6758 19.8008C66.7305 19.957 66.7891 20.1465 66.8516 20.3691C66.918 20.5918 66.9785 20.8164 67.0332 21.043C67.0918 21.2695 67.1367 21.4707 67.168 21.6465C67.1992 21.4707 67.2422 21.2695 67.2969 21.043C67.3555 20.8164 67.416 20.5918 67.4785 20.3691C67.541 20.1465 67.5996 19.9551 67.6543 19.7949L69.4648 14.4336H70.9062ZM74.4746 16.3906C75.0527 16.3906 75.5488 16.5098 75.9629 16.748C76.377 16.9863 76.6953 17.3242 76.918 17.7617C77.1406 18.1992 77.252 18.7227 77.252 19.332V20.0703H72.9219C72.9375 20.6992 73.1055 21.1836 73.4258 21.5234C73.75 21.8633 74.2031 22.0332 74.7852 22.0332C75.1992 22.0332 75.5703 21.9941 75.8984 21.916C76.2305 21.834 76.5723 21.7148 76.9238 21.5586V22.6777C76.5996 22.8301 76.2695 22.9414 75.9336 23.0117C75.5977 23.082 75.1953 23.1172 74.7266 23.1172C74.0898 23.1172 73.5293 22.9941 73.0449 22.748C72.5645 22.498 72.1875 22.127 71.9141 21.6348C71.6445 21.1426 71.5098 20.5312 71.5098 19.8008C71.5098 19.0742 71.6328 18.457 71.8789 17.9492C72.125 17.4414 72.4707 17.0547 72.916 16.7891C73.3613 16.5234 73.8809 16.3906 74.4746 16.3906ZM74.4746 17.4277C74.041 17.4277 73.6895 17.5684 73.4199 17.8496C73.1543 18.1309 72.998 18.543 72.9512 19.0859H75.9043C75.9004 18.7617 75.8457 18.4746 75.7402 18.2246C75.6387 17.9746 75.4824 17.7793 75.2715 17.6387C75.0645 17.498 74.7988 17.4277 74.4746 17.4277ZM80.1816 13.8828V16.1738C80.1816 16.4121 80.1738 16.6445 80.1582 16.8711C80.1465 17.0977 80.1328 17.2734 80.1172 17.3984H80.1934C80.3301 17.1719 80.498 16.9863 80.6973 16.8418C80.8965 16.6934 81.1191 16.582 81.3652 16.5078C81.6152 16.4336 81.8809 16.3965 82.1621 16.3965C82.6582 16.3965 83.0801 16.4805 83.4277 16.6484C83.7754 16.8125 84.041 17.0684 84.2246 17.416C84.4121 17.7637 84.5059 18.2148 84.5059 18.7695V23H83.1289V19.0273C83.1289 18.5234 83.0254 18.1465 82.8184 17.8965C82.6113 17.6426 82.291 17.5156 81.8574 17.5156C81.4395 17.5156 81.1074 17.6035 80.8613 17.7793C80.6191 17.9512 80.4453 18.207 80.3398 18.5469C80.2344 18.8828 80.1816 19.293 80.1816 19.7773V23H78.8047V13.8828H80.1816ZM87.8105 16.5137V23H86.4336V16.5137H87.8105ZM87.1309 14.0293C87.3418 14.0293 87.5234 14.0859 87.6758 14.1992C87.832 14.3125 87.9102 14.5078 87.9102 14.7852C87.9102 15.0586 87.832 15.2539 87.6758 15.3711C87.5234 15.4844 87.3418 15.541 87.1309 15.541C86.9121 15.541 86.7266 15.4844 86.5742 15.3711C86.4258 15.2539 86.3516 15.0586 86.3516 14.7852C86.3516 14.5078 86.4258 14.3125 86.5742 14.1992C86.7266 14.0859 86.9121 14.0293 87.1309 14.0293ZM92.3984 23.1172C91.7852 23.1172 91.2539 22.998 90.8047 22.7598C90.3555 22.5215 90.0098 22.1562 89.7676 21.6641C89.5254 21.1719 89.4043 20.5469 89.4043 19.7891C89.4043 19 89.5371 18.3555 89.8027 17.8555C90.0684 17.3555 90.4355 16.9863 90.9043 16.748C91.377 16.5098 91.918 16.3906 92.5273 16.3906C92.9141 16.3906 93.2637 16.4297 93.5762 16.5078C93.8926 16.582 94.1602 16.6738 94.3789 16.7832L93.9688 17.8848C93.7305 17.7871 93.4863 17.7051 93.2363 17.6387C92.9863 17.5723 92.7461 17.5391 92.5156 17.5391C92.1367 17.5391 91.8203 17.623 91.5664 17.791C91.3164 17.959 91.1289 18.209 91.0039 18.541C90.8828 18.873 90.8223 19.2852 90.8223 19.7773C90.8223 20.2539 90.8848 20.6562 91.0098 20.9844C91.1348 21.3086 91.3203 21.5547 91.5664 21.7227C91.8125 21.8867 92.1152 21.9688 92.4746 21.9688C92.8301 21.9688 93.1484 21.9258 93.4297 21.8398C93.7109 21.7539 93.9766 21.6426 94.2266 21.5059V22.7012C93.9805 22.8418 93.7168 22.9453 93.4355 23.0117C93.1543 23.082 92.8086 23.1172 92.3984 23.1172ZM97.1328 23H95.75V13.8828H97.1328V23ZM101.686 16.3906C102.264 16.3906 102.76 16.5098 103.174 16.748C103.588 16.9863 103.906 17.3242 104.129 17.7617C104.352 18.1992 104.463 18.7227 104.463 19.332V20.0703H100.133C100.148 20.6992 100.316 21.1836 100.637 21.5234C100.961 21.8633 101.414 22.0332 101.996 22.0332C102.41 22.0332 102.781 21.9941 103.109 21.916C103.441 21.834 103.783 21.7148 104.135 21.5586V22.6777C103.811 22.8301 103.48 22.9414 103.145 23.0117C102.809 23.082 102.406 23.1172 101.938 23.1172C101.301 23.1172 100.74 22.9941 100.256 22.748C99.7754 22.498 99.3984 22.127 99.125 21.6348C98.8555 21.1426 98.7207 20.5312 98.7207 19.8008C98.7207 19.0742 98.8438 18.457 99.0898 17.9492C99.3359 17.4414 99.6816 17.0547 100.127 16.7891C100.572 16.5234 101.092 16.3906 101.686 16.3906ZM101.686 17.4277C101.252 17.4277 100.9 17.5684 100.631 17.8496C100.365 18.1309 100.209 18.543 100.162 19.0859H103.115C103.111 18.7617 103.057 18.4746 102.951 18.2246C102.85 17.9746 102.693 17.7793 102.482 17.6387C102.275 17.498 102.01 17.4277 101.686 17.4277ZM112.924 15.5059C112.514 15.5059 112.146 15.5801 111.822 15.7285C111.502 15.877 111.23 16.0918 111.008 16.373C110.785 16.6504 110.615 16.9883 110.498 17.3867C110.381 17.7812 110.322 18.2266 110.322 18.7227C110.322 19.3867 110.416 19.959 110.604 20.4395C110.791 20.916 111.076 21.2832 111.459 21.541C111.842 21.7949 112.326 21.9219 112.912 21.9219C113.275 21.9219 113.629 21.8867 113.973 21.8164C114.316 21.7461 114.672 21.6504 115.039 21.5293V22.7246C114.691 22.8613 114.34 22.9609 113.984 23.0234C113.629 23.0859 113.219 23.1172 112.754 23.1172C111.879 23.1172 111.152 22.9355 110.574 22.5723C110 22.209 109.57 21.6973 109.285 21.0371C109.004 20.377 108.863 19.6035 108.863 18.7168C108.863 18.0684 108.953 17.4746 109.133 16.9355C109.312 16.3965 109.574 15.9316 109.918 15.541C110.262 15.1465 110.686 14.8438 111.189 14.6328C111.697 14.418 112.277 14.3105 112.93 14.3105C113.359 14.3105 113.781 14.3594 114.195 14.457C114.613 14.5508 115 14.6855 115.355 14.8613L114.863 16.0215C114.566 15.8809 114.256 15.7598 113.932 15.6582C113.607 15.5566 113.271 15.5059 112.924 15.5059ZM122.48 19.7422C122.48 20.2812 122.41 20.7598 122.27 21.1777C122.129 21.5957 121.924 21.9492 121.654 22.2383C121.385 22.5234 121.061 22.7422 120.682 22.8945C120.303 23.043 119.875 23.1172 119.398 23.1172C118.953 23.1172 118.545 23.043 118.174 22.8945C117.803 22.7422 117.48 22.5234 117.207 22.2383C116.938 21.9492 116.729 21.5957 116.58 21.1777C116.432 20.7598 116.357 20.2812 116.357 19.7422C116.357 19.0273 116.48 18.4219 116.727 17.9258C116.977 17.4258 117.332 17.0449 117.793 16.7832C118.254 16.5215 118.803 16.3906 119.439 16.3906C120.037 16.3906 120.564 16.5215 121.021 16.7832C121.479 17.0449 121.836 17.4258 122.094 17.9258C122.352 18.4258 122.48 19.0312 122.48 19.7422ZM117.775 19.7422C117.775 20.2148 117.832 20.6191 117.945 20.9551C118.062 21.291 118.242 21.5488 118.484 21.7285C118.727 21.9043 119.039 21.9922 119.422 21.9922C119.805 21.9922 120.117 21.9043 120.359 21.7285C120.602 21.5488 120.779 21.291 120.893 20.9551C121.006 20.6191 121.062 20.2148 121.062 19.7422C121.062 19.2695 121.006 18.8691 120.893 18.541C120.779 18.209 120.602 17.957 120.359 17.7852C120.117 17.6094 119.803 17.5215 119.416 17.5215C118.846 17.5215 118.43 17.7129 118.168 18.0957C117.906 18.4785 117.775 19.0273 117.775 19.7422ZM127.443 16.3906C128.174 16.3906 128.742 16.5801 129.148 16.959C129.559 17.334 129.764 17.9375 129.764 18.7695V23H128.387V19.0273C128.387 18.5234 128.283 18.1465 128.076 17.8965C127.869 17.6426 127.549 17.5156 127.115 17.5156C126.486 17.5156 126.049 17.709 125.803 18.0957C125.561 18.4824 125.439 19.043 125.439 19.7773V23H124.062V16.5137H125.135L125.328 17.3926H125.404C125.545 17.166 125.719 16.9805 125.926 16.8359C126.137 16.6875 126.371 16.5762 126.629 16.502C126.891 16.4277 127.162 16.3906 127.443 16.3906ZM133.871 23.1172C133.098 23.1172 132.477 22.8359 132.008 22.2734C131.543 21.707 131.311 20.873 131.311 19.7715C131.311 18.6582 131.547 17.8164 132.02 17.2461C132.496 16.6758 133.123 16.3906 133.9 16.3906C134.229 16.3906 134.516 16.4355 134.762 16.5254C135.008 16.6113 135.219 16.7285 135.395 16.877C135.574 17.0254 135.727 17.1914 135.852 17.375H135.916C135.896 17.2539 135.873 17.0801 135.846 16.8535C135.822 16.623 135.811 16.4102 135.811 16.2148V13.8828H137.193V23H136.115L135.869 22.1152H135.811C135.693 22.3027 135.545 22.4727 135.365 22.625C135.189 22.7734 134.979 22.8926 134.732 22.9824C134.49 23.0723 134.203 23.1172 133.871 23.1172ZM134.258 21.998C134.848 21.998 135.264 21.8281 135.506 21.4883C135.748 21.1484 135.873 20.6387 135.881 19.959V19.7773C135.881 19.0508 135.764 18.4941 135.529 18.1074C135.295 17.7168 134.867 17.5215 134.246 17.5215C133.75 17.5215 133.371 17.7227 133.109 18.125C132.852 18.5234 132.723 19.0801 132.723 19.7949C132.723 20.5098 132.852 21.0566 133.109 21.4355C133.371 21.8105 133.754 21.998 134.258 21.998ZM140.545 16.5137V23H139.168V16.5137H140.545ZM139.865 14.0293C140.076 14.0293 140.258 14.0859 140.41 14.1992C140.566 14.3125 140.645 14.5078 140.645 14.7852C140.645 15.0586 140.566 15.2539 140.41 15.3711C140.258 15.4844 140.076 15.541 139.865 15.541C139.646 15.541 139.461 15.4844 139.309 15.3711C139.16 15.2539 139.086 15.0586 139.086 14.7852C139.086 14.5078 139.16 14.3125 139.309 14.1992C139.461 14.0859 139.646 14.0293 139.865 14.0293ZM144.934 22.0039C145.113 22.0039 145.291 21.9883 145.467 21.957C145.643 21.9219 145.803 21.8809 145.947 21.834V22.877C145.795 22.9434 145.598 23 145.355 23.0469C145.113 23.0938 144.861 23.1172 144.6 23.1172C144.232 23.1172 143.902 23.0566 143.609 22.9355C143.316 22.8105 143.084 22.5977 142.912 22.2969C142.74 21.9961 142.654 21.5801 142.654 21.0488V17.5625H141.77V16.9473L142.719 16.4609L143.17 15.0723H144.037V16.5137H145.895V17.5625H144.037V21.0312C144.037 21.3594 144.119 21.6035 144.283 21.7637C144.447 21.9238 144.664 22.0039 144.934 22.0039ZM148.643 16.5137V23H147.266V16.5137H148.643ZM147.963 14.0293C148.174 14.0293 148.355 14.0859 148.508 14.1992C148.664 14.3125 148.742 14.5078 148.742 14.7852C148.742 15.0586 148.664 15.2539 148.508 15.3711C148.355 15.4844 148.174 15.541 147.963 15.541C147.744 15.541 147.559 15.4844 147.406 15.3711C147.258 15.2539 147.184 15.0586 147.184 14.7852C147.184 14.5078 147.258 14.3125 147.406 14.1992C147.559 14.0859 147.744 14.0293 147.963 14.0293ZM156.359 19.7422C156.359 20.2812 156.289 20.7598 156.148 21.1777C156.008 21.5957 155.803 21.9492 155.533 22.2383C155.264 22.5234 154.939 22.7422 154.561 22.8945C154.182 23.043 153.754 23.1172 153.277 23.1172C152.832 23.1172 152.424 23.043 152.053 22.8945C151.682 22.7422 151.359 22.5234 151.086 22.2383C150.816 21.9492 150.607 21.5957 150.459 21.1777C150.311 20.7598 150.236 20.2812 150.236 19.7422C150.236 19.0273 150.359 18.4219 150.605 17.9258C150.855 17.4258 151.211 17.0449 151.672 16.7832C152.133 16.5215 152.682 16.3906 153.318 16.3906C153.916 16.3906 154.443 16.5215 154.9 16.7832C155.357 17.0449 155.715 17.4258 155.973 17.9258C156.23 18.4258 156.359 19.0312 156.359 19.7422ZM151.654 19.7422C151.654 20.2148 151.711 20.6191 151.824 20.9551C151.941 21.291 152.121 21.5488 152.363 21.7285C152.605 21.9043 152.918 21.9922 153.301 21.9922C153.684 21.9922 153.996 21.9043 154.238 21.7285C154.48 21.5488 154.658 21.291 154.771 20.9551C154.885 20.6191 154.941 20.2148 154.941 19.7422C154.941 19.2695 154.885 18.8691 154.771 18.541C154.658 18.209 154.48 17.957 154.238 17.7852C153.996 17.6094 153.682 17.5215 153.295 17.5215C152.725 17.5215 152.309 17.7129 152.047 18.0957C151.785 18.4785 151.654 19.0273 151.654 19.7422ZM161.322 16.3906C162.053 16.3906 162.621 16.5801 163.027 16.959C163.438 17.334 163.643 17.9375 163.643 18.7695V23H162.266V19.0273C162.266 18.5234 162.162 18.1465 161.955 17.8965C161.748 17.6426 161.428 17.5156 160.994 17.5156C160.365 17.5156 159.928 17.709 159.682 18.0957C159.439 18.4824 159.318 19.043 159.318 19.7773V23H157.941V16.5137H159.014L159.207 17.3926H159.283C159.424 17.166 159.598 16.9805 159.805 16.8359C160.016 16.6875 160.25 16.5762 160.508 16.502C160.77 16.4277 161.041 16.3906 161.322 16.3906Z" fill="#333333"/>
</g>
<defs>
<filter id="filter0_d_8981_50121" x="37.0078" y="0" width="154" height="40" filterUnits="userSpaceOnUse" color-interpolation-filters="sRGB">
<feFlood flood-opacity="0" result="BackgroundImageFix"/>
<feColorMatrix in="SourceAlpha" type="matrix" values="0 0 0 0 0 0 0 0 0 0 0 0 0 0 0 0 0 0 127 0" result="hardAlpha"/>
<feOffset dy="2"/>
<feGaussianBlur stdDeviation="3"/>
<feComposite in2="hardAlpha" operator="out"/>
<feColorMatrix type="matrix" values="0 0 0 0 0 0 0 0 0 0 0 0 0 0 0 0 0 0 0.14 0"/>
<feBlend mode="normal" in2="BackgroundImageFix" result="effect1_dropShadow_8981_50121"/>
<feBlend mode="normal" in="SourceGraphic" in2="effect1_dropShadow_8981_50121" result="shape"/>
</filter>
<linearGradient id="paint0_linear_8981_50121" x1="3.00781" y1="18.5" x2="44.5463" y2="18.5" gradientUnits="userSpaceOnUse">
<stop stop-color="#9A9A9A"/>
<stop offset="1" stop-color="#FAFAFF"/>
</linearGradient>
</defs>
</svg>
