<svg width="269" height="289" viewBox="0 0 269 289" fill="none" xmlns="http://www.w3.org/2000/svg">
<g filter="url(#filter0_d_8847_47585)">
<g filter="url(#filter1_ii_8847_47585)">
<path d="M127.586 294.237L100.74 279.461C40.4408 246.275 2.83813 181.928 2.83813 111.929V41.2594C2.83813 35.7579 7.10336 31.1916 12.4835 31.0423C75.9268 29.2851 115.285 10.5666 128.24 3.32122C131.184 1.67418 134.763 1.67418 137.708 3.32122C150.663 10.5666 190.021 29.2843 253.464 31.0423C258.844 31.1916 263.109 35.7579 263.109 41.2594V111.929C263.109 181.928 225.507 246.275 165.208 279.461L138.361 294.237C134.998 296.088 130.949 296.088 127.586 294.237Z" fill="white"/>
</g>
<g filter="url(#filter2_ii_8847_47585)">
<path d="M15.7135 49.5749V109.546C15.7135 176.303 51.4006 237.405 108.843 269.027L127.887 279.503C129.471 280.373 131.226 280.817 132.982 280.817C134.737 280.817 136.492 280.373 138.076 279.503L157.12 269.027C214.562 237.405 250.25 176.303 250.25 109.546V49.5749C250.25 46.7384 248.03 44.4149 245.233 44.2146C191.19 40.4992 154.083 26.0195 135.306 16.7442C134.557 16.3701 133.774 16.1875 132.982 16.1875C132.191 16.1875 131.408 16.3701 130.659 16.7442C111.882 26.0202 74.7658 40.4992 20.7317 44.2146C17.9338 44.4149 15.7135 46.7384 15.7135 49.5749Z" fill="#2D65F2" fillOpacity="0.6"/>
</g>
<g opacity="0.5" filter="url(#filter3_ii_8847_47585)">
<path d="M15.7161 49.5749V109.546C15.7161 176.303 51.4032 237.405 108.846 269.027L127.89 279.503C129.474 280.373 131.229 280.817 132.984 280.817V16.1875C132.193 16.1875 131.41 16.3701 130.661 16.7442C111.883 26.0202 74.7677 40.4992 20.7337 44.2146C17.9365 44.4149 15.7161 46.7384 15.7161 49.5749Z" fill="url(#paint0_linear_8847_47585)"/>
</g>
<path d="M162.045 88.9584V105.748C162.045 107.508 160.499 108.937 158.587 108.937H148.423C144.863 108.937 141.436 110.101 138.734 112.202C138.409 112.451 138.094 112.719 137.793 112.996L137.096 113.64C136.873 113.845 136.661 114.056 136.456 114.271C134.038 116.794 132.694 120.055 132.694 123.443V132.817C132.694 134.577 131.148 136.006 129.236 136.006H111.031C109.12 136.006 107.57 134.577 107.57 132.817V116.028C107.57 114.267 109.12 112.839 111.031 112.839H121.89C125.878 112.839 129.698 111.378 132.516 108.779C133.925 107.48 135.03 105.947 135.779 104.281C136.528 102.616 136.921 100.812 136.921 98.9729V88.9584C136.921 87.1984 138.47 85.7695 140.382 85.7695H158.587C160.499 85.7664 162.045 87.1952 162.045 88.9584Z" fill="white"/>
<path d="M162.051 114.492V136.007H138.735C137.48 136.007 136.461 135.067 136.461 133.909V121.693C136.57 119.403 137.576 117.268 139.334 115.637L139.939 115.072C141.8 113.347 144.269 112.395 146.899 112.395H159.776C161.035 112.395 162.051 113.331 162.051 114.492Z" fill="white"/>
<path d="M133.16 140.778V162.293H109.845C108.59 162.293 107.57 161.353 107.57 160.195V147.982C107.68 145.692 108.685 143.557 110.443 141.926L111.049 141.361C112.909 139.636 115.379 138.684 118.009 138.684H130.886C132.141 138.68 133.16 139.62 133.16 140.778Z" fill="white"/>
<path d="M120.365 109.369C127.432 109.369 133.16 104.086 133.16 97.5693C133.16 91.0525 127.432 85.7695 120.365 85.7695C113.299 85.7695 107.57 91.0525 107.57 97.5693C107.57 104.086 113.299 109.369 120.365 109.369Z" fill="white"/>
</g>
<defs>
<filter id="filter0_d_8847_47585" x="0.389779" y="0.618243" width="268.101" height="301.367" filterUnits="userSpaceOnUse" color-interpolation-filters="sRGB">
<feFlood flood-opacity="0" result="BackgroundImageFix"/>
<feColorMatrix in="SourceAlpha" type="matrix" values="0 0 0 0 0 0 0 0 0 0 0 0 0 0 0 0 0 0 127 0" result="hardAlpha"/>
<feOffset dx="1.46769" dy="2.44616"/>
<feGaussianBlur stdDeviation="1.95693"/>
<feComposite in2="hardAlpha" operator="out"/>
<feColorMatrix type="matrix" values="0 0 0 0 0 0 0 0 0 0 0 0 0 0 0 0 0 0 0.25 0"/>
<feBlend mode="normal" in2="BackgroundImageFix" result="effect1_dropShadow_8847_47585"/>
<feBlend mode="normal" in="SourceGraphic" in2="effect1_dropShadow_8847_47585" result="shape"/>
</filter>
<filter id="filter1_ii_8847_47585" x="-1.07792" y="-1.82792" width="268.101" height="301.367" filterUnits="userSpaceOnUse" color-interpolation-filters="sRGB">
<feFlood flood-opacity="0" result="BackgroundImageFix"/>
<feBlend mode="normal" in="SourceGraphic" in2="BackgroundImageFix" result="shape"/>
<feColorMatrix in="SourceAlpha" type="matrix" values="0 0 0 0 0 0 0 0 0 0 0 0 0 0 0 0 0 0 127 0" result="hardAlpha"/>
<feOffset dx="3.91385" dy="3.91385"/>
<feGaussianBlur stdDeviation="1.95693"/>
<feComposite in2="hardAlpha" operator="arithmetic" k2="-1" k3="1"/>
<feColorMatrix type="matrix" values="0 0 0 0 1 0 0 0 0 1 0 0 0 0 1 0 0 0 0.32 0"/>
<feBlend mode="normal" in2="shape" result="effect1_innerShadow_8847_47585"/>
<feColorMatrix in="SourceAlpha" type="matrix" values="0 0 0 0 0 0 0 0 0 0 0 0 0 0 0 0 0 0 127 0" result="hardAlpha"/>
<feOffset dx="-3.91385" dy="-3.91385"/>
<feGaussianBlur stdDeviation="1.95693"/>
<feComposite in2="hardAlpha" operator="arithmetic" k2="-1" k3="1"/>
<feColorMatrix type="matrix" values="0 0 0 0 0 0 0 0 0 0 0 0 0 0 0 0 0 0 0.05 0"/>
<feBlend mode="normal" in2="effect1_innerShadow_8847_47585" result="effect2_innerShadow_8847_47585"/>
</filter>
<filter id="filter2_ii_8847_47585" x="11.7971" y="12.2736" width="242.367" height="272.457" filterUnits="userSpaceOnUse" color-interpolation-filters="sRGB">
<feFlood flood-opacity="0" result="BackgroundImageFix"/>
<feBlend mode="normal" in="SourceGraphic" in2="BackgroundImageFix" result="shape"/>
<feColorMatrix in="SourceAlpha" type="matrix" values="0 0 0 0 0 0 0 0 0 0 0 0 0 0 0 0 0 0 127 0" result="hardAlpha"/>
<feOffset dx="3.91385" dy="3.91385"/>
<feGaussianBlur stdDeviation="1.95693"/>
<feComposite in2="hardAlpha" operator="arithmetic" k2="-1" k3="1"/>
<feColorMatrix type="matrix" values="0 0 0 0 1 0 0 0 0 1 0 0 0 0 1 0 0 0 0.32 0"/>
<feBlend mode="normal" in2="shape" result="effect1_innerShadow_8847_47585"/>
<feColorMatrix in="SourceAlpha" type="matrix" values="0 0 0 0 0 0 0 0 0 0 0 0 0 0 0 0 0 0 127 0" result="hardAlpha"/>
<feOffset dx="-3.91385" dy="-3.91385"/>
<feGaussianBlur stdDeviation="1.95693"/>
<feComposite in2="hardAlpha" operator="arithmetic" k2="-1" k3="1"/>
<feColorMatrix type="matrix" values="0 0 0 0 0 0 0 0 0 0 0 0 0 0 0 0 0 0 0.05 0"/>
<feBlend mode="normal" in2="effect1_innerShadow_8847_47585" result="effect2_innerShadow_8847_47585"/>
</filter>
<filter id="filter3_ii_8847_47585" x="11.8049" y="12.2736" width="125.093" height="272.457" filterUnits="userSpaceOnUse" color-interpolation-filters="sRGB">
<feFlood flood-opacity="0" result="BackgroundImageFix"/>
<feBlend mode="normal" in="SourceGraphic" in2="BackgroundImageFix" result="shape"/>
<feColorMatrix in="SourceAlpha" type="matrix" values="0 0 0 0 0 0 0 0 0 0 0 0 0 0 0 0 0 0 127 0" result="hardAlpha"/>
<feOffset dx="3.91385" dy="3.91385"/>
<feGaussianBlur stdDeviation="1.95693"/>
<feComposite in2="hardAlpha" operator="arithmetic" k2="-1" k3="1"/>
<feColorMatrix type="matrix" values="0 0 0 0 1 0 0 0 0 1 0 0 0 0 1 0 0 0 0.32 0"/>
<feBlend mode="normal" in2="shape" result="effect1_innerShadow_8847_47585"/>
<feColorMatrix in="SourceAlpha" type="matrix" values="0 0 0 0 0 0 0 0 0 0 0 0 0 0 0 0 0 0 127 0" result="hardAlpha"/>
<feOffset dx="-3.91385" dy="-3.91385"/>
<feGaussianBlur stdDeviation="1.95693"/>
<feComposite in2="hardAlpha" operator="arithmetic" k2="-1" k3="1"/>
<feColorMatrix type="matrix" values="0 0 0 0 0 0 0 0 0 0 0 0 0 0 0 0 0 0 0.05 0"/>
<feBlend mode="normal" in2="effect1_innerShadow_8847_47585" result="effect2_innerShadow_8847_47585"/>
</filter>
<linearGradient id="paint0_linear_8847_47585" x1="15.7161" y1="148.502" x2="132.984" y2="148.502" gradientUnits="userSpaceOnUse">
<stop offset="0.4" stop-color="#002D9F"/>
<stop offset="1" stop-color="#002D9F" stop-opacity="0.25"/>
</linearGradient>
</defs>
</svg>
