<svg width="132" height="57" viewBox="0 0 132 57" fill="none" xmlns="http://www.w3.org/2000/svg">
<path d="M0.341146 53.5C0.341146 54.9728 1.53505 56.1667 3.00781 56.1667C4.48057 56.1667 5.67448 54.9728 5.67448 53.5C5.67448 52.0272 4.48057 50.8333 3.00781 50.8333C1.53505 50.8333 0.341146 52.0272 0.341146 53.5ZM3.00781 17V16.5H2.50781V17H3.00781ZM3.00781 53.5H3.50781V17H3.00781H2.50781V53.5H3.00781ZM3.00781 17V17.5H36.0078V17V16.5H3.00781V17Z" fill="url(#paint0_linear_8981_50109)"/>
<g filter="url(#filter0_d_8981_50109)">
<rect x="36.3078" y="4.3" width="89.4" height="27.4" rx="13.7" stroke="#0A2540" stroke-width="0.6" shape-rendering="crispEdges"/>
<path d="M57.2188 23V14.4336H58.625V21.8047H62.2637V23H57.2188ZM69.3477 19.7422C69.3477 20.2812 69.2773 20.7598 69.1367 21.1777C68.9961 21.5957 68.791 21.9492 68.5215 22.2383C68.252 22.5234 67.9277 22.7422 67.5488 22.8945C67.1699 23.043 66.7422 23.1172 66.2656 23.1172C65.8203 23.1172 65.4121 23.043 65.041 22.8945C64.6699 22.7422 64.3477 22.5234 64.0742 22.2383C63.8047 21.9492 63.5957 21.5957 63.4473 21.1777C63.2988 20.7598 63.2246 20.2812 63.2246 19.7422C63.2246 19.0273 63.3477 18.4219 63.5938 17.9258C63.8438 17.4258 64.1992 17.0449 64.6602 16.7832C65.1211 16.5215 65.6699 16.3906 66.3066 16.3906C66.9043 16.3906 67.4316 16.5215 67.8887 16.7832C68.3457 17.0449 68.7031 17.4258 68.9609 17.9258C69.2188 18.4258 69.3477 19.0312 69.3477 19.7422ZM64.6426 19.7422C64.6426 20.2148 64.6992 20.6191 64.8125 20.9551C64.9297 21.291 65.1094 21.5488 65.3516 21.7285C65.5938 21.9043 65.9062 21.9922 66.2891 21.9922C66.6719 21.9922 66.9844 21.9043 67.2266 21.7285C67.4688 21.5488 67.6465 21.291 67.7598 20.9551C67.873 20.6191 67.9297 20.2148 67.9297 19.7422C67.9297 19.2695 67.873 18.8691 67.7598 18.541C67.6465 18.209 67.4688 17.957 67.2266 17.7852C66.9844 17.6094 66.6699 17.5215 66.2832 17.5215C65.7129 17.5215 65.2969 17.7129 65.0352 18.0957C64.7734 18.4785 64.6426 19.0273 64.6426 19.7422ZM73.543 23.1172C72.9297 23.1172 72.3984 22.998 71.9492 22.7598C71.5 22.5215 71.1543 22.1562 70.9121 21.6641C70.6699 21.1719 70.5488 20.5469 70.5488 19.7891C70.5488 19 70.6816 18.3555 70.9473 17.8555C71.2129 17.3555 71.5801 16.9863 72.0488 16.748C72.5215 16.5098 73.0625 16.3906 73.6719 16.3906C74.0586 16.3906 74.4082 16.4297 74.7207 16.5078C75.0371 16.582 75.3047 16.6738 75.5234 16.7832L75.1133 17.8848C74.875 17.7871 74.6309 17.7051 74.3809 17.6387C74.1309 17.5723 73.8906 17.5391 73.6602 17.5391C73.2812 17.5391 72.9648 17.623 72.7109 17.791C72.4609 17.959 72.2734 18.209 72.1484 18.541C72.0273 18.873 71.9668 19.2852 71.9668 19.7773C71.9668 20.2539 72.0293 20.6562 72.1543 20.9844C72.2793 21.3086 72.4648 21.5547 72.7109 21.7227C72.957 21.8867 73.2598 21.9688 73.6191 21.9688C73.9746 21.9688 74.293 21.9258 74.5742 21.8398C74.8555 21.7539 75.1211 21.6426 75.3711 21.5059V22.7012C75.125 22.8418 74.8613 22.9453 74.5801 23.0117C74.2988 23.082 73.9531 23.1172 73.543 23.1172ZM79.4375 16.3906C80.2578 16.3906 80.877 16.5723 81.2949 16.9355C81.7168 17.2988 81.9277 17.8652 81.9277 18.6348V23H80.9492L80.6855 22.0801H80.6387C80.4551 22.3145 80.2656 22.5078 80.0703 22.6602C79.875 22.8125 79.6484 22.9258 79.3906 23C79.1367 23.0781 78.8262 23.1172 78.459 23.1172C78.0723 23.1172 77.7266 23.0469 77.4219 22.9062C77.1172 22.7617 76.877 22.543 76.7012 22.25C76.5254 21.957 76.4375 21.5859 76.4375 21.1367C76.4375 20.4688 76.6855 19.9668 77.1816 19.6309C77.6816 19.2949 78.4355 19.1094 79.4434 19.0742L80.5684 19.0332V18.6934C80.5684 18.2441 80.4629 17.9238 80.252 17.7324C80.0449 17.541 79.752 17.4453 79.373 17.4453C79.0488 17.4453 78.7344 17.4922 78.4297 17.5859C78.125 17.6797 77.8281 17.7949 77.5391 17.9316L77.0938 16.959C77.4102 16.791 77.7695 16.6543 78.1719 16.5488C78.5781 16.4434 79 16.3906 79.4375 16.3906ZM80.5625 19.9004L79.7246 19.9297C79.0371 19.9531 78.5547 20.0703 78.2773 20.2812C78 20.4922 77.8613 20.7812 77.8613 21.1484C77.8613 21.4688 77.957 21.7031 78.1484 21.8516C78.3398 21.9961 78.5918 22.0684 78.9043 22.0684C79.3809 22.0684 79.7754 21.9336 80.0879 21.6641C80.4043 21.3906 80.5625 20.9902 80.5625 20.4629V19.9004ZM86.2695 22.0039C86.4492 22.0039 86.627 21.9883 86.8027 21.957C86.9785 21.9219 87.1387 21.8809 87.2832 21.834V22.877C87.1309 22.9434 86.9336 23 86.6914 23.0469C86.4492 23.0938 86.1973 23.1172 85.9355 23.1172C85.5684 23.1172 85.2383 23.0566 84.9453 22.9355C84.6523 22.8105 84.4199 22.5977 84.248 22.2969C84.0762 21.9961 83.9902 21.5801 83.9902 21.0488V17.5625H83.1055V16.9473L84.0547 16.4609L84.5059 15.0723H85.373V16.5137H87.2305V17.5625H85.373V21.0312C85.373 21.3594 85.4551 21.6035 85.6191 21.7637C85.7832 21.9238 86 22.0039 86.2695 22.0039ZM89.9785 16.5137V23H88.6016V16.5137H89.9785ZM89.2988 14.0293C89.5098 14.0293 89.6914 14.0859 89.8438 14.1992C90 14.3125 90.0781 14.5078 90.0781 14.7852C90.0781 15.0586 90 15.2539 89.8438 15.3711C89.6914 15.4844 89.5098 15.541 89.2988 15.541C89.0801 15.541 88.8945 15.4844 88.7422 15.3711C88.5938 15.2539 88.5195 15.0586 88.5195 14.7852C88.5195 14.5078 88.5938 14.3125 88.7422 14.1992C88.8945 14.0859 89.0801 14.0293 89.2988 14.0293ZM97.6953 19.7422C97.6953 20.2812 97.625 20.7598 97.4844 21.1777C97.3438 21.5957 97.1387 21.9492 96.8691 22.2383C96.5996 22.5234 96.2754 22.7422 95.8965 22.8945C95.5176 23.043 95.0898 23.1172 94.6133 23.1172C94.168 23.1172 93.7598 23.043 93.3887 22.8945C93.0176 22.7422 92.6953 22.5234 92.4219 22.2383C92.1523 21.9492 91.9434 21.5957 91.7949 21.1777C91.6465 20.7598 91.5723 20.2812 91.5723 19.7422C91.5723 19.0273 91.6953 18.4219 91.9414 17.9258C92.1914 17.4258 92.5469 17.0449 93.0078 16.7832C93.4688 16.5215 94.0176 16.3906 94.6543 16.3906C95.252 16.3906 95.7793 16.5215 96.2363 16.7832C96.6934 17.0449 97.0508 17.4258 97.3086 17.9258C97.5664 18.4258 97.6953 19.0312 97.6953 19.7422ZM92.9902 19.7422C92.9902 20.2148 93.0469 20.6191 93.1602 20.9551C93.2773 21.291 93.457 21.5488 93.6992 21.7285C93.9414 21.9043 94.2539 21.9922 94.6367 21.9922C95.0195 21.9922 95.332 21.9043 95.5742 21.7285C95.8164 21.5488 95.9941 21.291 96.1074 20.9551C96.2207 20.6191 96.2773 20.2148 96.2773 19.7422C96.2773 19.2695 96.2207 18.8691 96.1074 18.541C95.9941 18.209 95.8164 17.957 95.5742 17.7852C95.332 17.6094 95.0176 17.5215 94.6309 17.5215C94.0605 17.5215 93.6445 17.7129 93.3828 18.0957C93.1211 18.4785 92.9902 19.0273 92.9902 19.7422ZM102.658 16.3906C103.389 16.3906 103.957 16.5801 104.363 16.959C104.773 17.334 104.979 17.9375 104.979 18.7695V23H103.602V19.0273C103.602 18.5234 103.498 18.1465 103.291 17.8965C103.084 17.6426 102.764 17.5156 102.33 17.5156C101.701 17.5156 101.264 17.709 101.018 18.0957C100.775 18.4824 100.654 19.043 100.654 19.7773V23H99.2773V16.5137H100.35L100.543 17.3926H100.619C100.76 17.166 100.934 16.9805 101.141 16.8359C101.352 16.6875 101.586 16.5762 101.844 16.502C102.105 16.4277 102.377 16.3906 102.658 16.3906Z" fill="#333333"/>
</g>
<defs>
<filter id="filter0_d_8981_50109" x="30.0078" y="0" width="102" height="40" filterUnits="userSpaceOnUse" color-interpolation-filters="sRGB">
<feFlood flood-opacity="0" result="BackgroundImageFix"/>
<feColorMatrix in="SourceAlpha" type="matrix" values="0 0 0 0 0 0 0 0 0 0 0 0 0 0 0 0 0 0 127 0" result="hardAlpha"/>
<feOffset dy="2"/>
<feGaussianBlur stdDeviation="3"/>
<feComposite in2="hardAlpha" operator="out"/>
<feColorMatrix type="matrix" values="0 0 0 0 0 0 0 0 0 0 0 0 0 0 0 0 0 0 0.14 0"/>
<feBlend mode="normal" in2="BackgroundImageFix" result="effect1_dropShadow_8981_50109"/>
<feBlend mode="normal" in="SourceGraphic" in2="effect1_dropShadow_8981_50109" result="shape"/>
</filter>
<linearGradient id="paint0_linear_8981_50109" x1="3.00781" y1="35.25" x2="37.277" y2="35.25" gradientUnits="userSpaceOnUse">
<stop stop-color="#9A9A9A"/>
<stop offset="1" stop-color="#FAFAFF"/>
</linearGradient>
</defs>
</svg>
