<svg width="300" height="214" viewBox="0 0 300 214" fill="none" xmlns="http://www.w3.org/2000/svg">
<rect width="300" height="214" rx="16" fill="white"/>
<path d="M25.8686 22.3828H23.6911C23.6513 22.1011 23.5701 21.8509 23.4474 21.6321C23.3248 21.41 23.1674 21.2211 22.9751 21.0653C22.7829 20.9096 22.5608 20.7902 22.3089 20.7074C22.0604 20.6245 21.7902 20.5831 21.4986 20.5831C20.9716 20.5831 20.5125 20.714 20.1214 20.9759C19.7304 21.2344 19.4271 21.6122 19.2116 22.1094C18.9962 22.6032 18.8885 23.2031 18.8885 23.9091C18.8885 24.6349 18.9962 25.2448 19.2116 25.7386C19.4304 26.2325 19.7353 26.6054 20.1264 26.8572C20.5175 27.1091 20.9699 27.2351 21.4837 27.2351C21.772 27.2351 22.0388 27.197 22.2841 27.1207C22.5327 27.0445 22.7531 26.9335 22.9453 26.7876C23.1375 26.6385 23.2966 26.4579 23.4226 26.2457C23.5518 26.0336 23.6413 25.7917 23.6911 25.5199L25.8686 25.5298C25.8123 25.9972 25.6714 26.4479 25.446 26.8821C25.224 27.313 24.924 27.6991 24.5462 28.0405C24.1716 28.3786 23.7242 28.647 23.2038 28.8459C22.6868 29.0414 22.1018 29.1392 21.4489 29.1392C20.5407 29.1392 19.7287 28.9337 19.0128 28.5227C18.3002 28.1117 17.7367 27.5168 17.3224 26.7379C16.9115 25.959 16.706 25.0161 16.706 23.9091C16.706 22.7988 16.9148 21.8542 17.3324 21.0753C17.75 20.2964 18.3168 19.7031 19.0327 19.2955C19.7486 18.8845 20.554 18.679 21.4489 18.679C22.0388 18.679 22.5857 18.7618 23.0895 18.9276C23.5966 19.0933 24.0457 19.3352 24.4368 19.6534C24.8279 19.9683 25.1461 20.3544 25.3913 20.8118C25.6399 21.2692 25.799 21.7929 25.8686 22.3828ZM29.4904 24.5852V29H27.3725V18.8182H29.4308V22.7109H29.5202C29.6926 22.2602 29.971 21.9072 30.3555 21.652C30.7399 21.3935 31.2222 21.2642 31.8022 21.2642C32.3325 21.2642 32.7949 21.3802 33.1893 21.6122C33.587 21.8409 33.8952 22.1707 34.114 22.6016C34.3361 23.0291 34.4454 23.5412 34.4421 24.1378V29H32.3242V24.5156C32.3275 24.045 32.2082 23.6787 31.9663 23.4169C31.7276 23.1551 31.3929 23.0241 30.962 23.0241C30.6737 23.0241 30.4184 23.0855 30.1964 23.2081C29.9776 23.3307 29.8053 23.5097 29.6793 23.745C29.5567 23.977 29.4937 24.2571 29.4904 24.5852ZM38.2864 29.1442C37.7992 29.1442 37.365 29.0597 36.9838 28.8906C36.6027 28.7183 36.3011 28.4647 36.079 28.13C35.8603 27.7919 35.7509 27.371 35.7509 26.8672C35.7509 26.4429 35.8288 26.0866 35.9846 25.7983C36.1403 25.5099 36.3525 25.2779 36.6209 25.1023C36.8894 24.9266 37.1943 24.794 37.5357 24.7045C37.8804 24.6151 38.2417 24.5521 38.6195 24.5156C39.0636 24.4692 39.4216 24.4261 39.6934 24.3864C39.9651 24.3433 40.1623 24.2803 40.285 24.1974C40.4076 24.1146 40.4689 23.992 40.4689 23.8295V23.7997C40.4689 23.4848 40.3695 23.2412 40.1706 23.0689C39.9751 22.8965 39.6967 22.8104 39.3354 22.8104C38.9542 22.8104 38.651 22.8949 38.4256 23.0639C38.2002 23.2296 38.0511 23.4384 37.9782 23.6903L36.0194 23.5312C36.1188 23.0672 36.3143 22.6662 36.606 22.3281C36.8977 21.9867 37.2739 21.7249 37.7346 21.5426C38.1986 21.357 38.7355 21.2642 39.3453 21.2642C39.7696 21.2642 40.1756 21.3139 40.5634 21.4134C40.9545 21.5128 41.3008 21.6669 41.6025 21.8757C41.9074 22.0845 42.1477 22.353 42.3233 22.6811C42.499 23.0059 42.5868 23.3954 42.5868 23.8494V29H40.5783V27.9411H40.5186C40.396 28.1797 40.2319 28.3902 40.0265 28.5724C39.821 28.7514 39.574 28.8923 39.2857 28.995C38.9973 29.0945 38.6642 29.1442 38.2864 29.1442ZM38.8929 27.6825C39.2045 27.6825 39.4796 27.6212 39.7182 27.4986C39.9569 27.3726 40.1441 27.2036 40.28 26.9915C40.4159 26.7794 40.4838 26.5391 40.4838 26.2706V25.4602C40.4176 25.5033 40.3264 25.5431 40.2104 25.5795C40.0977 25.6127 39.9701 25.6442 39.8276 25.674C39.6851 25.7005 39.5426 25.7254 39.4 25.7486C39.2575 25.7685 39.1283 25.7867 39.0123 25.8033C38.7637 25.8397 38.5466 25.8977 38.361 25.9773C38.1754 26.0568 38.0312 26.1645 37.9284 26.3004C37.8257 26.433 37.7743 26.5987 37.7743 26.7976C37.7743 27.0859 37.8787 27.3063 38.0875 27.4588C38.2997 27.608 38.5681 27.6825 38.8929 27.6825ZM48.2917 21.3636V22.9545H43.693V21.3636H48.2917ZM44.737 19.5341H46.8549V26.6534C46.8549 26.849 46.8848 27.0014 46.9444 27.1108C47.0041 27.2169 47.0869 27.2914 47.193 27.3345C47.3024 27.3776 47.4283 27.3991 47.5708 27.3991C47.6703 27.3991 47.7697 27.3909 47.8691 27.3743C47.9686 27.3544 48.0448 27.3395 48.0978 27.3295L48.4309 28.9055C48.3249 28.9387 48.1757 28.9768 47.9835 29.0199C47.7913 29.0663 47.5576 29.0945 47.2825 29.1044C46.7721 29.1243 46.3246 29.0563 45.9402 28.9006C45.559 28.7448 45.2624 28.5028 45.0502 28.1747C44.8381 27.8466 44.7337 27.4323 44.737 26.9318V19.5341ZM54.418 29L52.3398 21.3636H54.4826L55.6658 26.4943H55.7354L56.9684 21.3636H59.0714L60.3242 26.4645H60.3888L61.5522 21.3636H63.69L61.6168 29H59.3746L58.0621 24.1974H57.9677L56.6552 29H54.418ZM64.8198 29V21.3636H66.9377V29H64.8198ZM65.8837 20.3793C65.5688 20.3793 65.2987 20.2749 65.0733 20.0661C64.8513 19.8539 64.7402 19.6004 64.7402 19.3054C64.7402 19.0137 64.8513 18.7635 65.0733 18.5547C65.2987 18.3426 65.5688 18.2365 65.8837 18.2365C66.1986 18.2365 66.467 18.3426 66.6891 18.5547C66.9145 18.7635 67.0272 19.0137 67.0272 19.3054C67.0272 19.6004 66.9145 19.8539 66.6891 20.0661C66.467 20.2749 66.1986 20.3793 65.8837 20.3793ZM72.696 21.3636V22.9545H68.0973V21.3636H72.696ZM69.1413 19.5341H71.2592V26.6534C71.2592 26.849 71.2891 27.0014 71.3487 27.1108C71.4084 27.2169 71.4912 27.2914 71.5973 27.3345C71.7067 27.3776 71.8326 27.3991 71.9751 27.3991C72.0746 27.3991 72.174 27.3909 72.2734 27.3743C72.3729 27.3544 72.4491 27.3395 72.5021 27.3295L72.8352 28.9055C72.7292 28.9387 72.58 28.9768 72.3878 29.0199C72.1955 29.0663 71.9619 29.0945 71.6868 29.1044C71.1764 29.1243 70.7289 29.0563 70.3445 28.9006C69.9633 28.7448 69.6667 28.5028 69.4545 28.1747C69.2424 27.8466 69.138 27.4323 69.1413 26.9318V19.5341ZM76.3576 24.5852V29H74.2397V18.8182H76.2979V22.7109H76.3874C76.5598 22.2602 76.8382 21.9072 77.2227 21.652C77.6071 21.3935 78.0894 21.2642 78.6694 21.2642C79.1997 21.2642 79.6621 21.3802 80.0565 21.6122C80.4542 21.8409 80.7624 22.1707 80.9812 22.6016C81.2032 23.0291 81.3126 23.5412 81.3093 24.1378V29H79.1914V24.5156C79.1947 24.045 79.0754 23.6787 78.8335 23.4169C78.5948 23.1551 78.2601 23.0241 77.8292 23.0241C77.5408 23.0241 77.2856 23.0855 77.0636 23.2081C76.8448 23.3307 76.6725 23.5097 76.5465 23.745C76.4239 23.977 76.3609 24.2571 76.3576 24.5852Z" fill="#333333"/>
<path d="M86.256 29V18.8182H90.3327C91.0818 18.8182 91.7066 18.9292 92.207 19.1513C92.7075 19.3733 93.0837 19.6816 93.3356 20.076C93.5875 20.4671 93.7134 20.9179 93.7134 21.4283C93.7134 21.826 93.6339 22.1757 93.4748 22.4773C93.3157 22.7756 93.0969 23.0208 92.8185 23.2131C92.5434 23.402 92.2286 23.5362 91.8739 23.6158V23.7152C92.2617 23.7318 92.6246 23.8411 92.9627 24.0433C93.3041 24.2455 93.5808 24.5289 93.793 24.8935C94.0051 25.2547 94.1112 25.6856 94.1112 26.1861C94.1112 26.7263 93.9769 27.2086 93.7085 27.6328C93.4433 28.0537 93.0505 28.3868 92.5302 28.6321C92.0098 28.8774 91.3685 29 90.6062 29H86.256ZM88.4087 27.2401H90.1637C90.7636 27.2401 91.2011 27.1257 91.4762 26.897C91.7513 26.665 91.8888 26.3568 91.8888 25.9723C91.8888 25.6906 91.8209 25.442 91.685 25.2266C91.5491 25.0111 91.3552 24.8421 91.1033 24.7195C90.8548 24.5968 90.5581 24.5355 90.2134 24.5355H88.4087V27.2401ZM88.4087 23.0788H90.0046C90.2996 23.0788 90.5614 23.0275 90.7901 22.9247C91.0221 22.8187 91.2044 22.6695 91.337 22.4773C91.4729 22.285 91.5408 22.0547 91.5408 21.7862C91.5408 21.4183 91.4099 21.1217 91.1481 20.8963C90.8896 20.6709 90.5217 20.5582 90.0444 20.5582H88.4087V23.0788ZM95.5119 29V18.8182H102.373V20.593H97.6646V23.0192H102.02V24.794H97.6646V27.2251H102.393V29H95.5119ZM104.084 29V18.8182H110.945V20.593H106.237V23.0192H110.592V24.794H106.237V27.2251H110.965V29H104.084Z" fill="#2D65F2"/>
<path d="M76 62C76 56.4772 80.4772 52 86 52H249C254.523 52 259 56.4772 259 62V98H86C80.4772 98 76 93.5228 76 88V62Z" fill="#FEFAF0"/>
<path d="M95.9956 64.1475L93.8955 72H92.9771L91.4194 66.7148C91.3729 66.5645 91.3281 66.4141 91.2852 66.2637C91.2458 66.1097 91.2082 65.9647 91.1724 65.8286C91.1366 65.689 91.1061 65.5672 91.0811 65.4634C91.0596 65.356 91.0435 65.2754 91.0327 65.2217C91.0256 65.2754 91.0112 65.3542 90.9897 65.458C90.9718 65.5618 90.9468 65.6818 90.9146 65.8179C90.8859 65.9539 90.8501 66.099 90.8071 66.2529C90.7677 66.4069 90.7248 66.5627 90.6782 66.7202L89.1636 72H88.2451L86.1611 64.1475H87.1118L88.374 69.0728C88.417 69.2375 88.4564 69.4004 88.4922 69.5615C88.5316 69.7191 88.5656 69.873 88.5942 70.0234C88.6265 70.1738 88.6551 70.3206 88.6802 70.4639C88.7052 70.6071 88.7285 70.7467 88.75 70.8828C88.7679 70.7432 88.7912 70.5981 88.8198 70.4478C88.8485 70.2938 88.8789 70.138 88.9111 69.9805C88.9469 69.8229 88.9845 69.6636 89.0239 69.5024C89.0669 69.3413 89.1117 69.1802 89.1582 69.019L90.5708 64.1475H91.5107L92.9824 69.0566C93.0326 69.2249 93.0791 69.3914 93.1221 69.5562C93.165 69.7209 93.2026 69.882 93.2349 70.0396C93.2707 70.1935 93.3011 70.3421 93.3262 70.4854C93.3548 70.625 93.3799 70.7575 93.4014 70.8828C93.4264 70.7074 93.4569 70.5229 93.4927 70.3296C93.5285 70.1362 93.5697 69.9339 93.6162 69.7227C93.6663 69.5114 93.7201 69.293 93.7773 69.0674L95.0396 64.1475H95.9956ZM97.9937 63.6426V66.1401C97.9937 66.2834 97.9901 66.4284 97.9829 66.5752C97.9757 66.7184 97.9632 66.8509 97.9453 66.9727H98.0044C98.1261 66.765 98.2801 66.5913 98.4663 66.4517C98.6561 66.3084 98.8709 66.201 99.1108 66.1294C99.3507 66.0542 99.605 66.0166 99.8735 66.0166C100.346 66.0166 100.74 66.0918 101.055 66.2422C101.374 66.3926 101.612 66.6253 101.77 66.9404C101.931 67.2555 102.011 67.6637 102.011 68.165V72H101.13V68.2241C101.13 67.7336 101.018 67.3665 100.792 67.123C100.57 66.8796 100.228 66.7578 99.7661 66.7578C99.3293 66.7578 98.9801 66.842 98.7188 67.0103C98.4609 67.175 98.2747 67.4185 98.1602 67.7407C98.0492 68.063 97.9937 68.4569 97.9937 68.9224V72H97.1021V63.6426H97.9937ZM106.05 66.0166C106.752 66.0166 107.273 66.1742 107.613 66.4893C107.953 66.8044 108.124 67.3075 108.124 67.9985V72H107.474L107.302 71.1299H107.259C107.094 71.3447 106.922 71.5256 106.743 71.6724C106.564 71.8156 106.356 71.9248 106.12 72C105.887 72.0716 105.601 72.1074 105.261 72.1074C104.903 72.1074 104.584 72.0448 104.305 71.9194C104.029 71.7941 103.811 71.6043 103.649 71.3501C103.492 71.0959 103.413 70.7736 103.413 70.3833C103.413 69.7961 103.646 69.3449 104.111 69.0298C104.577 68.7147 105.286 68.5428 106.238 68.5142L107.253 68.4712V68.1113C107.253 67.6029 107.144 67.2466 106.926 67.0425C106.707 66.8384 106.399 66.7363 106.002 66.7363C105.694 66.7363 105.4 66.7811 105.121 66.8706C104.842 66.9601 104.577 67.0658 104.326 67.1875L104.052 66.5107C104.317 66.3747 104.622 66.2583 104.965 66.1616C105.309 66.0649 105.671 66.0166 106.05 66.0166ZM107.243 69.0996L106.346 69.1372C105.612 69.1659 105.094 69.2858 104.793 69.4971C104.493 69.7083 104.342 70.0073 104.342 70.394C104.342 70.7306 104.444 70.9795 104.648 71.1406C104.853 71.3018 105.123 71.3823 105.459 71.3823C105.982 71.3823 106.41 71.2373 106.743 70.9473C107.076 70.6572 107.243 70.2222 107.243 69.6421V69.0996ZM111.862 71.377C112.009 71.377 112.159 71.3644 112.313 71.3394C112.467 71.3143 112.592 71.2839 112.689 71.248V71.9409C112.585 71.9875 112.44 72.0269 112.254 72.0591C112.071 72.0913 111.892 72.1074 111.717 72.1074C111.405 72.1074 111.122 72.0537 110.868 71.9463C110.614 71.8353 110.41 71.6491 110.256 71.3877C110.105 71.1263 110.03 70.7646 110.03 70.3027V66.8115H109.192V66.3765L110.036 66.0273L110.39 64.749H110.927V66.1133H112.651V66.8115H110.927V70.2759C110.927 70.6447 111.011 70.9204 111.18 71.103C111.352 71.2856 111.579 71.377 111.862 71.377ZM114.585 64.1475L114.666 64.2656C114.601 64.527 114.519 64.8081 114.418 65.1089C114.318 65.4061 114.209 65.7033 114.091 66.0005C113.973 66.2977 113.854 66.577 113.736 66.8384H113.081C113.135 66.6343 113.188 66.4159 113.242 66.1831C113.299 65.9504 113.353 65.714 113.403 65.4741C113.453 65.2342 113.498 65.0015 113.538 64.7759C113.581 64.5503 113.616 64.3408 113.645 64.1475H114.585ZM119.559 70.3887C119.559 70.7646 119.464 71.0815 119.274 71.3394C119.088 71.5936 118.819 71.7852 118.468 71.9141C118.121 72.043 117.706 72.1074 117.222 72.1074C116.81 72.1074 116.454 72.0752 116.153 72.0107C115.853 71.9463 115.589 71.855 115.364 71.7368V70.915C115.604 71.0332 115.89 71.1406 116.223 71.2373C116.556 71.334 116.896 71.3823 117.244 71.3823C117.752 71.3823 118.121 71.3 118.35 71.1353C118.579 70.9705 118.694 70.7467 118.694 70.4639C118.694 70.3027 118.647 70.1613 118.554 70.0396C118.465 69.9142 118.312 69.7943 118.098 69.6797C117.883 69.5615 117.586 69.4326 117.206 69.293C116.83 69.1497 116.504 69.0083 116.229 68.8687C115.956 68.7254 115.745 68.5518 115.595 68.3477C115.448 68.1436 115.375 67.8786 115.375 67.5527C115.375 67.055 115.575 66.6737 115.976 66.4087C116.381 66.1401 116.911 66.0059 117.566 66.0059C117.92 66.0059 118.252 66.0417 118.56 66.1133C118.871 66.1813 119.161 66.2744 119.43 66.3926L119.129 67.1069C118.885 67.0031 118.626 66.9154 118.35 66.8438C118.074 66.7721 117.793 66.7363 117.507 66.7363C117.095 66.7363 116.778 66.8044 116.556 66.9404C116.338 67.0765 116.229 67.2627 116.229 67.499C116.229 67.6816 116.279 67.832 116.379 67.9502C116.483 68.0684 116.647 68.1794 116.873 68.2832C117.099 68.387 117.396 68.5088 117.765 68.6484C118.133 68.7845 118.452 68.9259 118.721 69.0728C118.989 69.216 119.195 69.3914 119.338 69.5991C119.485 69.8032 119.559 70.0664 119.559 70.3887ZM125.751 71.377C125.898 71.377 126.049 71.3644 126.203 71.3394C126.357 71.3143 126.482 71.2839 126.579 71.248V71.9409C126.475 71.9875 126.33 72.0269 126.144 72.0591C125.961 72.0913 125.782 72.1074 125.606 72.1074C125.295 72.1074 125.012 72.0537 124.758 71.9463C124.504 71.8353 124.299 71.6491 124.146 71.3877C123.995 71.1263 123.92 70.7646 123.92 70.3027V66.8115H123.082V66.3765L123.925 66.0273L124.28 64.749H124.817V66.1133H126.541V66.8115H124.817V70.2759C124.817 70.6447 124.901 70.9204 125.069 71.103C125.241 71.2856 125.469 71.377 125.751 71.377ZM128.663 63.6426V66.1401C128.663 66.2834 128.659 66.4284 128.652 66.5752C128.645 66.7184 128.632 66.8509 128.614 66.9727H128.673C128.795 66.765 128.949 66.5913 129.135 66.4517C129.325 66.3084 129.54 66.201 129.78 66.1294C130.02 66.0542 130.274 66.0166 130.542 66.0166C131.015 66.0166 131.409 66.0918 131.724 66.2422C132.043 66.3926 132.281 66.6253 132.438 66.9404C132.6 67.2555 132.68 67.6637 132.68 68.165V72H131.799V68.2241C131.799 67.7336 131.687 67.3665 131.461 67.123C131.239 66.8796 130.897 66.7578 130.435 66.7578C129.998 66.7578 129.649 66.842 129.388 67.0103C129.13 67.175 128.944 67.4185 128.829 67.7407C128.718 68.063 128.663 68.4569 128.663 68.9224V72H127.771V63.6426H128.663ZM136.784 66.0059C137.285 66.0059 137.715 66.1169 138.073 66.3389C138.431 66.5609 138.705 66.8724 138.895 67.2734C139.084 67.6709 139.179 68.1364 139.179 68.6699V69.2231H135.113C135.124 69.9142 135.296 70.4406 135.629 70.8022C135.962 71.1639 136.431 71.3447 137.036 71.3447C137.409 71.3447 137.738 71.3107 138.024 71.2427C138.311 71.1746 138.608 71.0744 138.916 70.9419V71.7261C138.619 71.8586 138.323 71.9552 138.03 72.0161C137.74 72.077 137.396 72.1074 136.999 72.1074C136.433 72.1074 135.939 71.9928 135.516 71.7637C135.097 71.5309 134.771 71.1908 134.539 70.7432C134.306 70.2956 134.189 69.7477 134.189 69.0996C134.189 68.4658 134.295 67.918 134.506 67.4561C134.721 66.9906 135.022 66.6325 135.409 66.3818C135.799 66.1312 136.257 66.0059 136.784 66.0059ZM136.773 66.7363C136.297 66.7363 135.917 66.8921 135.634 67.2036C135.351 67.5151 135.183 67.9502 135.129 68.5088H138.245C138.241 68.1579 138.186 67.8499 138.078 67.585C137.974 67.3164 137.815 67.1087 137.6 66.9619C137.385 66.8115 137.11 66.7363 136.773 66.7363ZM145.909 72.1074C145.379 72.1074 144.912 71.9982 144.507 71.7798C144.103 71.5614 143.788 71.2284 143.562 70.7808C143.336 70.3332 143.224 69.7692 143.224 69.0889C143.224 68.3763 143.342 67.7944 143.578 67.3433C143.818 66.8885 144.147 66.5519 144.566 66.3335C144.985 66.1151 145.462 66.0059 145.995 66.0059C146.289 66.0059 146.572 66.0363 146.844 66.0972C147.119 66.1545 147.345 66.2279 147.521 66.3174L147.252 67.064C147.073 66.9924 146.865 66.9279 146.629 66.8706C146.396 66.8133 146.178 66.7847 145.974 66.7847C145.565 66.7847 145.225 66.8724 144.953 67.0479C144.685 67.2233 144.482 67.4811 144.346 67.8213C144.214 68.1615 144.147 68.5804 144.147 69.0781C144.147 69.5544 144.212 69.9608 144.341 70.2974C144.473 70.634 144.668 70.8918 144.926 71.0708C145.188 71.2463 145.514 71.334 145.904 71.334C146.215 71.334 146.496 71.3018 146.747 71.2373C146.998 71.1693 147.225 71.0905 147.429 71.001V71.7959C147.232 71.8962 147.012 71.9731 146.769 72.0269C146.529 72.0806 146.242 72.1074 145.909 72.1074ZM153.901 69.0459C153.901 69.5293 153.839 69.9608 153.713 70.3403C153.588 70.7199 153.407 71.0404 153.171 71.3018C152.935 71.5632 152.648 71.7637 152.312 71.9033C151.979 72.0394 151.601 72.1074 151.178 72.1074C150.784 72.1074 150.423 72.0394 150.093 71.9033C149.767 71.7637 149.485 71.5632 149.245 71.3018C149.008 71.0404 148.824 70.7199 148.691 70.3403C148.562 69.9608 148.498 69.5293 148.498 69.0459C148.498 68.4014 148.607 67.8535 148.826 67.4023C149.044 66.9476 149.356 66.6021 149.76 66.3657C150.168 66.1258 150.654 66.0059 151.216 66.0059C151.753 66.0059 152.222 66.1258 152.623 66.3657C153.028 66.6056 153.341 66.953 153.563 67.4077C153.789 67.8589 153.901 68.4049 153.901 69.0459ZM149.422 69.0459C149.422 69.5186 149.485 69.9285 149.61 70.2759C149.735 70.6232 149.929 70.8918 150.19 71.0815C150.451 71.2713 150.788 71.3662 151.2 71.3662C151.608 71.3662 151.943 71.2713 152.204 71.0815C152.469 70.8918 152.664 70.6232 152.79 70.2759C152.915 69.9285 152.978 69.5186 152.978 69.0459C152.978 68.5768 152.915 68.1722 152.79 67.832C152.664 67.4883 152.471 67.2233 152.209 67.0371C151.948 66.8509 151.61 66.7578 151.194 66.7578C150.582 66.7578 150.133 66.9601 149.846 67.3647C149.563 67.7694 149.422 68.3298 149.422 69.0459ZM161.834 66.0059C162.483 66.0059 162.971 66.1759 163.301 66.5161C163.63 66.8527 163.795 67.3952 163.795 68.1436V72H162.914V68.1865C162.914 67.7103 162.81 67.354 162.603 67.1177C162.398 66.8778 162.094 66.7578 161.689 66.7578C161.12 66.7578 160.707 66.9225 160.449 67.252C160.191 67.5814 160.062 68.0666 160.062 68.7075V72H159.176V68.1865C159.176 67.8678 159.129 67.6029 159.036 67.3916C158.947 67.1803 158.811 67.0228 158.628 66.9189C158.449 66.8115 158.222 66.7578 157.946 66.7578C157.556 66.7578 157.242 66.8384 157.006 66.9995C156.77 67.1606 156.598 67.4006 156.49 67.7192C156.386 68.0343 156.334 68.4229 156.334 68.8848V72H155.443V66.1133H156.163L156.297 66.9458H156.345C156.463 66.7417 156.612 66.5698 156.791 66.4302C156.97 66.2905 157.171 66.1849 157.393 66.1133C157.615 66.0417 157.851 66.0059 158.102 66.0059C158.549 66.0059 158.923 66.09 159.224 66.2583C159.528 66.423 159.749 66.6755 159.885 67.0156H159.933C160.126 66.6755 160.391 66.423 160.728 66.2583C161.065 66.09 161.433 66.0059 161.834 66.0059ZM168.393 66.0059C169.127 66.0059 169.712 66.2583 170.149 66.7632C170.586 67.2681 170.804 68.0272 170.804 69.0405C170.804 69.7101 170.704 70.2723 170.503 70.7271C170.303 71.1818 170.02 71.5256 169.655 71.7583C169.293 71.991 168.865 72.1074 168.371 72.1074C168.06 72.1074 167.786 72.0662 167.549 71.9839C167.313 71.9015 167.111 71.7905 166.942 71.6509C166.774 71.5112 166.634 71.359 166.523 71.1943H166.459C166.47 71.334 166.482 71.5023 166.497 71.6992C166.514 71.8962 166.523 72.068 166.523 72.2148V74.6318H165.626V66.1133H166.362L166.48 66.9834H166.523C166.638 66.8044 166.778 66.6414 166.942 66.4946C167.107 66.3442 167.308 66.2261 167.544 66.1401C167.784 66.0506 168.067 66.0059 168.393 66.0059ZM168.237 66.7578C167.829 66.7578 167.499 66.8366 167.249 66.9941C167.001 67.1517 166.821 67.388 166.706 67.7031C166.591 68.0146 166.531 68.4067 166.523 68.8794V69.0513C166.523 69.549 166.577 69.9697 166.685 70.3135C166.796 70.6572 166.976 70.9186 167.227 71.0977C167.481 71.2767 167.821 71.3662 168.248 71.3662C168.613 71.3662 168.917 71.2677 169.161 71.0708C169.404 70.8739 169.585 70.5999 169.703 70.249C169.825 69.8945 169.886 69.4881 169.886 69.0298C169.886 68.3351 169.75 67.7837 169.478 67.3755C169.209 66.9637 168.795 66.7578 168.237 66.7578ZM173.259 72H172.362V63.6426H173.259V72ZM176.036 66.1133V72H175.144V66.1133H176.036ZM175.601 63.9111C175.747 63.9111 175.873 63.9595 175.977 64.0562C176.084 64.1493 176.138 64.2961 176.138 64.4966C176.138 64.6935 176.084 64.8403 175.977 64.937C175.873 65.0337 175.747 65.082 175.601 65.082C175.447 65.082 175.318 65.0337 175.214 64.937C175.114 64.8403 175.063 64.6935 175.063 64.4966C175.063 64.2961 175.114 64.1493 175.214 64.0562C175.318 63.9595 175.447 63.9111 175.601 63.9111ZM180.128 66.0166C180.83 66.0166 181.351 66.1742 181.691 66.4893C182.032 66.8044 182.202 67.3075 182.202 67.9985V72H181.552L181.38 71.1299H181.337C181.172 71.3447 181 71.5256 180.821 71.6724C180.642 71.8156 180.435 71.9248 180.198 72C179.965 72.0716 179.679 72.1074 179.339 72.1074C178.981 72.1074 178.662 72.0448 178.383 71.9194C178.107 71.7941 177.889 71.6043 177.728 71.3501C177.57 71.0959 177.491 70.7736 177.491 70.3833C177.491 69.7961 177.724 69.3449 178.189 69.0298C178.655 68.7147 179.364 68.5428 180.316 68.5142L181.332 68.4712V68.1113C181.332 67.6029 181.222 67.2466 181.004 67.0425C180.785 66.8384 180.478 66.7363 180.08 66.7363C179.772 66.7363 179.479 66.7811 179.199 66.8706C178.92 66.9601 178.655 67.0658 178.404 67.1875L178.13 66.5107C178.395 66.3747 178.7 66.2583 179.043 66.1616C179.387 66.0649 179.749 66.0166 180.128 66.0166ZM181.321 69.0996L180.424 69.1372C179.69 69.1659 179.172 69.2858 178.872 69.4971C178.571 69.7083 178.42 70.0073 178.42 70.394C178.42 70.7306 178.522 70.9795 178.727 71.1406C178.931 71.3018 179.201 71.3823 179.538 71.3823C180.06 71.3823 180.488 71.2373 180.821 70.9473C181.154 70.6572 181.321 70.2222 181.321 69.6421V69.0996ZM186.826 66.0059C187.524 66.0059 188.053 66.1777 188.411 66.5215C188.769 66.8617 188.948 67.4095 188.948 68.165V72H188.067V68.2241C188.067 67.7336 187.954 67.3665 187.729 67.123C187.507 66.8796 187.165 66.7578 186.703 66.7578C186.051 66.7578 185.593 66.9422 185.328 67.311C185.063 67.6799 184.93 68.2152 184.93 68.917V72H184.039V66.1133H184.758L184.893 66.9619H184.941C185.066 66.7542 185.226 66.5806 185.419 66.4409C185.612 66.2977 185.829 66.1903 186.069 66.1187C186.309 66.0435 186.561 66.0059 186.826 66.0059ZM193.143 72.1074C192.613 72.1074 192.145 71.9982 191.741 71.7798C191.336 71.5614 191.021 71.2284 190.795 70.7808C190.57 70.3332 190.457 69.7692 190.457 69.0889C190.457 68.3763 190.575 67.7944 190.812 67.3433C191.051 66.8885 191.381 66.5519 191.8 66.3335C192.219 66.1151 192.695 66.0059 193.229 66.0059C193.522 66.0059 193.805 66.0363 194.077 66.0972C194.353 66.1545 194.578 66.2279 194.754 66.3174L194.485 67.064C194.306 66.9924 194.099 66.9279 193.862 66.8706C193.63 66.8133 193.411 66.7847 193.207 66.7847C192.799 66.7847 192.459 66.8724 192.187 67.0479C191.918 67.2233 191.716 67.4811 191.58 67.8213C191.447 68.1615 191.381 68.5804 191.381 69.0781C191.381 69.5544 191.445 69.9608 191.574 70.2974C191.707 70.634 191.902 70.8918 192.16 71.0708C192.421 71.2463 192.747 71.334 193.137 71.334C193.449 71.334 193.73 71.3018 193.98 71.2373C194.231 71.1693 194.458 71.0905 194.663 71.001V71.7959C194.466 71.8962 194.245 71.9731 194.002 72.0269C193.762 72.0806 193.476 72.1074 193.143 72.1074ZM198.326 66.0059C198.827 66.0059 199.257 66.1169 199.615 66.3389C199.973 66.5609 200.247 66.8724 200.437 67.2734C200.626 67.6709 200.721 68.1364 200.721 68.6699V69.2231H196.655C196.666 69.9142 196.838 70.4406 197.171 70.8022C197.504 71.1639 197.973 71.3447 198.578 71.3447C198.951 71.3447 199.28 71.3107 199.566 71.2427C199.853 71.1746 200.15 71.0744 200.458 70.9419V71.7261C200.161 71.8586 199.865 71.9552 199.572 72.0161C199.282 72.077 198.938 72.1074 198.541 72.1074C197.975 72.1074 197.481 71.9928 197.058 71.7637C196.639 71.5309 196.313 71.1908 196.081 70.7432C195.848 70.2956 195.731 69.7477 195.731 69.0996C195.731 68.4658 195.837 67.918 196.048 67.4561C196.263 66.9906 196.564 66.6325 196.951 66.3818C197.341 66.1312 197.799 66.0059 198.326 66.0059ZM198.315 66.7363C197.839 66.7363 197.459 66.8921 197.176 67.2036C196.893 67.5151 196.725 67.9502 196.671 68.5088H199.787C199.783 68.1579 199.728 67.8499 199.62 67.585C199.516 67.3164 199.357 67.1087 199.142 66.9619C198.927 66.8115 198.652 66.7363 198.315 66.7363ZM208.901 70.3887C208.901 70.7646 208.806 71.0815 208.617 71.3394C208.431 71.5936 208.162 71.7852 207.811 71.9141C207.464 72.043 207.048 72.1074 206.565 72.1074C206.153 72.1074 205.797 72.0752 205.496 72.0107C205.195 71.9463 204.932 71.855 204.707 71.7368V70.915C204.946 71.0332 205.233 71.1406 205.566 71.2373C205.899 71.334 206.239 71.3823 206.586 71.3823C207.095 71.3823 207.464 71.3 207.693 71.1353C207.922 70.9705 208.037 70.7467 208.037 70.4639C208.037 70.3027 207.99 70.1613 207.897 70.0396C207.807 69.9142 207.655 69.7943 207.44 69.6797C207.226 69.5615 206.928 69.4326 206.549 69.293C206.173 69.1497 205.847 69.0083 205.571 68.8687C205.299 68.7254 205.088 68.5518 204.938 68.3477C204.791 68.1436 204.717 67.8786 204.717 67.5527C204.717 67.055 204.918 66.6737 205.319 66.4087C205.723 66.1401 206.253 66.0059 206.909 66.0059C207.263 66.0059 207.594 66.0417 207.902 66.1133C208.214 66.1813 208.504 66.2744 208.772 66.3926L208.472 67.1069C208.228 67.0031 207.969 66.9154 207.693 66.8438C207.417 66.7721 207.136 66.7363 206.85 66.7363C206.438 66.7363 206.121 66.8044 205.899 66.9404C205.681 67.0765 205.571 67.2627 205.571 67.499C205.571 67.6816 205.621 67.832 205.722 67.9502C205.826 68.0684 205.99 68.1794 206.216 68.2832C206.441 68.387 206.739 68.5088 207.107 68.6484C207.476 68.7845 207.795 68.9259 208.063 69.0728C208.332 69.216 208.538 69.3914 208.681 69.5991C208.828 69.8032 208.901 70.0664 208.901 70.3887ZM212.237 71.377C212.384 71.377 212.534 71.3644 212.688 71.3394C212.842 71.3143 212.967 71.2839 213.064 71.248V71.9409C212.96 71.9875 212.815 72.0269 212.629 72.0591C212.446 72.0913 212.267 72.1074 212.092 72.1074C211.78 72.1074 211.497 72.0537 211.243 71.9463C210.989 71.8353 210.785 71.6491 210.631 71.3877C210.48 71.1263 210.405 70.7646 210.405 70.3027V66.8115H209.567V66.3765L210.411 66.0273L210.765 64.749H211.302V66.1133H213.026V66.8115H211.302V70.2759C211.302 70.6447 211.386 70.9204 211.555 71.103C211.727 71.2856 211.954 71.377 212.237 71.377ZM216.458 66.0166C217.16 66.0166 217.681 66.1742 218.021 66.4893C218.362 66.8044 218.532 67.3075 218.532 67.9985V72H217.882L217.71 71.1299H217.667C217.502 71.3447 217.33 71.5256 217.151 71.6724C216.972 71.8156 216.765 71.9248 216.528 72C216.296 72.0716 216.009 72.1074 215.669 72.1074C215.311 72.1074 214.992 72.0448 214.713 71.9194C214.437 71.7941 214.219 71.6043 214.058 71.3501C213.9 71.0959 213.821 70.7736 213.821 70.3833C213.821 69.7961 214.054 69.3449 214.52 69.0298C214.985 68.7147 215.694 68.5428 216.646 68.5142L217.662 68.4712V68.1113C217.662 67.6029 217.552 67.2466 217.334 67.0425C217.116 66.8384 216.808 66.7363 216.41 66.7363C216.102 66.7363 215.809 66.7811 215.529 66.8706C215.25 66.9601 214.985 67.0658 214.734 67.1875L214.46 66.5107C214.725 66.3747 215.03 66.2583 215.374 66.1616C215.717 66.0649 216.079 66.0166 216.458 66.0166ZM217.651 69.0996L216.754 69.1372C216.02 69.1659 215.502 69.2858 215.202 69.4971C214.901 69.7083 214.75 70.0073 214.75 70.394C214.75 70.7306 214.853 70.9795 215.057 71.1406C215.261 71.3018 215.531 71.3823 215.868 71.3823C216.39 71.3823 216.818 71.2373 217.151 70.9473C217.484 70.6572 217.651 70.2222 217.651 69.6421V69.0996ZM222.27 71.377C222.417 71.377 222.567 71.3644 222.721 71.3394C222.875 71.3143 223 71.2839 223.097 71.248V71.9409C222.993 71.9875 222.848 72.0269 222.662 72.0591C222.479 72.0913 222.3 72.1074 222.125 72.1074C221.813 72.1074 221.531 72.0537 221.276 71.9463C221.022 71.8353 220.818 71.6491 220.664 71.3877C220.514 71.1263 220.438 70.7646 220.438 70.3027V66.8115H219.601V66.3765L220.444 66.0273L220.798 64.749H221.335V66.1133H223.06V66.8115H221.335V70.2759C221.335 70.6447 221.42 70.9204 221.588 71.103C221.76 71.2856 221.987 71.377 222.27 71.377ZM229.15 66.1133V72H228.42L228.291 71.1729H228.243C228.121 71.377 227.963 71.5488 227.77 71.6885C227.577 71.8281 227.358 71.932 227.115 72C226.875 72.0716 226.619 72.1074 226.347 72.1074C225.881 72.1074 225.491 72.0322 225.176 71.8818C224.861 71.7314 224.623 71.4987 224.461 71.1836C224.304 70.8685 224.225 70.4639 224.225 69.9697V66.1133H225.127V69.9053C225.127 70.3958 225.238 70.7629 225.46 71.0063C225.682 71.2463 226.021 71.3662 226.476 71.3662C226.912 71.3662 227.26 71.2839 227.518 71.1191C227.779 70.9544 227.967 70.7127 228.082 70.394C228.196 70.0718 228.253 69.6779 228.253 69.2124V66.1133H229.15ZM234.844 70.3887C234.844 70.7646 234.749 71.0815 234.559 71.3394C234.373 71.5936 234.104 71.7852 233.753 71.9141C233.406 72.043 232.991 72.1074 232.507 72.1074C232.096 72.1074 231.739 72.0752 231.438 72.0107C231.138 71.9463 230.875 71.855 230.649 71.7368V70.915C230.889 71.0332 231.175 71.1406 231.508 71.2373C231.841 71.334 232.181 71.3823 232.529 71.3823C233.037 71.3823 233.406 71.3 233.635 71.1353C233.864 70.9705 233.979 70.7467 233.979 70.4639C233.979 70.3027 233.932 70.1613 233.839 70.0396C233.75 69.9142 233.598 69.7943 233.383 69.6797C233.168 69.5615 232.871 69.4326 232.491 69.293C232.115 69.1497 231.789 69.0083 231.514 68.8687C231.242 68.7254 231.03 68.5518 230.88 68.3477C230.733 68.1436 230.66 67.8786 230.66 67.5527C230.66 67.055 230.86 66.6737 231.261 66.4087C231.666 66.1401 232.196 66.0059 232.851 66.0059C233.206 66.0059 233.537 66.0417 233.845 66.1133C234.156 66.1813 234.446 66.2744 234.715 66.3926L234.414 67.1069C234.171 67.0031 233.911 66.9154 233.635 66.8438C233.36 66.7721 233.078 66.7363 232.792 66.7363C232.38 66.7363 232.063 66.8044 231.841 66.9404C231.623 67.0765 231.514 67.2627 231.514 67.499C231.514 67.6816 231.564 67.832 231.664 67.9502C231.768 68.0684 231.933 68.1794 232.158 68.2832C232.384 68.387 232.681 68.5088 233.05 68.6484C233.419 68.7845 233.737 68.9259 234.006 69.0728C234.274 69.216 234.48 69.3914 234.624 69.5991C234.77 69.8032 234.844 70.0664 234.844 70.3887ZM244.211 69.0459C244.211 69.5293 244.148 69.9608 244.023 70.3403C243.898 70.7199 243.717 71.0404 243.48 71.3018C243.244 71.5632 242.958 71.7637 242.621 71.9033C242.288 72.0394 241.91 72.1074 241.488 72.1074C241.094 72.1074 240.732 72.0394 240.403 71.9033C240.077 71.7637 239.794 71.5632 239.554 71.3018C239.318 71.0404 239.133 70.7199 239.001 70.3403C238.872 69.9608 238.808 69.5293 238.808 69.0459C238.808 68.4014 238.917 67.8535 239.135 67.4023C239.354 66.9476 239.665 66.6021 240.07 66.3657C240.478 66.1258 240.963 66.0059 241.525 66.0059C242.062 66.0059 242.532 66.1258 242.933 66.3657C243.337 66.6056 243.651 66.953 243.873 67.4077C244.098 67.8589 244.211 68.4049 244.211 69.0459ZM239.731 69.0459C239.731 69.5186 239.794 69.9285 239.919 70.2759C240.045 70.6232 240.238 70.8918 240.5 71.0815C240.761 71.2713 241.097 71.3662 241.509 71.3662C241.917 71.3662 242.252 71.2713 242.514 71.0815C242.779 70.8918 242.974 70.6232 243.099 70.2759C243.224 69.9285 243.287 69.5186 243.287 69.0459C243.287 68.5768 243.224 68.1722 243.099 67.832C242.974 67.4883 242.78 67.2233 242.519 67.0371C242.258 66.8509 241.919 66.7578 241.504 66.7578C240.892 66.7578 240.442 66.9601 240.156 67.3647C239.873 67.7694 239.731 68.3298 239.731 69.0459ZM248.374 66.8115H246.907V72H246.016V66.8115H244.974V66.3818L246.016 66.0864V65.6943C246.016 65.2002 246.089 64.7992 246.236 64.4912C246.383 64.1797 246.596 63.9505 246.875 63.8037C247.154 63.6569 247.494 63.5835 247.896 63.5835C248.121 63.5835 248.327 63.6032 248.513 63.6426C248.703 63.682 248.869 63.7267 249.013 63.7769L248.782 64.4805C248.66 64.4411 248.522 64.4053 248.368 64.373C248.218 64.3372 248.064 64.3193 247.906 64.3193C247.566 64.3193 247.314 64.4303 247.149 64.6523C246.988 64.8708 246.907 65.2145 246.907 65.6836V66.1133H248.374V66.8115ZM88.8413 86.377C88.9881 86.377 89.1385 86.3644 89.2925 86.3394C89.4465 86.3143 89.5718 86.2839 89.6685 86.248V86.9409C89.5646 86.9875 89.4196 87.0269 89.2334 87.0591C89.0508 87.0913 88.8717 87.1074 88.6963 87.1074C88.3848 87.1074 88.1019 87.0537 87.8477 86.9463C87.5934 86.8353 87.3893 86.6491 87.2354 86.3877C87.085 86.1263 87.0098 85.7646 87.0098 85.3027V81.8115H86.1719V81.3765L87.0151 81.0273L87.3696 79.749H87.9067V81.1133H89.6309V81.8115H87.9067V85.2759C87.9067 85.6447 87.9909 85.9204 88.1592 86.103C88.3311 86.2856 88.5584 86.377 88.8413 86.377ZM91.7524 78.6426V81.1401C91.7524 81.2834 91.7489 81.4284 91.7417 81.5752C91.7345 81.7184 91.722 81.8509 91.7041 81.9727H91.7632C91.8849 81.765 92.0389 81.5913 92.2251 81.4517C92.4149 81.3084 92.6297 81.201 92.8696 81.1294C93.1095 81.0542 93.3638 81.0166 93.6323 81.0166C94.105 81.0166 94.4989 81.0918 94.814 81.2422C95.1326 81.3926 95.3708 81.6253 95.5283 81.9404C95.6895 82.2555 95.77 82.6637 95.77 83.165V87H94.8892V83.2241C94.8892 82.7336 94.7764 82.3665 94.5508 82.123C94.3288 81.8796 93.9868 81.7578 93.5249 81.7578C93.0881 81.7578 92.7389 81.842 92.4775 82.0103C92.2197 82.175 92.0335 82.4185 91.9189 82.7407C91.8079 83.063 91.7524 83.4569 91.7524 83.9224V87H90.8608V78.6426H91.7524ZM99.8735 81.0059C100.375 81.0059 100.805 81.1169 101.163 81.3389C101.521 81.5609 101.795 81.8724 101.984 82.2734C102.174 82.6709 102.269 83.1364 102.269 83.6699V84.2231H98.2031C98.2139 84.9142 98.3857 85.4406 98.7188 85.8022C99.0518 86.1639 99.5208 86.3447 100.126 86.3447C100.498 86.3447 100.828 86.3107 101.114 86.2427C101.401 86.1746 101.698 86.0744 102.006 85.9419V86.7261C101.709 86.8586 101.413 86.9552 101.12 87.0161C100.83 87.077 100.486 87.1074 100.088 87.1074C99.5226 87.1074 99.0285 86.9928 98.606 86.7637C98.187 86.5309 97.8612 86.1908 97.6284 85.7432C97.3957 85.2956 97.2793 84.7477 97.2793 84.0996C97.2793 83.4658 97.3849 82.918 97.5962 82.4561C97.811 81.9906 98.1118 81.6325 98.4985 81.3818C98.8888 81.1312 99.3472 81.0059 99.8735 81.0059ZM99.8628 81.7363C99.3866 81.7363 99.007 81.8921 98.7241 82.2036C98.4412 82.5151 98.2729 82.9502 98.2192 83.5088H101.334C101.331 83.1579 101.275 82.8499 101.168 82.585C101.064 82.3164 100.905 82.1087 100.69 81.9619C100.475 81.8115 100.199 81.7363 99.8628 81.7363ZM109.316 81.0059C109.434 81.0059 109.558 81.013 109.687 81.0273C109.815 81.0381 109.93 81.0542 110.03 81.0757L109.917 81.9028C109.821 81.8778 109.713 81.8581 109.595 81.8438C109.477 81.8294 109.366 81.8223 109.262 81.8223C109.026 81.8223 108.802 81.8706 108.591 81.9673C108.383 82.0604 108.201 82.1965 108.043 82.3755C107.885 82.5509 107.762 82.764 107.672 83.0146C107.583 83.2617 107.538 83.5374 107.538 83.8418V87H106.641V81.1133H107.382L107.479 82.1982H107.517C107.638 81.9798 107.785 81.7811 107.957 81.6021C108.129 81.4194 108.328 81.2744 108.553 81.167C108.782 81.0596 109.037 81.0059 109.316 81.0059ZM113.409 81.0059C113.91 81.0059 114.34 81.1169 114.698 81.3389C115.056 81.5609 115.33 81.8724 115.52 82.2734C115.709 82.6709 115.804 83.1364 115.804 83.6699V84.2231H111.738C111.749 84.9142 111.921 85.4406 112.254 85.8022C112.587 86.1639 113.056 86.3447 113.661 86.3447C114.034 86.3447 114.363 86.3107 114.649 86.2427C114.936 86.1746 115.233 86.0744 115.541 85.9419V86.7261C115.244 86.8586 114.948 86.9552 114.655 87.0161C114.365 87.077 114.021 87.1074 113.624 87.1074C113.058 87.1074 112.564 86.9928 112.141 86.7637C111.722 86.5309 111.396 86.1908 111.164 85.7432C110.931 85.2956 110.814 84.7477 110.814 84.0996C110.814 83.4658 110.92 82.918 111.131 82.4561C111.346 81.9906 111.647 81.6325 112.034 81.3818C112.424 81.1312 112.882 81.0059 113.409 81.0059ZM113.398 81.7363C112.922 81.7363 112.542 81.8921 112.259 82.2036C111.976 82.5151 111.808 82.9502 111.754 83.5088H114.87C114.866 83.1579 114.811 82.8499 114.703 82.585C114.599 82.3164 114.44 82.1087 114.225 81.9619C114.01 81.8115 113.735 81.7363 113.398 81.7363ZM119.677 87.1074C119.147 87.1074 118.68 86.9982 118.275 86.7798C117.87 86.5614 117.555 86.2284 117.33 85.7808C117.104 85.3332 116.991 84.7692 116.991 84.0889C116.991 83.3763 117.109 82.7944 117.346 82.3433C117.586 81.8885 117.915 81.5519 118.334 81.3335C118.753 81.1151 119.229 81.0059 119.763 81.0059C120.056 81.0059 120.339 81.0363 120.611 81.0972C120.887 81.1545 121.113 81.2279 121.288 81.3174L121.02 82.064C120.84 81.9924 120.633 81.9279 120.396 81.8706C120.164 81.8133 119.945 81.7847 119.741 81.7847C119.333 81.7847 118.993 81.8724 118.721 82.0479C118.452 82.2233 118.25 82.4811 118.114 82.8213C117.981 83.1615 117.915 83.5804 117.915 84.0781C117.915 84.5544 117.979 84.9608 118.108 85.2974C118.241 85.634 118.436 85.8918 118.694 86.0708C118.955 86.2463 119.281 86.334 119.671 86.334C119.983 86.334 120.264 86.3018 120.515 86.2373C120.765 86.1693 120.993 86.0905 121.197 86.001V86.7959C121 86.8962 120.78 86.9731 120.536 87.0269C120.296 87.0806 120.01 87.1074 119.677 87.1074ZM124.86 81.0059C125.361 81.0059 125.791 81.1169 126.149 81.3389C126.507 81.5609 126.781 81.8724 126.971 82.2734C127.16 82.6709 127.255 83.1364 127.255 83.6699V84.2231H123.189C123.2 84.9142 123.372 85.4406 123.705 85.8022C124.038 86.1639 124.507 86.3447 125.112 86.3447C125.485 86.3447 125.814 86.3107 126.101 86.2427C126.387 86.1746 126.684 86.0744 126.992 85.9419V86.7261C126.695 86.8586 126.4 86.9552 126.106 87.0161C125.816 87.077 125.472 87.1074 125.075 87.1074C124.509 87.1074 124.015 86.9928 123.592 86.7637C123.173 86.5309 122.847 86.1908 122.615 85.7432C122.382 85.2956 122.266 84.7477 122.266 84.0996C122.266 83.4658 122.371 82.918 122.583 82.4561C122.797 81.9906 123.098 81.6325 123.485 81.3818C123.875 81.1312 124.333 81.0059 124.86 81.0059ZM124.849 81.7363C124.373 81.7363 123.993 81.8921 123.71 82.2036C123.428 82.5151 123.259 82.9502 123.206 83.5088H126.321C126.317 83.1579 126.262 82.8499 126.154 82.585C126.05 82.3164 125.891 82.1087 125.676 81.9619C125.461 81.8115 125.186 81.7363 124.849 81.7363ZM131.558 81.0059C132.256 81.0059 132.784 81.1777 133.142 81.5215C133.5 81.8617 133.679 82.4095 133.679 83.165V87H132.798V83.2241C132.798 82.7336 132.686 82.3665 132.46 82.123C132.238 81.8796 131.896 81.7578 131.434 81.7578C130.782 81.7578 130.324 81.9422 130.059 82.311C129.794 82.6799 129.662 83.2152 129.662 83.917V87H128.77V81.1133H129.49L129.624 81.9619H129.672C129.798 81.7542 129.957 81.5806 130.15 81.4409C130.344 81.2977 130.56 81.1903 130.8 81.1187C131.04 81.0435 131.293 81.0059 131.558 81.0059ZM137.417 86.377C137.564 86.377 137.715 86.3644 137.869 86.3394C138.023 86.3143 138.148 86.2839 138.245 86.248V86.9409C138.141 86.9875 137.996 87.0269 137.81 87.0591C137.627 87.0913 137.448 87.1074 137.272 87.1074C136.961 87.1074 136.678 87.0537 136.424 86.9463C136.17 86.8353 135.965 86.6491 135.812 86.3877C135.661 86.1263 135.586 85.7646 135.586 85.3027V81.8115H134.748V81.3765L135.591 81.0273L135.946 79.749H136.483V81.1133H138.207V81.8115H136.483V85.2759C136.483 85.6447 136.567 85.9204 136.735 86.103C136.907 86.2856 137.135 86.377 137.417 86.377ZM140.334 87H139.437V78.6426H140.334V87ZM141.29 81.1133H142.246L143.546 84.5293C143.621 84.7298 143.691 84.9232 143.755 85.1094C143.82 85.292 143.877 85.4674 143.927 85.6357C143.977 85.804 144.017 85.967 144.045 86.1245H144.083C144.133 85.9455 144.205 85.7109 144.298 85.4209C144.391 85.1273 144.491 84.8283 144.599 84.5239L145.829 81.1133H146.79L144.228 87.8647C144.092 88.2264 143.933 88.5415 143.75 88.8101C143.571 89.0786 143.353 89.2845 143.095 89.4277C142.837 89.5745 142.525 89.6479 142.16 89.6479C141.992 89.6479 141.843 89.6372 141.714 89.6157C141.585 89.5978 141.474 89.5763 141.381 89.5513V88.8369C141.46 88.8548 141.555 88.8709 141.666 88.8853C141.781 88.8996 141.899 88.9067 142.021 88.9067C142.243 88.9067 142.434 88.8638 142.595 88.7778C142.76 88.6955 142.901 88.5737 143.02 88.4126C143.138 88.2515 143.24 88.0599 143.326 87.8379L143.648 87.0107L141.29 81.1133ZM152.79 81.0166C153.491 81.0166 154.012 81.1742 154.353 81.4893C154.693 81.8044 154.863 82.3075 154.863 82.9985V87H154.213L154.041 86.1299H153.998C153.833 86.3447 153.661 86.5256 153.482 86.6724C153.303 86.8156 153.096 86.9248 152.859 87C152.627 87.0716 152.34 87.1074 152 87.1074C151.642 87.1074 151.323 87.0448 151.044 86.9194C150.768 86.7941 150.55 86.6043 150.389 86.3501C150.231 86.0959 150.152 85.7736 150.152 85.3833C150.152 84.7961 150.385 84.3449 150.851 84.0298C151.316 83.7147 152.025 83.5428 152.978 83.5142L153.993 83.4712V83.1113C153.993 82.6029 153.883 82.2466 153.665 82.0425C153.447 81.8384 153.139 81.7363 152.741 81.7363C152.433 81.7363 152.14 81.7811 151.86 81.8706C151.581 81.9601 151.316 82.0658 151.065 82.1875L150.792 81.5107C151.056 81.3747 151.361 81.2583 151.705 81.1616C152.048 81.0649 152.41 81.0166 152.79 81.0166ZM153.982 84.0996L153.085 84.1372C152.351 84.1659 151.833 84.2858 151.533 84.4971C151.232 84.7083 151.082 85.0073 151.082 85.394C151.082 85.7306 151.184 85.9795 151.388 86.1406C151.592 86.3018 151.862 86.3823 152.199 86.3823C152.722 86.3823 153.149 86.2373 153.482 85.9473C153.815 85.6572 153.982 85.2222 153.982 84.6421V84.0996ZM158.794 87.1074C158.05 87.1074 157.459 86.8532 157.022 86.3447C156.589 85.8363 156.372 85.0807 156.372 84.0781C156.372 83.0648 156.594 82.3003 157.038 81.7847C157.482 81.2655 158.073 81.0059 158.811 81.0059C159.122 81.0059 159.394 81.047 159.627 81.1294C159.86 81.2118 160.06 81.3228 160.229 81.4624C160.397 81.5985 160.538 81.7542 160.653 81.9297H160.717C160.703 81.8187 160.689 81.6665 160.674 81.4731C160.66 81.2798 160.653 81.1222 160.653 81.0005V78.6426H161.544V87H160.825L160.69 86.1621H160.653C160.542 86.3376 160.4 86.4969 160.229 86.6401C160.06 86.7834 159.858 86.8979 159.622 86.9839C159.389 87.0662 159.113 87.1074 158.794 87.1074ZM158.934 86.3662C159.564 86.3662 160.01 86.1872 160.271 85.8291C160.533 85.471 160.664 84.9393 160.664 84.2339V84.0728C160.664 83.3244 160.538 82.7497 160.288 82.3486C160.041 81.9476 159.589 81.7471 158.934 81.7471C158.386 81.7471 157.976 81.9583 157.704 82.3809C157.432 82.7998 157.296 83.3727 157.296 84.0996C157.296 84.8229 157.43 85.3815 157.699 85.7754C157.971 86.1693 158.383 86.3662 158.934 86.3662ZM165.53 87.1074C164.785 87.1074 164.194 86.8532 163.757 86.3447C163.324 85.8363 163.107 85.0807 163.107 84.0781C163.107 83.0648 163.329 82.3003 163.773 81.7847C164.217 81.2655 164.808 81.0059 165.546 81.0059C165.857 81.0059 166.13 81.047 166.362 81.1294C166.595 81.2118 166.796 81.3228 166.964 81.4624C167.132 81.5985 167.274 81.7542 167.388 81.9297H167.453C167.438 81.8187 167.424 81.6665 167.41 81.4731C167.395 81.2798 167.388 81.1222 167.388 81.0005V78.6426H168.28V87H167.56L167.426 86.1621H167.388C167.277 86.3376 167.136 86.4969 166.964 86.6401C166.796 86.7834 166.593 86.8979 166.357 86.9839C166.124 87.0662 165.848 87.1074 165.53 87.1074ZM165.669 86.3662C166.3 86.3662 166.745 86.1872 167.007 85.8291C167.268 85.471 167.399 84.9393 167.399 84.2339V84.0728C167.399 83.3244 167.274 82.7497 167.023 82.3486C166.776 81.9476 166.325 81.7471 165.669 81.7471C165.122 81.7471 164.712 81.9583 164.439 82.3809C164.167 82.7998 164.031 83.3727 164.031 84.0996C164.031 84.8229 164.166 85.3815 164.434 85.7754C164.706 86.1693 165.118 86.3662 165.669 86.3662ZM172.437 81.0059C172.938 81.0059 173.368 81.1169 173.726 81.3389C174.084 81.5609 174.358 81.8724 174.548 82.2734C174.738 82.6709 174.833 83.1364 174.833 83.6699V84.2231H170.767C170.777 84.9142 170.949 85.4406 171.282 85.8022C171.615 86.1639 172.084 86.3447 172.689 86.3447C173.062 86.3447 173.391 86.3107 173.678 86.2427C173.964 86.1746 174.261 86.0744 174.569 85.9419V86.7261C174.272 86.8586 173.977 86.9552 173.683 87.0161C173.393 87.077 173.049 87.1074 172.652 87.1074C172.086 87.1074 171.592 86.9928 171.169 86.7637C170.75 86.5309 170.425 86.1908 170.192 85.7432C169.959 85.2956 169.843 84.7477 169.843 84.0996C169.843 83.4658 169.948 82.918 170.16 82.4561C170.375 81.9906 170.675 81.6325 171.062 81.3818C171.452 81.1312 171.911 81.0059 172.437 81.0059ZM172.426 81.7363C171.95 81.7363 171.57 81.8921 171.288 82.2036C171.005 82.5151 170.836 82.9502 170.783 83.5088H173.898C173.894 83.1579 173.839 82.8499 173.731 82.585C173.628 82.3164 173.468 82.1087 173.253 81.9619C173.039 81.8115 172.763 81.7363 172.426 81.7363ZM178.442 87.1074C177.697 87.1074 177.106 86.8532 176.669 86.3447C176.236 85.8363 176.02 85.0807 176.02 84.0781C176.02 83.0648 176.242 82.3003 176.686 81.7847C177.13 81.2655 177.72 81.0059 178.458 81.0059C178.77 81.0059 179.042 81.047 179.274 81.1294C179.507 81.2118 179.708 81.3228 179.876 81.4624C180.044 81.5985 180.186 81.7542 180.3 81.9297H180.365C180.35 81.8187 180.336 81.6665 180.322 81.4731C180.307 81.2798 180.3 81.1222 180.3 81.0005V78.6426H181.192V87H180.472L180.338 86.1621H180.3C180.189 86.3376 180.048 86.4969 179.876 86.6401C179.708 86.7834 179.505 86.8979 179.269 86.9839C179.036 87.0662 178.761 87.1074 178.442 87.1074ZM178.582 86.3662C179.212 86.3662 179.658 86.1872 179.919 85.8291C180.18 85.471 180.311 84.9393 180.311 84.2339V84.0728C180.311 83.3244 180.186 82.7497 179.935 82.3486C179.688 81.9476 179.237 81.7471 178.582 81.7471C178.034 81.7471 177.624 81.9583 177.352 82.3809C177.079 82.7998 176.943 83.3727 176.943 84.0996C176.943 84.8229 177.078 85.3815 177.346 85.7754C177.618 86.1693 178.03 86.3662 178.582 86.3662ZM188.298 87.1074C187.768 87.1074 187.301 86.9982 186.896 86.7798C186.491 86.5614 186.176 86.2284 185.951 85.7808C185.725 85.3332 185.612 84.7692 185.612 84.0889C185.612 83.3763 185.73 82.7944 185.967 82.3433C186.207 81.8885 186.536 81.5519 186.955 81.3335C187.374 81.1151 187.85 81.0059 188.384 81.0059C188.677 81.0059 188.96 81.0363 189.232 81.0972C189.508 81.1545 189.734 81.2279 189.909 81.3174L189.641 82.064C189.462 81.9924 189.254 81.9279 189.018 81.8706C188.785 81.8133 188.566 81.7847 188.362 81.7847C187.954 81.7847 187.614 81.8724 187.342 82.0479C187.073 82.2233 186.871 82.4811 186.735 82.8213C186.602 83.1615 186.536 83.5804 186.536 84.0781C186.536 84.5544 186.601 84.9608 186.729 85.2974C186.862 85.634 187.057 85.8918 187.315 86.0708C187.576 86.2463 187.902 86.334 188.292 86.334C188.604 86.334 188.885 86.3018 189.136 86.2373C189.386 86.1693 189.614 86.0905 189.818 86.001V86.7959C189.621 86.8962 189.401 86.9731 189.157 87.0269C188.917 87.0806 188.631 87.1074 188.298 87.1074ZM193.417 81.0166C194.118 81.0166 194.639 81.1742 194.979 81.4893C195.32 81.8044 195.49 82.3075 195.49 82.9985V87H194.84L194.668 86.1299H194.625C194.46 86.3447 194.288 86.5256 194.109 86.6724C193.93 86.8156 193.723 86.9248 193.486 87C193.254 87.0716 192.967 87.1074 192.627 87.1074C192.269 87.1074 191.95 87.0448 191.671 86.9194C191.395 86.7941 191.177 86.6043 191.016 86.3501C190.858 86.0959 190.779 85.7736 190.779 85.3833C190.779 84.7961 191.012 84.3449 191.478 84.0298C191.943 83.7147 192.652 83.5428 193.604 83.5142L194.62 83.4712V83.1113C194.62 82.6029 194.51 82.2466 194.292 82.0425C194.074 81.8384 193.766 81.7363 193.368 81.7363C193.06 81.7363 192.767 81.7811 192.487 81.8706C192.208 81.9601 191.943 82.0658 191.692 82.1875L191.418 81.5107C191.683 81.3747 191.988 81.2583 192.332 81.1616C192.675 81.0649 193.037 81.0166 193.417 81.0166ZM194.609 84.0996L193.712 84.1372C192.978 84.1659 192.46 84.2858 192.16 84.4971C191.859 84.7083 191.708 85.0073 191.708 85.394C191.708 85.7306 191.811 85.9795 192.015 86.1406C192.219 86.3018 192.489 86.3823 192.826 86.3823C193.348 86.3823 193.776 86.2373 194.109 85.9473C194.442 85.6572 194.609 85.2222 194.609 84.6421V84.0996ZM200.001 81.0059C200.12 81.0059 200.243 81.013 200.372 81.0273C200.501 81.0381 200.616 81.0542 200.716 81.0757L200.603 81.9028C200.506 81.8778 200.399 81.8581 200.281 81.8438C200.163 81.8294 200.052 81.8223 199.948 81.8223C199.711 81.8223 199.488 81.8706 199.276 81.9673C199.069 82.0604 198.886 82.1965 198.729 82.3755C198.571 82.5509 198.447 82.764 198.358 83.0146C198.268 83.2617 198.224 83.5374 198.224 83.8418V87H197.327V81.1133H198.068L198.165 82.1982H198.202C198.324 81.9798 198.471 81.7811 198.643 81.6021C198.814 81.4194 199.013 81.2744 199.239 81.167C199.468 81.0596 199.722 81.0059 200.001 81.0059ZM205.636 85.3887C205.636 85.7646 205.541 86.0815 205.351 86.3394C205.165 86.5936 204.896 86.7852 204.545 86.9141C204.198 87.043 203.783 87.1074 203.299 87.1074C202.888 87.1074 202.531 87.0752 202.23 87.0107C201.93 86.9463 201.667 86.855 201.441 86.7368V85.915C201.681 86.0332 201.967 86.1406 202.3 86.2373C202.633 86.334 202.973 86.3823 203.321 86.3823C203.829 86.3823 204.198 86.3 204.427 86.1353C204.656 85.9705 204.771 85.7467 204.771 85.4639C204.771 85.3027 204.724 85.1613 204.631 85.0396C204.542 84.9142 204.39 84.7943 204.175 84.6797C203.96 84.5615 203.663 84.4326 203.283 84.293C202.907 84.1497 202.581 84.0083 202.306 83.8687C202.034 83.7254 201.822 83.5518 201.672 83.3477C201.525 83.1436 201.452 82.8786 201.452 82.5527C201.452 82.055 201.652 81.6737 202.053 81.4087C202.458 81.1401 202.988 81.0059 203.643 81.0059C203.998 81.0059 204.329 81.0417 204.637 81.1133C204.948 81.1813 205.238 81.2744 205.507 81.3926L205.206 82.1069C204.963 82.0031 204.703 81.9154 204.427 81.8438C204.152 81.7721 203.87 81.7363 203.584 81.7363C203.172 81.7363 202.855 81.8044 202.633 81.9404C202.415 82.0765 202.306 82.2627 202.306 82.499C202.306 82.6816 202.356 82.832 202.456 82.9502C202.56 83.0684 202.725 83.1794 202.95 83.2832C203.176 83.387 203.473 83.5088 203.842 83.6484C204.211 83.7845 204.529 83.9259 204.798 84.0728C205.066 84.216 205.272 84.3914 205.416 84.5991C205.562 84.8032 205.636 85.0664 205.636 85.3887ZM207.677 84.8193V84.54C207.677 84.2536 207.704 84.0083 207.757 83.8042C207.811 83.5965 207.904 83.4032 208.037 83.2241C208.173 83.0451 208.361 82.8553 208.601 82.6548C208.88 82.422 209.1 82.2251 209.261 82.064C209.426 81.8993 209.544 81.7345 209.616 81.5698C209.687 81.4051 209.723 81.2064 209.723 80.9736C209.723 80.6012 209.603 80.3166 209.363 80.1196C209.123 79.9191 208.785 79.8188 208.348 79.8188C207.994 79.8188 207.679 79.8636 207.403 79.9531C207.127 80.0426 206.862 80.1501 206.608 80.2754L206.296 79.5557C206.59 79.4017 206.909 79.2764 207.252 79.1797C207.596 79.083 207.979 79.0347 208.402 79.0347C209.093 79.0347 209.628 79.2065 210.008 79.5503C210.387 79.8905 210.577 80.3595 210.577 80.9575C210.577 81.2905 210.523 81.5752 210.416 81.8115C210.309 82.0443 210.156 82.2591 209.959 82.4561C209.763 82.6494 209.53 82.8553 209.261 83.0737C209.025 83.2743 208.844 83.4515 208.719 83.6055C208.593 83.7559 208.507 83.9116 208.461 84.0728C208.414 84.2303 208.391 84.4201 208.391 84.6421V84.8193H207.677ZM207.44 86.4414C207.44 86.1908 207.5 86.0135 207.618 85.9097C207.736 85.8022 207.888 85.7485 208.074 85.7485C208.25 85.7485 208.398 85.8022 208.52 85.9097C208.645 86.0135 208.708 86.1908 208.708 86.4414C208.708 86.6885 208.645 86.8693 208.52 86.9839C208.398 87.0949 208.25 87.1504 208.074 87.1504C207.888 87.1504 207.736 87.0949 207.618 86.9839C207.5 86.8693 207.44 86.6885 207.44 86.4414Z" fill="#04082C"/>
<rect x="264" y="78" width="20" height="20" rx="10" fill="#999999"/>
<path d="M269.112 92.4021C269.832 91.8834 270.593 91.4775 271.397 91.1842C272.2 90.8909 273.067 90.7443 273.998 90.7443C274.929 90.7443 275.797 90.8909 276.6 91.1842C277.404 91.4775 278.166 91.8834 278.889 92.4021C279.422 91.8172 279.838 91.1539 280.135 90.4121C280.432 89.6704 280.581 88.8666 280.581 88.0008C280.581 86.1727 279.941 84.6189 278.661 83.3392C277.382 82.0596 275.827 81.4197 273.998 81.4197C272.169 81.4197 270.615 82.0596 269.335 83.3392C268.056 84.6189 267.416 86.1727 267.416 88.0008C267.416 88.8666 267.564 89.6704 267.862 90.4121C268.159 91.1539 268.576 91.8172 269.112 92.4021ZM274.001 88.5936C273.247 88.5936 272.612 88.3366 272.097 87.8227C271.581 87.3087 271.324 86.6749 271.324 85.9213C271.324 85.1676 271.581 84.533 272.095 84.0175C272.609 83.502 273.242 83.2443 273.996 83.2443C274.75 83.2443 275.384 83.5013 275.9 84.0152C276.415 84.5292 276.673 85.163 276.673 85.9166C276.673 86.6703 276.416 87.3049 275.902 87.8204C275.388 88.3359 274.754 88.5936 274.001 88.5936ZM273.998 95.7507C272.925 95.7507 271.917 95.5477 270.973 95.1418C270.028 94.7359 269.208 94.1841 268.512 93.4864C267.815 92.7886 267.264 91.9681 266.859 91.0249C266.453 90.0816 266.25 89.0741 266.25 88.0023C266.25 86.9267 266.453 85.9174 266.859 84.9745C267.265 84.0316 267.817 83.212 268.514 82.5156C269.212 81.8192 270.033 81.2682 270.976 80.8625C271.919 80.4568 272.927 80.2539 273.998 80.2539C275.074 80.2539 276.083 80.4569 277.026 80.8628C277.969 81.2686 278.789 81.8205 279.485 82.5182C280.181 83.2159 280.732 84.0358 281.138 84.9777C281.544 85.9196 281.747 86.9278 281.747 88.0023C281.747 89.0752 281.544 90.0838 281.138 91.0281C280.732 91.9723 280.18 92.7926 279.482 93.489C278.785 94.1853 277.965 94.7364 277.023 95.1421C276.081 95.5478 275.073 95.7507 273.998 95.7507Z" fill="white"/>
<path d="M34.2656 144.902L34.7223 144.831C35.0792 144.777 35.4046 144.596 35.6397 144.322C35.8747 144.048 36.004 143.699 36.004 143.338V141.882C36.004 141.521 35.8748 141.172 35.6397 140.898C35.4046 140.624 35.0792 140.443 34.7223 140.388L34.2656 140.316V144.902Z" fill="#2D65F2"/>
<path d="M17.7382 144.904L17.2814 144.834C16.9247 144.779 16.5993 144.598 16.3643 144.324C16.1292 144.05 16 143.701 16 143.34V141.884C16 141.523 16.1292 141.174 16.3642 140.9C16.5993 140.626 16.9246 140.446 17.2814 140.391L17.7382 140.32V144.904Z" fill="#2D65F2"/>
<path d="M26.1176 139.87C27.8136 139.87 29.1884 138.878 29.1884 137.654C29.1884 136.43 27.8136 135.438 26.1176 135.438C24.4217 135.438 23.0469 136.43 23.0469 137.654C23.0469 138.878 24.4217 139.87 26.1176 139.87Z" fill="#2D65F2"/>
<path d="M17.5547 144.841C17.5546 145.354 17.6932 145.858 17.956 146.299C18.2187 146.74 18.5958 147.102 19.0473 147.346C20.2166 147.979 22.2947 148.566 25.9817 148.566C29.6687 148.566 31.7466 147.98 32.9162 147.346C33.3677 147.102 33.7447 146.74 34.0075 146.299C34.2702 145.858 34.4089 145.354 34.4088 144.841V140.256C34.4089 139.743 34.2703 139.239 34.0075 138.798C33.7448 138.357 33.3677 137.995 32.9162 137.751C31.7469 137.118 29.6687 136.531 25.9817 136.531C22.2947 136.531 20.217 137.117 19.0473 137.751C18.5958 137.995 18.2187 138.357 17.9559 138.798C17.6932 139.239 17.5546 139.743 17.5547 140.256V144.841Z" fill="#DDDDDD"/>
<path d="M26.1356 147.453C22.5873 147.453 20.766 146.871 19.8628 146.382C19.5638 146.22 19.3141 145.981 19.1402 145.689C18.9663 145.397 18.8747 145.063 18.875 144.723V141.335C18.8747 140.995 18.9663 140.661 19.1402 140.369C19.3141 140.077 19.5638 139.837 19.8628 139.676C20.766 139.187 22.5873 138.605 26.1356 138.605C29.6839 138.605 31.5055 139.188 32.4087 139.676C32.7077 139.838 32.9573 140.077 33.1313 140.369C33.3052 140.661 33.3968 140.995 33.3965 141.335V144.725C33.3968 145.065 33.3052 145.398 33.1313 145.69C32.9573 145.982 32.7077 146.222 32.4087 146.384C31.5055 146.872 29.6841 147.453 26.1356 147.453Z" fill="#303030"/>
<path d="M24.3651 143.232C24.3651 143.898 23.8252 143.567 23.1592 143.567C22.4933 143.567 21.9531 143.898 21.9531 143.232C21.9576 142.915 22.0866 142.613 22.3123 142.39C22.538 142.168 22.8422 142.043 23.1591 142.043C23.4761 142.043 23.7803 142.168 24.006 142.39C24.2316 142.613 24.3607 142.915 24.3651 143.232Z" fill="white"/>
<path d="M30.2872 143.23C30.2872 143.742 29.9682 143.664 29.518 143.601C29.3734 143.579 29.2274 143.566 29.0811 143.564C28.4152 143.564 27.875 143.896 27.875 143.23C27.875 142.91 28.0021 142.603 28.2283 142.377C28.4545 142.151 28.7612 142.023 29.0811 142.023C29.401 142.023 29.7078 142.151 29.934 142.377C30.1602 142.603 30.2872 142.91 30.2872 143.23Z" fill="white"/>
<path d="M41 116C41 110.477 45.4772 106 51 106H214C219.523 106 224 110.477 224 116V142C224 147.523 219.523 152 214 152H41V116Z" fill="#F7F7F7"/>
<path d="M55.5278 126L52.8906 119.05H52.8477C52.862 119.197 52.8745 119.376 52.8853 119.587C52.896 119.798 52.9049 120.029 52.9121 120.28C52.9193 120.527 52.9229 120.779 52.9229 121.037V126H52.0742V118.147H53.4277L55.9146 124.679H55.9521L58.4766 118.147H59.8193V126H58.917V120.973C58.917 120.74 58.9206 120.507 58.9277 120.274C58.9349 120.038 58.9438 119.816 58.9546 119.608C58.9653 119.397 58.9761 119.215 58.9868 119.061H58.9438L56.2744 126H55.5278ZM66.9092 123.046C66.9092 123.529 66.8465 123.961 66.7212 124.34C66.5959 124.72 66.415 125.04 66.1787 125.302C65.9424 125.563 65.6559 125.764 65.3193 125.903C64.9863 126.039 64.6086 126.107 64.186 126.107C63.7922 126.107 63.4305 126.039 63.1011 125.903C62.7752 125.764 62.4924 125.563 62.2524 125.302C62.0161 125.04 61.8317 124.72 61.6992 124.34C61.5703 123.961 61.5059 123.529 61.5059 123.046C61.5059 122.401 61.6151 121.854 61.8335 121.402C62.0519 120.948 62.3634 120.602 62.7681 120.366C63.1763 120.126 63.6615 120.006 64.2236 120.006C64.7607 120.006 65.2298 120.126 65.6309 120.366C66.0355 120.606 66.3488 120.953 66.5708 121.408C66.7964 121.859 66.9092 122.405 66.9092 123.046ZM62.4297 123.046C62.4297 123.519 62.4924 123.929 62.6177 124.276C62.743 124.623 62.9364 124.892 63.1978 125.082C63.4591 125.271 63.7957 125.366 64.2075 125.366C64.6157 125.366 64.9505 125.271 65.2119 125.082C65.4769 124.892 65.672 124.623 65.7974 124.276C65.9227 123.929 65.9854 123.519 65.9854 123.046C65.9854 122.577 65.9227 122.172 65.7974 121.832C65.672 121.488 65.4787 121.223 65.2173 121.037C64.9559 120.851 64.6175 120.758 64.2021 120.758C63.5898 120.758 63.1405 120.96 62.854 121.365C62.5711 121.769 62.4297 122.33 62.4297 123.046ZM72.2588 124.389C72.2588 124.765 72.1639 125.082 71.9741 125.339C71.7879 125.594 71.5194 125.785 71.1685 125.914C70.8211 126.043 70.4058 126.107 69.9224 126.107C69.5106 126.107 69.1543 126.075 68.8535 126.011C68.5527 125.946 68.2896 125.855 68.064 125.737V124.915C68.3039 125.033 68.5903 125.141 68.9233 125.237C69.2563 125.334 69.5965 125.382 69.9438 125.382C70.4523 125.382 70.8211 125.3 71.0503 125.135C71.2795 124.971 71.394 124.747 71.394 124.464C71.394 124.303 71.3475 124.161 71.2544 124.04C71.1649 123.914 71.0127 123.794 70.7979 123.68C70.583 123.562 70.2858 123.433 69.9062 123.293C69.5303 123.15 69.2044 123.008 68.9287 122.869C68.6566 122.725 68.4453 122.552 68.2949 122.348C68.1481 122.144 68.0747 121.879 68.0747 121.553C68.0747 121.055 68.2752 120.674 68.6763 120.409C69.0809 120.14 69.6108 120.006 70.2661 120.006C70.6206 120.006 70.9518 120.042 71.2598 120.113C71.5713 120.181 71.8613 120.274 72.1299 120.393L71.8291 121.107C71.5856 121.003 71.326 120.915 71.0503 120.844C70.7746 120.772 70.4935 120.736 70.207 120.736C69.7952 120.736 69.4784 120.804 69.2563 120.94C69.0379 121.076 68.9287 121.263 68.9287 121.499C68.9287 121.682 68.9788 121.832 69.0791 121.95C69.1829 122.068 69.3477 122.179 69.5732 122.283C69.7988 122.387 70.096 122.509 70.4648 122.648C70.8337 122.785 71.1523 122.926 71.4209 123.073C71.6895 123.216 71.8953 123.391 72.0386 123.599C72.1854 123.803 72.2588 124.066 72.2588 124.389ZM75.5942 125.377C75.741 125.377 75.8914 125.364 76.0454 125.339C76.1994 125.314 76.3247 125.284 76.4214 125.248V125.941C76.3175 125.987 76.1725 126.027 75.9863 126.059C75.8037 126.091 75.6247 126.107 75.4492 126.107C75.1377 126.107 74.8548 126.054 74.6006 125.946C74.3464 125.835 74.1423 125.649 73.9883 125.388C73.8379 125.126 73.7627 124.765 73.7627 124.303V120.812H72.9248V120.376L73.7681 120.027L74.1226 118.749H74.6597V120.113H76.3838V120.812H74.6597V124.276C74.6597 124.645 74.7438 124.92 74.9121 125.103C75.084 125.286 75.3114 125.377 75.5942 125.377ZM85.5469 123.046C85.5469 123.529 85.4842 123.961 85.3589 124.34C85.2336 124.72 85.0527 125.04 84.8164 125.302C84.5801 125.563 84.2936 125.764 83.957 125.903C83.624 126.039 83.2463 126.107 82.8237 126.107C82.4299 126.107 82.0682 126.039 81.7388 125.903C81.4129 125.764 81.13 125.563 80.8901 125.302C80.6538 125.04 80.4694 124.72 80.3369 124.34C80.208 123.961 80.1436 123.529 80.1436 123.046C80.1436 122.401 80.2528 121.854 80.4712 121.402C80.6896 120.948 81.0011 120.602 81.4058 120.366C81.814 120.126 82.2992 120.006 82.8613 120.006C83.3984 120.006 83.8675 120.126 84.2686 120.366C84.6732 120.606 84.9865 120.953 85.2085 121.408C85.4341 121.859 85.5469 122.405 85.5469 123.046ZM81.0674 123.046C81.0674 123.519 81.13 123.929 81.2554 124.276C81.3807 124.623 81.5741 124.892 81.8354 125.082C82.0968 125.271 82.4334 125.366 82.8452 125.366C83.2534 125.366 83.5882 125.271 83.8496 125.082C84.1146 124.892 84.3097 124.623 84.4351 124.276C84.5604 123.929 84.623 123.519 84.623 123.046C84.623 122.577 84.5604 122.172 84.4351 121.832C84.3097 121.488 84.1164 121.223 83.855 121.037C83.5936 120.851 83.2552 120.758 82.8398 120.758C82.2275 120.758 81.7782 120.96 81.4917 121.365C81.2088 121.769 81.0674 122.33 81.0674 123.046ZM89.7095 120.812H88.2432V126H87.3516V120.812H86.3096V120.382L87.3516 120.086V119.694C87.3516 119.2 87.425 118.799 87.5718 118.491C87.7186 118.18 87.9316 117.951 88.2109 117.804C88.4902 117.657 88.8304 117.583 89.2314 117.583C89.457 117.583 89.6629 117.603 89.8491 117.643C90.0389 117.682 90.2054 117.727 90.3486 117.777L90.1177 118.48C89.9959 118.441 89.8581 118.405 89.7041 118.373C89.5537 118.337 89.3997 118.319 89.2422 118.319C88.902 118.319 88.6496 118.43 88.4849 118.652C88.3237 118.871 88.2432 119.215 88.2432 119.684V120.113H89.7095V120.812ZM95.5532 125.377C95.7 125.377 95.8504 125.364 96.0044 125.339C96.1584 125.314 96.2837 125.284 96.3804 125.248V125.941C96.2765 125.987 96.1315 126.027 95.9453 126.059C95.7627 126.091 95.5837 126.107 95.4082 126.107C95.0967 126.107 94.8138 126.054 94.5596 125.946C94.3053 125.835 94.1012 125.649 93.9473 125.388C93.7969 125.126 93.7217 124.765 93.7217 124.303V120.812H92.8838V120.376L93.7271 120.027L94.0815 118.749H94.6187V120.113H96.3428V120.812H94.6187V124.276C94.6187 124.645 94.7028 124.92 94.8711 125.103C95.043 125.286 95.2703 125.377 95.5532 125.377ZM98.4644 117.643V120.14C98.4644 120.283 98.4608 120.428 98.4536 120.575C98.4465 120.718 98.4339 120.851 98.416 120.973H98.4751C98.5968 120.765 98.7508 120.591 98.937 120.452C99.1268 120.308 99.3416 120.201 99.5815 120.129C99.8215 120.054 100.076 120.017 100.344 120.017C100.817 120.017 101.211 120.092 101.526 120.242C101.845 120.393 102.083 120.625 102.24 120.94C102.401 121.256 102.482 121.664 102.482 122.165V126H101.601V122.224C101.601 121.734 101.488 121.367 101.263 121.123C101.041 120.88 100.699 120.758 100.237 120.758C99.8 120.758 99.4508 120.842 99.1895 121.01C98.9316 121.175 98.7454 121.418 98.6309 121.741C98.5199 122.063 98.4644 122.457 98.4644 122.922V126H97.5728V117.643H98.4644ZM106.585 120.006C107.087 120.006 107.516 120.117 107.875 120.339C108.233 120.561 108.507 120.872 108.696 121.273C108.886 121.671 108.981 122.136 108.981 122.67V123.223H104.915C104.926 123.914 105.098 124.441 105.431 124.802C105.764 125.164 106.233 125.345 106.838 125.345C107.21 125.345 107.54 125.311 107.826 125.243C108.113 125.175 108.41 125.074 108.718 124.942V125.726C108.421 125.859 108.125 125.955 107.832 126.016C107.542 126.077 107.198 126.107 106.8 126.107C106.235 126.107 105.74 125.993 105.318 125.764C104.899 125.531 104.573 125.191 104.34 124.743C104.108 124.296 103.991 123.748 103.991 123.1C103.991 122.466 104.097 121.918 104.308 121.456C104.523 120.991 104.824 120.632 105.21 120.382C105.601 120.131 106.059 120.006 106.585 120.006ZM106.575 120.736C106.098 120.736 105.719 120.892 105.436 121.204C105.153 121.515 104.985 121.95 104.931 122.509H108.046C108.043 122.158 107.987 121.85 107.88 121.585C107.776 121.316 107.617 121.109 107.402 120.962C107.187 120.812 106.911 120.736 106.575 120.736ZM116.887 120.006C117.535 120.006 118.024 120.176 118.354 120.516C118.683 120.853 118.848 121.395 118.848 122.144V126H117.967V122.187C117.967 121.71 117.863 121.354 117.655 121.118C117.451 120.878 117.147 120.758 116.742 120.758C116.173 120.758 115.759 120.923 115.501 121.252C115.244 121.581 115.115 122.067 115.115 122.708V126H114.229V122.187C114.229 121.868 114.182 121.603 114.089 121.392C113.999 121.18 113.863 121.023 113.681 120.919C113.502 120.812 113.274 120.758 112.999 120.758C112.608 120.758 112.295 120.838 112.059 121C111.822 121.161 111.65 121.401 111.543 121.719C111.439 122.034 111.387 122.423 111.387 122.885V126H110.496V120.113H111.215L111.35 120.946H111.398C111.516 120.742 111.665 120.57 111.844 120.43C112.023 120.291 112.223 120.185 112.445 120.113C112.667 120.042 112.904 120.006 113.154 120.006C113.602 120.006 113.976 120.09 114.277 120.258C114.581 120.423 114.801 120.675 114.938 121.016H114.986C115.179 120.675 115.444 120.423 115.781 120.258C116.117 120.09 116.486 120.006 116.887 120.006ZM126.324 120.006C127.022 120.006 127.551 120.178 127.909 120.521C128.267 120.862 128.446 121.41 128.446 122.165V126H127.565V122.224C127.565 121.734 127.452 121.367 127.227 121.123C127.005 120.88 126.663 120.758 126.201 120.758C125.549 120.758 125.091 120.942 124.826 121.311C124.561 121.68 124.428 122.215 124.428 122.917V126H123.537V120.113H124.256L124.391 120.962H124.439C124.564 120.754 124.724 120.581 124.917 120.441C125.11 120.298 125.327 120.19 125.567 120.119C125.807 120.043 126.059 120.006 126.324 120.006ZM132.549 120.006C133.051 120.006 133.48 120.117 133.838 120.339C134.196 120.561 134.47 120.872 134.66 121.273C134.85 121.671 134.945 122.136 134.945 122.67V123.223H130.879C130.89 123.914 131.062 124.441 131.395 124.802C131.728 125.164 132.197 125.345 132.802 125.345C133.174 125.345 133.504 125.311 133.79 125.243C134.076 125.175 134.374 125.074 134.682 124.942V125.726C134.384 125.859 134.089 125.955 133.795 126.016C133.505 126.077 133.162 126.107 132.764 126.107C132.198 126.107 131.704 125.993 131.282 125.764C130.863 125.531 130.537 125.191 130.304 124.743C130.071 124.296 129.955 123.748 129.955 123.1C129.955 122.466 130.061 121.918 130.272 121.456C130.487 120.991 130.788 120.632 131.174 120.382C131.565 120.131 132.023 120.006 132.549 120.006ZM132.539 120.736C132.062 120.736 131.683 120.892 131.4 121.204C131.117 121.515 130.949 121.95 130.895 122.509H134.01C134.007 122.158 133.951 121.85 133.844 121.585C133.74 121.316 133.581 121.109 133.366 120.962C133.151 120.812 132.875 120.736 132.539 120.736ZM138.726 120.006C139.227 120.006 139.657 120.117 140.015 120.339C140.373 120.561 140.647 120.872 140.837 121.273C141.027 121.671 141.122 122.136 141.122 122.67V123.223H137.056C137.066 123.914 137.238 124.441 137.571 124.802C137.904 125.164 138.373 125.345 138.979 125.345C139.351 125.345 139.68 125.311 139.967 125.243C140.253 125.175 140.55 125.074 140.858 124.942V125.726C140.561 125.859 140.266 125.955 139.972 126.016C139.682 126.077 139.338 126.107 138.941 126.107C138.375 126.107 137.881 125.993 137.458 125.764C137.04 125.531 136.714 125.191 136.481 124.743C136.248 124.296 136.132 123.748 136.132 123.1C136.132 122.466 136.237 121.918 136.449 121.456C136.664 120.991 136.964 120.632 137.351 120.382C137.741 120.131 138.2 120.006 138.726 120.006ZM138.715 120.736C138.239 120.736 137.86 120.892 137.577 121.204C137.294 121.515 137.125 121.95 137.072 122.509H140.187C140.183 122.158 140.128 121.85 140.021 121.585C139.917 121.316 139.757 121.109 139.542 120.962C139.328 120.812 139.052 120.736 138.715 120.736ZM144.731 126.107C143.986 126.107 143.395 125.853 142.958 125.345C142.525 124.836 142.309 124.081 142.309 123.078C142.309 122.065 142.531 121.3 142.975 120.785C143.419 120.265 144.009 120.006 144.747 120.006C145.059 120.006 145.331 120.047 145.563 120.129C145.796 120.212 145.997 120.323 146.165 120.462C146.333 120.598 146.475 120.754 146.589 120.93H146.654C146.639 120.819 146.625 120.667 146.611 120.473C146.597 120.28 146.589 120.122 146.589 120V117.643H147.481V126H146.761L146.627 125.162H146.589C146.478 125.338 146.337 125.497 146.165 125.64C145.997 125.783 145.794 125.898 145.558 125.984C145.325 126.066 145.05 126.107 144.731 126.107ZM144.871 125.366C145.501 125.366 145.947 125.187 146.208 124.829C146.469 124.471 146.6 123.939 146.6 123.234V123.073C146.6 122.324 146.475 121.75 146.224 121.349C145.977 120.948 145.526 120.747 144.871 120.747C144.323 120.747 143.913 120.958 143.641 121.381C143.368 121.8 143.232 122.373 143.232 123.1C143.232 123.823 143.367 124.382 143.635 124.775C143.907 125.169 144.319 125.366 144.871 125.366ZM153.121 120.113V126H152.229V120.113H153.121ZM152.686 117.911C152.832 117.911 152.958 117.959 153.062 118.056C153.169 118.149 153.223 118.296 153.223 118.497C153.223 118.694 153.169 118.84 153.062 118.937C152.958 119.034 152.832 119.082 152.686 119.082C152.532 119.082 152.403 119.034 152.299 118.937C152.199 118.84 152.148 118.694 152.148 118.497C152.148 118.296 152.199 118.149 152.299 118.056C152.403 117.959 152.532 117.911 152.686 117.911ZM157.799 120.006C158.497 120.006 159.025 120.178 159.383 120.521C159.741 120.862 159.92 121.41 159.92 122.165V126H159.04V122.224C159.04 121.734 158.927 121.367 158.701 121.123C158.479 120.88 158.137 120.758 157.675 120.758C157.024 120.758 156.565 120.942 156.3 121.311C156.035 121.68 155.903 122.215 155.903 122.917V126H155.011V120.113H155.731L155.865 120.962H155.914C156.039 120.754 156.198 120.581 156.392 120.441C156.585 120.298 156.802 120.19 157.042 120.119C157.281 120.043 157.534 120.006 157.799 120.006ZM165.565 124.389C165.565 124.765 165.471 125.082 165.281 125.339C165.095 125.594 164.826 125.785 164.475 125.914C164.128 126.043 163.712 126.107 163.229 126.107C162.817 126.107 162.461 126.075 162.16 126.011C161.859 125.946 161.596 125.855 161.371 125.737V124.915C161.611 125.033 161.897 125.141 162.23 125.237C162.563 125.334 162.903 125.382 163.25 125.382C163.759 125.382 164.128 125.3 164.357 125.135C164.586 124.971 164.701 124.747 164.701 124.464C164.701 124.303 164.654 124.161 164.561 124.04C164.472 123.914 164.319 123.794 164.104 123.68C163.89 123.562 163.592 123.433 163.213 123.293C162.837 123.15 162.511 123.008 162.235 122.869C161.963 122.725 161.752 122.552 161.602 122.348C161.455 122.144 161.381 121.879 161.381 121.553C161.381 121.055 161.582 120.674 161.983 120.409C162.388 120.14 162.917 120.006 163.573 120.006C163.927 120.006 164.258 120.042 164.566 120.113C164.878 120.181 165.168 120.274 165.437 120.393L165.136 121.107C164.892 121.003 164.633 120.915 164.357 120.844C164.081 120.772 163.8 120.736 163.514 120.736C163.102 120.736 162.785 120.804 162.563 120.94C162.345 121.076 162.235 121.263 162.235 121.499C162.235 121.682 162.285 121.832 162.386 121.95C162.49 122.068 162.654 122.179 162.88 122.283C163.105 122.387 163.403 122.509 163.771 122.648C164.14 122.785 164.459 122.926 164.728 123.073C164.996 123.216 165.202 123.391 165.345 123.599C165.492 123.803 165.565 124.066 165.565 124.389ZM171.86 120.113V126H171.13L171.001 125.173H170.953C170.831 125.377 170.673 125.549 170.48 125.688C170.287 125.828 170.068 125.932 169.825 126C169.585 126.072 169.329 126.107 169.057 126.107C168.591 126.107 168.201 126.032 167.886 125.882C167.571 125.731 167.333 125.499 167.171 125.184C167.014 124.868 166.935 124.464 166.935 123.97V120.113H167.837V123.905C167.837 124.396 167.948 124.763 168.17 125.006C168.392 125.246 168.731 125.366 169.186 125.366C169.622 125.366 169.97 125.284 170.228 125.119C170.489 124.954 170.677 124.713 170.792 124.394C170.906 124.072 170.963 123.678 170.963 123.212V120.113H171.86ZM176.42 120.006C176.539 120.006 176.662 120.013 176.791 120.027C176.92 120.038 177.035 120.054 177.135 120.076L177.022 120.903C176.925 120.878 176.818 120.858 176.7 120.844C176.582 120.829 176.471 120.822 176.367 120.822C176.13 120.822 175.907 120.871 175.695 120.967C175.488 121.06 175.305 121.196 175.147 121.375C174.99 121.551 174.866 121.764 174.777 122.015C174.687 122.262 174.643 122.537 174.643 122.842V126H173.746V120.113H174.487L174.583 121.198H174.621C174.743 120.98 174.89 120.781 175.062 120.602C175.233 120.419 175.432 120.274 175.658 120.167C175.887 120.06 176.141 120.006 176.42 120.006ZM180.449 120.017C181.151 120.017 181.672 120.174 182.012 120.489C182.352 120.804 182.522 121.307 182.522 121.999V126H181.872L181.7 125.13H181.657C181.493 125.345 181.321 125.526 181.142 125.672C180.963 125.816 180.755 125.925 180.519 126C180.286 126.072 179.999 126.107 179.659 126.107C179.301 126.107 178.982 126.045 178.703 125.919C178.427 125.794 178.209 125.604 178.048 125.35C177.89 125.096 177.812 124.774 177.812 124.383C177.812 123.796 178.044 123.345 178.51 123.03C178.975 122.715 179.684 122.543 180.637 122.514L181.652 122.471V122.111C181.652 121.603 181.543 121.247 181.324 121.042C181.106 120.838 180.798 120.736 180.4 120.736C180.092 120.736 179.799 120.781 179.52 120.871C179.24 120.96 178.975 121.066 178.725 121.188L178.451 120.511C178.716 120.375 179.02 120.258 179.364 120.162C179.708 120.065 180.069 120.017 180.449 120.017ZM181.641 123.1L180.744 123.137C180.01 123.166 179.493 123.286 179.192 123.497C178.891 123.708 178.741 124.007 178.741 124.394C178.741 124.731 178.843 124.979 179.047 125.141C179.251 125.302 179.521 125.382 179.858 125.382C180.381 125.382 180.809 125.237 181.142 124.947C181.475 124.657 181.641 124.222 181.641 123.642V123.1ZM187.146 120.006C187.845 120.006 188.373 120.178 188.731 120.521C189.089 120.862 189.268 121.41 189.268 122.165V126H188.387V122.224C188.387 121.734 188.274 121.367 188.049 121.123C187.827 120.88 187.485 120.758 187.023 120.758C186.371 120.758 185.913 120.942 185.648 121.311C185.383 121.68 185.25 122.215 185.25 122.917V126H184.359V120.113H185.079L185.213 120.962H185.261C185.387 120.754 185.546 120.581 185.739 120.441C185.933 120.298 186.149 120.19 186.389 120.119C186.629 120.043 186.882 120.006 187.146 120.006ZM193.463 126.107C192.933 126.107 192.466 125.998 192.061 125.78C191.656 125.561 191.341 125.228 191.116 124.781C190.89 124.333 190.777 123.769 190.777 123.089C190.777 122.376 190.896 121.794 191.132 121.343C191.372 120.889 191.701 120.552 192.12 120.333C192.539 120.115 193.015 120.006 193.549 120.006C193.842 120.006 194.125 120.036 194.397 120.097C194.673 120.154 194.899 120.228 195.074 120.317L194.806 121.064C194.627 120.992 194.419 120.928 194.183 120.871C193.95 120.813 193.731 120.785 193.527 120.785C193.119 120.785 192.779 120.872 192.507 121.048C192.238 121.223 192.036 121.481 191.9 121.821C191.767 122.161 191.701 122.58 191.701 123.078C191.701 123.554 191.766 123.961 191.895 124.297C192.027 124.634 192.222 124.892 192.48 125.071C192.741 125.246 193.067 125.334 193.458 125.334C193.769 125.334 194.05 125.302 194.301 125.237C194.551 125.169 194.779 125.09 194.983 125.001V125.796C194.786 125.896 194.566 125.973 194.322 126.027C194.082 126.081 193.796 126.107 193.463 126.107ZM198.646 120.006C199.147 120.006 199.577 120.117 199.935 120.339C200.293 120.561 200.567 120.872 200.757 121.273C200.947 121.671 201.042 122.136 201.042 122.67V123.223H196.976C196.986 123.914 197.158 124.441 197.491 124.802C197.824 125.164 198.293 125.345 198.898 125.345C199.271 125.345 199.6 125.311 199.887 125.243C200.173 125.175 200.47 125.074 200.778 124.942V125.726C200.481 125.859 200.186 125.955 199.892 126.016C199.602 126.077 199.258 126.107 198.861 126.107C198.295 126.107 197.801 125.993 197.378 125.764C196.959 125.531 196.634 125.191 196.401 124.743C196.168 124.296 196.052 123.748 196.052 123.1C196.052 122.466 196.157 121.918 196.369 121.456C196.583 120.991 196.884 120.632 197.271 120.382C197.661 120.131 198.12 120.006 198.646 120.006ZM198.635 120.736C198.159 120.736 197.779 120.892 197.497 121.204C197.214 121.515 197.045 121.95 196.992 122.509H200.107C200.103 122.158 200.048 121.85 199.94 121.585C199.837 121.316 199.677 121.109 199.462 120.962C199.248 120.812 198.972 120.736 198.635 120.736ZM54.6147 135.006C54.7329 135.006 54.8564 135.013 54.9854 135.027C55.1143 135.038 55.2288 135.054 55.3291 135.076L55.2163 135.903C55.1196 135.878 55.0122 135.858 54.894 135.844C54.7759 135.829 54.6649 135.822 54.561 135.822C54.3247 135.822 54.1009 135.871 53.8896 135.967C53.682 136.06 53.4993 136.196 53.3418 136.375C53.1842 136.551 53.0607 136.764 52.9712 137.015C52.8817 137.262 52.8369 137.537 52.8369 137.842V141H51.9399V135.113H52.6812L52.7778 136.198H52.8154C52.9372 135.98 53.084 135.781 53.2559 135.602C53.4277 135.419 53.6265 135.274 53.8521 135.167C54.0812 135.06 54.3354 135.006 54.6147 135.006ZM58.7075 135.006C59.2088 135.006 59.6385 135.117 59.9966 135.339C60.3547 135.561 60.6286 135.872 60.8184 136.273C61.0081 136.671 61.103 137.136 61.103 137.67V138.223H57.0371C57.0479 138.914 57.2197 139.441 57.5527 139.802C57.8857 140.164 58.3548 140.345 58.96 140.345C59.3324 140.345 59.6618 140.311 59.9482 140.243C60.2347 140.175 60.5319 140.074 60.8398 139.942V140.726C60.5426 140.859 60.2472 140.955 59.9536 141.016C59.6636 141.077 59.3198 141.107 58.9224 141.107C58.3566 141.107 57.8625 140.993 57.4399 140.764C57.021 140.531 56.6951 140.191 56.4624 139.743C56.2297 139.296 56.1133 138.748 56.1133 138.1C56.1133 137.466 56.2189 136.918 56.4302 136.456C56.645 135.991 56.9458 135.632 57.3325 135.382C57.7228 135.131 58.1812 135.006 58.7075 135.006ZM58.6968 135.736C58.2205 135.736 57.841 135.892 57.5581 136.204C57.2752 136.515 57.1069 136.95 57.0532 137.509H60.1685C60.1649 137.158 60.1094 136.85 60.002 136.585C59.8981 136.316 59.7388 136.109 59.5239 135.962C59.3091 135.812 59.0334 135.736 58.6968 135.736ZM65.4053 135.006C66.1035 135.006 66.6317 135.178 66.9897 135.521C67.3478 135.862 67.5269 136.41 67.5269 137.165V141H66.646V137.224C66.646 136.734 66.5332 136.367 66.3076 136.123C66.0856 135.88 65.7437 135.758 65.2817 135.758C64.63 135.758 64.1717 135.942 63.9067 136.311C63.6418 136.68 63.5093 137.215 63.5093 137.917V141H62.6177V135.113H63.3374L63.4717 135.962H63.52C63.6453 135.754 63.8047 135.581 63.998 135.441C64.1914 135.298 64.408 135.19 64.6479 135.119C64.8879 135.043 65.1403 135.006 65.4053 135.006ZM71.6304 135.006C72.1317 135.006 72.5614 135.117 72.9194 135.339C73.2775 135.561 73.5514 135.872 73.7412 136.273C73.931 136.671 74.0259 137.136 74.0259 137.67V138.223H69.96C69.9707 138.914 70.1426 139.441 70.4756 139.802C70.8086 140.164 71.2777 140.345 71.8828 140.345C72.2552 140.345 72.5846 140.311 72.8711 140.243C73.1576 140.175 73.4548 140.074 73.7627 139.942V140.726C73.4655 140.859 73.1701 140.955 72.8765 141.016C72.5864 141.077 72.2427 141.107 71.8452 141.107C71.2795 141.107 70.7853 140.993 70.3628 140.764C69.9438 140.531 69.618 140.191 69.3853 139.743C69.1525 139.296 69.0361 138.748 69.0361 138.1C69.0361 137.466 69.1418 136.918 69.353 136.456C69.5679 135.991 69.8687 135.632 70.2554 135.382C70.6457 135.131 71.104 135.006 71.6304 135.006ZM71.6196 135.736C71.1434 135.736 70.7638 135.892 70.481 136.204C70.1981 136.515 70.0298 136.95 69.9761 137.509H73.0913C73.0877 137.158 73.0322 136.85 72.9248 136.585C72.821 136.316 72.6616 136.109 72.4468 135.962C72.2319 135.812 71.9562 135.736 71.6196 135.736ZM80.3315 140.989L79.2842 137.562C79.2376 137.416 79.1929 137.272 79.1499 137.133C79.1105 136.99 79.0729 136.854 79.0371 136.725C79.0049 136.592 78.9744 136.47 78.9458 136.359C78.9207 136.245 78.8993 136.146 78.8813 136.064H78.8438C78.8294 136.146 78.8097 136.245 78.7847 136.359C78.7596 136.47 78.7292 136.592 78.6934 136.725C78.6611 136.857 78.6253 136.997 78.5859 137.144C78.5465 137.287 78.5018 137.432 78.4517 137.579L77.356 140.989H76.3516L74.7295 135.103H75.6533L76.502 138.352C76.5592 138.567 76.613 138.78 76.6631 138.991C76.7168 139.199 76.7616 139.396 76.7974 139.582C76.8368 139.765 76.8654 139.924 76.8833 140.06H76.9263C76.9478 139.971 76.971 139.863 76.9961 139.738C77.0247 139.612 77.0552 139.48 77.0874 139.34C77.1232 139.197 77.1608 139.056 77.2002 138.916C77.2396 138.773 77.279 138.639 77.3184 138.513L78.4033 135.103H79.3647L80.4121 138.508C80.4658 138.68 80.5177 138.859 80.5679 139.045C80.6216 139.231 80.6699 139.412 80.7129 139.587C80.7559 139.759 80.7863 139.913 80.8042 140.049H80.8472C80.8615 139.928 80.8883 139.777 80.9277 139.598C80.9671 139.419 81.0119 139.222 81.062 139.007C81.1157 138.792 81.1712 138.574 81.2285 138.352L82.0879 135.103H82.9956L81.3682 140.989H80.3315ZM86.272 135.017C86.9738 135.017 87.4948 135.174 87.835 135.489C88.1751 135.804 88.3452 136.307 88.3452 136.999V141H87.6953L87.5234 140.13H87.4805C87.3158 140.345 87.1439 140.526 86.9648 140.672C86.7858 140.816 86.5781 140.925 86.3418 141C86.109 141.072 85.8226 141.107 85.4824 141.107C85.1243 141.107 84.8057 141.045 84.5264 140.919C84.2507 140.794 84.0322 140.604 83.8711 140.35C83.7135 140.096 83.6348 139.774 83.6348 139.383C83.6348 138.796 83.8675 138.345 84.333 138.03C84.7985 137.715 85.5075 137.543 86.46 137.514L87.4751 137.471V137.111C87.4751 136.603 87.3659 136.247 87.1475 136.042C86.929 135.838 86.6211 135.736 86.2236 135.736C85.9157 135.736 85.6221 135.781 85.3428 135.871C85.0635 135.96 84.7985 136.066 84.5479 136.188L84.2739 135.511C84.5389 135.375 84.8433 135.258 85.187 135.162C85.5308 135.065 85.8924 135.017 86.272 135.017ZM87.4644 138.1L86.5674 138.137C85.8333 138.166 85.3159 138.286 85.0151 138.497C84.7144 138.708 84.564 139.007 84.564 139.394C84.564 139.731 84.666 139.979 84.8701 140.141C85.0742 140.302 85.3446 140.382 85.6812 140.382C86.2039 140.382 86.6318 140.237 86.9648 139.947C87.2979 139.657 87.4644 139.222 87.4644 138.642V138.1ZM91.0791 141H90.1821V132.643H91.0791V141ZM96.7725 139.389C96.7725 139.765 96.6776 140.082 96.4878 140.339C96.3016 140.594 96.033 140.785 95.6821 140.914C95.3348 141.043 94.9194 141.107 94.436 141.107C94.0243 141.107 93.668 141.075 93.3672 141.011C93.0664 140.946 92.8032 140.855 92.5776 140.737V139.915C92.8175 140.033 93.104 140.141 93.437 140.237C93.77 140.334 94.1102 140.382 94.4575 140.382C94.966 140.382 95.3348 140.3 95.564 140.135C95.7931 139.971 95.9077 139.747 95.9077 139.464C95.9077 139.303 95.8612 139.161 95.7681 139.04C95.6785 138.914 95.5264 138.794 95.3115 138.68C95.0967 138.562 94.7995 138.433 94.4199 138.293C94.0439 138.15 93.7181 138.008 93.4424 137.869C93.1702 137.725 92.959 137.552 92.8086 137.348C92.6618 137.144 92.5884 136.879 92.5884 136.553C92.5884 136.055 92.7889 135.674 93.1899 135.409C93.5946 135.14 94.1245 135.006 94.7798 135.006C95.1343 135.006 95.4655 135.042 95.7734 135.113C96.085 135.181 96.375 135.274 96.6436 135.393L96.3428 136.107C96.0993 136.003 95.8397 135.915 95.564 135.844C95.2882 135.772 95.0072 135.736 94.7207 135.736C94.3089 135.736 93.992 135.804 93.77 135.94C93.5516 136.076 93.4424 136.263 93.4424 136.499C93.4424 136.682 93.4925 136.832 93.5928 136.95C93.6966 137.068 93.8613 137.179 94.0869 137.283C94.3125 137.387 94.6097 137.509 94.9785 137.648C95.3473 137.785 95.666 137.926 95.9346 138.073C96.2031 138.216 96.409 138.391 96.5522 138.599C96.6991 138.803 96.7725 139.066 96.7725 139.389ZM98.0723 140.441C98.0723 140.191 98.1331 140.014 98.2549 139.91C98.3766 139.802 98.5252 139.749 98.7007 139.749C98.8833 139.749 99.0373 139.802 99.1626 139.91C99.2879 140.014 99.3506 140.191 99.3506 140.441C99.3506 140.688 99.2879 140.869 99.1626 140.984C99.0373 141.095 98.8833 141.15 98.7007 141.15C98.5252 141.15 98.3766 141.095 98.2549 140.984C98.1331 140.869 98.0723 140.688 98.0723 140.441Z" fill="#04082C"/>
<rect x="16.3805" y="168.38" width="267.239" height="29.2391" rx="4.61954" stroke="#DFDFDF" stroke-width="0.76092"/>
<path d="M26.7783 186.5H25.9434V180.094H23.6973V179.361H29.0146V180.094H26.7783V186.5ZM29.127 181.148H29.9961L31.1777 184.254C31.2461 184.436 31.3096 184.612 31.3682 184.781C31.4268 184.947 31.4788 185.107 31.5244 185.26C31.57 185.413 31.6058 185.561 31.6318 185.704H31.666C31.7116 185.541 31.7767 185.328 31.8613 185.064C31.946 184.798 32.0371 184.526 32.1348 184.249L33.2529 181.148H34.127L31.7979 187.286C31.6742 187.615 31.5293 187.901 31.3633 188.146C31.2005 188.39 31.002 188.577 30.7676 188.707C30.5332 188.84 30.25 188.907 29.918 188.907C29.765 188.907 29.6299 188.897 29.5127 188.878C29.3955 188.862 29.2946 188.842 29.21 188.819V188.17C29.2816 188.186 29.3678 188.201 29.4688 188.214C29.5729 188.227 29.6803 188.233 29.791 188.233C29.9928 188.233 30.167 188.194 30.3135 188.116C30.4632 188.041 30.5918 187.931 30.6992 187.784C30.8066 187.638 30.8994 187.464 30.9775 187.262L31.2705 186.51L29.127 181.148ZM37.4961 181.051C38.1634 181.051 38.6956 181.28 39.0928 181.739C39.4899 182.198 39.6885 182.888 39.6885 183.81C39.6885 184.418 39.5973 184.929 39.415 185.343C39.2327 185.756 38.9756 186.069 38.6436 186.28C38.3148 186.492 37.9258 186.598 37.4766 186.598C37.1934 186.598 36.9443 186.56 36.7295 186.485C36.5146 186.41 36.3307 186.31 36.1777 186.183C36.0247 186.056 35.8978 185.917 35.7969 185.768H35.7383C35.748 185.895 35.7594 186.048 35.7725 186.227C35.7887 186.406 35.7969 186.562 35.7969 186.695V188.893H34.9814V181.148H35.6504L35.7578 181.939H35.7969C35.901 181.777 36.028 181.629 36.1777 181.495C36.3275 181.358 36.5098 181.251 36.7246 181.173C36.9427 181.091 37.1999 181.051 37.4961 181.051ZM37.3545 181.734C36.9834 181.734 36.6839 181.806 36.4561 181.949C36.2314 182.092 36.0671 182.307 35.9629 182.594C35.8587 182.877 35.8034 183.233 35.7969 183.663V183.819C35.7969 184.272 35.8457 184.654 35.9434 184.967C36.0443 185.279 36.2087 185.517 36.4365 185.68C36.6676 185.842 36.9769 185.924 37.3643 185.924C37.6963 185.924 37.973 185.834 38.1943 185.655C38.4157 185.476 38.5801 185.227 38.6875 184.908C38.7982 184.586 38.8535 184.216 38.8535 183.8C38.8535 183.168 38.7298 182.667 38.4824 182.296C38.2383 181.922 37.8623 181.734 37.3545 181.734ZM43.165 181.051C43.6208 181.051 44.0114 181.152 44.3369 181.354C44.6624 181.555 44.9115 181.839 45.084 182.203C45.2565 182.564 45.3428 182.988 45.3428 183.473V183.976H41.6465C41.6562 184.604 41.8125 185.082 42.1152 185.411C42.418 185.74 42.8444 185.904 43.3945 185.904C43.7331 185.904 44.0326 185.873 44.293 185.812C44.5534 185.75 44.8236 185.659 45.1035 185.538V186.251C44.8333 186.371 44.5648 186.459 44.2979 186.515C44.0342 186.57 43.7217 186.598 43.3604 186.598C42.846 186.598 42.3968 186.493 42.0127 186.285C41.6318 186.074 41.3356 185.764 41.124 185.357C40.9124 184.951 40.8066 184.452 40.8066 183.863C40.8066 183.287 40.9027 182.789 41.0947 182.369C41.29 181.946 41.5635 181.62 41.915 181.393C42.2699 181.165 42.6865 181.051 43.165 181.051ZM43.1553 181.715C42.7223 181.715 42.3773 181.856 42.1201 182.14C41.863 182.423 41.71 182.818 41.6611 183.326H44.4932C44.4899 183.007 44.4395 182.727 44.3418 182.486C44.2474 182.242 44.1025 182.053 43.9072 181.92C43.7119 181.783 43.4613 181.715 43.1553 181.715ZM48.4727 181.148H49.3418L50.5234 184.254C50.5918 184.436 50.6553 184.612 50.7139 184.781C50.7725 184.947 50.8245 185.107 50.8701 185.26C50.9157 185.413 50.9515 185.561 50.9775 185.704H51.0117C51.0573 185.541 51.1224 185.328 51.207 185.064C51.2917 184.798 51.3828 184.526 51.4805 184.249L52.5986 181.148H53.4727L51.1436 187.286C51.0199 187.615 50.875 187.901 50.709 188.146C50.5462 188.39 50.3477 188.577 50.1133 188.707C49.8789 188.84 49.5957 188.907 49.2637 188.907C49.1107 188.907 48.9756 188.897 48.8584 188.878C48.7412 188.862 48.6403 188.842 48.5557 188.819V188.17C48.6273 188.186 48.7135 188.201 48.8145 188.214C48.9186 188.227 49.026 188.233 49.1367 188.233C49.3385 188.233 49.5127 188.194 49.6592 188.116C49.8089 188.041 49.9375 187.931 50.0449 187.784C50.1523 187.638 50.2451 187.464 50.3232 187.262L50.6162 186.51L48.4727 181.148ZM58.9414 183.814C58.9414 184.254 58.8844 184.646 58.7705 184.991C58.6566 185.336 58.4922 185.628 58.2773 185.865C58.0625 186.103 57.8021 186.285 57.4961 186.412C57.1934 186.536 56.8499 186.598 56.4658 186.598C56.1077 186.598 55.779 186.536 55.4795 186.412C55.1833 186.285 54.9261 186.103 54.708 185.865C54.4932 185.628 54.3255 185.336 54.2051 184.991C54.0879 184.646 54.0293 184.254 54.0293 183.814C54.0293 183.229 54.1286 182.73 54.3271 182.32C54.5257 181.907 54.8089 181.593 55.1768 181.378C55.5479 181.16 55.9889 181.051 56.5 181.051C56.9883 181.051 57.4147 181.16 57.7793 181.378C58.1471 181.596 58.432 181.912 58.6338 182.325C58.8389 182.735 58.9414 183.232 58.9414 183.814ZM54.8691 183.814C54.8691 184.244 54.9261 184.617 55.04 184.933C55.154 185.248 55.3298 185.493 55.5674 185.665C55.805 185.838 56.111 185.924 56.4854 185.924C56.8564 185.924 57.1608 185.838 57.3984 185.665C57.6393 185.493 57.8167 185.248 57.9307 184.933C58.0446 184.617 58.1016 184.244 58.1016 183.814C58.1016 183.388 58.0446 183.02 57.9307 182.711C57.8167 182.398 57.641 182.158 57.4033 181.988C57.1657 181.819 56.8581 181.734 56.4805 181.734C55.9238 181.734 55.5153 181.918 55.2549 182.286C54.9977 182.654 54.8691 183.163 54.8691 183.814ZM64.7617 181.148V186.5H64.0977L63.9805 185.748H63.9365C63.8258 185.934 63.6826 186.09 63.5068 186.217C63.3311 186.344 63.1325 186.438 62.9111 186.5C62.693 186.565 62.4603 186.598 62.2129 186.598C61.7897 186.598 61.4349 186.529 61.1484 186.393C60.862 186.256 60.6455 186.044 60.499 185.758C60.3558 185.471 60.2842 185.104 60.2842 184.654V181.148H61.1045V184.596C61.1045 185.042 61.2054 185.375 61.4072 185.597C61.609 185.815 61.9167 185.924 62.3301 185.924C62.7272 185.924 63.043 185.849 63.2773 185.699C63.515 185.549 63.6859 185.33 63.79 185.04C63.8942 184.747 63.9463 184.389 63.9463 183.966V181.148H64.7617ZM68.9072 181.051C69.0146 181.051 69.127 181.057 69.2441 181.07C69.3613 181.08 69.4655 181.095 69.5566 181.114L69.4541 181.866C69.3662 181.843 69.2686 181.826 69.1611 181.812C69.0537 181.799 68.9528 181.793 68.8584 181.793C68.6436 181.793 68.4401 181.837 68.248 181.925C68.0592 182.009 67.8932 182.133 67.75 182.296C67.6068 182.455 67.4945 182.649 67.4131 182.877C67.3317 183.102 67.291 183.352 67.291 183.629V186.5H66.4756V181.148H67.1494L67.2373 182.135H67.2715C67.3822 181.936 67.5156 181.756 67.6719 181.593C67.8281 181.427 68.0088 181.295 68.2139 181.197C68.4222 181.1 68.6533 181.051 68.9072 181.051ZM74.8936 185.934C75.027 185.934 75.1637 185.922 75.3037 185.899C75.4437 185.877 75.5576 185.849 75.6455 185.816V186.446C75.5511 186.489 75.4193 186.524 75.25 186.554C75.084 186.583 74.9212 186.598 74.7617 186.598C74.4785 186.598 74.2214 186.549 73.9902 186.451C73.7591 186.35 73.5736 186.181 73.4336 185.943C73.2969 185.706 73.2285 185.377 73.2285 184.957V181.783H72.4668V181.388L73.2334 181.07L73.5557 179.908H74.0439V181.148H75.6113V181.783H74.0439V184.933C74.0439 185.268 74.1204 185.519 74.2734 185.685C74.4297 185.851 74.6364 185.934 74.8936 185.934ZM77.54 178.902V181.173C77.54 181.303 77.5368 181.435 77.5303 181.568C77.5238 181.699 77.5124 181.819 77.4961 181.93H77.5498C77.6605 181.741 77.8005 181.583 77.9697 181.456C78.1423 181.326 78.3376 181.228 78.5557 181.163C78.7738 181.095 79.0049 181.061 79.249 181.061C79.6787 181.061 80.0368 181.129 80.3232 181.266C80.613 181.402 80.8294 181.614 80.9727 181.9C81.1191 182.187 81.1924 182.558 81.1924 183.014V186.5H80.3916V183.067C80.3916 182.621 80.2891 182.288 80.084 182.066C79.8822 181.845 79.5713 181.734 79.1514 181.734C78.7542 181.734 78.4368 181.811 78.1992 181.964C77.9648 182.114 77.7956 182.335 77.6914 182.628C77.5905 182.921 77.54 183.279 77.54 183.702V186.5H76.7295V178.902H77.54ZM87.4766 183.814C87.4766 184.254 87.4196 184.646 87.3057 184.991C87.1917 185.336 87.0273 185.628 86.8125 185.865C86.5977 186.103 86.3372 186.285 86.0312 186.412C85.7285 186.536 85.3851 186.598 85.001 186.598C84.6429 186.598 84.3141 186.536 84.0146 186.412C83.7184 186.285 83.4613 186.103 83.2432 185.865C83.0283 185.628 82.8607 185.336 82.7402 184.991C82.623 184.646 82.5645 184.254 82.5645 183.814C82.5645 183.229 82.6637 182.73 82.8623 182.32C83.0609 181.907 83.3441 181.593 83.7119 181.378C84.083 181.16 84.5241 181.051 85.0352 181.051C85.5234 181.051 85.9499 181.16 86.3145 181.378C86.6823 181.596 86.9671 181.912 87.1689 182.325C87.374 182.735 87.4766 183.232 87.4766 183.814ZM83.4043 183.814C83.4043 184.244 83.4613 184.617 83.5752 184.933C83.6891 185.248 83.8649 185.493 84.1025 185.665C84.3402 185.838 84.6462 185.924 85.0205 185.924C85.3916 185.924 85.696 185.838 85.9336 185.665C86.1745 185.493 86.3519 185.248 86.4658 184.933C86.5798 184.617 86.6367 184.244 86.6367 183.814C86.6367 183.388 86.5798 183.02 86.4658 182.711C86.3519 182.398 86.1761 182.158 85.9385 181.988C85.7008 181.819 85.3932 181.734 85.0156 181.734C84.459 181.734 84.0505 181.918 83.79 182.286C83.5329 182.654 83.4043 183.163 83.4043 183.814ZM93.2969 181.148V186.5H92.6328L92.5156 185.748H92.4717C92.361 185.934 92.2178 186.09 92.042 186.217C91.8662 186.344 91.6676 186.438 91.4463 186.5C91.2282 186.565 90.9954 186.598 90.748 186.598C90.3249 186.598 89.9701 186.529 89.6836 186.393C89.3971 186.256 89.1807 186.044 89.0342 185.758C88.891 185.471 88.8193 185.104 88.8193 184.654V181.148H89.6396V184.596C89.6396 185.042 89.7406 185.375 89.9424 185.597C90.1442 185.815 90.4518 185.924 90.8652 185.924C91.2624 185.924 91.5781 185.849 91.8125 185.699C92.0501 185.549 92.221 185.33 92.3252 185.04C92.4294 184.747 92.4814 184.389 92.4814 183.966V181.148H93.2969ZM96.5049 188.902C95.8018 188.902 95.2598 188.771 94.8789 188.507C94.498 188.246 94.3076 187.88 94.3076 187.408C94.3076 187.073 94.4134 186.786 94.625 186.549C94.8398 186.311 95.1361 186.153 95.5137 186.075C95.3737 186.01 95.2533 185.912 95.1523 185.782C95.0547 185.652 95.0059 185.502 95.0059 185.333C95.0059 185.138 95.0596 184.967 95.167 184.82C95.2777 184.671 95.4453 184.527 95.6699 184.391C95.39 184.277 95.1621 184.085 94.9863 183.814C94.8138 183.541 94.7275 183.224 94.7275 182.862C94.7275 182.478 94.8073 182.151 94.9668 181.881C95.1263 181.607 95.3574 181.399 95.6602 181.256C95.9629 181.113 96.3291 181.041 96.7588 181.041C96.8532 181.041 96.9476 181.046 97.042 181.056C97.1396 181.062 97.2324 181.074 97.3203 181.09C97.4082 181.103 97.4847 181.119 97.5498 181.139H99.3857V181.661L98.3994 181.783C98.4971 181.91 98.5785 182.063 98.6436 182.242C98.7087 182.421 98.7412 182.62 98.7412 182.838C98.7412 183.372 98.5605 183.797 98.1992 184.112C97.8379 184.425 97.3415 184.581 96.71 184.581C96.5602 184.581 96.4072 184.568 96.251 184.542C96.0915 184.63 95.9694 184.728 95.8848 184.835C95.8034 184.942 95.7627 185.066 95.7627 185.206C95.7627 185.31 95.7936 185.393 95.8555 185.455C95.9206 185.517 96.0133 185.562 96.1338 185.592C96.2542 185.618 96.3991 185.631 96.5684 185.631H97.5107C98.0934 185.631 98.5394 185.753 98.8486 185.997C99.1611 186.241 99.3174 186.598 99.3174 187.066C99.3174 187.659 99.0765 188.113 98.5947 188.429C98.113 188.744 97.4163 188.902 96.5049 188.902ZM96.5293 188.268C96.972 188.268 97.3382 188.222 97.6279 188.131C97.9209 188.043 98.139 187.914 98.2822 187.745C98.4287 187.579 98.502 187.381 98.502 187.149C98.502 186.935 98.4531 186.772 98.3555 186.661C98.2578 186.554 98.1146 186.482 97.9258 186.446C97.737 186.407 97.5059 186.388 97.2324 186.388H96.3047C96.0638 186.388 95.8538 186.425 95.6748 186.5C95.4958 186.575 95.3574 186.686 95.2598 186.832C95.1654 186.979 95.1182 187.161 95.1182 187.379C95.1182 187.669 95.2402 187.888 95.4844 188.038C95.7285 188.191 96.0768 188.268 96.5293 188.268ZM96.7393 183.99C97.1266 183.99 97.418 183.893 97.6133 183.697C97.8086 183.502 97.9062 183.217 97.9062 182.843C97.9062 182.442 97.807 182.143 97.6084 181.944C97.4098 181.743 97.1169 181.642 96.7295 181.642C96.3584 181.642 96.0719 181.746 95.8701 181.954C95.6715 182.159 95.5723 182.46 95.5723 182.857C95.5723 183.222 95.6732 183.502 95.875 183.697C96.0768 183.893 96.3649 183.99 96.7393 183.99ZM101.251 178.902V181.173C101.251 181.303 101.248 181.435 101.241 181.568C101.235 181.699 101.223 181.819 101.207 181.93H101.261C101.371 181.741 101.511 181.583 101.681 181.456C101.853 181.326 102.049 181.228 102.267 181.163C102.485 181.095 102.716 181.061 102.96 181.061C103.39 181.061 103.748 181.129 104.034 181.266C104.324 181.402 104.54 181.614 104.684 181.9C104.83 182.187 104.903 182.558 104.903 183.014V186.5H104.103V183.067C104.103 182.621 104 182.288 103.795 182.066C103.593 181.845 103.282 181.734 102.862 181.734C102.465 181.734 102.148 181.811 101.91 181.964C101.676 182.114 101.507 182.335 101.402 182.628C101.301 182.921 101.251 183.279 101.251 183.702V186.5H100.44V178.902H101.251ZM108.302 185.934C108.435 185.934 108.572 185.922 108.712 185.899C108.852 185.877 108.966 185.849 109.054 185.816V186.446C108.959 186.489 108.827 186.524 108.658 186.554C108.492 186.583 108.329 186.598 108.17 186.598C107.887 186.598 107.63 186.549 107.398 186.451C107.167 186.35 106.982 186.181 106.842 185.943C106.705 185.706 106.637 185.377 106.637 184.957V181.783H105.875V181.388L106.642 181.07L106.964 179.908H107.452V181.148H109.02V181.783H107.452V184.933C107.452 185.268 107.529 185.519 107.682 185.685C107.838 185.851 108.045 185.934 108.302 185.934ZM113.6 185.035C113.6 185.377 113.513 185.665 113.341 185.899C113.172 186.131 112.927 186.305 112.608 186.422C112.293 186.539 111.915 186.598 111.476 186.598C111.101 186.598 110.777 186.568 110.504 186.51C110.23 186.451 109.991 186.368 109.786 186.261V185.514C110.004 185.621 110.265 185.719 110.567 185.807C110.87 185.895 111.179 185.938 111.495 185.938C111.957 185.938 112.293 185.864 112.501 185.714C112.709 185.564 112.813 185.361 112.813 185.104C112.813 184.957 112.771 184.828 112.687 184.718C112.605 184.604 112.467 184.495 112.271 184.391C112.076 184.283 111.806 184.166 111.461 184.039C111.119 183.909 110.823 183.78 110.572 183.653C110.325 183.523 110.133 183.365 109.996 183.18C109.863 182.994 109.796 182.753 109.796 182.457C109.796 182.005 109.978 181.658 110.343 181.417C110.711 181.173 111.192 181.051 111.788 181.051C112.11 181.051 112.411 181.083 112.691 181.148C112.975 181.21 113.238 181.295 113.482 181.402L113.209 182.052C112.988 181.957 112.752 181.878 112.501 181.812C112.25 181.747 111.995 181.715 111.734 181.715C111.36 181.715 111.072 181.777 110.87 181.9C110.672 182.024 110.572 182.193 110.572 182.408C110.572 182.574 110.618 182.711 110.709 182.818C110.803 182.926 110.953 183.027 111.158 183.121C111.363 183.215 111.633 183.326 111.969 183.453C112.304 183.577 112.594 183.705 112.838 183.839C113.082 183.969 113.269 184.129 113.399 184.317C113.533 184.503 113.6 184.742 113.6 185.035Z" fill="#7D7D7D"/>
<path d="M260.436 188.457C260.2 188.558 259.974 188.539 259.76 188.402C259.545 188.264 259.438 188.067 259.438 187.811V184.327L265.005 182.99L259.438 181.656V178.172C259.438 177.916 259.545 177.719 259.76 177.582C259.974 177.444 260.2 177.424 260.436 177.522L271.82 182.335C272.108 182.463 272.251 182.682 272.251 182.993C272.251 183.304 272.108 183.523 271.82 183.648L260.436 188.457Z" fill="#2D65F2"/>
</svg>
