<svg width="273" height="118" viewBox="0 0 273 118" fill="none" xmlns="http://www.w3.org/2000/svg">
<g filter="url(#filter0_d_8926_58218)">
<path d="M5 11.0552C5 6.60643 8.60642 3 13.0552 3H259.945C264.394 3 268 6.60642 268 11.0552V102.945C268 107.394 264.394 111 259.945 111H13.0552C8.60642 111 5 107.394 5 102.945V11.0552Z" fill="white"/>
<path d="M113.999 35.631C114.219 35.631 114.402 35.5586 114.549 35.4139C114.695 35.2692 114.768 35.0866 114.768 34.8663C114.768 34.646 114.696 34.4626 114.551 34.3161C114.407 34.1696 114.224 34.0964 114.004 34.0964C113.783 34.0964 113.6 34.1687 113.454 34.3134C113.307 34.4582 113.234 34.6407 113.234 34.8611C113.234 35.0814 113.306 35.2648 113.451 35.4113C113.596 35.5577 113.778 35.631 113.999 35.631ZM114.012 32.0781C114.204 32.0781 114.369 32.0096 114.505 31.8726C114.642 31.7356 114.711 31.5701 114.711 31.3762V26.856C114.711 26.6658 114.642 26.502 114.505 26.3648C114.367 26.2275 114.204 26.1589 114.013 26.1589C113.819 26.1589 113.654 26.2275 113.517 26.3648C113.38 26.502 113.312 26.6658 113.312 26.856V31.3762C113.312 31.5701 113.38 31.7356 113.517 31.8726C113.654 32.0096 113.819 32.0781 114.012 32.0781ZM114.003 40.2992C112.718 40.2992 111.509 40.0548 110.377 39.5661C109.245 39.0774 108.26 38.4141 107.423 37.5762C106.586 36.7384 105.923 35.7546 105.435 34.6249C104.947 33.4951 104.703 32.288 104.703 31.0035C104.703 29.7176 104.947 28.5087 105.436 27.3768C105.925 26.2449 106.588 25.2603 107.426 24.423C108.264 23.5857 109.248 22.9231 110.378 22.4351C111.507 21.9471 112.714 21.7031 113.999 21.7031C115.285 21.7031 116.494 21.9475 117.626 22.4363C118.757 22.925 119.742 23.5883 120.579 24.4261C121.417 25.264 122.079 26.2477 122.567 27.3775C123.055 28.5072 123.299 29.7144 123.299 30.9989C123.299 32.2847 123.055 33.4936 122.566 34.6255C122.077 35.7574 121.414 36.742 120.576 37.5793C119.738 38.4166 118.755 39.0793 117.625 39.5673C116.495 40.0552 115.288 40.2992 114.003 40.2992Z" fill="#D35500"/>
<path d="M135.376 36.5L134.651 34.1211H131.008L130.283 36.5H128L131.527 26.4648H134.118L137.659 36.5H135.376ZM134.146 32.3438L133.421 30.0195C133.375 29.8646 133.314 29.6663 133.236 29.4248C133.163 29.1787 133.088 28.9303 133.011 28.6797C132.938 28.4245 132.879 28.2035 132.833 28.0166C132.787 28.2035 132.724 28.4359 132.642 28.7139C132.564 28.9873 132.489 29.2471 132.416 29.4932C132.343 29.7393 132.291 29.9147 132.259 30.0195L131.541 32.3438H134.146ZM140.845 36.5H138.76V25.8633H140.845V36.5ZM146.19 28.7139C146.897 28.7139 147.505 28.8506 148.016 29.124C148.526 29.3929 148.92 29.7848 149.198 30.2998C149.476 30.8148 149.615 31.4437 149.615 32.1865V33.1982H144.687C144.709 33.7861 144.885 34.2487 145.213 34.5859C145.546 34.9186 146.006 35.085 146.594 35.085C147.081 35.085 147.528 35.0348 147.934 34.9346C148.339 34.8343 148.756 34.6839 149.185 34.4834V36.0967C148.806 36.2835 148.41 36.4202 147.995 36.5068C147.585 36.5934 147.086 36.6367 146.498 36.6367C145.732 36.6367 145.053 36.4954 144.461 36.2129C143.873 35.9303 143.41 35.4997 143.073 34.9209C142.741 34.3421 142.574 33.613 142.574 32.7334C142.574 31.8402 142.725 31.0973 143.025 30.5049C143.331 29.9079 143.755 29.4613 144.297 29.165C144.839 28.8643 145.47 28.7139 146.19 28.7139ZM146.204 30.1973C145.799 30.1973 145.461 30.3271 145.192 30.5869C144.928 30.8467 144.775 31.2546 144.734 31.8105H147.66C147.656 31.5007 147.599 31.2249 147.489 30.9834C147.384 30.7419 147.225 30.5505 147.011 30.4092C146.801 30.2679 146.532 30.1973 146.204 30.1973ZM155.576 28.7139C155.681 28.7139 155.802 28.7207 155.938 28.7344C156.08 28.7435 156.194 28.7572 156.28 28.7754L156.123 30.7305C156.055 30.7077 155.957 30.6917 155.829 30.6826C155.706 30.6689 155.599 30.6621 155.508 30.6621C155.239 30.6621 154.977 30.6963 154.722 30.7646C154.471 30.833 154.245 30.9447 154.045 31.0996C153.844 31.25 153.685 31.4505 153.566 31.7012C153.452 31.9473 153.396 32.2503 153.396 32.6104V36.5H151.311V28.8574H152.89L153.197 30.1426H153.3C153.45 29.8828 153.637 29.6458 153.86 29.4316C154.088 29.2129 154.346 29.0397 154.633 28.9121C154.924 28.7799 155.239 28.7139 155.576 28.7139ZM160.888 34.9756C161.116 34.9756 161.337 34.9528 161.551 34.9072C161.77 34.8617 161.986 34.8047 162.2 34.7363V36.2881C161.977 36.3883 161.699 36.4704 161.366 36.5342C161.038 36.6025 160.678 36.6367 160.286 36.6367C159.83 36.6367 159.42 36.5638 159.056 36.418C158.696 36.2676 158.411 36.0101 158.201 35.6455C157.996 35.2764 157.894 34.7637 157.894 34.1074V30.4229H156.896V29.541L158.044 28.8438L158.646 27.2305H159.979V28.8574H162.118V30.4229H159.979V34.1074C159.979 34.3991 160.061 34.6178 160.225 34.7637C160.393 34.9049 160.614 34.9756 160.888 34.9756ZM169.139 33.1846H167.471L167.122 26.5059H169.487L169.139 33.1846ZM167.095 35.5225C167.095 35.0941 167.211 34.7933 167.443 34.6201C167.68 34.4469 167.965 34.3604 168.298 34.3604C168.621 34.3604 168.899 34.4469 169.132 34.6201C169.369 34.7933 169.487 35.0941 169.487 35.5225C169.487 35.9326 169.369 36.2288 169.132 36.4111C168.899 36.5934 168.621 36.6846 168.298 36.6846C167.965 36.6846 167.68 36.5934 167.443 36.4111C167.211 36.2288 167.095 35.9326 167.095 35.5225Z" fill="#D35500"/>
<path d="M39.2656 75.0477L39.7223 74.9616C40.0792 74.8945 40.4046 74.6733 40.6397 74.3381C40.8747 74.0028 41.004 73.5757 41.004 73.134V71.3526C41.004 70.9109 40.8748 70.4837 40.6397 70.1485C40.4046 69.8133 40.0792 69.5921 39.7223 69.525L39.2656 69.4375V75.0477Z" fill="#2D65F2"/>
<path d="M22.7382 75.0501L22.2814 74.9641C21.9247 74.8969 21.5993 74.6756 21.3643 74.3404C21.1292 74.0052 21 73.5781 21 73.1365V71.355C21 70.9134 21.1292 70.4863 21.3642 70.151C21.5993 69.8158 21.9246 69.5946 22.2814 69.5274L22.7382 69.4414V75.0501Z" fill="#2D65F2"/>
<path d="M31.1176 68.8917C32.8136 68.8917 34.1884 67.6777 34.1884 66.1802C34.1884 64.6827 32.8136 63.4688 31.1176 63.4688C29.4217 63.4688 28.0469 64.6827 28.0469 66.1802C28.0469 67.6777 29.4217 68.8917 31.1176 68.8917Z" fill="#2D65F2"/>
<path d="M22.5547 74.9751C22.5546 75.6032 22.6932 76.2197 22.956 76.7594C23.2187 77.2991 23.5958 77.7418 24.0473 78.0408C25.2166 78.8147 27.2947 79.5329 30.9817 79.5329C34.6687 79.5329 36.7466 78.8158 37.9162 78.0408C38.3677 77.7418 38.7447 77.2991 39.0075 76.7594C39.2702 76.2197 39.4089 75.6032 39.4088 74.9751V69.3664C39.4089 68.7382 39.2703 68.1217 39.0075 67.5821C38.7448 67.0424 38.3677 66.5997 37.9162 66.3007C36.7469 65.5268 34.6687 64.8086 30.9817 64.8086C27.2947 64.8086 25.217 65.5257 24.0473 66.3007C23.5958 66.5997 23.2187 67.0424 22.9559 67.5821C22.6932 68.1217 22.5546 68.7382 22.5547 69.3664V74.9751Z" fill="#DDDDDD"/>
<path d="M31.1356 78.1685C27.5873 78.1685 25.766 77.4561 24.8628 76.8584C24.5638 76.6607 24.3141 76.3676 24.1402 76.0103C23.9663 75.653 23.8747 75.2448 23.875 74.8289V70.6827C23.8747 70.2669 23.9663 69.8587 24.1402 69.5014C24.3141 69.1441 24.5638 68.851 24.8628 68.6533C25.766 68.0558 27.5873 67.3438 31.1356 67.3438C34.6839 67.3438 36.5055 68.0564 37.4087 68.6538C37.7077 68.8516 37.9573 69.1447 38.1313 69.502C38.3052 69.8593 38.3968 70.2675 38.3965 70.6833V74.8307C38.3968 75.2465 38.3052 75.6547 38.1313 76.012C37.9573 76.3693 37.7077 76.6624 37.4087 76.8602C36.5055 77.4573 34.6841 78.1685 31.1356 78.1685Z" fill="#303030"/>
<path d="M29.3651 73.0057C29.3651 73.8208 28.8252 73.4153 28.1592 73.4153C27.4933 73.4153 26.9531 73.8208 26.9531 73.0057C26.9576 72.6179 27.0866 72.2479 27.3123 71.9757C27.538 71.7034 27.8422 71.5508 28.1591 71.5508C28.4761 71.5508 28.7803 71.7034 29.006 71.9757C29.2316 72.2479 29.3607 72.6179 29.3651 73.0057Z" fill="white"/>
<path d="M35.2872 73.003C35.2872 73.6294 34.9682 73.5349 34.518 73.4577C34.3734 73.4301 34.2274 73.415 34.0811 73.4126C33.4152 73.4126 32.875 73.8181 32.875 73.003C32.875 72.6116 33.0021 72.2363 33.2283 71.9596C33.4545 71.6828 33.7612 71.5273 34.0811 71.5273C34.401 71.5273 34.7078 71.6828 34.934 71.9596C35.1602 72.2363 35.2872 72.6116 35.2872 73.003Z" fill="white"/>
<path d="M58.2939 61.9893C58.2939 62.8005 58.2324 63.5251 58.1094 64.1631C57.9863 64.8011 57.7926 65.3411 57.5283 65.7832C57.264 66.2253 56.9222 66.5625 56.5029 66.7949C56.0837 67.0228 55.5801 67.1367 54.9922 67.1367C54.2493 67.1367 53.6341 66.9339 53.1465 66.5283C52.6634 66.1227 52.3011 65.5371 52.0596 64.7715C51.8226 64.0013 51.7041 63.0739 51.7041 61.9893C51.7041 60.9229 51.8112 60.0068 52.0254 59.2412C52.2441 58.471 52.5951 57.8809 53.0781 57.4707C53.5612 57.056 54.1992 56.8486 54.9922 56.8486C55.7441 56.8486 56.3639 57.0537 56.8516 57.4639C57.3392 57.8695 57.7015 58.4574 57.9385 59.2275C58.1755 59.9932 58.2939 60.9137 58.2939 61.9893ZM52.8457 61.9893C52.8457 62.9189 52.9163 63.6937 53.0576 64.3135C53.1989 64.9333 53.4268 65.3981 53.7412 65.708C54.0602 66.0133 54.4772 66.166 54.9922 66.166C55.5072 66.166 55.9219 66.0133 56.2363 65.708C56.5553 65.4027 56.7855 64.9401 56.9268 64.3203C57.0726 63.7005 57.1455 62.9235 57.1455 61.9893C57.1455 61.0732 57.0749 60.3076 56.9336 59.6924C56.7923 59.0726 56.5645 58.6077 56.25 58.2979C55.9355 57.9834 55.5163 57.8262 54.9922 57.8262C54.4681 57.8262 54.0488 57.9834 53.7344 58.2979C53.4199 58.6077 53.1921 59.0726 53.0508 59.6924C52.9141 60.3076 52.8457 61.0732 52.8457 61.9893ZM66.251 67H59.7021V66.0498L62.375 63.3359C62.8717 62.8346 63.2887 62.388 63.626 61.9961C63.9678 61.6042 64.2275 61.2191 64.4053 60.8408C64.583 60.458 64.6719 60.0387 64.6719 59.583C64.6719 59.0179 64.5033 58.5872 64.166 58.291C63.8333 57.9902 63.3936 57.8398 62.8467 57.8398C62.3682 57.8398 61.9443 57.9219 61.5752 58.0859C61.2061 58.25 60.8278 58.4824 60.4404 58.7832L59.832 58.0176C60.0964 57.7943 60.3835 57.596 60.6934 57.4229C61.0078 57.2497 61.3428 57.113 61.6982 57.0127C62.0583 56.9124 62.4411 56.8623 62.8467 56.8623C63.4619 56.8623 63.9928 56.9694 64.4395 57.1836C64.8861 57.3978 65.2301 57.7031 65.4717 58.0996C65.7178 58.4961 65.8408 58.9678 65.8408 59.5146C65.8408 60.0433 65.736 60.5355 65.5264 60.9912C65.3167 61.4424 65.0228 61.8913 64.6445 62.3379C64.2663 62.7799 63.8242 63.2493 63.3184 63.7461L61.1445 65.9131V65.9609H66.251V67ZM73.5039 67L70.6602 59.5078H71.877L73.5244 64.04C73.6383 64.3499 73.7546 64.6917 73.873 65.0654C73.9915 65.4391 74.0736 65.7399 74.1191 65.9678H74.167C74.2217 65.7399 74.3128 65.4391 74.4404 65.0654C74.568 64.6872 74.6842 64.3454 74.7891 64.04L76.4365 59.5078H77.6533L74.8027 67H73.5039ZM81.7412 59.3711C82.3792 59.3711 82.9261 59.5124 83.3818 59.7949C83.8376 60.0775 84.1862 60.474 84.4277 60.9844C84.6693 61.4902 84.79 62.0827 84.79 62.7617V63.4658H79.6152C79.6289 64.3454 79.8477 65.0153 80.2715 65.4756C80.6953 65.9359 81.2923 66.166 82.0625 66.166C82.5365 66.166 82.9557 66.1227 83.3203 66.0361C83.6849 65.9495 84.0632 65.8219 84.4551 65.6533V66.6514C84.0768 66.82 83.7008 66.943 83.3271 67.0205C82.958 67.098 82.5205 67.1367 82.0146 67.1367C81.2946 67.1367 80.6657 66.9909 80.1279 66.6992C79.5947 66.403 79.18 65.9701 78.8838 65.4004C78.5876 64.8307 78.4395 64.1335 78.4395 63.3086C78.4395 62.502 78.5739 61.8047 78.8428 61.2168C79.1162 60.6243 79.499 60.1686 79.9912 59.8496C80.488 59.5306 81.0713 59.3711 81.7412 59.3711ZM81.7275 60.3008C81.1214 60.3008 80.6383 60.499 80.2783 60.8955C79.9183 61.292 79.7041 61.8457 79.6357 62.5566H83.6006C83.596 62.11 83.5254 61.7181 83.3887 61.3809C83.2565 61.0391 83.0537 60.7747 82.7803 60.5879C82.5068 60.3965 82.1559 60.3008 81.7275 60.3008ZM87.8525 56.3633V59.542C87.8525 59.7243 87.848 59.9089 87.8389 60.0957C87.8298 60.278 87.8138 60.4466 87.791 60.6016H87.8662C88.0212 60.3372 88.2171 60.1162 88.4541 59.9385C88.6956 59.7562 88.9691 59.6195 89.2744 59.5283C89.5798 59.4326 89.9033 59.3848 90.2451 59.3848C90.8467 59.3848 91.348 59.4805 91.749 59.6719C92.1546 59.8633 92.4577 60.1595 92.6582 60.5605C92.8633 60.9616 92.9658 61.4811 92.9658 62.1191V67H91.8447V62.1943C91.8447 61.57 91.7012 61.1029 91.4141 60.793C91.1315 60.4831 90.6963 60.3281 90.1084 60.3281C89.5524 60.3281 89.1081 60.4352 88.7754 60.6494C88.4473 60.859 88.2103 61.1689 88.0645 61.5791C87.9232 61.9893 87.8525 62.4906 87.8525 63.083V67H86.7178V56.3633H87.8525ZM96.4385 59.5078V67H95.3037V59.5078H96.4385ZM95.8848 56.7051C96.0716 56.7051 96.2311 56.7666 96.3633 56.8896C96.5 57.0081 96.5684 57.195 96.5684 57.4502C96.5684 57.7008 96.5 57.8877 96.3633 58.0107C96.2311 58.1338 96.0716 58.1953 95.8848 58.1953C95.6888 58.1953 95.5247 58.1338 95.3926 58.0107C95.265 57.8877 95.2012 57.7008 95.2012 57.4502C95.2012 57.195 95.265 57.0081 95.3926 56.8896C95.5247 56.7666 95.6888 56.7051 95.8848 56.7051ZM101.846 67.1367C101.171 67.1367 100.576 66.9977 100.062 66.7197C99.5465 66.4417 99.1455 66.0179 98.8584 65.4482C98.5713 64.8786 98.4277 64.1608 98.4277 63.2949C98.4277 62.388 98.5781 61.6475 98.8789 61.0732C99.1842 60.4945 99.6035 60.0661 100.137 59.7881C100.67 59.5101 101.276 59.3711 101.955 59.3711C102.329 59.3711 102.689 59.4098 103.035 59.4873C103.386 59.5602 103.673 59.6536 103.896 59.7676L103.555 60.7178C103.327 60.6266 103.062 60.5446 102.762 60.4717C102.465 60.3988 102.188 60.3623 101.928 60.3623C101.408 60.3623 100.975 60.474 100.629 60.6973C100.287 60.9206 100.03 61.2487 99.8564 61.6816C99.6878 62.1146 99.6035 62.6478 99.6035 63.2812C99.6035 63.8874 99.6855 64.4046 99.8496 64.833C100.018 65.2614 100.267 65.5895 100.595 65.8174C100.927 66.0407 101.342 66.1523 101.839 66.1523C102.235 66.1523 102.593 66.1113 102.912 66.0293C103.231 65.9427 103.521 65.8424 103.78 65.7285V66.7402C103.53 66.8678 103.249 66.9658 102.939 67.0342C102.634 67.1025 102.27 67.1367 101.846 67.1367ZM106.699 67H105.558V56.3633H106.699V67ZM111.983 59.3711C112.621 59.3711 113.168 59.5124 113.624 59.7949C114.08 60.0775 114.428 60.474 114.67 60.9844C114.911 61.4902 115.032 62.0827 115.032 62.7617V63.4658H109.857C109.871 64.3454 110.09 65.0153 110.514 65.4756C110.938 65.9359 111.535 66.166 112.305 66.166C112.779 66.166 113.198 66.1227 113.562 66.0361C113.927 65.9495 114.305 65.8219 114.697 65.6533V66.6514C114.319 66.82 113.943 66.943 113.569 67.0205C113.2 67.098 112.763 67.1367 112.257 67.1367C111.537 67.1367 110.908 66.9909 110.37 66.6992C109.837 66.403 109.422 65.9701 109.126 65.4004C108.83 64.8307 108.682 64.1335 108.682 63.3086C108.682 62.502 108.816 61.8047 109.085 61.2168C109.358 60.6243 109.741 60.1686 110.233 59.8496C110.73 59.5306 111.313 59.3711 111.983 59.3711ZM111.97 60.3008C111.364 60.3008 110.881 60.499 110.521 60.8955C110.16 61.292 109.946 61.8457 109.878 62.5566H113.843C113.838 62.11 113.768 61.7181 113.631 61.3809C113.499 61.0391 113.296 60.7747 113.022 60.5879C112.749 60.3965 112.398 60.3008 111.97 60.3008ZM117.855 57.0059L117.958 57.1562C117.876 57.4889 117.771 57.8467 117.644 58.2295C117.516 58.6077 117.377 58.986 117.227 59.3643C117.076 59.7425 116.926 60.098 116.775 60.4307H115.941C116.01 60.1709 116.078 59.8929 116.146 59.5967C116.219 59.3005 116.288 58.9997 116.352 58.6943C116.415 58.389 116.472 58.0928 116.522 57.8057C116.577 57.5186 116.623 57.252 116.659 57.0059H117.855ZM124.186 64.9492C124.186 65.4277 124.065 65.8311 123.823 66.1592C123.586 66.4827 123.244 66.7266 122.798 66.8906C122.356 67.0547 121.827 67.1367 121.212 67.1367C120.688 67.1367 120.234 67.0957 119.852 67.0137C119.469 66.9316 119.134 66.8154 118.847 66.665V65.6191C119.152 65.7695 119.517 65.9062 119.94 66.0293C120.364 66.1523 120.797 66.2139 121.239 66.2139C121.886 66.2139 122.356 66.109 122.647 65.8994C122.939 65.6898 123.085 65.4049 123.085 65.0449C123.085 64.8398 123.026 64.6598 122.907 64.5049C122.793 64.3454 122.6 64.1927 122.326 64.0469C122.053 63.8965 121.674 63.7324 121.191 63.5547C120.713 63.3724 120.298 63.1924 119.947 63.0146C119.601 62.8324 119.332 62.6113 119.141 62.3516C118.954 62.0918 118.86 61.7546 118.86 61.3398C118.86 60.7064 119.116 60.221 119.626 59.8838C120.141 59.542 120.815 59.3711 121.649 59.3711C122.101 59.3711 122.522 59.4167 122.914 59.5078C123.311 59.5944 123.68 59.7129 124.021 59.8633L123.639 60.7725C123.329 60.6403 122.998 60.5286 122.647 60.4375C122.297 60.3464 121.939 60.3008 121.574 60.3008C121.05 60.3008 120.647 60.3874 120.364 60.5605C120.086 60.7337 119.947 60.9707 119.947 61.2715C119.947 61.5039 120.011 61.6953 120.139 61.8457C120.271 61.9961 120.48 62.1374 120.768 62.2695C121.055 62.4017 121.433 62.5566 121.902 62.7344C122.372 62.9076 122.777 63.0876 123.119 63.2744C123.461 63.4567 123.723 63.68 123.905 63.9443C124.092 64.2041 124.186 64.5391 124.186 64.9492ZM237.694 66.9863L236.361 62.625C236.302 62.4382 236.245 62.2559 236.19 62.0781C236.14 61.8958 236.092 61.7227 236.047 61.5586C236.006 61.39 235.967 61.235 235.931 61.0938C235.899 60.9479 235.871 60.8226 235.849 60.7178H235.801C235.783 60.8226 235.757 60.9479 235.726 61.0938C235.694 61.235 235.655 61.39 235.609 61.5586C235.568 61.7272 235.523 61.9049 235.473 62.0918C235.423 62.2741 235.366 62.4587 235.302 62.6455L233.907 66.9863H232.629L230.564 59.4941H231.74L232.82 63.6299C232.893 63.9033 232.962 64.1745 233.025 64.4434C233.094 64.7077 233.151 64.9583 233.196 65.1953C233.246 65.4277 233.283 65.6305 233.306 65.8037H233.36C233.388 65.6898 233.417 65.5531 233.449 65.3936C233.486 65.234 233.524 65.0654 233.565 64.8877C233.611 64.7054 233.659 64.5254 233.709 64.3477C233.759 64.1654 233.809 63.9945 233.859 63.835L235.24 59.4941H236.464L237.797 63.8281C237.865 64.0469 237.931 64.2747 237.995 64.5117C238.063 64.7487 238.125 64.9788 238.18 65.2021C238.234 65.4209 238.273 65.6169 238.296 65.79H238.351C238.369 65.6351 238.403 65.4437 238.453 65.2158C238.503 64.988 238.56 64.7373 238.624 64.4639C238.692 64.1904 238.763 63.9124 238.836 63.6299L239.93 59.4941H241.085L239.014 66.9863H237.694ZM243.587 59.5078V67H242.452V59.5078H243.587ZM243.033 56.7051C243.22 56.7051 243.38 56.7666 243.512 56.8896C243.648 57.0081 243.717 57.195 243.717 57.4502C243.717 57.7008 243.648 57.8877 243.512 58.0107C243.38 58.1338 243.22 58.1953 243.033 58.1953C242.837 58.1953 242.673 58.1338 242.541 58.0107C242.413 57.8877 242.35 57.7008 242.35 57.4502C242.35 57.195 242.413 57.0081 242.541 56.8896C242.673 56.7666 242.837 56.7051 243.033 56.7051ZM247.135 67H245.993V56.3633H247.135V67ZM250.676 67H249.534V56.3633H250.676V67ZM53.3311 78.3633V81.0225C53.3311 81.3278 53.3219 81.624 53.3037 81.9111C53.29 82.1982 53.2786 82.4215 53.2695 82.5811H53.3311C53.5361 82.2438 53.8324 81.959 54.2197 81.7266C54.6071 81.4941 55.1016 81.3779 55.7031 81.3779C56.6419 81.3779 57.3893 81.7038 57.9453 82.3555C58.5059 83.0026 58.7861 83.9665 58.7861 85.2471C58.7861 86.0902 58.6585 86.8011 58.4033 87.3799C58.1481 87.9587 57.7881 88.3962 57.3232 88.6924C56.8584 88.9886 56.3092 89.1367 55.6758 89.1367C55.0833 89.1367 54.5957 89.0273 54.2129 88.8086C53.8346 88.5853 53.543 88.3141 53.3379 87.9951H53.249L53.0166 89H52.1963V78.3633H53.3311ZM55.5186 82.3281C54.9762 82.3281 54.5456 82.4352 54.2266 82.6494C53.9076 82.859 53.6774 83.1781 53.5361 83.6064C53.3994 84.0303 53.3311 84.568 53.3311 85.2197V85.2812C53.3311 86.2246 53.4883 86.9469 53.8027 87.4482C54.1172 87.945 54.6891 88.1934 55.5186 88.1934C56.2158 88.1934 56.7376 87.9382 57.084 87.4277C57.4349 86.9173 57.6104 86.1882 57.6104 85.2402C57.6104 84.2741 57.4372 83.5472 57.0908 83.0596C56.749 82.5719 56.2249 82.3281 55.5186 82.3281ZM63.6533 81.3711C64.2913 81.3711 64.8382 81.5124 65.2939 81.7949C65.7497 82.0775 66.0983 82.474 66.3398 82.9844C66.5814 83.4902 66.7021 84.0827 66.7021 84.7617V85.4658H61.5273C61.541 86.3454 61.7598 87.0153 62.1836 87.4756C62.6074 87.9359 63.2044 88.166 63.9746 88.166C64.4486 88.166 64.8678 88.1227 65.2324 88.0361C65.597 87.9495 65.9753 87.8219 66.3672 87.6533V88.6514C65.9889 88.82 65.613 88.943 65.2393 89.0205C64.8701 89.098 64.4326 89.1367 63.9268 89.1367C63.2067 89.1367 62.5778 88.9909 62.04 88.6992C61.5068 88.403 61.0921 87.9701 60.7959 87.4004C60.4997 86.8307 60.3516 86.1335 60.3516 85.3086C60.3516 84.502 60.486 83.8047 60.7549 83.2168C61.0283 82.6243 61.4111 82.1686 61.9033 81.8496C62.4001 81.5306 62.9834 81.3711 63.6533 81.3711ZM63.6396 82.3008C63.0335 82.3008 62.5505 82.499 62.1904 82.8955C61.8304 83.292 61.6162 83.8457 61.5479 84.5566H65.5127C65.5081 84.11 65.4375 83.7181 65.3008 83.3809C65.1686 83.0391 64.9658 82.7747 64.6924 82.5879C64.4189 82.3965 64.068 82.3008 63.6396 82.3008ZM75.1514 81.3711C75.7894 81.3711 76.3363 81.5124 76.792 81.7949C77.2477 82.0775 77.5964 82.474 77.8379 82.9844C78.0794 83.4902 78.2002 84.0827 78.2002 84.7617V85.4658H73.0254C73.0391 86.3454 73.2578 87.0153 73.6816 87.4756C74.1055 87.9359 74.7025 88.166 75.4727 88.166C75.9466 88.166 76.3659 88.1227 76.7305 88.0361C77.0951 87.9495 77.4733 87.8219 77.8652 87.6533V88.6514C77.487 88.82 77.111 88.943 76.7373 89.0205C76.3682 89.098 75.9307 89.1367 75.4248 89.1367C74.7048 89.1367 74.0758 88.9909 73.5381 88.6992C73.0049 88.403 72.5902 87.9701 72.2939 87.4004C71.9977 86.8307 71.8496 86.1335 71.8496 85.3086C71.8496 84.502 71.984 83.8047 72.2529 83.2168C72.5264 82.6243 72.9092 82.1686 73.4014 81.8496C73.8981 81.5306 74.4814 81.3711 75.1514 81.3711ZM75.1377 82.3008C74.5316 82.3008 74.0485 82.499 73.6885 82.8955C73.3285 83.292 73.1143 83.8457 73.0459 84.5566H77.0107C77.0062 84.11 76.9355 83.7181 76.7988 83.3809C76.6667 83.0391 76.4639 82.7747 76.1904 82.5879C75.917 82.3965 75.5661 82.3008 75.1377 82.3008ZM81.9121 85.165L79.3213 81.5078H80.6201L82.5957 84.3926L84.5645 81.5078H85.8496L83.2588 85.165L85.9932 89H84.6943L82.5957 85.9443L80.4834 89H79.1982L81.9121 85.165ZM90.9766 81.3711C91.9108 81.3711 92.6559 81.6924 93.2119 82.335C93.7679 82.9775 94.0459 83.9437 94.0459 85.2334C94.0459 86.0856 93.9183 86.8011 93.6631 87.3799C93.4079 87.9587 93.0479 88.3962 92.583 88.6924C92.1227 88.9886 91.5781 89.1367 90.9492 89.1367C90.5527 89.1367 90.2041 89.0843 89.9033 88.9795C89.6025 88.8747 89.3451 88.7334 89.1309 88.5557C88.9167 88.3779 88.7389 88.1842 88.5977 87.9746H88.5156C88.5293 88.1523 88.5452 88.3665 88.5635 88.6172C88.5863 88.8678 88.5977 89.0866 88.5977 89.2734V92.3496H87.4561V81.5078H88.3926L88.543 82.6152H88.5977C88.7435 82.3874 88.9212 82.18 89.1309 81.9932C89.3405 81.8018 89.5957 81.6514 89.8965 81.542C90.2018 81.4281 90.5618 81.3711 90.9766 81.3711ZM90.7783 82.3281C90.2588 82.3281 89.8395 82.4284 89.5205 82.6289C89.2061 82.8294 88.9759 83.1302 88.8301 83.5312C88.6842 83.9277 88.6068 84.4268 88.5977 85.0283V85.2471C88.5977 85.8805 88.666 86.416 88.8027 86.8535C88.944 87.291 89.1742 87.6237 89.4932 87.8516C89.8167 88.0794 90.2497 88.1934 90.792 88.1934C91.2568 88.1934 91.6442 88.068 91.9541 87.8174C92.264 87.5667 92.4941 87.2181 92.6445 86.7715C92.7995 86.3203 92.877 85.8031 92.877 85.2197C92.877 84.3356 92.7038 83.6338 92.3574 83.1143C92.0156 82.5902 91.4893 82.3281 90.7783 82.3281ZM97.1631 81.5078V89H96.0283V81.5078H97.1631ZM96.6094 78.7051C96.7962 78.7051 96.9557 78.7666 97.0879 78.8896C97.2246 79.0081 97.293 79.195 97.293 79.4502C97.293 79.7008 97.2246 79.8877 97.0879 80.0107C96.9557 80.1338 96.7962 80.1953 96.6094 80.1953C96.4134 80.1953 96.2493 80.1338 96.1172 80.0107C95.9896 79.8877 95.9258 79.7008 95.9258 79.4502C95.9258 79.195 95.9896 79.0081 96.1172 78.8896C96.2493 78.7666 96.4134 78.7051 96.6094 78.7051ZM102.974 81.3711C103.124 81.3711 103.281 81.3802 103.445 81.3984C103.609 81.4121 103.755 81.4326 103.883 81.46L103.739 82.5127C103.616 82.4808 103.479 82.4557 103.329 82.4375C103.179 82.4193 103.037 82.4102 102.905 82.4102C102.604 82.4102 102.32 82.4717 102.051 82.5947C101.786 82.7132 101.554 82.8864 101.354 83.1143C101.153 83.3376 100.996 83.6087 100.882 83.9277C100.768 84.2422 100.711 84.5931 100.711 84.9805V89H99.5693V81.5078H100.513L100.636 82.8887H100.684C100.839 82.6107 101.025 82.3577 101.244 82.1299C101.463 81.8975 101.716 81.7129 102.003 81.5762C102.295 81.4395 102.618 81.3711 102.974 81.3711ZM108.183 81.3711C108.821 81.3711 109.368 81.5124 109.823 81.7949C110.279 82.0775 110.628 82.474 110.869 82.9844C111.111 83.4902 111.231 84.0827 111.231 84.7617V85.4658H106.057C106.07 86.3454 106.289 87.0153 106.713 87.4756C107.137 87.9359 107.734 88.166 108.504 88.166C108.978 88.166 109.397 88.1227 109.762 88.0361C110.126 87.9495 110.505 87.8219 110.896 87.6533V88.6514C110.518 88.82 110.142 88.943 109.769 89.0205C109.399 89.098 108.962 89.1367 108.456 89.1367C107.736 89.1367 107.107 88.9909 106.569 88.6992C106.036 88.403 105.621 87.9701 105.325 87.4004C105.029 86.8307 104.881 86.1335 104.881 85.3086C104.881 84.502 105.015 83.8047 105.284 83.2168C105.558 82.6243 105.94 82.1686 106.433 81.8496C106.929 81.5306 107.513 81.3711 108.183 81.3711ZM108.169 82.3008C107.563 82.3008 107.08 82.499 106.72 82.8955C106.36 83.292 106.146 83.8457 106.077 84.5566H110.042C110.037 84.11 109.967 83.7181 109.83 83.3809C109.698 83.0391 109.495 82.7747 109.222 82.5879C108.948 82.3965 108.597 82.3008 108.169 82.3008ZM115.825 89.1367C114.877 89.1367 114.125 88.8132 113.569 88.166C113.018 87.5189 112.742 86.5573 112.742 85.2812C112.742 83.9915 113.025 83.0186 113.59 82.3623C114.155 81.7015 114.907 81.3711 115.846 81.3711C116.242 81.3711 116.589 81.4235 116.885 81.5283C117.181 81.6331 117.436 81.7744 117.65 81.9521C117.865 82.1253 118.045 82.3236 118.19 82.5469H118.272C118.254 82.4056 118.236 82.2119 118.218 81.9658C118.2 81.7197 118.19 81.5192 118.19 81.3643V78.3633H119.325V89H118.409L118.238 87.9336H118.19C118.049 88.1569 117.869 88.3597 117.65 88.542C117.436 88.7243 117.179 88.8701 116.878 88.9795C116.582 89.0843 116.231 89.1367 115.825 89.1367ZM116.003 88.1934C116.805 88.1934 117.372 87.9655 117.705 87.5098C118.038 87.054 118.204 86.3773 118.204 85.4795V85.2744C118.204 84.3219 118.045 83.5905 117.726 83.0801C117.411 82.5697 116.837 82.3145 116.003 82.3145C115.306 82.3145 114.784 82.5833 114.438 83.1211C114.091 83.6543 113.918 84.3835 113.918 85.3086C113.918 86.2292 114.089 86.9401 114.431 87.4414C114.777 87.9427 115.301 88.1934 116.003 88.1934ZM126.503 81.5078V89H125.368V81.5078H126.503ZM125.949 78.7051C126.136 78.7051 126.296 78.7666 126.428 78.8896C126.564 79.0081 126.633 79.195 126.633 79.4502C126.633 79.7008 126.564 79.8877 126.428 80.0107C126.296 80.1338 126.136 80.1953 125.949 80.1953C125.753 80.1953 125.589 80.1338 125.457 80.0107C125.329 79.8877 125.266 79.7008 125.266 79.4502C125.266 79.195 125.329 79.0081 125.457 78.8896C125.589 78.7666 125.753 78.7051 125.949 78.7051ZM132.457 81.3711C133.346 81.3711 134.018 81.5898 134.474 82.0273C134.929 82.4603 135.157 83.1576 135.157 84.1191V89H134.036V84.1943C134.036 83.57 133.893 83.1029 133.605 82.793C133.323 82.4831 132.888 82.3281 132.3 82.3281C131.47 82.3281 130.887 82.5628 130.55 83.0322C130.213 83.5016 130.044 84.1829 130.044 85.0762V89H128.909V81.5078H129.825L129.996 82.5879H130.058C130.217 82.3236 130.42 82.1025 130.666 81.9248C130.912 81.7425 131.188 81.6058 131.493 81.5146C131.799 81.4189 132.12 81.3711 132.457 81.3711ZM146.806 81.3369C146.806 81.7835 146.719 82.1709 146.546 82.499C146.373 82.8271 146.131 83.096 145.821 83.3057C145.511 83.5107 145.147 83.6543 144.728 83.7363V83.791C145.521 83.8913 146.115 84.1465 146.512 84.5566C146.913 84.9668 147.113 85.5046 147.113 86.1699C147.113 86.7487 146.977 87.2614 146.703 87.708C146.434 88.1546 146.02 88.5055 145.459 88.7607C144.903 89.0114 144.19 89.1367 143.319 89.1367C142.791 89.1367 142.301 89.0934 141.85 89.0068C141.403 88.9248 140.975 88.7858 140.564 88.5898V87.5234C140.979 87.7285 141.43 87.8903 141.918 88.0088C142.406 88.1227 142.877 88.1797 143.333 88.1797C144.244 88.1797 144.903 87.9997 145.309 87.6396C145.714 87.2751 145.917 86.7783 145.917 86.1494C145.917 85.7165 145.803 85.3678 145.575 85.1035C145.352 84.8346 145.028 84.6387 144.604 84.5156C144.185 84.388 143.679 84.3242 143.087 84.3242H142.089V83.3535H143.094C143.636 83.3535 144.096 83.2738 144.475 83.1143C144.853 82.9548 145.14 82.7314 145.336 82.4443C145.536 82.1527 145.637 81.8086 145.637 81.4121C145.637 80.9062 145.468 80.5166 145.131 80.2432C144.794 79.9652 144.336 79.8262 143.757 79.8262C143.401 79.8262 143.078 79.8626 142.786 79.9355C142.494 80.0085 142.221 80.1087 141.966 80.2363C141.711 80.3639 141.455 80.512 141.2 80.6807L140.626 79.9014C140.991 79.6188 141.435 79.375 141.959 79.1699C142.483 78.9648 143.078 78.8623 143.743 78.8623C144.764 78.8623 145.53 79.0947 146.04 79.5596C146.55 80.0244 146.806 80.6169 146.806 81.3369ZM155.446 89.1367C154.498 89.1367 153.746 88.8132 153.19 88.166C152.639 87.5189 152.363 86.5573 152.363 85.2812C152.363 83.9915 152.646 83.0186 153.211 82.3623C153.776 81.7015 154.528 81.3711 155.467 81.3711C155.863 81.3711 156.21 81.4235 156.506 81.5283C156.802 81.6331 157.057 81.7744 157.271 81.9521C157.486 82.1253 157.666 82.3236 157.812 82.5469H157.894C157.875 82.4056 157.857 82.2119 157.839 81.9658C157.821 81.7197 157.812 81.5192 157.812 81.3643V78.3633H158.946V89H158.03L157.859 87.9336H157.812C157.67 88.1569 157.49 88.3597 157.271 88.542C157.057 88.7243 156.8 88.8701 156.499 88.9795C156.203 89.0843 155.852 89.1367 155.446 89.1367ZM155.624 88.1934C156.426 88.1934 156.993 87.9655 157.326 87.5098C157.659 87.054 157.825 86.3773 157.825 85.4795V85.2744C157.825 84.3219 157.666 83.5905 157.347 83.0801C157.032 82.5697 156.458 82.3145 155.624 82.3145C154.927 82.3145 154.405 82.5833 154.059 83.1211C153.712 83.6543 153.539 84.3835 153.539 85.3086C153.539 86.2292 153.71 86.9401 154.052 87.4414C154.398 87.9427 154.922 88.1934 155.624 88.1934ZM164.155 81.3848C165.049 81.3848 165.712 81.5853 166.145 81.9863C166.577 82.3874 166.794 83.0277 166.794 83.9072V89H165.967L165.748 87.8926H165.693C165.484 88.166 165.265 88.3962 165.037 88.583C164.809 88.7653 164.545 88.9043 164.244 89C163.948 89.0911 163.583 89.1367 163.15 89.1367C162.695 89.1367 162.289 89.057 161.934 88.8975C161.583 88.738 161.305 88.4964 161.1 88.1729C160.899 87.8493 160.799 87.4391 160.799 86.9424C160.799 86.195 161.095 85.6208 161.688 85.2197C162.28 84.8187 163.182 84.5999 164.395 84.5635L165.687 84.5088V84.0508C165.687 83.4036 165.548 82.9502 165.27 82.6904C164.992 82.4307 164.6 82.3008 164.094 82.3008C163.702 82.3008 163.328 82.3577 162.973 82.4717C162.617 82.5856 162.28 82.7201 161.961 82.875L161.612 82.0137C161.95 81.8405 162.337 81.6924 162.774 81.5693C163.212 81.4463 163.672 81.3848 164.155 81.3848ZM165.673 85.3086L164.531 85.3564C163.597 85.3929 162.938 85.5456 162.556 85.8145C162.173 86.0833 161.981 86.4639 161.981 86.9561C161.981 87.3844 162.111 87.7012 162.371 87.9062C162.631 88.1113 162.975 88.2139 163.403 88.2139C164.069 88.2139 164.613 88.0293 165.037 87.6602C165.461 87.291 165.673 86.7373 165.673 85.999V85.3086ZM167.949 81.5078H169.166L170.82 85.8555C170.916 86.1107 171.005 86.3568 171.087 86.5938C171.169 86.8262 171.242 87.0495 171.306 87.2637C171.369 87.4779 171.42 87.6852 171.456 87.8857H171.504C171.568 87.6579 171.659 87.3594 171.777 86.9902C171.896 86.6165 172.023 86.236 172.16 85.8486L173.726 81.5078H174.949L171.688 90.1006C171.515 90.5609 171.312 90.9619 171.08 91.3037C170.852 91.6455 170.574 91.9076 170.246 92.0898C169.918 92.2767 169.521 92.3701 169.057 92.3701C168.842 92.3701 168.653 92.3564 168.489 92.3291C168.325 92.3063 168.184 92.279 168.065 92.2471V91.3379C168.166 91.3607 168.286 91.3812 168.428 91.3994C168.574 91.4176 168.724 91.4268 168.879 91.4268C169.161 91.4268 169.405 91.3721 169.61 91.2627C169.82 91.1579 170 91.0029 170.15 90.7979C170.301 90.5928 170.431 90.349 170.54 90.0664L170.95 89.0137L167.949 81.5078ZM180.992 86.9492C180.992 87.4277 180.871 87.8311 180.63 88.1592C180.393 88.4827 180.051 88.7266 179.604 88.8906C179.162 89.0547 178.634 89.1367 178.019 89.1367C177.494 89.1367 177.041 89.0957 176.658 89.0137C176.275 88.9316 175.94 88.8154 175.653 88.665V87.6191C175.959 87.7695 176.323 87.9062 176.747 88.0293C177.171 88.1523 177.604 88.2139 178.046 88.2139C178.693 88.2139 179.162 88.109 179.454 87.8994C179.746 87.6898 179.892 87.4049 179.892 87.0449C179.892 86.8398 179.832 86.6598 179.714 86.5049C179.6 86.3454 179.406 86.1927 179.133 86.0469C178.859 85.8965 178.481 85.7324 177.998 85.5547C177.52 85.3724 177.105 85.1924 176.754 85.0146C176.408 84.8324 176.139 84.6113 175.947 84.3516C175.76 84.0918 175.667 83.7546 175.667 83.3398C175.667 82.7064 175.922 82.221 176.433 81.8838C176.948 81.542 177.622 81.3711 178.456 81.3711C178.907 81.3711 179.329 81.4167 179.721 81.5078C180.117 81.5944 180.486 81.7129 180.828 81.8633L180.445 82.7725C180.135 82.6403 179.805 82.5286 179.454 82.4375C179.103 82.3464 178.745 82.3008 178.381 82.3008C177.857 82.3008 177.453 82.3874 177.171 82.5605C176.893 82.7337 176.754 82.9707 176.754 83.2715C176.754 83.5039 176.818 83.6953 176.945 83.8457C177.077 83.9961 177.287 84.1374 177.574 84.2695C177.861 84.4017 178.24 84.5566 178.709 84.7344C179.178 84.9076 179.584 85.0876 179.926 85.2744C180.268 85.4567 180.53 85.68 180.712 85.9443C180.899 86.2041 180.992 86.5391 180.992 86.9492ZM187.479 86.2246H186.734L186.42 79.0059H187.794L187.479 86.2246ZM186.283 88.2891C186.283 87.9701 186.361 87.7445 186.516 87.6123C186.671 87.4756 186.864 87.4072 187.097 87.4072C187.325 87.4072 187.516 87.4756 187.671 87.6123C187.83 87.7445 187.91 87.9701 187.91 88.2891C187.91 88.6035 187.83 88.8337 187.671 88.9795C187.516 89.1208 187.325 89.1914 187.097 89.1914C186.864 89.1914 186.671 89.1208 186.516 88.9795C186.361 88.8337 186.283 88.6035 186.283 88.2891Z" fill="#333333"/>
<path d="M134.146 58.1875C134.292 58.1875 134.451 58.1953 134.623 58.2109C134.795 58.2266 134.943 58.2474 135.068 58.2734L134.896 59.9922C134.787 59.9609 134.652 59.9375 134.49 59.9219C134.334 59.9062 134.193 59.8984 134.068 59.8984C133.74 59.8984 133.428 59.9531 133.131 60.0625C132.834 60.1667 132.571 60.3281 132.342 60.5469C132.113 60.7604 131.933 61.0286 131.803 61.3516C131.673 61.6745 131.607 62.0495 131.607 62.4766V67H129.764V58.3516H131.201L131.451 59.875H131.537C131.709 59.5677 131.923 59.2865 132.178 59.0312C132.433 58.776 132.725 58.5729 133.053 58.4219C133.386 58.2656 133.751 58.1875 134.146 58.1875ZM140.115 58.1875C140.886 58.1875 141.548 58.3464 142.1 58.6641C142.652 58.9818 143.076 59.4323 143.373 60.0156C143.67 60.599 143.818 61.2969 143.818 62.1094V63.0938H138.045C138.066 63.9323 138.29 64.5781 138.717 65.0312C139.149 65.4844 139.753 65.7109 140.529 65.7109C141.081 65.7109 141.576 65.6589 142.014 65.5547C142.456 65.4453 142.912 65.2865 143.381 65.0781V66.5703C142.949 66.7734 142.508 66.9219 142.061 67.0156C141.613 67.1094 141.076 67.1562 140.451 67.1562C139.602 67.1562 138.855 66.9922 138.209 66.6641C137.568 66.3307 137.066 65.8359 136.701 65.1797C136.342 64.5234 136.162 63.7083 136.162 62.7344C136.162 61.7656 136.326 60.9427 136.654 60.2656C136.982 59.5885 137.443 59.0729 138.037 58.7188C138.631 58.3646 139.324 58.1875 140.115 58.1875ZM140.115 59.5703C139.537 59.5703 139.068 59.7578 138.709 60.1328C138.355 60.5078 138.146 61.0573 138.084 61.7812H142.021C142.016 61.349 141.943 60.9661 141.803 60.6328C141.667 60.2995 141.459 60.0391 141.178 59.8516C140.902 59.6641 140.548 59.5703 140.115 59.5703ZM148.357 70.8438C147.186 70.8438 146.287 70.6328 145.662 70.2109C145.037 69.7891 144.725 69.1979 144.725 68.4375C144.725 67.9062 144.891 67.4557 145.225 67.0859C145.558 66.7214 146.035 66.4688 146.654 66.3281C146.42 66.224 146.217 66.0625 146.045 65.8438C145.878 65.6198 145.795 65.3724 145.795 65.1016C145.795 64.7786 145.886 64.5026 146.068 64.2734C146.251 64.0443 146.524 63.8229 146.889 63.6094C146.436 63.4167 146.071 63.1042 145.795 62.6719C145.524 62.2344 145.389 61.7214 145.389 61.1328C145.389 60.5078 145.521 59.9766 145.787 59.5391C146.053 59.0964 146.441 58.7604 146.951 58.5312C147.462 58.2969 148.079 58.1797 148.803 58.1797C148.959 58.1797 149.128 58.1901 149.311 58.2109C149.498 58.2266 149.67 58.2474 149.826 58.2734C149.988 58.2943 150.11 58.3177 150.193 58.3438H153.186V59.3672L151.717 59.6406C151.857 59.8385 151.969 60.0651 152.053 60.3203C152.136 60.5703 152.178 60.8438 152.178 61.1406C152.178 62.0365 151.868 62.7422 151.248 63.2578C150.633 63.7682 149.785 64.0234 148.701 64.0234C148.441 64.013 148.188 63.9922 147.943 63.9609C147.756 64.0755 147.613 64.2031 147.514 64.3438C147.415 64.4792 147.365 64.6328 147.365 64.8047C147.365 64.9453 147.415 65.0599 147.514 65.1484C147.613 65.2318 147.758 65.2943 147.951 65.3359C148.149 65.3776 148.389 65.3984 148.67 65.3984H150.162C151.11 65.3984 151.834 65.599 152.334 66C152.834 66.401 153.084 66.9896 153.084 67.7656C153.084 68.75 152.678 69.5078 151.865 70.0391C151.053 70.5755 149.883 70.8438 148.357 70.8438ZM148.428 69.5547C149.068 69.5547 149.607 69.4922 150.045 69.3672C150.482 69.2422 150.813 69.0625 151.037 68.8281C151.261 68.599 151.373 68.3255 151.373 68.0078C151.373 67.7266 151.303 67.5104 151.162 67.3594C151.021 67.2083 150.811 67.1042 150.529 67.0469C150.248 66.9896 149.899 66.9609 149.482 66.9609H148.123C147.785 66.9609 147.485 67.013 147.225 67.1172C146.964 67.2266 146.761 67.3828 146.615 67.5859C146.475 67.7891 146.404 68.0339 146.404 68.3203C146.404 68.7161 146.579 69.0208 146.928 69.2344C147.282 69.4479 147.782 69.5547 148.428 69.5547ZM148.787 62.8203C149.324 62.8203 149.722 62.6745 149.982 62.3828C150.243 62.0859 150.373 61.6693 150.373 61.1328C150.373 60.5495 150.238 60.112 149.967 59.8203C149.701 59.5286 149.305 59.3828 148.779 59.3828C148.264 59.3828 147.87 59.5312 147.6 59.8281C147.334 60.125 147.201 60.5651 147.201 61.1484C147.201 61.6745 147.334 62.0859 147.6 62.3828C147.87 62.6745 148.266 62.8203 148.787 62.8203ZM156.6 58.3516V67H154.764V58.3516H156.6ZM155.693 55.0391C155.975 55.0391 156.217 55.1146 156.42 55.2656C156.628 55.4167 156.732 55.6771 156.732 56.0469C156.732 56.4115 156.628 56.6719 156.42 56.8281C156.217 56.9792 155.975 57.0547 155.693 57.0547C155.402 57.0547 155.154 56.9792 154.951 56.8281C154.753 56.6719 154.654 56.4115 154.654 56.0469C154.654 55.6771 154.753 55.4167 154.951 55.2656C155.154 55.1146 155.402 55.0391 155.693 55.0391ZM165.045 64.5312C165.045 65.099 164.907 65.5781 164.631 65.9688C164.355 66.3594 163.951 66.6562 163.42 66.8594C162.894 67.0573 162.248 67.1562 161.482 67.1562C160.878 67.1562 160.357 67.112 159.92 67.0234C159.488 66.9401 159.079 66.8099 158.693 66.6328V65.0469C159.105 65.2396 159.566 65.4062 160.076 65.5469C160.592 65.6875 161.079 65.7578 161.537 65.7578C162.141 65.7578 162.576 65.6641 162.842 65.4766C163.107 65.2839 163.24 65.0286 163.24 64.7109C163.24 64.5234 163.186 64.3568 163.076 64.2109C162.972 64.0599 162.774 63.9062 162.482 63.75C162.196 63.5885 161.774 63.3958 161.217 63.1719C160.67 62.9531 160.209 62.7344 159.834 62.5156C159.459 62.2969 159.175 62.0339 158.982 61.7266C158.79 61.4141 158.693 61.0156 158.693 60.5312C158.693 59.7656 158.995 59.1849 159.6 58.7891C160.209 58.388 161.014 58.1875 162.014 58.1875C162.545 58.1875 163.045 58.2422 163.514 58.3516C163.988 58.4557 164.451 58.6094 164.904 58.8125L164.326 60.1953C163.936 60.0234 163.542 59.8828 163.146 59.7734C162.756 59.6589 162.357 59.6016 161.951 59.6016C161.477 59.6016 161.115 59.6745 160.865 59.8203C160.62 59.9661 160.498 60.1745 160.498 60.4453C160.498 60.6484 160.558 60.8203 160.678 60.9609C160.798 61.1016 161.003 61.2422 161.295 61.3828C161.592 61.5234 162.003 61.6979 162.529 61.9062C163.045 62.1042 163.49 62.3125 163.865 62.5312C164.245 62.7448 164.537 63.0078 164.74 63.3203C164.943 63.6328 165.045 64.0365 165.045 64.5312ZM170.248 65.6719C170.488 65.6719 170.725 65.651 170.959 65.6094C171.193 65.5625 171.407 65.5078 171.6 65.4453V66.8359C171.396 66.9245 171.133 67 170.811 67.0625C170.488 67.125 170.152 67.1562 169.803 67.1562C169.313 67.1562 168.873 67.0755 168.482 66.9141C168.092 66.7474 167.782 66.4635 167.553 66.0625C167.324 65.6615 167.209 65.1068 167.209 64.3984V59.75H166.029V58.9297L167.295 58.2812L167.896 56.4297H169.053V58.3516H171.529V59.75H169.053V64.375C169.053 64.8125 169.162 65.138 169.381 65.3516C169.6 65.5651 169.889 65.6719 170.248 65.6719ZM177.74 58.1875C177.886 58.1875 178.045 58.1953 178.217 58.2109C178.389 58.2266 178.537 58.2474 178.662 58.2734L178.49 59.9922C178.381 59.9609 178.245 59.9375 178.084 59.9219C177.928 59.9062 177.787 59.8984 177.662 59.8984C177.334 59.8984 177.021 59.9531 176.725 60.0625C176.428 60.1667 176.165 60.3281 175.936 60.5469C175.706 60.7604 175.527 61.0286 175.396 61.3516C175.266 61.6745 175.201 62.0495 175.201 62.4766V67H173.357V58.3516H174.795L175.045 59.875H175.131C175.303 59.5677 175.516 59.2865 175.771 59.0312C176.027 58.776 176.318 58.5729 176.646 58.4219C176.98 58.2656 177.344 58.1875 177.74 58.1875ZM183.654 58.1875C184.748 58.1875 185.574 58.4297 186.131 58.9141C186.693 59.3984 186.975 60.1536 186.975 61.1797V67H185.67L185.318 65.7734H185.256C185.011 66.0859 184.758 66.3438 184.498 66.5469C184.238 66.75 183.936 66.901 183.592 67C183.253 67.1042 182.839 67.1562 182.35 67.1562C181.834 67.1562 181.373 67.0625 180.967 66.875C180.561 66.6823 180.24 66.3906 180.006 66C179.771 65.6094 179.654 65.1146 179.654 64.5156C179.654 63.625 179.985 62.9557 180.646 62.5078C181.313 62.0599 182.318 61.8125 183.662 61.7656L185.162 61.7109V61.2578C185.162 60.6589 185.021 60.2318 184.74 59.9766C184.464 59.7214 184.074 59.5938 183.568 59.5938C183.136 59.5938 182.717 59.6562 182.311 59.7812C181.904 59.9062 181.508 60.0599 181.123 60.2422L180.529 58.9453C180.951 58.7214 181.43 58.5391 181.967 58.3984C182.508 58.2578 183.071 58.1875 183.654 58.1875ZM185.154 62.8672L184.037 62.9062C183.12 62.9375 182.477 63.0938 182.107 63.375C181.738 63.6562 181.553 64.0417 181.553 64.5312C181.553 64.9583 181.68 65.2708 181.936 65.4688C182.191 65.6615 182.527 65.7578 182.943 65.7578C183.579 65.7578 184.105 65.5781 184.521 65.2188C184.943 64.8542 185.154 64.3203 185.154 63.6172V62.8672ZM192.764 65.6719C193.003 65.6719 193.24 65.651 193.475 65.6094C193.709 65.5625 193.923 65.5078 194.115 65.4453V66.8359C193.912 66.9245 193.649 67 193.326 67.0625C193.003 67.125 192.667 67.1562 192.318 67.1562C191.829 67.1562 191.389 67.0755 190.998 66.9141C190.607 66.7474 190.298 66.4635 190.068 66.0625C189.839 65.6615 189.725 65.1068 189.725 64.3984V59.75H188.545V58.9297L189.811 58.2812L190.412 56.4297H191.568V58.3516H194.045V59.75H191.568V64.375C191.568 64.8125 191.678 65.138 191.896 65.3516C192.115 65.5651 192.404 65.6719 192.764 65.6719ZM197.709 58.3516V67H195.873V58.3516H197.709ZM196.803 55.0391C197.084 55.0391 197.326 55.1146 197.529 55.2656C197.738 55.4167 197.842 55.6771 197.842 56.0469C197.842 56.4115 197.738 56.6719 197.529 56.8281C197.326 56.9792 197.084 57.0547 196.803 57.0547C196.511 57.0547 196.264 56.9792 196.061 56.8281C195.863 56.6719 195.764 56.4115 195.764 56.0469C195.764 55.6771 195.863 55.4167 196.061 55.2656C196.264 55.1146 196.511 55.0391 196.803 55.0391ZM207.998 62.6562C207.998 63.375 207.904 64.013 207.717 64.5703C207.529 65.1276 207.256 65.599 206.896 65.9844C206.537 66.3646 206.105 66.6562 205.6 66.8594C205.094 67.0573 204.524 67.1562 203.889 67.1562C203.295 67.1562 202.751 67.0573 202.256 66.8594C201.761 66.6562 201.331 66.3646 200.967 65.9844C200.607 65.599 200.329 65.1276 200.131 64.5703C199.933 64.013 199.834 63.375 199.834 62.6562C199.834 61.7031 199.998 60.8958 200.326 60.2344C200.66 59.5677 201.133 59.0599 201.748 58.7109C202.363 58.362 203.094 58.1875 203.943 58.1875C204.74 58.1875 205.443 58.362 206.053 58.7109C206.662 59.0599 207.139 59.5677 207.482 60.2344C207.826 60.901 207.998 61.7083 207.998 62.6562ZM201.725 62.6562C201.725 63.2865 201.8 63.8255 201.951 64.2734C202.107 64.7214 202.347 65.0651 202.67 65.3047C202.993 65.5391 203.41 65.6562 203.92 65.6562C204.43 65.6562 204.847 65.5391 205.17 65.3047C205.493 65.0651 205.73 64.7214 205.881 64.2734C206.032 63.8255 206.107 63.2865 206.107 62.6562C206.107 62.026 206.032 61.4922 205.881 61.0547C205.73 60.612 205.493 60.276 205.17 60.0469C204.847 59.8125 204.428 59.6953 203.912 59.6953C203.152 59.6953 202.597 59.9505 202.248 60.4609C201.899 60.9714 201.725 61.7031 201.725 62.6562ZM214.615 58.1875C215.589 58.1875 216.347 58.4401 216.889 58.9453C217.436 59.4453 217.709 60.25 217.709 61.3594V67H215.873V61.7031C215.873 61.0312 215.735 60.5286 215.459 60.1953C215.183 59.8568 214.756 59.6875 214.178 59.6875C213.339 59.6875 212.756 59.9453 212.428 60.4609C212.105 60.9766 211.943 61.724 211.943 62.7031V67H210.107V58.3516H211.537L211.795 59.5234H211.896C212.084 59.2214 212.316 58.974 212.592 58.7812C212.873 58.5833 213.186 58.4349 213.529 58.3359C213.878 58.237 214.24 58.1875 214.615 58.1875ZM226.092 64.5312C226.092 65.099 225.954 65.5781 225.678 65.9688C225.402 66.3594 224.998 66.6562 224.467 66.8594C223.941 67.0573 223.295 67.1562 222.529 67.1562C221.925 67.1562 221.404 67.112 220.967 67.0234C220.535 66.9401 220.126 66.8099 219.74 66.6328V65.0469C220.152 65.2396 220.613 65.4062 221.123 65.5469C221.639 65.6875 222.126 65.7578 222.584 65.7578C223.188 65.7578 223.623 65.6641 223.889 65.4766C224.154 65.2839 224.287 65.0286 224.287 64.7109C224.287 64.5234 224.232 64.3568 224.123 64.2109C224.019 64.0599 223.821 63.9062 223.529 63.75C223.243 63.5885 222.821 63.3958 222.264 63.1719C221.717 62.9531 221.256 62.7344 220.881 62.5156C220.506 62.2969 220.222 62.0339 220.029 61.7266C219.837 61.4141 219.74 61.0156 219.74 60.5312C219.74 59.7656 220.042 59.1849 220.646 58.7891C221.256 58.388 222.061 58.1875 223.061 58.1875C223.592 58.1875 224.092 58.2422 224.561 58.3516C225.035 58.4557 225.498 58.6094 225.951 58.8125L225.373 60.1953C224.982 60.0234 224.589 59.8828 224.193 59.7734C223.803 59.6589 223.404 59.6016 222.998 59.6016C222.524 59.6016 222.162 59.6745 221.912 59.8203C221.667 59.9661 221.545 60.1745 221.545 60.4453C221.545 60.6484 221.605 60.8203 221.725 60.9609C221.844 61.1016 222.05 61.2422 222.342 61.3828C222.639 61.5234 223.05 61.6979 223.576 61.9062C224.092 62.1042 224.537 62.3125 224.912 62.5312C225.292 62.7448 225.584 63.0078 225.787 63.3203C225.99 63.6328 226.092 64.0365 226.092 64.5312Z" fill="#2D65F2"/>
</g>
<defs>
<filter id="filter0_d_8926_58218" x="0.2" y="0.2" width="272.6" height="117.6" filterUnits="userSpaceOnUse" color-interpolation-filters="sRGB">
<feFlood flood-opacity="0" result="BackgroundImageFix"/>
<feColorMatrix in="SourceAlpha" type="matrix" values="0 0 0 0 0 0 0 0 0 0 0 0 0 0 0 0 0 0 127 0" result="hardAlpha"/>
<feOffset dy="2"/>
<feGaussianBlur stdDeviation="2.4"/>
<feComposite in2="hardAlpha" operator="out"/>
<feColorMatrix type="matrix" values="0 0 0 0 0 0 0 0 0 0 0 0 0 0 0 0 0 0 0.2 0"/>
<feBlend mode="normal" in2="BackgroundImageFix" result="effect1_dropShadow_8926_58218"/>
<feBlend mode="normal" in="SourceGraphic" in2="effect1_dropShadow_8926_58218" result="shape"/>
</filter>
</defs>
</svg>
