<svg width="345" height="246" viewBox="0 0 345 246" fill="none" xmlns="http://www.w3.org/2000/svg">
<g filter="url(#filter0_f_8926_58194)">
<rect x="22" y="41" width="301" height="183" rx="12.8391" fill="black" fillOpacity="0.15"/>
</g>
<rect x="16" width="300" height="214" rx="16" fill="white"/>
<path d="M41.8686 22.3828H39.6911C39.6513 22.1011 39.5701 21.8509 39.4474 21.6321C39.3248 21.41 39.1674 21.2211 38.9751 21.0653C38.7829 20.9096 38.5608 20.7902 38.3089 20.7074C38.0604 20.6245 37.7902 20.5831 37.4986 20.5831C36.9716 20.5831 36.5125 20.714 36.1214 20.9759C35.7304 21.2344 35.4271 21.6122 35.2116 22.1094C34.9962 22.6032 34.8885 23.2031 34.8885 23.9091C34.8885 24.6349 34.9962 25.2448 35.2116 25.7386C35.4304 26.2325 35.7353 26.6054 36.1264 26.8572C36.5175 27.1091 36.9699 27.2351 37.4837 27.2351C37.772 27.2351 38.0388 27.197 38.2841 27.1207C38.5327 27.0445 38.7531 26.9335 38.9453 26.7876C39.1375 26.6385 39.2966 26.4579 39.4226 26.2457C39.5518 26.0336 39.6413 25.7917 39.6911 25.5199L41.8686 25.5298C41.8123 25.9972 41.6714 26.4479 41.446 26.8821C41.224 27.313 40.924 27.6991 40.5462 28.0405C40.1716 28.3786 39.7242 28.647 39.2038 28.8459C38.6868 29.0414 38.1018 29.1392 37.4489 29.1392C36.5407 29.1392 35.7287 28.9337 35.0128 28.5227C34.3002 28.1117 33.7367 27.5168 33.3224 26.7379C32.9115 25.959 32.706 25.0161 32.706 23.9091C32.706 22.7988 32.9148 21.8542 33.3324 21.0753C33.75 20.2964 34.3168 19.7031 35.0327 19.2955C35.7486 18.8845 36.554 18.679 37.4489 18.679C38.0388 18.679 38.5857 18.7618 39.0895 18.9276C39.5966 19.0933 40.0457 19.3352 40.4368 19.6534C40.8279 19.9683 41.1461 20.3544 41.3913 20.8118C41.6399 21.2692 41.799 21.7929 41.8686 22.3828ZM45.4904 24.5852V29H43.3725V18.8182H45.4308V22.7109H45.5202C45.6926 22.2602 45.971 21.9072 46.3555 21.652C46.7399 21.3935 47.2222 21.2642 47.8022 21.2642C48.3325 21.2642 48.7949 21.3802 49.1893 21.6122C49.587 21.8409 49.8952 22.1707 50.114 22.6016C50.3361 23.0291 50.4454 23.5412 50.4421 24.1378V29H48.3242V24.5156C48.3275 24.045 48.2082 23.6787 47.9663 23.4169C47.7276 23.1551 47.3929 23.0241 46.962 23.0241C46.6737 23.0241 46.4184 23.0855 46.1964 23.2081C45.9776 23.3307 45.8053 23.5097 45.6793 23.745C45.5567 23.977 45.4937 24.2571 45.4904 24.5852ZM54.2864 29.1442C53.7992 29.1442 53.365 29.0597 52.9838 28.8906C52.6027 28.7183 52.3011 28.4647 52.079 28.13C51.8603 27.7919 51.7509 27.371 51.7509 26.8672C51.7509 26.4429 51.8288 26.0866 51.9846 25.7983C52.1403 25.5099 52.3525 25.2779 52.6209 25.1023C52.8894 24.9266 53.1943 24.794 53.5357 24.7045C53.8804 24.6151 54.2417 24.5521 54.6195 24.5156C55.0636 24.4692 55.4216 24.4261 55.6934 24.3864C55.9651 24.3433 56.1623 24.2803 56.285 24.1974C56.4076 24.1146 56.4689 23.992 56.4689 23.8295V23.7997C56.4689 23.4848 56.3695 23.2412 56.1706 23.0689C55.9751 22.8965 55.6967 22.8104 55.3354 22.8104C54.9542 22.8104 54.651 22.8949 54.4256 23.0639C54.2002 23.2296 54.0511 23.4384 53.9782 23.6903L52.0194 23.5312C52.1188 23.0672 52.3143 22.6662 52.606 22.3281C52.8977 21.9867 53.2739 21.7249 53.7346 21.5426C54.1986 21.357 54.7355 21.2642 55.3453 21.2642C55.7696 21.2642 56.1756 21.3139 56.5634 21.4134C56.9545 21.5128 57.3008 21.6669 57.6025 21.8757C57.9074 22.0845 58.1477 22.353 58.3233 22.6811C58.499 23.0059 58.5868 23.3954 58.5868 23.8494V29H56.5783V27.9411H56.5186C56.396 28.1797 56.2319 28.3902 56.0265 28.5724C55.821 28.7514 55.574 28.8923 55.2857 28.995C54.9973 29.0945 54.6642 29.1442 54.2864 29.1442ZM54.8929 27.6825C55.2045 27.6825 55.4796 27.6212 55.7182 27.4986C55.9569 27.3726 56.1441 27.2036 56.28 26.9915C56.4159 26.7794 56.4838 26.5391 56.4838 26.2706V25.4602C56.4176 25.5033 56.3264 25.5431 56.2104 25.5795C56.0977 25.6127 55.9701 25.6442 55.8276 25.674C55.6851 25.7005 55.5426 25.7254 55.4 25.7486C55.2575 25.7685 55.1283 25.7867 55.0123 25.8033C54.7637 25.8397 54.5466 25.8977 54.361 25.9773C54.1754 26.0568 54.0312 26.1645 53.9284 26.3004C53.8257 26.433 53.7743 26.5987 53.7743 26.7976C53.7743 27.0859 53.8787 27.3063 54.0875 27.4588C54.2997 27.608 54.5681 27.6825 54.8929 27.6825ZM64.2917 21.3636V22.9545H59.693V21.3636H64.2917ZM60.737 19.5341H62.8549V26.6534C62.8549 26.849 62.8848 27.0014 62.9444 27.1108C63.0041 27.2169 63.0869 27.2914 63.193 27.3345C63.3024 27.3776 63.4283 27.3991 63.5708 27.3991C63.6703 27.3991 63.7697 27.3909 63.8691 27.3743C63.9686 27.3544 64.0448 27.3395 64.0978 27.3295L64.4309 28.9055C64.3249 28.9387 64.1757 28.9768 63.9835 29.0199C63.7913 29.0663 63.5576 29.0945 63.2825 29.1044C62.7721 29.1243 62.3246 29.0563 61.9402 28.9006C61.559 28.7448 61.2624 28.5028 61.0502 28.1747C60.8381 27.8466 60.7337 27.4323 60.737 26.9318V19.5341ZM70.418 29L68.3398 21.3636H70.4826L71.6658 26.4943H71.7354L72.9684 21.3636H75.0714L76.3242 26.4645H76.3888L77.5522 21.3636H79.69L77.6168 29H75.3746L74.0621 24.1974H73.9677L72.6552 29H70.418ZM80.8198 29V21.3636H82.9377V29H80.8198ZM81.8837 20.3793C81.5688 20.3793 81.2987 20.2749 81.0733 20.0661C80.8513 19.8539 80.7402 19.6004 80.7402 19.3054C80.7402 19.0137 80.8513 18.7635 81.0733 18.5547C81.2987 18.3426 81.5688 18.2365 81.8837 18.2365C82.1986 18.2365 82.467 18.3426 82.6891 18.5547C82.9145 18.7635 83.0272 19.0137 83.0272 19.3054C83.0272 19.6004 82.9145 19.8539 82.6891 20.0661C82.467 20.2749 82.1986 20.3793 81.8837 20.3793ZM88.696 21.3636V22.9545H84.0973V21.3636H88.696ZM85.1413 19.5341H87.2592V26.6534C87.2592 26.849 87.2891 27.0014 87.3487 27.1108C87.4084 27.2169 87.4912 27.2914 87.5973 27.3345C87.7067 27.3776 87.8326 27.3991 87.9751 27.3991C88.0746 27.3991 88.174 27.3909 88.2734 27.3743C88.3729 27.3544 88.4491 27.3395 88.5021 27.3295L88.8352 28.9055C88.7292 28.9387 88.58 28.9768 88.3878 29.0199C88.1955 29.0663 87.9619 29.0945 87.6868 29.1044C87.1764 29.1243 86.7289 29.0563 86.3445 28.9006C85.9633 28.7448 85.6667 28.5028 85.4545 28.1747C85.2424 27.8466 85.138 27.4323 85.1413 26.9318V19.5341ZM92.3576 24.5852V29H90.2397V18.8182H92.2979V22.7109H92.3874C92.5598 22.2602 92.8382 21.9072 93.2227 21.652C93.6071 21.3935 94.0894 21.2642 94.6694 21.2642C95.1997 21.2642 95.6621 21.3802 96.0565 21.6122C96.4542 21.8409 96.7624 22.1707 96.9812 22.6016C97.2032 23.0291 97.3126 23.5412 97.3093 24.1378V29H95.1914V24.5156C95.1947 24.045 95.0754 23.6787 94.8335 23.4169C94.5948 23.1551 94.2601 23.0241 93.8292 23.0241C93.5408 23.0241 93.2856 23.0855 93.0636 23.2081C92.8448 23.3307 92.6725 23.5097 92.5465 23.745C92.4239 23.977 92.3609 24.2571 92.3576 24.5852Z" fill="#333333"/>
<path d="M102.256 29V18.8182H106.333C107.082 18.8182 107.707 18.9292 108.207 19.1513C108.708 19.3733 109.084 19.6816 109.336 20.076C109.587 20.4671 109.713 20.9179 109.713 21.4283C109.713 21.826 109.634 22.1757 109.475 22.4773C109.316 22.7756 109.097 23.0208 108.819 23.2131C108.543 23.402 108.229 23.5362 107.874 23.6158V23.7152C108.262 23.7318 108.625 23.8411 108.963 24.0433C109.304 24.2455 109.581 24.5289 109.793 24.8935C110.005 25.2547 110.111 25.6856 110.111 26.1861C110.111 26.7263 109.977 27.2086 109.708 27.6328C109.443 28.0537 109.051 28.3868 108.53 28.6321C108.01 28.8774 107.368 29 106.606 29H102.256ZM104.409 27.2401H106.164C106.764 27.2401 107.201 27.1257 107.476 26.897C107.751 26.665 107.889 26.3568 107.889 25.9723C107.889 25.6906 107.821 25.442 107.685 25.2266C107.549 25.0111 107.355 24.8421 107.103 24.7195C106.855 24.5968 106.558 24.5355 106.213 24.5355H104.409V27.2401ZM104.409 23.0788H106.005C106.3 23.0788 106.561 23.0275 106.79 22.9247C107.022 22.8187 107.204 22.6695 107.337 22.4773C107.473 22.285 107.541 22.0547 107.541 21.7862C107.541 21.4183 107.41 21.1217 107.148 20.8963C106.89 20.6709 106.522 20.5582 106.044 20.5582H104.409V23.0788ZM111.512 29V18.8182H118.373V20.593H113.665V23.0192H118.02V24.794H113.665V27.2251H118.393V29H111.512ZM120.084 29V18.8182H126.945V20.593H122.237V23.0192H126.592V24.794H122.237V27.2251H126.965V29H120.084Z" fill="#2D65F2"/>
<path d="M92 62C92 56.4772 96.4772 52 102 52H265C270.523 52 275 56.4772 275 62V98H102C96.4772 98 92 93.5228 92 88V62Z" fill="#FEFAF0"/>
<path d="M111.996 64.1475L109.896 72H108.977L107.419 66.7148C107.373 66.5645 107.328 66.4141 107.285 66.2637C107.246 66.1097 107.208 65.9647 107.172 65.8286C107.137 65.689 107.106 65.5672 107.081 65.4634C107.06 65.356 107.043 65.2754 107.033 65.2217C107.026 65.2754 107.011 65.3542 106.99 65.458C106.972 65.5618 106.947 65.6818 106.915 65.8179C106.886 65.9539 106.85 66.099 106.807 66.2529C106.768 66.4069 106.725 66.5627 106.678 66.7202L105.164 72H104.245L102.161 64.1475H103.112L104.374 69.0728C104.417 69.2375 104.456 69.4004 104.492 69.5615C104.532 69.7191 104.566 69.873 104.594 70.0234C104.626 70.1738 104.655 70.3206 104.68 70.4639C104.705 70.6071 104.729 70.7467 104.75 70.8828C104.768 70.7432 104.791 70.5981 104.82 70.4478C104.848 70.2938 104.879 70.138 104.911 69.9805C104.947 69.8229 104.985 69.6636 105.024 69.5024C105.067 69.3413 105.112 69.1802 105.158 69.019L106.571 64.1475H107.511L108.982 69.0566C109.033 69.2249 109.079 69.3914 109.122 69.5562C109.165 69.7209 109.203 69.882 109.235 70.0396C109.271 70.1935 109.301 70.3421 109.326 70.4854C109.355 70.625 109.38 70.7575 109.401 70.8828C109.426 70.7074 109.457 70.5229 109.493 70.3296C109.528 70.1362 109.57 69.9339 109.616 69.7227C109.666 69.5114 109.72 69.293 109.777 69.0674L111.04 64.1475H111.996ZM113.994 63.6426V66.1401C113.994 66.2834 113.99 66.4284 113.983 66.5752C113.976 66.7184 113.963 66.8509 113.945 66.9727H114.004C114.126 66.765 114.28 66.5913 114.466 66.4517C114.656 66.3084 114.871 66.201 115.111 66.1294C115.351 66.0542 115.605 66.0166 115.874 66.0166C116.346 66.0166 116.74 66.0918 117.055 66.2422C117.374 66.3926 117.612 66.6253 117.77 66.9404C117.931 67.2555 118.011 67.6637 118.011 68.165V72H117.13V68.2241C117.13 67.7336 117.018 67.3665 116.792 67.123C116.57 66.8796 116.228 66.7578 115.766 66.7578C115.329 66.7578 114.98 66.842 114.719 67.0103C114.461 67.175 114.275 67.4185 114.16 67.7407C114.049 68.063 113.994 68.4569 113.994 68.9224V72H113.102V63.6426H113.994ZM122.05 66.0166C122.752 66.0166 123.273 66.1742 123.613 66.4893C123.953 66.8044 124.124 67.3075 124.124 67.9985V72H123.474L123.302 71.1299H123.259C123.094 71.3447 122.922 71.5256 122.743 71.6724C122.564 71.8156 122.356 71.9248 122.12 72C121.887 72.0716 121.601 72.1074 121.261 72.1074C120.903 72.1074 120.584 72.0448 120.305 71.9194C120.029 71.7941 119.811 71.6043 119.649 71.3501C119.492 71.0959 119.413 70.7736 119.413 70.3833C119.413 69.7961 119.646 69.3449 120.111 69.0298C120.577 68.7147 121.286 68.5428 122.238 68.5142L123.253 68.4712V68.1113C123.253 67.6029 123.144 67.2466 122.926 67.0425C122.707 66.8384 122.399 66.7363 122.002 66.7363C121.694 66.7363 121.4 66.7811 121.121 66.8706C120.842 66.9601 120.577 67.0658 120.326 67.1875L120.052 66.5107C120.317 66.3747 120.622 66.2583 120.965 66.1616C121.309 66.0649 121.671 66.0166 122.05 66.0166ZM123.243 69.0996L122.346 69.1372C121.612 69.1659 121.094 69.2858 120.793 69.4971C120.493 69.7083 120.342 70.0073 120.342 70.394C120.342 70.7306 120.444 70.9795 120.648 71.1406C120.853 71.3018 121.123 71.3823 121.459 71.3823C121.982 71.3823 122.41 71.2373 122.743 70.9473C123.076 70.6572 123.243 70.2222 123.243 69.6421V69.0996ZM127.862 71.377C128.009 71.377 128.159 71.3644 128.313 71.3394C128.467 71.3143 128.592 71.2839 128.689 71.248V71.9409C128.585 71.9875 128.44 72.0269 128.254 72.0591C128.071 72.0913 127.892 72.1074 127.717 72.1074C127.405 72.1074 127.122 72.0537 126.868 71.9463C126.614 71.8353 126.41 71.6491 126.256 71.3877C126.105 71.1263 126.03 70.7646 126.03 70.3027V66.8115H125.192V66.3765L126.036 66.0273L126.39 64.749H126.927V66.1133H128.651V66.8115H126.927V70.2759C126.927 70.6447 127.011 70.9204 127.18 71.103C127.352 71.2856 127.579 71.377 127.862 71.377ZM130.585 64.1475L130.666 64.2656C130.601 64.527 130.519 64.8081 130.418 65.1089C130.318 65.4061 130.209 65.7033 130.091 66.0005C129.973 66.2977 129.854 66.577 129.736 66.8384H129.081C129.135 66.6343 129.188 66.4159 129.242 66.1831C129.299 65.9504 129.353 65.714 129.403 65.4741C129.453 65.2342 129.498 65.0015 129.538 64.7759C129.581 64.5503 129.616 64.3408 129.645 64.1475H130.585ZM135.559 70.3887C135.559 70.7646 135.464 71.0815 135.274 71.3394C135.088 71.5936 134.819 71.7852 134.468 71.9141C134.121 72.043 133.706 72.1074 133.222 72.1074C132.81 72.1074 132.454 72.0752 132.153 72.0107C131.853 71.9463 131.589 71.855 131.364 71.7368V70.915C131.604 71.0332 131.89 71.1406 132.223 71.2373C132.556 71.334 132.896 71.3823 133.244 71.3823C133.752 71.3823 134.121 71.3 134.35 71.1353C134.579 70.9705 134.694 70.7467 134.694 70.4639C134.694 70.3027 134.647 70.1613 134.554 70.0396C134.465 69.9142 134.312 69.7943 134.098 69.6797C133.883 69.5615 133.586 69.4326 133.206 69.293C132.83 69.1497 132.504 69.0083 132.229 68.8687C131.956 68.7254 131.745 68.5518 131.595 68.3477C131.448 68.1436 131.375 67.8786 131.375 67.5527C131.375 67.055 131.575 66.6737 131.976 66.4087C132.381 66.1401 132.911 66.0059 133.566 66.0059C133.92 66.0059 134.252 66.0417 134.56 66.1133C134.871 66.1813 135.161 66.2744 135.43 66.3926L135.129 67.1069C134.885 67.0031 134.626 66.9154 134.35 66.8438C134.074 66.7721 133.793 66.7363 133.507 66.7363C133.095 66.7363 132.778 66.8044 132.556 66.9404C132.338 67.0765 132.229 67.2627 132.229 67.499C132.229 67.6816 132.279 67.832 132.379 67.9502C132.483 68.0684 132.647 68.1794 132.873 68.2832C133.099 68.387 133.396 68.5088 133.765 68.6484C134.133 68.7845 134.452 68.9259 134.721 69.0728C134.989 69.216 135.195 69.3914 135.338 69.5991C135.485 69.8032 135.559 70.0664 135.559 70.3887ZM141.751 71.377C141.898 71.377 142.049 71.3644 142.203 71.3394C142.357 71.3143 142.482 71.2839 142.579 71.248V71.9409C142.475 71.9875 142.33 72.0269 142.144 72.0591C141.961 72.0913 141.782 72.1074 141.606 72.1074C141.295 72.1074 141.012 72.0537 140.758 71.9463C140.504 71.8353 140.299 71.6491 140.146 71.3877C139.995 71.1263 139.92 70.7646 139.92 70.3027V66.8115H139.082V66.3765L139.925 66.0273L140.28 64.749H140.817V66.1133H142.541V66.8115H140.817V70.2759C140.817 70.6447 140.901 70.9204 141.069 71.103C141.241 71.2856 141.469 71.377 141.751 71.377ZM144.663 63.6426V66.1401C144.663 66.2834 144.659 66.4284 144.652 66.5752C144.645 66.7184 144.632 66.8509 144.614 66.9727H144.673C144.795 66.765 144.949 66.5913 145.135 66.4517C145.325 66.3084 145.54 66.201 145.78 66.1294C146.02 66.0542 146.274 66.0166 146.542 66.0166C147.015 66.0166 147.409 66.0918 147.724 66.2422C148.043 66.3926 148.281 66.6253 148.438 66.9404C148.6 67.2555 148.68 67.6637 148.68 68.165V72H147.799V68.2241C147.799 67.7336 147.687 67.3665 147.461 67.123C147.239 66.8796 146.897 66.7578 146.435 66.7578C145.998 66.7578 145.649 66.842 145.388 67.0103C145.13 67.175 144.944 67.4185 144.829 67.7407C144.718 68.063 144.663 68.4569 144.663 68.9224V72H143.771V63.6426H144.663ZM152.784 66.0059C153.285 66.0059 153.715 66.1169 154.073 66.3389C154.431 66.5609 154.705 66.8724 154.895 67.2734C155.084 67.6709 155.179 68.1364 155.179 68.6699V69.2231H151.113C151.124 69.9142 151.296 70.4406 151.629 70.8022C151.962 71.1639 152.431 71.3447 153.036 71.3447C153.409 71.3447 153.738 71.3107 154.024 71.2427C154.311 71.1746 154.608 71.0744 154.916 70.9419V71.7261C154.619 71.8586 154.323 71.9552 154.03 72.0161C153.74 72.077 153.396 72.1074 152.999 72.1074C152.433 72.1074 151.939 71.9928 151.516 71.7637C151.097 71.5309 150.771 71.1908 150.539 70.7432C150.306 70.2956 150.189 69.7477 150.189 69.0996C150.189 68.4658 150.295 67.918 150.506 67.4561C150.721 66.9906 151.022 66.6325 151.409 66.3818C151.799 66.1312 152.257 66.0059 152.784 66.0059ZM152.773 66.7363C152.297 66.7363 151.917 66.8921 151.634 67.2036C151.351 67.5151 151.183 67.9502 151.129 68.5088H154.245C154.241 68.1579 154.186 67.8499 154.078 67.585C153.974 67.3164 153.815 67.1087 153.6 66.9619C153.385 66.8115 153.11 66.7363 152.773 66.7363ZM161.909 72.1074C161.379 72.1074 160.912 71.9982 160.507 71.7798C160.103 71.5614 159.788 71.2284 159.562 70.7808C159.336 70.3332 159.224 69.7692 159.224 69.0889C159.224 68.3763 159.342 67.7944 159.578 67.3433C159.818 66.8885 160.147 66.5519 160.566 66.3335C160.985 66.1151 161.462 66.0059 161.995 66.0059C162.289 66.0059 162.572 66.0363 162.844 66.0972C163.119 66.1545 163.345 66.2279 163.521 66.3174L163.252 67.064C163.073 66.9924 162.865 66.9279 162.629 66.8706C162.396 66.8133 162.178 66.7847 161.974 66.7847C161.565 66.7847 161.225 66.8724 160.953 67.0479C160.685 67.2233 160.482 67.4811 160.346 67.8213C160.214 68.1615 160.147 68.5804 160.147 69.0781C160.147 69.5544 160.212 69.9608 160.341 70.2974C160.473 70.634 160.668 70.8918 160.926 71.0708C161.188 71.2463 161.514 71.334 161.904 71.334C162.215 71.334 162.496 71.3018 162.747 71.2373C162.998 71.1693 163.225 71.0905 163.429 71.001V71.7959C163.232 71.8962 163.012 71.9731 162.769 72.0269C162.529 72.0806 162.242 72.1074 161.909 72.1074ZM169.901 69.0459C169.901 69.5293 169.839 69.9608 169.713 70.3403C169.588 70.7199 169.407 71.0404 169.171 71.3018C168.935 71.5632 168.648 71.7637 168.312 71.9033C167.979 72.0394 167.601 72.1074 167.178 72.1074C166.784 72.1074 166.423 72.0394 166.093 71.9033C165.767 71.7637 165.485 71.5632 165.245 71.3018C165.008 71.0404 164.824 70.7199 164.691 70.3403C164.562 69.9608 164.498 69.5293 164.498 69.0459C164.498 68.4014 164.607 67.8535 164.826 67.4023C165.044 66.9476 165.356 66.6021 165.76 66.3657C166.168 66.1258 166.654 66.0059 167.216 66.0059C167.753 66.0059 168.222 66.1258 168.623 66.3657C169.028 66.6056 169.341 66.953 169.563 67.4077C169.789 67.8589 169.901 68.4049 169.901 69.0459ZM165.422 69.0459C165.422 69.5186 165.485 69.9285 165.61 70.2759C165.735 70.6232 165.929 70.8918 166.19 71.0815C166.451 71.2713 166.788 71.3662 167.2 71.3662C167.608 71.3662 167.943 71.2713 168.204 71.0815C168.469 70.8918 168.664 70.6232 168.79 70.2759C168.915 69.9285 168.978 69.5186 168.978 69.0459C168.978 68.5768 168.915 68.1722 168.79 67.832C168.664 67.4883 168.471 67.2233 168.209 67.0371C167.948 66.8509 167.61 66.7578 167.194 66.7578C166.582 66.7578 166.133 66.9601 165.846 67.3647C165.563 67.7694 165.422 68.3298 165.422 69.0459ZM177.834 66.0059C178.483 66.0059 178.971 66.1759 179.301 66.5161C179.63 66.8527 179.795 67.3952 179.795 68.1436V72H178.914V68.1865C178.914 67.7103 178.81 67.354 178.603 67.1177C178.398 66.8778 178.094 66.7578 177.689 66.7578C177.12 66.7578 176.707 66.9225 176.449 67.252C176.191 67.5814 176.062 68.0666 176.062 68.7075V72H175.176V68.1865C175.176 67.8678 175.129 67.6029 175.036 67.3916C174.947 67.1803 174.811 67.0228 174.628 66.9189C174.449 66.8115 174.222 66.7578 173.946 66.7578C173.556 66.7578 173.242 66.8384 173.006 66.9995C172.77 67.1606 172.598 67.4006 172.49 67.7192C172.386 68.0343 172.334 68.4229 172.334 68.8848V72H171.443V66.1133H172.163L172.297 66.9458H172.345C172.463 66.7417 172.612 66.5698 172.791 66.4302C172.97 66.2905 173.171 66.1849 173.393 66.1133C173.615 66.0417 173.851 66.0059 174.102 66.0059C174.549 66.0059 174.923 66.09 175.224 66.2583C175.528 66.423 175.749 66.6755 175.885 67.0156H175.933C176.126 66.6755 176.391 66.423 176.728 66.2583C177.065 66.09 177.433 66.0059 177.834 66.0059ZM184.393 66.0059C185.127 66.0059 185.712 66.2583 186.149 66.7632C186.586 67.2681 186.804 68.0272 186.804 69.0405C186.804 69.7101 186.704 70.2723 186.503 70.7271C186.303 71.1818 186.02 71.5256 185.655 71.7583C185.293 71.991 184.865 72.1074 184.371 72.1074C184.06 72.1074 183.786 72.0662 183.549 71.9839C183.313 71.9015 183.111 71.7905 182.942 71.6509C182.774 71.5112 182.634 71.359 182.523 71.1943H182.459C182.47 71.334 182.482 71.5023 182.497 71.6992C182.514 71.8962 182.523 72.068 182.523 72.2148V74.6318H181.626V66.1133H182.362L182.48 66.9834H182.523C182.638 66.8044 182.778 66.6414 182.942 66.4946C183.107 66.3442 183.308 66.2261 183.544 66.1401C183.784 66.0506 184.067 66.0059 184.393 66.0059ZM184.237 66.7578C183.829 66.7578 183.499 66.8366 183.249 66.9941C183.001 67.1517 182.821 67.388 182.706 67.7031C182.591 68.0146 182.531 68.4067 182.523 68.8794V69.0513C182.523 69.549 182.577 69.9697 182.685 70.3135C182.796 70.6572 182.976 70.9186 183.227 71.0977C183.481 71.2767 183.821 71.3662 184.248 71.3662C184.613 71.3662 184.917 71.2677 185.161 71.0708C185.404 70.8739 185.585 70.5999 185.703 70.249C185.825 69.8945 185.886 69.4881 185.886 69.0298C185.886 68.3351 185.75 67.7837 185.478 67.3755C185.209 66.9637 184.795 66.7578 184.237 66.7578ZM189.259 72H188.362V63.6426H189.259V72ZM192.036 66.1133V72H191.144V66.1133H192.036ZM191.601 63.9111C191.747 63.9111 191.873 63.9595 191.977 64.0562C192.084 64.1493 192.138 64.2961 192.138 64.4966C192.138 64.6935 192.084 64.8403 191.977 64.937C191.873 65.0337 191.747 65.082 191.601 65.082C191.447 65.082 191.318 65.0337 191.214 64.937C191.114 64.8403 191.063 64.6935 191.063 64.4966C191.063 64.2961 191.114 64.1493 191.214 64.0562C191.318 63.9595 191.447 63.9111 191.601 63.9111ZM196.128 66.0166C196.83 66.0166 197.351 66.1742 197.691 66.4893C198.032 66.8044 198.202 67.3075 198.202 67.9985V72H197.552L197.38 71.1299H197.337C197.172 71.3447 197 71.5256 196.821 71.6724C196.642 71.8156 196.435 71.9248 196.198 72C195.965 72.0716 195.679 72.1074 195.339 72.1074C194.981 72.1074 194.662 72.0448 194.383 71.9194C194.107 71.7941 193.889 71.6043 193.728 71.3501C193.57 71.0959 193.491 70.7736 193.491 70.3833C193.491 69.7961 193.724 69.3449 194.189 69.0298C194.655 68.7147 195.364 68.5428 196.316 68.5142L197.332 68.4712V68.1113C197.332 67.6029 197.222 67.2466 197.004 67.0425C196.785 66.8384 196.478 66.7363 196.08 66.7363C195.772 66.7363 195.479 66.7811 195.199 66.8706C194.92 66.9601 194.655 67.0658 194.404 67.1875L194.13 66.5107C194.395 66.3747 194.7 66.2583 195.043 66.1616C195.387 66.0649 195.749 66.0166 196.128 66.0166ZM197.321 69.0996L196.424 69.1372C195.69 69.1659 195.172 69.2858 194.872 69.4971C194.571 69.7083 194.42 70.0073 194.42 70.394C194.42 70.7306 194.522 70.9795 194.727 71.1406C194.931 71.3018 195.201 71.3823 195.538 71.3823C196.06 71.3823 196.488 71.2373 196.821 70.9473C197.154 70.6572 197.321 70.2222 197.321 69.6421V69.0996ZM202.826 66.0059C203.524 66.0059 204.053 66.1777 204.411 66.5215C204.769 66.8617 204.948 67.4095 204.948 68.165V72H204.067V68.2241C204.067 67.7336 203.954 67.3665 203.729 67.123C203.507 66.8796 203.165 66.7578 202.703 66.7578C202.051 66.7578 201.593 66.9422 201.328 67.311C201.063 67.6799 200.93 68.2152 200.93 68.917V72H200.039V66.1133H200.758L200.893 66.9619H200.941C201.066 66.7542 201.226 66.5806 201.419 66.4409C201.612 66.2977 201.829 66.1903 202.069 66.1187C202.309 66.0435 202.561 66.0059 202.826 66.0059ZM209.143 72.1074C208.613 72.1074 208.145 71.9982 207.741 71.7798C207.336 71.5614 207.021 71.2284 206.795 70.7808C206.57 70.3332 206.457 69.7692 206.457 69.0889C206.457 68.3763 206.575 67.7944 206.812 67.3433C207.051 66.8885 207.381 66.5519 207.8 66.3335C208.219 66.1151 208.695 66.0059 209.229 66.0059C209.522 66.0059 209.805 66.0363 210.077 66.0972C210.353 66.1545 210.578 66.2279 210.754 66.3174L210.485 67.064C210.306 66.9924 210.099 66.9279 209.862 66.8706C209.63 66.8133 209.411 66.7847 209.207 66.7847C208.799 66.7847 208.459 66.8724 208.187 67.0479C207.918 67.2233 207.716 67.4811 207.58 67.8213C207.447 68.1615 207.381 68.5804 207.381 69.0781C207.381 69.5544 207.445 69.9608 207.574 70.2974C207.707 70.634 207.902 70.8918 208.16 71.0708C208.421 71.2463 208.747 71.334 209.137 71.334C209.449 71.334 209.73 71.3018 209.98 71.2373C210.231 71.1693 210.458 71.0905 210.663 71.001V71.7959C210.466 71.8962 210.245 71.9731 210.002 72.0269C209.762 72.0806 209.476 72.1074 209.143 72.1074ZM214.326 66.0059C214.827 66.0059 215.257 66.1169 215.615 66.3389C215.973 66.5609 216.247 66.8724 216.437 67.2734C216.626 67.6709 216.721 68.1364 216.721 68.6699V69.2231H212.655C212.666 69.9142 212.838 70.4406 213.171 70.8022C213.504 71.1639 213.973 71.3447 214.578 71.3447C214.951 71.3447 215.28 71.3107 215.566 71.2427C215.853 71.1746 216.15 71.0744 216.458 70.9419V71.7261C216.161 71.8586 215.865 71.9552 215.572 72.0161C215.282 72.077 214.938 72.1074 214.541 72.1074C213.975 72.1074 213.481 71.9928 213.058 71.7637C212.639 71.5309 212.313 71.1908 212.081 70.7432C211.848 70.2956 211.731 69.7477 211.731 69.0996C211.731 68.4658 211.837 67.918 212.048 67.4561C212.263 66.9906 212.564 66.6325 212.951 66.3818C213.341 66.1312 213.799 66.0059 214.326 66.0059ZM214.315 66.7363C213.839 66.7363 213.459 66.8921 213.176 67.2036C212.893 67.5151 212.725 67.9502 212.671 68.5088H215.787C215.783 68.1579 215.728 67.8499 215.62 67.585C215.516 67.3164 215.357 67.1087 215.142 66.9619C214.927 66.8115 214.652 66.7363 214.315 66.7363ZM224.901 70.3887C224.901 70.7646 224.806 71.0815 224.617 71.3394C224.431 71.5936 224.162 71.7852 223.811 71.9141C223.464 72.043 223.048 72.1074 222.565 72.1074C222.153 72.1074 221.797 72.0752 221.496 72.0107C221.195 71.9463 220.932 71.855 220.707 71.7368V70.915C220.946 71.0332 221.233 71.1406 221.566 71.2373C221.899 71.334 222.239 71.3823 222.586 71.3823C223.095 71.3823 223.464 71.3 223.693 71.1353C223.922 70.9705 224.037 70.7467 224.037 70.4639C224.037 70.3027 223.99 70.1613 223.897 70.0396C223.807 69.9142 223.655 69.7943 223.44 69.6797C223.226 69.5615 222.928 69.4326 222.549 69.293C222.173 69.1497 221.847 69.0083 221.571 68.8687C221.299 68.7254 221.088 68.5518 220.938 68.3477C220.791 68.1436 220.717 67.8786 220.717 67.5527C220.717 67.055 220.918 66.6737 221.319 66.4087C221.723 66.1401 222.253 66.0059 222.909 66.0059C223.263 66.0059 223.594 66.0417 223.902 66.1133C224.214 66.1813 224.504 66.2744 224.772 66.3926L224.472 67.1069C224.228 67.0031 223.969 66.9154 223.693 66.8438C223.417 66.7721 223.136 66.7363 222.85 66.7363C222.438 66.7363 222.121 66.8044 221.899 66.9404C221.681 67.0765 221.571 67.2627 221.571 67.499C221.571 67.6816 221.621 67.832 221.722 67.9502C221.826 68.0684 221.99 68.1794 222.216 68.2832C222.441 68.387 222.739 68.5088 223.107 68.6484C223.476 68.7845 223.795 68.9259 224.063 69.0728C224.332 69.216 224.538 69.3914 224.681 69.5991C224.828 69.8032 224.901 70.0664 224.901 70.3887ZM228.237 71.377C228.384 71.377 228.534 71.3644 228.688 71.3394C228.842 71.3143 228.967 71.2839 229.064 71.248V71.9409C228.96 71.9875 228.815 72.0269 228.629 72.0591C228.446 72.0913 228.267 72.1074 228.092 72.1074C227.78 72.1074 227.497 72.0537 227.243 71.9463C226.989 71.8353 226.785 71.6491 226.631 71.3877C226.48 71.1263 226.405 70.7646 226.405 70.3027V66.8115H225.567V66.3765L226.411 66.0273L226.765 64.749H227.302V66.1133H229.026V66.8115H227.302V70.2759C227.302 70.6447 227.386 70.9204 227.555 71.103C227.727 71.2856 227.954 71.377 228.237 71.377ZM232.458 66.0166C233.16 66.0166 233.681 66.1742 234.021 66.4893C234.362 66.8044 234.532 67.3075 234.532 67.9985V72H233.882L233.71 71.1299H233.667C233.502 71.3447 233.33 71.5256 233.151 71.6724C232.972 71.8156 232.765 71.9248 232.528 72C232.296 72.0716 232.009 72.1074 231.669 72.1074C231.311 72.1074 230.992 72.0448 230.713 71.9194C230.437 71.7941 230.219 71.6043 230.058 71.3501C229.9 71.0959 229.821 70.7736 229.821 70.3833C229.821 69.7961 230.054 69.3449 230.52 69.0298C230.985 68.7147 231.694 68.5428 232.646 68.5142L233.662 68.4712V68.1113C233.662 67.6029 233.552 67.2466 233.334 67.0425C233.116 66.8384 232.808 66.7363 232.41 66.7363C232.102 66.7363 231.809 66.7811 231.529 66.8706C231.25 66.9601 230.985 67.0658 230.734 67.1875L230.46 66.5107C230.725 66.3747 231.03 66.2583 231.374 66.1616C231.717 66.0649 232.079 66.0166 232.458 66.0166ZM233.651 69.0996L232.754 69.1372C232.02 69.1659 231.502 69.2858 231.202 69.4971C230.901 69.7083 230.75 70.0073 230.75 70.394C230.75 70.7306 230.853 70.9795 231.057 71.1406C231.261 71.3018 231.531 71.3823 231.868 71.3823C232.39 71.3823 232.818 71.2373 233.151 70.9473C233.484 70.6572 233.651 70.2222 233.651 69.6421V69.0996ZM238.27 71.377C238.417 71.377 238.567 71.3644 238.721 71.3394C238.875 71.3143 239 71.2839 239.097 71.248V71.9409C238.993 71.9875 238.848 72.0269 238.662 72.0591C238.479 72.0913 238.3 72.1074 238.125 72.1074C237.813 72.1074 237.531 72.0537 237.276 71.9463C237.022 71.8353 236.818 71.6491 236.664 71.3877C236.514 71.1263 236.438 70.7646 236.438 70.3027V66.8115H235.601V66.3765L236.444 66.0273L236.798 64.749H237.335V66.1133H239.06V66.8115H237.335V70.2759C237.335 70.6447 237.42 70.9204 237.588 71.103C237.76 71.2856 237.987 71.377 238.27 71.377ZM245.15 66.1133V72H244.42L244.291 71.1729H244.243C244.121 71.377 243.963 71.5488 243.77 71.6885C243.577 71.8281 243.358 71.932 243.115 72C242.875 72.0716 242.619 72.1074 242.347 72.1074C241.881 72.1074 241.491 72.0322 241.176 71.8818C240.861 71.7314 240.623 71.4987 240.461 71.1836C240.304 70.8685 240.225 70.4639 240.225 69.9697V66.1133H241.127V69.9053C241.127 70.3958 241.238 70.7629 241.46 71.0063C241.682 71.2463 242.021 71.3662 242.476 71.3662C242.912 71.3662 243.26 71.2839 243.518 71.1191C243.779 70.9544 243.967 70.7127 244.082 70.394C244.196 70.0718 244.253 69.6779 244.253 69.2124V66.1133H245.15ZM250.844 70.3887C250.844 70.7646 250.749 71.0815 250.559 71.3394C250.373 71.5936 250.104 71.7852 249.753 71.9141C249.406 72.043 248.991 72.1074 248.507 72.1074C248.096 72.1074 247.739 72.0752 247.438 72.0107C247.138 71.9463 246.875 71.855 246.649 71.7368V70.915C246.889 71.0332 247.175 71.1406 247.508 71.2373C247.841 71.334 248.181 71.3823 248.529 71.3823C249.037 71.3823 249.406 71.3 249.635 71.1353C249.864 70.9705 249.979 70.7467 249.979 70.4639C249.979 70.3027 249.932 70.1613 249.839 70.0396C249.75 69.9142 249.598 69.7943 249.383 69.6797C249.168 69.5615 248.871 69.4326 248.491 69.293C248.115 69.1497 247.789 69.0083 247.514 68.8687C247.242 68.7254 247.03 68.5518 246.88 68.3477C246.733 68.1436 246.66 67.8786 246.66 67.5527C246.66 67.055 246.86 66.6737 247.261 66.4087C247.666 66.1401 248.196 66.0059 248.851 66.0059C249.206 66.0059 249.537 66.0417 249.845 66.1133C250.156 66.1813 250.446 66.2744 250.715 66.3926L250.414 67.1069C250.171 67.0031 249.911 66.9154 249.635 66.8438C249.36 66.7721 249.078 66.7363 248.792 66.7363C248.38 66.7363 248.063 66.8044 247.841 66.9404C247.623 67.0765 247.514 67.2627 247.514 67.499C247.514 67.6816 247.564 67.832 247.664 67.9502C247.768 68.0684 247.933 68.1794 248.158 68.2832C248.384 68.387 248.681 68.5088 249.05 68.6484C249.419 68.7845 249.737 68.9259 250.006 69.0728C250.274 69.216 250.48 69.3914 250.624 69.5991C250.77 69.8032 250.844 70.0664 250.844 70.3887ZM260.211 69.0459C260.211 69.5293 260.148 69.9608 260.023 70.3403C259.898 70.7199 259.717 71.0404 259.48 71.3018C259.244 71.5632 258.958 71.7637 258.621 71.9033C258.288 72.0394 257.91 72.1074 257.488 72.1074C257.094 72.1074 256.732 72.0394 256.403 71.9033C256.077 71.7637 255.794 71.5632 255.554 71.3018C255.318 71.0404 255.133 70.7199 255.001 70.3403C254.872 69.9608 254.808 69.5293 254.808 69.0459C254.808 68.4014 254.917 67.8535 255.135 67.4023C255.354 66.9476 255.665 66.6021 256.07 66.3657C256.478 66.1258 256.963 66.0059 257.525 66.0059C258.062 66.0059 258.532 66.1258 258.933 66.3657C259.337 66.6056 259.651 66.953 259.873 67.4077C260.098 67.8589 260.211 68.4049 260.211 69.0459ZM255.731 69.0459C255.731 69.5186 255.794 69.9285 255.919 70.2759C256.045 70.6232 256.238 70.8918 256.5 71.0815C256.761 71.2713 257.097 71.3662 257.509 71.3662C257.917 71.3662 258.252 71.2713 258.514 71.0815C258.779 70.8918 258.974 70.6232 259.099 70.2759C259.224 69.9285 259.287 69.5186 259.287 69.0459C259.287 68.5768 259.224 68.1722 259.099 67.832C258.974 67.4883 258.78 67.2233 258.519 67.0371C258.258 66.8509 257.919 66.7578 257.504 66.7578C256.892 66.7578 256.442 66.9601 256.156 67.3647C255.873 67.7694 255.731 68.3298 255.731 69.0459ZM264.374 66.8115H262.907V72H262.016V66.8115H260.974V66.3818L262.016 66.0864V65.6943C262.016 65.2002 262.089 64.7992 262.236 64.4912C262.383 64.1797 262.596 63.9505 262.875 63.8037C263.154 63.6569 263.494 63.5835 263.896 63.5835C264.121 63.5835 264.327 63.6032 264.513 63.6426C264.703 63.682 264.869 63.7267 265.013 63.7769L264.782 64.4805C264.66 64.4411 264.522 64.4053 264.368 64.373C264.218 64.3372 264.064 64.3193 263.906 64.3193C263.566 64.3193 263.314 64.4303 263.149 64.6523C262.988 64.8708 262.907 65.2145 262.907 65.6836V66.1133H264.374V66.8115ZM104.841 86.377C104.988 86.377 105.139 86.3644 105.292 86.3394C105.446 86.3143 105.572 86.2839 105.668 86.248V86.9409C105.565 86.9875 105.42 87.0269 105.233 87.0591C105.051 87.0913 104.872 87.1074 104.696 87.1074C104.385 87.1074 104.102 87.0537 103.848 86.9463C103.593 86.8353 103.389 86.6491 103.235 86.3877C103.085 86.1263 103.01 85.7646 103.01 85.3027V81.8115H102.172V81.3765L103.015 81.0273L103.37 79.749H103.907V81.1133H105.631V81.8115H103.907V85.2759C103.907 85.6447 103.991 85.9204 104.159 86.103C104.331 86.2856 104.558 86.377 104.841 86.377ZM107.752 78.6426V81.1401C107.752 81.2834 107.749 81.4284 107.742 81.5752C107.735 81.7184 107.722 81.8509 107.704 81.9727H107.763C107.885 81.765 108.039 81.5913 108.225 81.4517C108.415 81.3084 108.63 81.201 108.87 81.1294C109.11 81.0542 109.364 81.0166 109.632 81.0166C110.105 81.0166 110.499 81.0918 110.814 81.2422C111.133 81.3926 111.371 81.6253 111.528 81.9404C111.689 82.2555 111.77 82.6637 111.77 83.165V87H110.889V83.2241C110.889 82.7336 110.776 82.3665 110.551 82.123C110.329 81.8796 109.987 81.7578 109.525 81.7578C109.088 81.7578 108.739 81.842 108.478 82.0103C108.22 82.175 108.034 82.4185 107.919 82.7407C107.808 83.063 107.752 83.4569 107.752 83.9224V87H106.861V78.6426H107.752ZM115.874 81.0059C116.375 81.0059 116.805 81.1169 117.163 81.3389C117.521 81.5609 117.795 81.8724 117.984 82.2734C118.174 82.6709 118.269 83.1364 118.269 83.6699V84.2231H114.203C114.214 84.9142 114.386 85.4406 114.719 85.8022C115.052 86.1639 115.521 86.3447 116.126 86.3447C116.498 86.3447 116.828 86.3107 117.114 86.2427C117.401 86.1746 117.698 86.0744 118.006 85.9419V86.7261C117.709 86.8586 117.413 86.9552 117.12 87.0161C116.83 87.077 116.486 87.1074 116.088 87.1074C115.523 87.1074 115.028 86.9928 114.606 86.7637C114.187 86.5309 113.861 86.1908 113.628 85.7432C113.396 85.2956 113.279 84.7477 113.279 84.0996C113.279 83.4658 113.385 82.918 113.596 82.4561C113.811 81.9906 114.112 81.6325 114.499 81.3818C114.889 81.1312 115.347 81.0059 115.874 81.0059ZM115.863 81.7363C115.387 81.7363 115.007 81.8921 114.724 82.2036C114.441 82.5151 114.273 82.9502 114.219 83.5088H117.334C117.331 83.1579 117.275 82.8499 117.168 82.585C117.064 82.3164 116.905 82.1087 116.69 81.9619C116.475 81.8115 116.199 81.7363 115.863 81.7363ZM125.316 81.0059C125.434 81.0059 125.558 81.013 125.687 81.0273C125.815 81.0381 125.93 81.0542 126.03 81.0757L125.917 81.9028C125.821 81.8778 125.713 81.8581 125.595 81.8438C125.477 81.8294 125.366 81.8223 125.262 81.8223C125.026 81.8223 124.802 81.8706 124.591 81.9673C124.383 82.0604 124.201 82.1965 124.043 82.3755C123.885 82.5509 123.762 82.764 123.672 83.0146C123.583 83.2617 123.538 83.5374 123.538 83.8418V87H122.641V81.1133H123.382L123.479 82.1982H123.517C123.638 81.9798 123.785 81.7811 123.957 81.6021C124.129 81.4194 124.328 81.2744 124.553 81.167C124.782 81.0596 125.037 81.0059 125.316 81.0059ZM129.409 81.0059C129.91 81.0059 130.34 81.1169 130.698 81.3389C131.056 81.5609 131.33 81.8724 131.52 82.2734C131.709 82.6709 131.804 83.1364 131.804 83.6699V84.2231H127.738C127.749 84.9142 127.921 85.4406 128.254 85.8022C128.587 86.1639 129.056 86.3447 129.661 86.3447C130.034 86.3447 130.363 86.3107 130.649 86.2427C130.936 86.1746 131.233 86.0744 131.541 85.9419V86.7261C131.244 86.8586 130.948 86.9552 130.655 87.0161C130.365 87.077 130.021 87.1074 129.624 87.1074C129.058 87.1074 128.564 86.9928 128.141 86.7637C127.722 86.5309 127.396 86.1908 127.164 85.7432C126.931 85.2956 126.814 84.7477 126.814 84.0996C126.814 83.4658 126.92 82.918 127.131 82.4561C127.346 81.9906 127.647 81.6325 128.034 81.3818C128.424 81.1312 128.882 81.0059 129.409 81.0059ZM129.398 81.7363C128.922 81.7363 128.542 81.8921 128.259 82.2036C127.976 82.5151 127.808 82.9502 127.754 83.5088H130.87C130.866 83.1579 130.811 82.8499 130.703 82.585C130.599 82.3164 130.44 82.1087 130.225 81.9619C130.01 81.8115 129.735 81.7363 129.398 81.7363ZM135.677 87.1074C135.147 87.1074 134.68 86.9982 134.275 86.7798C133.87 86.5614 133.555 86.2284 133.33 85.7808C133.104 85.3332 132.991 84.7692 132.991 84.0889C132.991 83.3763 133.109 82.7944 133.346 82.3433C133.586 81.8885 133.915 81.5519 134.334 81.3335C134.753 81.1151 135.229 81.0059 135.763 81.0059C136.056 81.0059 136.339 81.0363 136.611 81.0972C136.887 81.1545 137.113 81.2279 137.288 81.3174L137.02 82.064C136.84 81.9924 136.633 81.9279 136.396 81.8706C136.164 81.8133 135.945 81.7847 135.741 81.7847C135.333 81.7847 134.993 81.8724 134.721 82.0479C134.452 82.2233 134.25 82.4811 134.114 82.8213C133.981 83.1615 133.915 83.5804 133.915 84.0781C133.915 84.5544 133.979 84.9608 134.108 85.2974C134.241 85.634 134.436 85.8918 134.694 86.0708C134.955 86.2463 135.281 86.334 135.671 86.334C135.983 86.334 136.264 86.3018 136.515 86.2373C136.765 86.1693 136.993 86.0905 137.197 86.001V86.7959C137 86.8962 136.78 86.9731 136.536 87.0269C136.296 87.0806 136.01 87.1074 135.677 87.1074ZM140.86 81.0059C141.361 81.0059 141.791 81.1169 142.149 81.3389C142.507 81.5609 142.781 81.8724 142.971 82.2734C143.16 82.6709 143.255 83.1364 143.255 83.6699V84.2231H139.189C139.2 84.9142 139.372 85.4406 139.705 85.8022C140.038 86.1639 140.507 86.3447 141.112 86.3447C141.485 86.3447 141.814 86.3107 142.101 86.2427C142.387 86.1746 142.684 86.0744 142.992 85.9419V86.7261C142.695 86.8586 142.4 86.9552 142.106 87.0161C141.816 87.077 141.472 87.1074 141.075 87.1074C140.509 87.1074 140.015 86.9928 139.592 86.7637C139.173 86.5309 138.847 86.1908 138.615 85.7432C138.382 85.2956 138.266 84.7477 138.266 84.0996C138.266 83.4658 138.371 82.918 138.583 82.4561C138.797 81.9906 139.098 81.6325 139.485 81.3818C139.875 81.1312 140.333 81.0059 140.86 81.0059ZM140.849 81.7363C140.373 81.7363 139.993 81.8921 139.71 82.2036C139.428 82.5151 139.259 82.9502 139.206 83.5088H142.321C142.317 83.1579 142.262 82.8499 142.154 82.585C142.05 82.3164 141.891 82.1087 141.676 81.9619C141.461 81.8115 141.186 81.7363 140.849 81.7363ZM147.558 81.0059C148.256 81.0059 148.784 81.1777 149.142 81.5215C149.5 81.8617 149.679 82.4095 149.679 83.165V87H148.798V83.2241C148.798 82.7336 148.686 82.3665 148.46 82.123C148.238 81.8796 147.896 81.7578 147.434 81.7578C146.782 81.7578 146.324 81.9422 146.059 82.311C145.794 82.6799 145.662 83.2152 145.662 83.917V87H144.77V81.1133H145.49L145.624 81.9619H145.672C145.798 81.7542 145.957 81.5806 146.15 81.4409C146.344 81.2977 146.56 81.1903 146.8 81.1187C147.04 81.0435 147.293 81.0059 147.558 81.0059ZM153.417 86.377C153.564 86.377 153.715 86.3644 153.869 86.3394C154.023 86.3143 154.148 86.2839 154.245 86.248V86.9409C154.141 86.9875 153.996 87.0269 153.81 87.0591C153.627 87.0913 153.448 87.1074 153.272 87.1074C152.961 87.1074 152.678 87.0537 152.424 86.9463C152.17 86.8353 151.965 86.6491 151.812 86.3877C151.661 86.1263 151.586 85.7646 151.586 85.3027V81.8115H150.748V81.3765L151.591 81.0273L151.946 79.749H152.483V81.1133H154.207V81.8115H152.483V85.2759C152.483 85.6447 152.567 85.9204 152.735 86.103C152.907 86.2856 153.135 86.377 153.417 86.377ZM156.334 87H155.437V78.6426H156.334V87ZM157.29 81.1133H158.246L159.546 84.5293C159.621 84.7298 159.691 84.9232 159.755 85.1094C159.82 85.292 159.877 85.4674 159.927 85.6357C159.977 85.804 160.017 85.967 160.045 86.1245H160.083C160.133 85.9455 160.205 85.7109 160.298 85.4209C160.391 85.1273 160.491 84.8283 160.599 84.5239L161.829 81.1133H162.79L160.228 87.8647C160.092 88.2264 159.933 88.5415 159.75 88.8101C159.571 89.0786 159.353 89.2845 159.095 89.4277C158.837 89.5745 158.525 89.6479 158.16 89.6479C157.992 89.6479 157.843 89.6372 157.714 89.6157C157.585 89.5978 157.474 89.5763 157.381 89.5513V88.8369C157.46 88.8548 157.555 88.8709 157.666 88.8853C157.781 88.8996 157.899 88.9067 158.021 88.9067C158.243 88.9067 158.434 88.8638 158.595 88.7778C158.76 88.6955 158.901 88.5737 159.02 88.4126C159.138 88.2515 159.24 88.0599 159.326 87.8379L159.648 87.0107L157.29 81.1133ZM168.79 81.0166C169.491 81.0166 170.012 81.1742 170.353 81.4893C170.693 81.8044 170.863 82.3075 170.863 82.9985V87H170.213L170.041 86.1299H169.998C169.833 86.3447 169.661 86.5256 169.482 86.6724C169.303 86.8156 169.096 86.9248 168.859 87C168.627 87.0716 168.34 87.1074 168 87.1074C167.642 87.1074 167.323 87.0448 167.044 86.9194C166.768 86.7941 166.55 86.6043 166.389 86.3501C166.231 86.0959 166.152 85.7736 166.152 85.3833C166.152 84.7961 166.385 84.3449 166.851 84.0298C167.316 83.7147 168.025 83.5428 168.978 83.5142L169.993 83.4712V83.1113C169.993 82.6029 169.883 82.2466 169.665 82.0425C169.447 81.8384 169.139 81.7363 168.741 81.7363C168.433 81.7363 168.14 81.7811 167.86 81.8706C167.581 81.9601 167.316 82.0658 167.065 82.1875L166.792 81.5107C167.056 81.3747 167.361 81.2583 167.705 81.1616C168.048 81.0649 168.41 81.0166 168.79 81.0166ZM169.982 84.0996L169.085 84.1372C168.351 84.1659 167.833 84.2858 167.533 84.4971C167.232 84.7083 167.082 85.0073 167.082 85.394C167.082 85.7306 167.184 85.9795 167.388 86.1406C167.592 86.3018 167.862 86.3823 168.199 86.3823C168.722 86.3823 169.149 86.2373 169.482 85.9473C169.815 85.6572 169.982 85.2222 169.982 84.6421V84.0996ZM174.794 87.1074C174.05 87.1074 173.459 86.8532 173.022 86.3447C172.589 85.8363 172.372 85.0807 172.372 84.0781C172.372 83.0648 172.594 82.3003 173.038 81.7847C173.482 81.2655 174.073 81.0059 174.811 81.0059C175.122 81.0059 175.394 81.047 175.627 81.1294C175.86 81.2118 176.06 81.3228 176.229 81.4624C176.397 81.5985 176.538 81.7542 176.653 81.9297H176.717C176.703 81.8187 176.689 81.6665 176.674 81.4731C176.66 81.2798 176.653 81.1222 176.653 81.0005V78.6426H177.544V87H176.825L176.69 86.1621H176.653C176.542 86.3376 176.4 86.4969 176.229 86.6401C176.06 86.7834 175.858 86.8979 175.622 86.9839C175.389 87.0662 175.113 87.1074 174.794 87.1074ZM174.934 86.3662C175.564 86.3662 176.01 86.1872 176.271 85.8291C176.533 85.471 176.664 84.9393 176.664 84.2339V84.0728C176.664 83.3244 176.538 82.7497 176.288 82.3486C176.041 81.9476 175.589 81.7471 174.934 81.7471C174.386 81.7471 173.976 81.9583 173.704 82.3809C173.432 82.7998 173.296 83.3727 173.296 84.0996C173.296 84.8229 173.43 85.3815 173.699 85.7754C173.971 86.1693 174.383 86.3662 174.934 86.3662ZM181.53 87.1074C180.785 87.1074 180.194 86.8532 179.757 86.3447C179.324 85.8363 179.107 85.0807 179.107 84.0781C179.107 83.0648 179.329 82.3003 179.773 81.7847C180.217 81.2655 180.808 81.0059 181.546 81.0059C181.857 81.0059 182.13 81.047 182.362 81.1294C182.595 81.2118 182.796 81.3228 182.964 81.4624C183.132 81.5985 183.274 81.7542 183.388 81.9297H183.453C183.438 81.8187 183.424 81.6665 183.41 81.4731C183.395 81.2798 183.388 81.1222 183.388 81.0005V78.6426H184.28V87H183.56L183.426 86.1621H183.388C183.277 86.3376 183.136 86.4969 182.964 86.6401C182.796 86.7834 182.593 86.8979 182.357 86.9839C182.124 87.0662 181.848 87.1074 181.53 87.1074ZM181.669 86.3662C182.3 86.3662 182.745 86.1872 183.007 85.8291C183.268 85.471 183.399 84.9393 183.399 84.2339V84.0728C183.399 83.3244 183.274 82.7497 183.023 82.3486C182.776 81.9476 182.325 81.7471 181.669 81.7471C181.122 81.7471 180.712 81.9583 180.439 82.3809C180.167 82.7998 180.031 83.3727 180.031 84.0996C180.031 84.8229 180.166 85.3815 180.434 85.7754C180.706 86.1693 181.118 86.3662 181.669 86.3662ZM188.437 81.0059C188.938 81.0059 189.368 81.1169 189.726 81.3389C190.084 81.5609 190.358 81.8724 190.548 82.2734C190.738 82.6709 190.833 83.1364 190.833 83.6699V84.2231H186.767C186.777 84.9142 186.949 85.4406 187.282 85.8022C187.615 86.1639 188.084 86.3447 188.689 86.3447C189.062 86.3447 189.391 86.3107 189.678 86.2427C189.964 86.1746 190.261 86.0744 190.569 85.9419V86.7261C190.272 86.8586 189.977 86.9552 189.683 87.0161C189.393 87.077 189.049 87.1074 188.652 87.1074C188.086 87.1074 187.592 86.9928 187.169 86.7637C186.75 86.5309 186.425 86.1908 186.192 85.7432C185.959 85.2956 185.843 84.7477 185.843 84.0996C185.843 83.4658 185.948 82.918 186.16 82.4561C186.375 81.9906 186.675 81.6325 187.062 81.3818C187.452 81.1312 187.911 81.0059 188.437 81.0059ZM188.426 81.7363C187.95 81.7363 187.57 81.8921 187.288 82.2036C187.005 82.5151 186.836 82.9502 186.783 83.5088H189.898C189.894 83.1579 189.839 82.8499 189.731 82.585C189.628 82.3164 189.468 82.1087 189.253 81.9619C189.039 81.8115 188.763 81.7363 188.426 81.7363ZM194.442 87.1074C193.697 87.1074 193.106 86.8532 192.669 86.3447C192.236 85.8363 192.02 85.0807 192.02 84.0781C192.02 83.0648 192.242 82.3003 192.686 81.7847C193.13 81.2655 193.72 81.0059 194.458 81.0059C194.77 81.0059 195.042 81.047 195.274 81.1294C195.507 81.2118 195.708 81.3228 195.876 81.4624C196.044 81.5985 196.186 81.7542 196.3 81.9297H196.365C196.35 81.8187 196.336 81.6665 196.322 81.4731C196.307 81.2798 196.3 81.1222 196.3 81.0005V78.6426H197.192V87H196.472L196.338 86.1621H196.3C196.189 86.3376 196.048 86.4969 195.876 86.6401C195.708 86.7834 195.505 86.8979 195.269 86.9839C195.036 87.0662 194.761 87.1074 194.442 87.1074ZM194.582 86.3662C195.212 86.3662 195.658 86.1872 195.919 85.8291C196.18 85.471 196.311 84.9393 196.311 84.2339V84.0728C196.311 83.3244 196.186 82.7497 195.935 82.3486C195.688 81.9476 195.237 81.7471 194.582 81.7471C194.034 81.7471 193.624 81.9583 193.352 82.3809C193.079 82.7998 192.943 83.3727 192.943 84.0996C192.943 84.8229 193.078 85.3815 193.346 85.7754C193.618 86.1693 194.03 86.3662 194.582 86.3662ZM204.298 87.1074C203.768 87.1074 203.301 86.9982 202.896 86.7798C202.491 86.5614 202.176 86.2284 201.951 85.7808C201.725 85.3332 201.612 84.7692 201.612 84.0889C201.612 83.3763 201.73 82.7944 201.967 82.3433C202.207 81.8885 202.536 81.5519 202.955 81.3335C203.374 81.1151 203.85 81.0059 204.384 81.0059C204.677 81.0059 204.96 81.0363 205.232 81.0972C205.508 81.1545 205.734 81.2279 205.909 81.3174L205.641 82.064C205.462 81.9924 205.254 81.9279 205.018 81.8706C204.785 81.8133 204.566 81.7847 204.362 81.7847C203.954 81.7847 203.614 81.8724 203.342 82.0479C203.073 82.2233 202.871 82.4811 202.735 82.8213C202.602 83.1615 202.536 83.5804 202.536 84.0781C202.536 84.5544 202.601 84.9608 202.729 85.2974C202.862 85.634 203.057 85.8918 203.315 86.0708C203.576 86.2463 203.902 86.334 204.292 86.334C204.604 86.334 204.885 86.3018 205.136 86.2373C205.386 86.1693 205.614 86.0905 205.818 86.001V86.7959C205.621 86.8962 205.401 86.9731 205.157 87.0269C204.917 87.0806 204.631 87.1074 204.298 87.1074ZM209.417 81.0166C210.118 81.0166 210.639 81.1742 210.979 81.4893C211.32 81.8044 211.49 82.3075 211.49 82.9985V87H210.84L210.668 86.1299H210.625C210.46 86.3447 210.288 86.5256 210.109 86.6724C209.93 86.8156 209.723 86.9248 209.486 87C209.254 87.0716 208.967 87.1074 208.627 87.1074C208.269 87.1074 207.95 87.0448 207.671 86.9194C207.395 86.7941 207.177 86.6043 207.016 86.3501C206.858 86.0959 206.779 85.7736 206.779 85.3833C206.779 84.7961 207.012 84.3449 207.478 84.0298C207.943 83.7147 208.652 83.5428 209.604 83.5142L210.62 83.4712V83.1113C210.62 82.6029 210.51 82.2466 210.292 82.0425C210.074 81.8384 209.766 81.7363 209.368 81.7363C209.06 81.7363 208.767 81.7811 208.487 81.8706C208.208 81.9601 207.943 82.0658 207.692 82.1875L207.418 81.5107C207.683 81.3747 207.988 81.2583 208.332 81.1616C208.675 81.0649 209.037 81.0166 209.417 81.0166ZM210.609 84.0996L209.712 84.1372C208.978 84.1659 208.46 84.2858 208.16 84.4971C207.859 84.7083 207.708 85.0073 207.708 85.394C207.708 85.7306 207.811 85.9795 208.015 86.1406C208.219 86.3018 208.489 86.3823 208.826 86.3823C209.348 86.3823 209.776 86.2373 210.109 85.9473C210.442 85.6572 210.609 85.2222 210.609 84.6421V84.0996ZM216.001 81.0059C216.12 81.0059 216.243 81.013 216.372 81.0273C216.501 81.0381 216.616 81.0542 216.716 81.0757L216.603 81.9028C216.506 81.8778 216.399 81.8581 216.281 81.8438C216.163 81.8294 216.052 81.8223 215.948 81.8223C215.711 81.8223 215.488 81.8706 215.276 81.9673C215.069 82.0604 214.886 82.1965 214.729 82.3755C214.571 82.5509 214.447 82.764 214.358 83.0146C214.268 83.2617 214.224 83.5374 214.224 83.8418V87H213.327V81.1133H214.068L214.165 82.1982H214.202C214.324 81.9798 214.471 81.7811 214.643 81.6021C214.814 81.4194 215.013 81.2744 215.239 81.167C215.468 81.0596 215.722 81.0059 216.001 81.0059ZM221.636 85.3887C221.636 85.7646 221.541 86.0815 221.351 86.3394C221.165 86.5936 220.896 86.7852 220.545 86.9141C220.198 87.043 219.783 87.1074 219.299 87.1074C218.888 87.1074 218.531 87.0752 218.23 87.0107C217.93 86.9463 217.667 86.855 217.441 86.7368V85.915C217.681 86.0332 217.967 86.1406 218.3 86.2373C218.633 86.334 218.973 86.3823 219.321 86.3823C219.829 86.3823 220.198 86.3 220.427 86.1353C220.656 85.9705 220.771 85.7467 220.771 85.4639C220.771 85.3027 220.724 85.1613 220.631 85.0396C220.542 84.9142 220.39 84.7943 220.175 84.6797C219.96 84.5615 219.663 84.4326 219.283 84.293C218.907 84.1497 218.581 84.0083 218.306 83.8687C218.034 83.7254 217.822 83.5518 217.672 83.3477C217.525 83.1436 217.452 82.8786 217.452 82.5527C217.452 82.055 217.652 81.6737 218.053 81.4087C218.458 81.1401 218.988 81.0059 219.643 81.0059C219.998 81.0059 220.329 81.0417 220.637 81.1133C220.948 81.1813 221.238 81.2744 221.507 81.3926L221.206 82.1069C220.963 82.0031 220.703 81.9154 220.427 81.8438C220.152 81.7721 219.87 81.7363 219.584 81.7363C219.172 81.7363 218.855 81.8044 218.633 81.9404C218.415 82.0765 218.306 82.2627 218.306 82.499C218.306 82.6816 218.356 82.832 218.456 82.9502C218.56 83.0684 218.725 83.1794 218.95 83.2832C219.176 83.387 219.473 83.5088 219.842 83.6484C220.211 83.7845 220.529 83.9259 220.798 84.0728C221.066 84.216 221.272 84.3914 221.416 84.5991C221.562 84.8032 221.636 85.0664 221.636 85.3887ZM223.677 84.8193V84.54C223.677 84.2536 223.704 84.0083 223.757 83.8042C223.811 83.5965 223.904 83.4032 224.037 83.2241C224.173 83.0451 224.361 82.8553 224.601 82.6548C224.88 82.422 225.1 82.2251 225.261 82.064C225.426 81.8993 225.544 81.7345 225.616 81.5698C225.687 81.4051 225.723 81.2064 225.723 80.9736C225.723 80.6012 225.603 80.3166 225.363 80.1196C225.123 79.9191 224.785 79.8188 224.348 79.8188C223.994 79.8188 223.679 79.8636 223.403 79.9531C223.127 80.0426 222.862 80.1501 222.608 80.2754L222.296 79.5557C222.59 79.4017 222.909 79.2764 223.252 79.1797C223.596 79.083 223.979 79.0347 224.402 79.0347C225.093 79.0347 225.628 79.2065 226.008 79.5503C226.387 79.8905 226.577 80.3595 226.577 80.9575C226.577 81.2905 226.523 81.5752 226.416 81.8115C226.309 82.0443 226.156 82.2591 225.959 82.4561C225.763 82.6494 225.53 82.8553 225.261 83.0737C225.025 83.2743 224.844 83.4515 224.719 83.6055C224.593 83.7559 224.507 83.9116 224.461 84.0728C224.414 84.2303 224.391 84.4201 224.391 84.6421V84.8193H223.677ZM223.44 86.4414C223.44 86.1908 223.5 86.0135 223.618 85.9097C223.736 85.8022 223.888 85.7485 224.074 85.7485C224.25 85.7485 224.398 85.8022 224.52 85.9097C224.645 86.0135 224.708 86.1908 224.708 86.4414C224.708 86.6885 224.645 86.8693 224.52 86.9839C224.398 87.0949 224.25 87.1504 224.074 87.1504C223.888 87.1504 223.736 87.0949 223.618 86.9839C223.5 86.8693 223.44 86.6885 223.44 86.4414Z" fill="#04082C"/>
<rect x="280" y="78" width="20" height="20" rx="10" fill="#999999"/>
<path d="M285.112 92.4021C285.832 91.8834 286.593 91.4775 287.397 91.1842C288.2 90.8909 289.067 90.7443 289.998 90.7443C290.929 90.7443 291.797 90.8909 292.6 91.1842C293.404 91.4775 294.166 91.8834 294.889 92.4021C295.422 91.8172 295.838 91.1539 296.135 90.4121C296.432 89.6704 296.581 88.8666 296.581 88.0008C296.581 86.1727 295.941 84.6189 294.661 83.3392C293.382 82.0596 291.827 81.4197 289.998 81.4197C288.169 81.4197 286.615 82.0596 285.335 83.3392C284.056 84.6189 283.416 86.1727 283.416 88.0008C283.416 88.8666 283.564 89.6704 283.862 90.4121C284.159 91.1539 284.576 91.8172 285.112 92.4021ZM290.001 88.5936C289.247 88.5936 288.612 88.3366 288.097 87.8227C287.581 87.3087 287.324 86.6749 287.324 85.9213C287.324 85.1676 287.581 84.533 288.095 84.0175C288.609 83.502 289.242 83.2443 289.996 83.2443C290.75 83.2443 291.384 83.5013 291.9 84.0152C292.415 84.5292 292.673 85.163 292.673 85.9166C292.673 86.6703 292.416 87.3049 291.902 87.8204C291.388 88.3359 290.754 88.5936 290.001 88.5936ZM289.998 95.7507C288.925 95.7507 287.917 95.5477 286.973 95.1418C286.028 94.7359 285.208 94.1841 284.512 93.4864C283.815 92.7886 283.264 91.9681 282.859 91.0249C282.453 90.0816 282.25 89.0741 282.25 88.0023C282.25 86.9267 282.453 85.9174 282.859 84.9745C283.265 84.0316 283.817 83.212 284.514 82.5156C285.212 81.8192 286.033 81.2682 286.976 80.8625C287.919 80.4568 288.927 80.2539 289.998 80.2539C291.074 80.2539 292.083 80.4569 293.026 80.8628C293.969 81.2686 294.789 81.8205 295.485 82.5182C296.181 83.2159 296.732 84.0358 297.138 84.9777C297.544 85.9196 297.747 86.9278 297.747 88.0023C297.747 89.0752 297.544 90.0838 297.138 91.0281C296.732 91.9723 296.18 92.7926 295.482 93.489C294.785 94.1853 293.965 94.7364 293.023 95.1421C292.081 95.5478 291.073 95.7507 289.998 95.7507Z" fill="white"/>
<path d="M50.2656 144.902L50.7223 144.831C51.0792 144.777 51.4046 144.596 51.6397 144.322C51.8747 144.048 52.004 143.699 52.004 143.338V141.882C52.004 141.521 51.8748 141.172 51.6397 140.898C51.4046 140.624 51.0792 140.443 50.7223 140.388L50.2656 140.316V144.902Z" fill="#2D65F2"/>
<path d="M33.7382 144.904L33.2814 144.834C32.9247 144.779 32.5993 144.598 32.3643 144.324C32.1292 144.05 32 143.701 32 143.34V141.884C32 141.523 32.1292 141.174 32.3642 140.9C32.5993 140.626 32.9246 140.446 33.2814 140.391L33.7382 140.32V144.904Z" fill="#2D65F2"/>
<path d="M42.1176 139.87C43.8136 139.87 45.1884 138.878 45.1884 137.654C45.1884 136.43 43.8136 135.438 42.1176 135.438C40.4217 135.438 39.0469 136.43 39.0469 137.654C39.0469 138.878 40.4217 139.87 42.1176 139.87Z" fill="#2D65F2"/>
<path d="M33.5547 144.841C33.5546 145.354 33.6932 145.858 33.956 146.299C34.2187 146.74 34.5958 147.102 35.0473 147.346C36.2166 147.979 38.2947 148.566 41.9817 148.566C45.6687 148.566 47.7466 147.98 48.9162 147.346C49.3677 147.102 49.7447 146.74 50.0075 146.299C50.2702 145.858 50.4089 145.354 50.4088 144.841V140.256C50.4089 139.743 50.2703 139.239 50.0075 138.798C49.7448 138.357 49.3677 137.995 48.9162 137.751C47.7469 137.118 45.6687 136.531 41.9817 136.531C38.2947 136.531 36.217 137.117 35.0473 137.751C34.5958 137.995 34.2187 138.357 33.9559 138.798C33.6932 139.239 33.5546 139.743 33.5547 140.256V144.841Z" fill="#DDDDDD"/>
<path d="M42.1356 147.453C38.5873 147.453 36.766 146.871 35.8628 146.382C35.5638 146.22 35.3141 145.981 35.1402 145.689C34.9663 145.397 34.8747 145.063 34.875 144.723V141.335C34.8747 140.995 34.9663 140.661 35.1402 140.369C35.3141 140.077 35.5638 139.837 35.8628 139.676C36.766 139.187 38.5873 138.605 42.1356 138.605C45.6839 138.605 47.5055 139.188 48.4087 139.676C48.7077 139.838 48.9573 140.077 49.1313 140.369C49.3052 140.661 49.3968 140.995 49.3965 141.335V144.725C49.3968 145.065 49.3052 145.398 49.1313 145.69C48.9573 145.982 48.7077 146.222 48.4087 146.384C47.5055 146.872 45.6841 147.453 42.1356 147.453Z" fill="#303030"/>
<path d="M40.3651 143.232C40.3651 143.898 39.8252 143.567 39.1592 143.567C38.4933 143.567 37.9531 143.898 37.9531 143.232C37.9576 142.915 38.0866 142.613 38.3123 142.39C38.538 142.168 38.8422 142.043 39.1591 142.043C39.4761 142.043 39.7803 142.168 40.006 142.39C40.2316 142.613 40.3607 142.915 40.3651 143.232Z" fill="white"/>
<path d="M46.2872 143.23C46.2872 143.742 45.9682 143.664 45.518 143.601C45.3734 143.579 45.2274 143.566 45.0811 143.564C44.4152 143.564 43.875 143.896 43.875 143.23C43.875 142.91 44.0021 142.603 44.2283 142.377C44.4545 142.151 44.7612 142.023 45.0811 142.023C45.401 142.023 45.7078 142.151 45.934 142.377C46.1602 142.603 46.2872 142.91 46.2872 143.23Z" fill="white"/>
<path d="M57 116C57 110.477 61.4772 106 67 106H230C235.523 106 240 110.477 240 116V142C240 147.523 235.523 152 230 152H57V116Z" fill="#F7F7F7"/>
<path d="M71.5278 126L68.8906 119.05H68.8477C68.862 119.197 68.8745 119.376 68.8853 119.587C68.896 119.798 68.9049 120.029 68.9121 120.28C68.9193 120.527 68.9229 120.779 68.9229 121.037V126H68.0742V118.147H69.4277L71.9146 124.679H71.9521L74.4766 118.147H75.8193V126H74.917V120.973C74.917 120.74 74.9206 120.507 74.9277 120.274C74.9349 120.038 74.9438 119.816 74.9546 119.608C74.9653 119.397 74.9761 119.215 74.9868 119.061H74.9438L72.2744 126H71.5278ZM82.9092 123.046C82.9092 123.529 82.8465 123.961 82.7212 124.34C82.5959 124.72 82.415 125.04 82.1787 125.302C81.9424 125.563 81.6559 125.764 81.3193 125.903C80.9863 126.039 80.6086 126.107 80.186 126.107C79.7922 126.107 79.4305 126.039 79.1011 125.903C78.7752 125.764 78.4924 125.563 78.2524 125.302C78.0161 125.04 77.8317 124.72 77.6992 124.34C77.5703 123.961 77.5059 123.529 77.5059 123.046C77.5059 122.401 77.6151 121.854 77.8335 121.402C78.0519 120.948 78.3634 120.602 78.7681 120.366C79.1763 120.126 79.6615 120.006 80.2236 120.006C80.7607 120.006 81.2298 120.126 81.6309 120.366C82.0355 120.606 82.3488 120.953 82.5708 121.408C82.7964 121.859 82.9092 122.405 82.9092 123.046ZM78.4297 123.046C78.4297 123.519 78.4924 123.929 78.6177 124.276C78.743 124.623 78.9364 124.892 79.1978 125.082C79.4591 125.271 79.7957 125.366 80.2075 125.366C80.6157 125.366 80.9505 125.271 81.2119 125.082C81.4769 124.892 81.672 124.623 81.7974 124.276C81.9227 123.929 81.9854 123.519 81.9854 123.046C81.9854 122.577 81.9227 122.172 81.7974 121.832C81.672 121.488 81.4787 121.223 81.2173 121.037C80.9559 120.851 80.6175 120.758 80.2021 120.758C79.5898 120.758 79.1405 120.96 78.854 121.365C78.5711 121.769 78.4297 122.33 78.4297 123.046ZM88.2588 124.389C88.2588 124.765 88.1639 125.082 87.9741 125.339C87.7879 125.594 87.5194 125.785 87.1685 125.914C86.8211 126.043 86.4058 126.107 85.9224 126.107C85.5106 126.107 85.1543 126.075 84.8535 126.011C84.5527 125.946 84.2896 125.855 84.064 125.737V124.915C84.3039 125.033 84.5903 125.141 84.9233 125.237C85.2563 125.334 85.5965 125.382 85.9438 125.382C86.4523 125.382 86.8211 125.3 87.0503 125.135C87.2795 124.971 87.394 124.747 87.394 124.464C87.394 124.303 87.3475 124.161 87.2544 124.04C87.1649 123.914 87.0127 123.794 86.7979 123.68C86.583 123.562 86.2858 123.433 85.9062 123.293C85.5303 123.15 85.2044 123.008 84.9287 122.869C84.6566 122.725 84.4453 122.552 84.2949 122.348C84.1481 122.144 84.0747 121.879 84.0747 121.553C84.0747 121.055 84.2752 120.674 84.6763 120.409C85.0809 120.14 85.6108 120.006 86.2661 120.006C86.6206 120.006 86.9518 120.042 87.2598 120.113C87.5713 120.181 87.8613 120.274 88.1299 120.393L87.8291 121.107C87.5856 121.003 87.326 120.915 87.0503 120.844C86.7746 120.772 86.4935 120.736 86.207 120.736C85.7952 120.736 85.4784 120.804 85.2563 120.94C85.0379 121.076 84.9287 121.263 84.9287 121.499C84.9287 121.682 84.9788 121.832 85.0791 121.95C85.1829 122.068 85.3477 122.179 85.5732 122.283C85.7988 122.387 86.096 122.509 86.4648 122.648C86.8337 122.785 87.1523 122.926 87.4209 123.073C87.6895 123.216 87.8953 123.391 88.0386 123.599C88.1854 123.803 88.2588 124.066 88.2588 124.389ZM91.5942 125.377C91.741 125.377 91.8914 125.364 92.0454 125.339C92.1994 125.314 92.3247 125.284 92.4214 125.248V125.941C92.3175 125.987 92.1725 126.027 91.9863 126.059C91.8037 126.091 91.6247 126.107 91.4492 126.107C91.1377 126.107 90.8548 126.054 90.6006 125.946C90.3464 125.835 90.1423 125.649 89.9883 125.388C89.8379 125.126 89.7627 124.765 89.7627 124.303V120.812H88.9248V120.376L89.7681 120.027L90.1226 118.749H90.6597V120.113H92.3838V120.812H90.6597V124.276C90.6597 124.645 90.7438 124.92 90.9121 125.103C91.084 125.286 91.3114 125.377 91.5942 125.377ZM101.547 123.046C101.547 123.529 101.484 123.961 101.359 124.34C101.234 124.72 101.053 125.04 100.816 125.302C100.58 125.563 100.294 125.764 99.957 125.903C99.624 126.039 99.2463 126.107 98.8237 126.107C98.4299 126.107 98.0682 126.039 97.7388 125.903C97.4129 125.764 97.13 125.563 96.8901 125.302C96.6538 125.04 96.4694 124.72 96.3369 124.34C96.208 123.961 96.1436 123.529 96.1436 123.046C96.1436 122.401 96.2528 121.854 96.4712 121.402C96.6896 120.948 97.0011 120.602 97.4058 120.366C97.814 120.126 98.2992 120.006 98.8613 120.006C99.3984 120.006 99.8675 120.126 100.269 120.366C100.673 120.606 100.986 120.953 101.208 121.408C101.434 121.859 101.547 122.405 101.547 123.046ZM97.0674 123.046C97.0674 123.519 97.13 123.929 97.2554 124.276C97.3807 124.623 97.5741 124.892 97.8354 125.082C98.0968 125.271 98.4334 125.366 98.8452 125.366C99.2534 125.366 99.5882 125.271 99.8496 125.082C100.115 124.892 100.31 124.623 100.435 124.276C100.56 123.929 100.623 123.519 100.623 123.046C100.623 122.577 100.56 122.172 100.435 121.832C100.31 121.488 100.116 121.223 99.855 121.037C99.5936 120.851 99.2552 120.758 98.8398 120.758C98.2275 120.758 97.7782 120.96 97.4917 121.365C97.2088 121.769 97.0674 122.33 97.0674 123.046ZM105.709 120.812H104.243V126H103.352V120.812H102.31V120.382L103.352 120.086V119.694C103.352 119.2 103.425 118.799 103.572 118.491C103.719 118.18 103.932 117.951 104.211 117.804C104.49 117.657 104.83 117.583 105.231 117.583C105.457 117.583 105.663 117.603 105.849 117.643C106.039 117.682 106.205 117.727 106.349 117.777L106.118 118.48C105.996 118.441 105.858 118.405 105.704 118.373C105.554 118.337 105.4 118.319 105.242 118.319C104.902 118.319 104.65 118.43 104.485 118.652C104.324 118.871 104.243 119.215 104.243 119.684V120.113H105.709V120.812ZM111.553 125.377C111.7 125.377 111.85 125.364 112.004 125.339C112.158 125.314 112.284 125.284 112.38 125.248V125.941C112.277 125.987 112.132 126.027 111.945 126.059C111.763 126.091 111.584 126.107 111.408 126.107C111.097 126.107 110.814 126.054 110.56 125.946C110.305 125.835 110.101 125.649 109.947 125.388C109.797 125.126 109.722 124.765 109.722 124.303V120.812H108.884V120.376L109.727 120.027L110.082 118.749H110.619V120.113H112.343V120.812H110.619V124.276C110.619 124.645 110.703 124.92 110.871 125.103C111.043 125.286 111.27 125.377 111.553 125.377ZM114.464 117.643V120.14C114.464 120.283 114.461 120.428 114.454 120.575C114.446 120.718 114.434 120.851 114.416 120.973H114.475C114.597 120.765 114.751 120.591 114.937 120.452C115.127 120.308 115.342 120.201 115.582 120.129C115.821 120.054 116.076 120.017 116.344 120.017C116.817 120.017 117.211 120.092 117.526 120.242C117.845 120.393 118.083 120.625 118.24 120.94C118.401 121.256 118.482 121.664 118.482 122.165V126H117.601V122.224C117.601 121.734 117.488 121.367 117.263 121.123C117.041 120.88 116.699 120.758 116.237 120.758C115.8 120.758 115.451 120.842 115.189 121.01C114.932 121.175 114.745 121.418 114.631 121.741C114.52 122.063 114.464 122.457 114.464 122.922V126H113.573V117.643H114.464ZM122.585 120.006C123.087 120.006 123.516 120.117 123.875 120.339C124.233 120.561 124.507 120.872 124.696 121.273C124.886 121.671 124.981 122.136 124.981 122.67V123.223H120.915C120.926 123.914 121.098 124.441 121.431 124.802C121.764 125.164 122.233 125.345 122.838 125.345C123.21 125.345 123.54 125.311 123.826 125.243C124.113 125.175 124.41 125.074 124.718 124.942V125.726C124.421 125.859 124.125 125.955 123.832 126.016C123.542 126.077 123.198 126.107 122.8 126.107C122.235 126.107 121.74 125.993 121.318 125.764C120.899 125.531 120.573 125.191 120.34 124.743C120.108 124.296 119.991 123.748 119.991 123.1C119.991 122.466 120.097 121.918 120.308 121.456C120.523 120.991 120.824 120.632 121.21 120.382C121.601 120.131 122.059 120.006 122.585 120.006ZM122.575 120.736C122.098 120.736 121.719 120.892 121.436 121.204C121.153 121.515 120.985 121.95 120.931 122.509H124.046C124.043 122.158 123.987 121.85 123.88 121.585C123.776 121.316 123.617 121.109 123.402 120.962C123.187 120.812 122.911 120.736 122.575 120.736ZM132.887 120.006C133.535 120.006 134.024 120.176 134.354 120.516C134.683 120.853 134.848 121.395 134.848 122.144V126H133.967V122.187C133.967 121.71 133.863 121.354 133.655 121.118C133.451 120.878 133.147 120.758 132.742 120.758C132.173 120.758 131.759 120.923 131.501 121.252C131.244 121.581 131.115 122.067 131.115 122.708V126H130.229V122.187C130.229 121.868 130.182 121.603 130.089 121.392C129.999 121.18 129.863 121.023 129.681 120.919C129.502 120.812 129.274 120.758 128.999 120.758C128.608 120.758 128.295 120.838 128.059 121C127.822 121.161 127.65 121.401 127.543 121.719C127.439 122.034 127.387 122.423 127.387 122.885V126H126.496V120.113H127.215L127.35 120.946H127.398C127.516 120.742 127.665 120.57 127.844 120.43C128.023 120.291 128.223 120.185 128.445 120.113C128.667 120.042 128.904 120.006 129.154 120.006C129.602 120.006 129.976 120.09 130.277 120.258C130.581 120.423 130.801 120.675 130.938 121.016H130.986C131.179 120.675 131.444 120.423 131.781 120.258C132.117 120.09 132.486 120.006 132.887 120.006ZM142.324 120.006C143.022 120.006 143.551 120.178 143.909 120.521C144.267 120.862 144.446 121.41 144.446 122.165V126H143.565V122.224C143.565 121.734 143.452 121.367 143.227 121.123C143.005 120.88 142.663 120.758 142.201 120.758C141.549 120.758 141.091 120.942 140.826 121.311C140.561 121.68 140.428 122.215 140.428 122.917V126H139.537V120.113H140.256L140.391 120.962H140.439C140.564 120.754 140.724 120.581 140.917 120.441C141.11 120.298 141.327 120.19 141.567 120.119C141.807 120.043 142.059 120.006 142.324 120.006ZM148.549 120.006C149.051 120.006 149.48 120.117 149.838 120.339C150.196 120.561 150.47 120.872 150.66 121.273C150.85 121.671 150.945 122.136 150.945 122.67V123.223H146.879C146.89 123.914 147.062 124.441 147.395 124.802C147.728 125.164 148.197 125.345 148.802 125.345C149.174 125.345 149.504 125.311 149.79 125.243C150.076 125.175 150.374 125.074 150.682 124.942V125.726C150.384 125.859 150.089 125.955 149.795 126.016C149.505 126.077 149.162 126.107 148.764 126.107C148.198 126.107 147.704 125.993 147.282 125.764C146.863 125.531 146.537 125.191 146.304 124.743C146.071 124.296 145.955 123.748 145.955 123.1C145.955 122.466 146.061 121.918 146.272 121.456C146.487 120.991 146.788 120.632 147.174 120.382C147.565 120.131 148.023 120.006 148.549 120.006ZM148.539 120.736C148.062 120.736 147.683 120.892 147.4 121.204C147.117 121.515 146.949 121.95 146.895 122.509H150.01C150.007 122.158 149.951 121.85 149.844 121.585C149.74 121.316 149.581 121.109 149.366 120.962C149.151 120.812 148.875 120.736 148.539 120.736ZM154.726 120.006C155.227 120.006 155.657 120.117 156.015 120.339C156.373 120.561 156.647 120.872 156.837 121.273C157.027 121.671 157.122 122.136 157.122 122.67V123.223H153.056C153.066 123.914 153.238 124.441 153.571 124.802C153.904 125.164 154.373 125.345 154.979 125.345C155.351 125.345 155.68 125.311 155.967 125.243C156.253 125.175 156.55 125.074 156.858 124.942V125.726C156.561 125.859 156.266 125.955 155.972 126.016C155.682 126.077 155.338 126.107 154.941 126.107C154.375 126.107 153.881 125.993 153.458 125.764C153.04 125.531 152.714 125.191 152.481 124.743C152.248 124.296 152.132 123.748 152.132 123.1C152.132 122.466 152.237 121.918 152.449 121.456C152.664 120.991 152.964 120.632 153.351 120.382C153.741 120.131 154.2 120.006 154.726 120.006ZM154.715 120.736C154.239 120.736 153.86 120.892 153.577 121.204C153.294 121.515 153.125 121.95 153.072 122.509H156.187C156.183 122.158 156.128 121.85 156.021 121.585C155.917 121.316 155.757 121.109 155.542 120.962C155.328 120.812 155.052 120.736 154.715 120.736ZM160.731 126.107C159.986 126.107 159.395 125.853 158.958 125.345C158.525 124.836 158.309 124.081 158.309 123.078C158.309 122.065 158.531 121.3 158.975 120.785C159.419 120.265 160.009 120.006 160.747 120.006C161.059 120.006 161.331 120.047 161.563 120.129C161.796 120.212 161.997 120.323 162.165 120.462C162.333 120.598 162.475 120.754 162.589 120.93H162.654C162.639 120.819 162.625 120.667 162.611 120.473C162.597 120.28 162.589 120.122 162.589 120V117.643H163.481V126H162.761L162.627 125.162H162.589C162.478 125.338 162.337 125.497 162.165 125.64C161.997 125.783 161.794 125.898 161.558 125.984C161.325 126.066 161.05 126.107 160.731 126.107ZM160.871 125.366C161.501 125.366 161.947 125.187 162.208 124.829C162.469 124.471 162.6 123.939 162.6 123.234V123.073C162.6 122.324 162.475 121.75 162.224 121.349C161.977 120.948 161.526 120.747 160.871 120.747C160.323 120.747 159.913 120.958 159.641 121.381C159.368 121.8 159.232 122.373 159.232 123.1C159.232 123.823 159.367 124.382 159.635 124.775C159.907 125.169 160.319 125.366 160.871 125.366ZM169.121 120.113V126H168.229V120.113H169.121ZM168.686 117.911C168.832 117.911 168.958 117.959 169.062 118.056C169.169 118.149 169.223 118.296 169.223 118.497C169.223 118.694 169.169 118.84 169.062 118.937C168.958 119.034 168.832 119.082 168.686 119.082C168.532 119.082 168.403 119.034 168.299 118.937C168.199 118.84 168.148 118.694 168.148 118.497C168.148 118.296 168.199 118.149 168.299 118.056C168.403 117.959 168.532 117.911 168.686 117.911ZM173.799 120.006C174.497 120.006 175.025 120.178 175.383 120.521C175.741 120.862 175.92 121.41 175.92 122.165V126H175.04V122.224C175.04 121.734 174.927 121.367 174.701 121.123C174.479 120.88 174.137 120.758 173.675 120.758C173.024 120.758 172.565 120.942 172.3 121.311C172.035 121.68 171.903 122.215 171.903 122.917V126H171.011V120.113H171.731L171.865 120.962H171.914C172.039 120.754 172.198 120.581 172.392 120.441C172.585 120.298 172.802 120.19 173.042 120.119C173.281 120.043 173.534 120.006 173.799 120.006ZM181.565 124.389C181.565 124.765 181.471 125.082 181.281 125.339C181.095 125.594 180.826 125.785 180.475 125.914C180.128 126.043 179.712 126.107 179.229 126.107C178.817 126.107 178.461 126.075 178.16 126.011C177.859 125.946 177.596 125.855 177.371 125.737V124.915C177.611 125.033 177.897 125.141 178.23 125.237C178.563 125.334 178.903 125.382 179.25 125.382C179.759 125.382 180.128 125.3 180.357 125.135C180.586 124.971 180.701 124.747 180.701 124.464C180.701 124.303 180.654 124.161 180.561 124.04C180.472 123.914 180.319 123.794 180.104 123.68C179.89 123.562 179.592 123.433 179.213 123.293C178.837 123.15 178.511 123.008 178.235 122.869C177.963 122.725 177.752 122.552 177.602 122.348C177.455 122.144 177.381 121.879 177.381 121.553C177.381 121.055 177.582 120.674 177.983 120.409C178.388 120.14 178.917 120.006 179.573 120.006C179.927 120.006 180.258 120.042 180.566 120.113C180.878 120.181 181.168 120.274 181.437 120.393L181.136 121.107C180.892 121.003 180.633 120.915 180.357 120.844C180.081 120.772 179.8 120.736 179.514 120.736C179.102 120.736 178.785 120.804 178.563 120.94C178.345 121.076 178.235 121.263 178.235 121.499C178.235 121.682 178.285 121.832 178.386 121.95C178.49 122.068 178.654 122.179 178.88 122.283C179.105 122.387 179.403 122.509 179.771 122.648C180.14 122.785 180.459 122.926 180.728 123.073C180.996 123.216 181.202 123.391 181.345 123.599C181.492 123.803 181.565 124.066 181.565 124.389ZM187.86 120.113V126H187.13L187.001 125.173H186.953C186.831 125.377 186.673 125.549 186.48 125.688C186.287 125.828 186.068 125.932 185.825 126C185.585 126.072 185.329 126.107 185.057 126.107C184.591 126.107 184.201 126.032 183.886 125.882C183.571 125.731 183.333 125.499 183.171 125.184C183.014 124.868 182.935 124.464 182.935 123.97V120.113H183.837V123.905C183.837 124.396 183.948 124.763 184.17 125.006C184.392 125.246 184.731 125.366 185.186 125.366C185.622 125.366 185.97 125.284 186.228 125.119C186.489 124.954 186.677 124.713 186.792 124.394C186.906 124.072 186.963 123.678 186.963 123.212V120.113H187.86ZM192.42 120.006C192.539 120.006 192.662 120.013 192.791 120.027C192.92 120.038 193.035 120.054 193.135 120.076L193.022 120.903C192.925 120.878 192.818 120.858 192.7 120.844C192.582 120.829 192.471 120.822 192.367 120.822C192.13 120.822 191.907 120.871 191.695 120.967C191.488 121.06 191.305 121.196 191.147 121.375C190.99 121.551 190.866 121.764 190.777 122.015C190.687 122.262 190.643 122.537 190.643 122.842V126H189.746V120.113H190.487L190.583 121.198H190.621C190.743 120.98 190.89 120.781 191.062 120.602C191.233 120.419 191.432 120.274 191.658 120.167C191.887 120.06 192.141 120.006 192.42 120.006ZM196.449 120.017C197.151 120.017 197.672 120.174 198.012 120.489C198.352 120.804 198.522 121.307 198.522 121.999V126H197.872L197.7 125.13H197.657C197.493 125.345 197.321 125.526 197.142 125.672C196.963 125.816 196.755 125.925 196.519 126C196.286 126.072 195.999 126.107 195.659 126.107C195.301 126.107 194.982 126.045 194.703 125.919C194.427 125.794 194.209 125.604 194.048 125.35C193.89 125.096 193.812 124.774 193.812 124.383C193.812 123.796 194.044 123.345 194.51 123.03C194.975 122.715 195.684 122.543 196.637 122.514L197.652 122.471V122.111C197.652 121.603 197.543 121.247 197.324 121.042C197.106 120.838 196.798 120.736 196.4 120.736C196.092 120.736 195.799 120.781 195.52 120.871C195.24 120.96 194.975 121.066 194.725 121.188L194.451 120.511C194.716 120.375 195.02 120.258 195.364 120.162C195.708 120.065 196.069 120.017 196.449 120.017ZM197.641 123.1L196.744 123.137C196.01 123.166 195.493 123.286 195.192 123.497C194.891 123.708 194.741 124.007 194.741 124.394C194.741 124.731 194.843 124.979 195.047 125.141C195.251 125.302 195.521 125.382 195.858 125.382C196.381 125.382 196.809 125.237 197.142 124.947C197.475 124.657 197.641 124.222 197.641 123.642V123.1ZM203.146 120.006C203.845 120.006 204.373 120.178 204.731 120.521C205.089 120.862 205.268 121.41 205.268 122.165V126H204.387V122.224C204.387 121.734 204.274 121.367 204.049 121.123C203.827 120.88 203.485 120.758 203.023 120.758C202.371 120.758 201.913 120.942 201.648 121.311C201.383 121.68 201.25 122.215 201.25 122.917V126H200.359V120.113H201.079L201.213 120.962H201.261C201.387 120.754 201.546 120.581 201.739 120.441C201.933 120.298 202.149 120.19 202.389 120.119C202.629 120.043 202.882 120.006 203.146 120.006ZM209.463 126.107C208.933 126.107 208.466 125.998 208.061 125.78C207.656 125.561 207.341 125.228 207.116 124.781C206.89 124.333 206.777 123.769 206.777 123.089C206.777 122.376 206.896 121.794 207.132 121.343C207.372 120.889 207.701 120.552 208.12 120.333C208.539 120.115 209.015 120.006 209.549 120.006C209.842 120.006 210.125 120.036 210.397 120.097C210.673 120.154 210.899 120.228 211.074 120.317L210.806 121.064C210.627 120.992 210.419 120.928 210.183 120.871C209.95 120.813 209.731 120.785 209.527 120.785C209.119 120.785 208.779 120.872 208.507 121.048C208.238 121.223 208.036 121.481 207.9 121.821C207.767 122.161 207.701 122.58 207.701 123.078C207.701 123.554 207.766 123.961 207.895 124.297C208.027 124.634 208.222 124.892 208.48 125.071C208.741 125.246 209.067 125.334 209.458 125.334C209.769 125.334 210.05 125.302 210.301 125.237C210.551 125.169 210.779 125.09 210.983 125.001V125.796C210.786 125.896 210.566 125.973 210.322 126.027C210.082 126.081 209.796 126.107 209.463 126.107ZM214.646 120.006C215.147 120.006 215.577 120.117 215.935 120.339C216.293 120.561 216.567 120.872 216.757 121.273C216.947 121.671 217.042 122.136 217.042 122.67V123.223H212.976C212.986 123.914 213.158 124.441 213.491 124.802C213.824 125.164 214.293 125.345 214.898 125.345C215.271 125.345 215.6 125.311 215.887 125.243C216.173 125.175 216.47 125.074 216.778 124.942V125.726C216.481 125.859 216.186 125.955 215.892 126.016C215.602 126.077 215.258 126.107 214.861 126.107C214.295 126.107 213.801 125.993 213.378 125.764C212.959 125.531 212.634 125.191 212.401 124.743C212.168 124.296 212.052 123.748 212.052 123.1C212.052 122.466 212.157 121.918 212.369 121.456C212.583 120.991 212.884 120.632 213.271 120.382C213.661 120.131 214.12 120.006 214.646 120.006ZM214.635 120.736C214.159 120.736 213.779 120.892 213.497 121.204C213.214 121.515 213.045 121.95 212.992 122.509H216.107C216.103 122.158 216.048 121.85 215.94 121.585C215.837 121.316 215.677 121.109 215.462 120.962C215.248 120.812 214.972 120.736 214.635 120.736ZM70.6147 135.006C70.7329 135.006 70.8564 135.013 70.9854 135.027C71.1143 135.038 71.2288 135.054 71.3291 135.076L71.2163 135.903C71.1196 135.878 71.0122 135.858 70.894 135.844C70.7759 135.829 70.6649 135.822 70.561 135.822C70.3247 135.822 70.1009 135.871 69.8896 135.967C69.682 136.06 69.4993 136.196 69.3418 136.375C69.1842 136.551 69.0607 136.764 68.9712 137.015C68.8817 137.262 68.8369 137.537 68.8369 137.842V141H67.9399V135.113H68.6812L68.7778 136.198H68.8154C68.9372 135.98 69.084 135.781 69.2559 135.602C69.4277 135.419 69.6265 135.274 69.8521 135.167C70.0812 135.06 70.3354 135.006 70.6147 135.006ZM74.7075 135.006C75.2088 135.006 75.6385 135.117 75.9966 135.339C76.3547 135.561 76.6286 135.872 76.8184 136.273C77.0081 136.671 77.103 137.136 77.103 137.67V138.223H73.0371C73.0479 138.914 73.2197 139.441 73.5527 139.802C73.8857 140.164 74.3548 140.345 74.96 140.345C75.3324 140.345 75.6618 140.311 75.9482 140.243C76.2347 140.175 76.5319 140.074 76.8398 139.942V140.726C76.5426 140.859 76.2472 140.955 75.9536 141.016C75.6636 141.077 75.3198 141.107 74.9224 141.107C74.3566 141.107 73.8625 140.993 73.4399 140.764C73.021 140.531 72.6951 140.191 72.4624 139.743C72.2297 139.296 72.1133 138.748 72.1133 138.1C72.1133 137.466 72.2189 136.918 72.4302 136.456C72.645 135.991 72.9458 135.632 73.3325 135.382C73.7228 135.131 74.1812 135.006 74.7075 135.006ZM74.6968 135.736C74.2205 135.736 73.841 135.892 73.5581 136.204C73.2752 136.515 73.1069 136.95 73.0532 137.509H76.1685C76.1649 137.158 76.1094 136.85 76.002 136.585C75.8981 136.316 75.7388 136.109 75.5239 135.962C75.3091 135.812 75.0334 135.736 74.6968 135.736ZM81.4053 135.006C82.1035 135.006 82.6317 135.178 82.9897 135.521C83.3478 135.862 83.5269 136.41 83.5269 137.165V141H82.646V137.224C82.646 136.734 82.5332 136.367 82.3076 136.123C82.0856 135.88 81.7437 135.758 81.2817 135.758C80.63 135.758 80.1717 135.942 79.9067 136.311C79.6418 136.68 79.5093 137.215 79.5093 137.917V141H78.6177V135.113H79.3374L79.4717 135.962H79.52C79.6453 135.754 79.8047 135.581 79.998 135.441C80.1914 135.298 80.408 135.19 80.6479 135.119C80.8879 135.043 81.1403 135.006 81.4053 135.006ZM87.6304 135.006C88.1317 135.006 88.5614 135.117 88.9194 135.339C89.2775 135.561 89.5514 135.872 89.7412 136.273C89.931 136.671 90.0259 137.136 90.0259 137.67V138.223H85.96C85.9707 138.914 86.1426 139.441 86.4756 139.802C86.8086 140.164 87.2777 140.345 87.8828 140.345C88.2552 140.345 88.5846 140.311 88.8711 140.243C89.1576 140.175 89.4548 140.074 89.7627 139.942V140.726C89.4655 140.859 89.1701 140.955 88.8765 141.016C88.5864 141.077 88.2427 141.107 87.8452 141.107C87.2795 141.107 86.7853 140.993 86.3628 140.764C85.9438 140.531 85.618 140.191 85.3853 139.743C85.1525 139.296 85.0361 138.748 85.0361 138.1C85.0361 137.466 85.1418 136.918 85.353 136.456C85.5679 135.991 85.8687 135.632 86.2554 135.382C86.6457 135.131 87.104 135.006 87.6304 135.006ZM87.6196 135.736C87.1434 135.736 86.7638 135.892 86.481 136.204C86.1981 136.515 86.0298 136.95 85.9761 137.509H89.0913C89.0877 137.158 89.0322 136.85 88.9248 136.585C88.821 136.316 88.6616 136.109 88.4468 135.962C88.2319 135.812 87.9562 135.736 87.6196 135.736ZM96.3315 140.989L95.2842 137.562C95.2376 137.416 95.1929 137.272 95.1499 137.133C95.1105 136.99 95.0729 136.854 95.0371 136.725C95.0049 136.592 94.9744 136.47 94.9458 136.359C94.9207 136.245 94.8993 136.146 94.8813 136.064H94.8438C94.8294 136.146 94.8097 136.245 94.7847 136.359C94.7596 136.47 94.7292 136.592 94.6934 136.725C94.6611 136.857 94.6253 136.997 94.5859 137.144C94.5465 137.287 94.5018 137.432 94.4517 137.579L93.356 140.989H92.3516L90.7295 135.103H91.6533L92.502 138.352C92.5592 138.567 92.613 138.78 92.6631 138.991C92.7168 139.199 92.7616 139.396 92.7974 139.582C92.8368 139.765 92.8654 139.924 92.8833 140.06H92.9263C92.9478 139.971 92.971 139.863 92.9961 139.738C93.0247 139.612 93.0552 139.48 93.0874 139.34C93.1232 139.197 93.1608 139.056 93.2002 138.916C93.2396 138.773 93.279 138.639 93.3184 138.513L94.4033 135.103H95.3647L96.4121 138.508C96.4658 138.68 96.5177 138.859 96.5679 139.045C96.6216 139.231 96.6699 139.412 96.7129 139.587C96.7559 139.759 96.7863 139.913 96.8042 140.049H96.8472C96.8615 139.928 96.8883 139.777 96.9277 139.598C96.9671 139.419 97.0119 139.222 97.062 139.007C97.1157 138.792 97.1712 138.574 97.2285 138.352L98.0879 135.103H98.9956L97.3682 140.989H96.3315ZM102.272 135.017C102.974 135.017 103.495 135.174 103.835 135.489C104.175 135.804 104.345 136.307 104.345 136.999V141H103.695L103.523 140.13H103.48C103.316 140.345 103.144 140.526 102.965 140.672C102.786 140.816 102.578 140.925 102.342 141C102.109 141.072 101.823 141.107 101.482 141.107C101.124 141.107 100.806 141.045 100.526 140.919C100.251 140.794 100.032 140.604 99.8711 140.35C99.7135 140.096 99.6348 139.774 99.6348 139.383C99.6348 138.796 99.8675 138.345 100.333 138.03C100.799 137.715 101.507 137.543 102.46 137.514L103.475 137.471V137.111C103.475 136.603 103.366 136.247 103.147 136.042C102.929 135.838 102.621 135.736 102.224 135.736C101.916 135.736 101.622 135.781 101.343 135.871C101.063 135.96 100.799 136.066 100.548 136.188L100.274 135.511C100.539 135.375 100.843 135.258 101.187 135.162C101.531 135.065 101.892 135.017 102.272 135.017ZM103.464 138.1L102.567 138.137C101.833 138.166 101.316 138.286 101.015 138.497C100.714 138.708 100.564 139.007 100.564 139.394C100.564 139.731 100.666 139.979 100.87 140.141C101.074 140.302 101.345 140.382 101.681 140.382C102.204 140.382 102.632 140.237 102.965 139.947C103.298 139.657 103.464 139.222 103.464 138.642V138.1ZM107.079 141H106.182V132.643H107.079V141ZM112.772 139.389C112.772 139.765 112.678 140.082 112.488 140.339C112.302 140.594 112.033 140.785 111.682 140.914C111.335 141.043 110.919 141.107 110.436 141.107C110.024 141.107 109.668 141.075 109.367 141.011C109.066 140.946 108.803 140.855 108.578 140.737V139.915C108.818 140.033 109.104 140.141 109.437 140.237C109.77 140.334 110.11 140.382 110.458 140.382C110.966 140.382 111.335 140.3 111.564 140.135C111.793 139.971 111.908 139.747 111.908 139.464C111.908 139.303 111.861 139.161 111.768 139.04C111.679 138.914 111.526 138.794 111.312 138.68C111.097 138.562 110.799 138.433 110.42 138.293C110.044 138.15 109.718 138.008 109.442 137.869C109.17 137.725 108.959 137.552 108.809 137.348C108.662 137.144 108.588 136.879 108.588 136.553C108.588 136.055 108.789 135.674 109.19 135.409C109.595 135.14 110.125 135.006 110.78 135.006C111.134 135.006 111.465 135.042 111.773 135.113C112.085 135.181 112.375 135.274 112.644 135.393L112.343 136.107C112.099 136.003 111.84 135.915 111.564 135.844C111.288 135.772 111.007 135.736 110.721 135.736C110.309 135.736 109.992 135.804 109.77 135.94C109.552 136.076 109.442 136.263 109.442 136.499C109.442 136.682 109.493 136.832 109.593 136.95C109.697 137.068 109.861 137.179 110.087 137.283C110.312 137.387 110.61 137.509 110.979 137.648C111.347 137.785 111.666 137.926 111.935 138.073C112.203 138.216 112.409 138.391 112.552 138.599C112.699 138.803 112.772 139.066 112.772 139.389ZM114.072 140.441C114.072 140.191 114.133 140.014 114.255 139.91C114.377 139.802 114.525 139.749 114.701 139.749C114.883 139.749 115.037 139.802 115.163 139.91C115.288 140.014 115.351 140.191 115.351 140.441C115.351 140.688 115.288 140.869 115.163 140.984C115.037 141.095 114.883 141.15 114.701 141.15C114.525 141.15 114.377 141.095 114.255 140.984C114.133 140.869 114.072 140.688 114.072 140.441Z" fill="#04082C"/>
<rect x="32.3805" y="168.38" width="267.239" height="29.2391" rx="4.61954" stroke="#DFDFDF" stroke-width="0.76092"/>
<path d="M42.7783 186.5H41.9434V180.094H39.6973V179.361H45.0146V180.094H42.7783V186.5ZM45.127 181.148H45.9961L47.1777 184.254C47.2461 184.436 47.3096 184.612 47.3682 184.781C47.4268 184.947 47.4788 185.107 47.5244 185.26C47.57 185.413 47.6058 185.561 47.6318 185.704H47.666C47.7116 185.541 47.7767 185.328 47.8613 185.064C47.946 184.798 48.0371 184.526 48.1348 184.249L49.2529 181.148H50.127L47.7979 187.286C47.6742 187.615 47.5293 187.901 47.3633 188.146C47.2005 188.39 47.002 188.577 46.7676 188.707C46.5332 188.84 46.25 188.907 45.918 188.907C45.765 188.907 45.6299 188.897 45.5127 188.878C45.3955 188.862 45.2946 188.842 45.21 188.819V188.17C45.2816 188.186 45.3678 188.201 45.4688 188.214C45.5729 188.227 45.6803 188.233 45.791 188.233C45.9928 188.233 46.167 188.194 46.3135 188.116C46.4632 188.041 46.5918 187.931 46.6992 187.784C46.8066 187.638 46.8994 187.464 46.9775 187.262L47.2705 186.51L45.127 181.148ZM53.4961 181.051C54.1634 181.051 54.6956 181.28 55.0928 181.739C55.4899 182.198 55.6885 182.888 55.6885 183.81C55.6885 184.418 55.5973 184.929 55.415 185.343C55.2327 185.756 54.9756 186.069 54.6436 186.28C54.3148 186.492 53.9258 186.598 53.4766 186.598C53.1934 186.598 52.9443 186.56 52.7295 186.485C52.5146 186.41 52.3307 186.31 52.1777 186.183C52.0247 186.056 51.8978 185.917 51.7969 185.768H51.7383C51.748 185.895 51.7594 186.048 51.7725 186.227C51.7887 186.406 51.7969 186.562 51.7969 186.695V188.893H50.9814V181.148H51.6504L51.7578 181.939H51.7969C51.901 181.777 52.028 181.629 52.1777 181.495C52.3275 181.358 52.5098 181.251 52.7246 181.173C52.9427 181.091 53.1999 181.051 53.4961 181.051ZM53.3545 181.734C52.9834 181.734 52.6839 181.806 52.4561 181.949C52.2314 182.092 52.0671 182.307 51.9629 182.594C51.8587 182.877 51.8034 183.233 51.7969 183.663V183.819C51.7969 184.272 51.8457 184.654 51.9434 184.967C52.0443 185.279 52.2087 185.517 52.4365 185.68C52.6676 185.842 52.9769 185.924 53.3643 185.924C53.6963 185.924 53.973 185.834 54.1943 185.655C54.4157 185.476 54.5801 185.227 54.6875 184.908C54.7982 184.586 54.8535 184.216 54.8535 183.8C54.8535 183.168 54.7298 182.667 54.4824 182.296C54.2383 181.922 53.8623 181.734 53.3545 181.734ZM59.165 181.051C59.6208 181.051 60.0114 181.152 60.3369 181.354C60.6624 181.555 60.9115 181.839 61.084 182.203C61.2565 182.564 61.3428 182.988 61.3428 183.473V183.976H57.6465C57.6562 184.604 57.8125 185.082 58.1152 185.411C58.418 185.74 58.8444 185.904 59.3945 185.904C59.7331 185.904 60.0326 185.873 60.293 185.812C60.5534 185.75 60.8236 185.659 61.1035 185.538V186.251C60.8333 186.371 60.5648 186.459 60.2979 186.515C60.0342 186.57 59.7217 186.598 59.3604 186.598C58.846 186.598 58.3968 186.493 58.0127 186.285C57.6318 186.074 57.3356 185.764 57.124 185.357C56.9124 184.951 56.8066 184.452 56.8066 183.863C56.8066 183.287 56.9027 182.789 57.0947 182.369C57.29 181.946 57.5635 181.62 57.915 181.393C58.2699 181.165 58.6865 181.051 59.165 181.051ZM59.1553 181.715C58.7223 181.715 58.3773 181.856 58.1201 182.14C57.863 182.423 57.71 182.818 57.6611 183.326H60.4932C60.4899 183.007 60.4395 182.727 60.3418 182.486C60.2474 182.242 60.1025 182.053 59.9072 181.92C59.7119 181.783 59.4613 181.715 59.1553 181.715ZM64.4727 181.148H65.3418L66.5234 184.254C66.5918 184.436 66.6553 184.612 66.7139 184.781C66.7725 184.947 66.8245 185.107 66.8701 185.26C66.9157 185.413 66.9515 185.561 66.9775 185.704H67.0117C67.0573 185.541 67.1224 185.328 67.207 185.064C67.2917 184.798 67.3828 184.526 67.4805 184.249L68.5986 181.148H69.4727L67.1436 187.286C67.0199 187.615 66.875 187.901 66.709 188.146C66.5462 188.39 66.3477 188.577 66.1133 188.707C65.8789 188.84 65.5957 188.907 65.2637 188.907C65.1107 188.907 64.9756 188.897 64.8584 188.878C64.7412 188.862 64.6403 188.842 64.5557 188.819V188.17C64.6273 188.186 64.7135 188.201 64.8145 188.214C64.9186 188.227 65.026 188.233 65.1367 188.233C65.3385 188.233 65.5127 188.194 65.6592 188.116C65.8089 188.041 65.9375 187.931 66.0449 187.784C66.1523 187.638 66.2451 187.464 66.3232 187.262L66.6162 186.51L64.4727 181.148ZM74.9414 183.814C74.9414 184.254 74.8844 184.646 74.7705 184.991C74.6566 185.336 74.4922 185.628 74.2773 185.865C74.0625 186.103 73.8021 186.285 73.4961 186.412C73.1934 186.536 72.8499 186.598 72.4658 186.598C72.1077 186.598 71.779 186.536 71.4795 186.412C71.1833 186.285 70.9261 186.103 70.708 185.865C70.4932 185.628 70.3255 185.336 70.2051 184.991C70.0879 184.646 70.0293 184.254 70.0293 183.814C70.0293 183.229 70.1286 182.73 70.3271 182.32C70.5257 181.907 70.8089 181.593 71.1768 181.378C71.5479 181.16 71.9889 181.051 72.5 181.051C72.9883 181.051 73.4147 181.16 73.7793 181.378C74.1471 181.596 74.432 181.912 74.6338 182.325C74.8389 182.735 74.9414 183.232 74.9414 183.814ZM70.8691 183.814C70.8691 184.244 70.9261 184.617 71.04 184.933C71.154 185.248 71.3298 185.493 71.5674 185.665C71.805 185.838 72.111 185.924 72.4854 185.924C72.8564 185.924 73.1608 185.838 73.3984 185.665C73.6393 185.493 73.8167 185.248 73.9307 184.933C74.0446 184.617 74.1016 184.244 74.1016 183.814C74.1016 183.388 74.0446 183.02 73.9307 182.711C73.8167 182.398 73.641 182.158 73.4033 181.988C73.1657 181.819 72.8581 181.734 72.4805 181.734C71.9238 181.734 71.5153 181.918 71.2549 182.286C70.9977 182.654 70.8691 183.163 70.8691 183.814ZM80.7617 181.148V186.5H80.0977L79.9805 185.748H79.9365C79.8258 185.934 79.6826 186.09 79.5068 186.217C79.3311 186.344 79.1325 186.438 78.9111 186.5C78.693 186.565 78.4603 186.598 78.2129 186.598C77.7897 186.598 77.4349 186.529 77.1484 186.393C76.862 186.256 76.6455 186.044 76.499 185.758C76.3558 185.471 76.2842 185.104 76.2842 184.654V181.148H77.1045V184.596C77.1045 185.042 77.2054 185.375 77.4072 185.597C77.609 185.815 77.9167 185.924 78.3301 185.924C78.7272 185.924 79.043 185.849 79.2773 185.699C79.515 185.549 79.6859 185.33 79.79 185.04C79.8942 184.747 79.9463 184.389 79.9463 183.966V181.148H80.7617ZM84.9072 181.051C85.0146 181.051 85.127 181.057 85.2441 181.07C85.3613 181.08 85.4655 181.095 85.5566 181.114L85.4541 181.866C85.3662 181.843 85.2686 181.826 85.1611 181.812C85.0537 181.799 84.9528 181.793 84.8584 181.793C84.6436 181.793 84.4401 181.837 84.248 181.925C84.0592 182.009 83.8932 182.133 83.75 182.296C83.6068 182.455 83.4945 182.649 83.4131 182.877C83.3317 183.102 83.291 183.352 83.291 183.629V186.5H82.4756V181.148H83.1494L83.2373 182.135H83.2715C83.3822 181.936 83.5156 181.756 83.6719 181.593C83.8281 181.427 84.0088 181.295 84.2139 181.197C84.4222 181.1 84.6533 181.051 84.9072 181.051ZM90.8936 185.934C91.027 185.934 91.1637 185.922 91.3037 185.899C91.4437 185.877 91.5576 185.849 91.6455 185.816V186.446C91.5511 186.489 91.4193 186.524 91.25 186.554C91.084 186.583 90.9212 186.598 90.7617 186.598C90.4785 186.598 90.2214 186.549 89.9902 186.451C89.7591 186.35 89.5736 186.181 89.4336 185.943C89.2969 185.706 89.2285 185.377 89.2285 184.957V181.783H88.4668V181.388L89.2334 181.07L89.5557 179.908H90.0439V181.148H91.6113V181.783H90.0439V184.933C90.0439 185.268 90.1204 185.519 90.2734 185.685C90.4297 185.851 90.6364 185.934 90.8936 185.934ZM93.54 178.902V181.173C93.54 181.303 93.5368 181.435 93.5303 181.568C93.5238 181.699 93.5124 181.819 93.4961 181.93H93.5498C93.6605 181.741 93.8005 181.583 93.9697 181.456C94.1423 181.326 94.3376 181.228 94.5557 181.163C94.7738 181.095 95.0049 181.061 95.249 181.061C95.6787 181.061 96.0368 181.129 96.3232 181.266C96.613 181.402 96.8294 181.614 96.9727 181.9C97.1191 182.187 97.1924 182.558 97.1924 183.014V186.5H96.3916V183.067C96.3916 182.621 96.2891 182.288 96.084 182.066C95.8822 181.845 95.5713 181.734 95.1514 181.734C94.7542 181.734 94.4368 181.811 94.1992 181.964C93.9648 182.114 93.7956 182.335 93.6914 182.628C93.5905 182.921 93.54 183.279 93.54 183.702V186.5H92.7295V178.902H93.54ZM103.477 183.814C103.477 184.254 103.42 184.646 103.306 184.991C103.192 185.336 103.027 185.628 102.812 185.865C102.598 186.103 102.337 186.285 102.031 186.412C101.729 186.536 101.385 186.598 101.001 186.598C100.643 186.598 100.314 186.536 100.015 186.412C99.7184 186.285 99.4613 186.103 99.2432 185.865C99.0283 185.628 98.8607 185.336 98.7402 184.991C98.623 184.646 98.5645 184.254 98.5645 183.814C98.5645 183.229 98.6637 182.73 98.8623 182.32C99.0609 181.907 99.3441 181.593 99.7119 181.378C100.083 181.16 100.524 181.051 101.035 181.051C101.523 181.051 101.95 181.16 102.314 181.378C102.682 181.596 102.967 181.912 103.169 182.325C103.374 182.735 103.477 183.232 103.477 183.814ZM99.4043 183.814C99.4043 184.244 99.4613 184.617 99.5752 184.933C99.6891 185.248 99.8649 185.493 100.103 185.665C100.34 185.838 100.646 185.924 101.021 185.924C101.392 185.924 101.696 185.838 101.934 185.665C102.174 185.493 102.352 185.248 102.466 184.933C102.58 184.617 102.637 184.244 102.637 183.814C102.637 183.388 102.58 183.02 102.466 182.711C102.352 182.398 102.176 182.158 101.938 181.988C101.701 181.819 101.393 181.734 101.016 181.734C100.459 181.734 100.05 181.918 99.79 182.286C99.5329 182.654 99.4043 183.163 99.4043 183.814ZM109.297 181.148V186.5H108.633L108.516 185.748H108.472C108.361 185.934 108.218 186.09 108.042 186.217C107.866 186.344 107.668 186.438 107.446 186.5C107.228 186.565 106.995 186.598 106.748 186.598C106.325 186.598 105.97 186.529 105.684 186.393C105.397 186.256 105.181 186.044 105.034 185.758C104.891 185.471 104.819 185.104 104.819 184.654V181.148H105.64V184.596C105.64 185.042 105.741 185.375 105.942 185.597C106.144 185.815 106.452 185.924 106.865 185.924C107.262 185.924 107.578 185.849 107.812 185.699C108.05 185.549 108.221 185.33 108.325 185.04C108.429 184.747 108.481 184.389 108.481 183.966V181.148H109.297ZM112.505 188.902C111.802 188.902 111.26 188.771 110.879 188.507C110.498 188.246 110.308 187.88 110.308 187.408C110.308 187.073 110.413 186.786 110.625 186.549C110.84 186.311 111.136 186.153 111.514 186.075C111.374 186.01 111.253 185.912 111.152 185.782C111.055 185.652 111.006 185.502 111.006 185.333C111.006 185.138 111.06 184.967 111.167 184.82C111.278 184.671 111.445 184.527 111.67 184.391C111.39 184.277 111.162 184.085 110.986 183.814C110.814 183.541 110.728 183.224 110.728 182.862C110.728 182.478 110.807 182.151 110.967 181.881C111.126 181.607 111.357 181.399 111.66 181.256C111.963 181.113 112.329 181.041 112.759 181.041C112.853 181.041 112.948 181.046 113.042 181.056C113.14 181.062 113.232 181.074 113.32 181.09C113.408 181.103 113.485 181.119 113.55 181.139H115.386V181.661L114.399 181.783C114.497 181.91 114.578 182.063 114.644 182.242C114.709 182.421 114.741 182.62 114.741 182.838C114.741 183.372 114.561 183.797 114.199 184.112C113.838 184.425 113.341 184.581 112.71 184.581C112.56 184.581 112.407 184.568 112.251 184.542C112.091 184.63 111.969 184.728 111.885 184.835C111.803 184.942 111.763 185.066 111.763 185.206C111.763 185.31 111.794 185.393 111.855 185.455C111.921 185.517 112.013 185.562 112.134 185.592C112.254 185.618 112.399 185.631 112.568 185.631H113.511C114.093 185.631 114.539 185.753 114.849 185.997C115.161 186.241 115.317 186.598 115.317 187.066C115.317 187.659 115.076 188.113 114.595 188.429C114.113 188.744 113.416 188.902 112.505 188.902ZM112.529 188.268C112.972 188.268 113.338 188.222 113.628 188.131C113.921 188.043 114.139 187.914 114.282 187.745C114.429 187.579 114.502 187.381 114.502 187.149C114.502 186.935 114.453 186.772 114.355 186.661C114.258 186.554 114.115 186.482 113.926 186.446C113.737 186.407 113.506 186.388 113.232 186.388H112.305C112.064 186.388 111.854 186.425 111.675 186.5C111.496 186.575 111.357 186.686 111.26 186.832C111.165 186.979 111.118 187.161 111.118 187.379C111.118 187.669 111.24 187.888 111.484 188.038C111.729 188.191 112.077 188.268 112.529 188.268ZM112.739 183.99C113.127 183.99 113.418 183.893 113.613 183.697C113.809 183.502 113.906 183.217 113.906 182.843C113.906 182.442 113.807 182.143 113.608 181.944C113.41 181.743 113.117 181.642 112.729 181.642C112.358 181.642 112.072 181.746 111.87 181.954C111.672 182.159 111.572 182.46 111.572 182.857C111.572 183.222 111.673 183.502 111.875 183.697C112.077 183.893 112.365 183.99 112.739 183.99ZM117.251 178.902V181.173C117.251 181.303 117.248 181.435 117.241 181.568C117.235 181.699 117.223 181.819 117.207 181.93H117.261C117.371 181.741 117.511 181.583 117.681 181.456C117.853 181.326 118.049 181.228 118.267 181.163C118.485 181.095 118.716 181.061 118.96 181.061C119.39 181.061 119.748 181.129 120.034 181.266C120.324 181.402 120.54 181.614 120.684 181.9C120.83 182.187 120.903 182.558 120.903 183.014V186.5H120.103V183.067C120.103 182.621 120 182.288 119.795 182.066C119.593 181.845 119.282 181.734 118.862 181.734C118.465 181.734 118.148 181.811 117.91 181.964C117.676 182.114 117.507 182.335 117.402 182.628C117.301 182.921 117.251 183.279 117.251 183.702V186.5H116.44V178.902H117.251ZM124.302 185.934C124.435 185.934 124.572 185.922 124.712 185.899C124.852 185.877 124.966 185.849 125.054 185.816V186.446C124.959 186.489 124.827 186.524 124.658 186.554C124.492 186.583 124.329 186.598 124.17 186.598C123.887 186.598 123.63 186.549 123.398 186.451C123.167 186.35 122.982 186.181 122.842 185.943C122.705 185.706 122.637 185.377 122.637 184.957V181.783H121.875V181.388L122.642 181.07L122.964 179.908H123.452V181.148H125.02V181.783H123.452V184.933C123.452 185.268 123.529 185.519 123.682 185.685C123.838 185.851 124.045 185.934 124.302 185.934ZM129.6 185.035C129.6 185.377 129.513 185.665 129.341 185.899C129.172 186.131 128.927 186.305 128.608 186.422C128.293 186.539 127.915 186.598 127.476 186.598C127.101 186.598 126.777 186.568 126.504 186.51C126.23 186.451 125.991 186.368 125.786 186.261V185.514C126.004 185.621 126.265 185.719 126.567 185.807C126.87 185.895 127.179 185.938 127.495 185.938C127.957 185.938 128.293 185.864 128.501 185.714C128.709 185.564 128.813 185.361 128.813 185.104C128.813 184.957 128.771 184.828 128.687 184.718C128.605 184.604 128.467 184.495 128.271 184.391C128.076 184.283 127.806 184.166 127.461 184.039C127.119 183.909 126.823 183.78 126.572 183.653C126.325 183.523 126.133 183.365 125.996 183.18C125.863 182.994 125.796 182.753 125.796 182.457C125.796 182.005 125.978 181.658 126.343 181.417C126.711 181.173 127.192 181.051 127.788 181.051C128.11 181.051 128.411 181.083 128.691 181.148C128.975 181.21 129.238 181.295 129.482 181.402L129.209 182.052C128.988 181.957 128.752 181.878 128.501 181.812C128.25 181.747 127.995 181.715 127.734 181.715C127.36 181.715 127.072 181.777 126.87 181.9C126.672 182.024 126.572 182.193 126.572 182.408C126.572 182.574 126.618 182.711 126.709 182.818C126.803 182.926 126.953 183.027 127.158 183.121C127.363 183.215 127.633 183.326 127.969 183.453C128.304 183.577 128.594 183.705 128.838 183.839C129.082 183.969 129.269 184.129 129.399 184.317C129.533 184.503 129.6 184.742 129.6 185.035Z" fill="#7D7D7D"/>
<path d="M276.436 188.457C276.2 188.558 275.974 188.539 275.76 188.402C275.545 188.264 275.438 188.067 275.438 187.811V184.327L281.005 182.99L275.438 181.656V178.172C275.438 177.916 275.545 177.719 275.76 177.582C275.974 177.444 276.2 177.424 276.436 177.522L287.82 182.335C288.108 182.463 288.251 182.682 288.251 182.993C288.251 183.304 288.108 183.523 287.82 183.648L276.436 188.457Z" fill="#2D65F2"/>
<defs>
<filter id="filter0_f_8926_58194" x="0.601517" y="19.6015" width="343.797" height="225.797" filterUnits="userSpaceOnUse" color-interpolation-filters="sRGB">
<feFlood flood-opacity="0" result="BackgroundImageFix"/>
<feBlend mode="normal" in="SourceGraphic" in2="BackgroundImageFix" result="shape"/>
<feGaussianBlur stdDeviation="10.6992" result="effect1_foregroundBlur_8926_58194"/>
</filter>
</defs>
</svg>
