<svg width="145" height="61" viewBox="0 0 145 61" fill="none" xmlns="http://www.w3.org/2000/svg">
<path d="M0.341146 3C0.341146 1.52724 1.53505 0.333332 3.00781 0.333332C4.48057 0.333332 5.67448 1.52724 5.67448 3C5.67448 4.47276 4.48057 5.66667 3.00781 5.66667C1.53505 5.66667 0.341146 4.47276 0.341146 3ZM3.00781 39.5V40H2.50781V39.5H3.00781ZM3.00781 3H3.50781V39.5H3.00781H2.50781V3H3.00781ZM3.00781 39.5V39H36.0078V39.5V40H3.00781V39.5Z" fill="url(#paint0_linear_8981_50113)"/>
<g filter="url(#filter0_d_8981_50113)">
<rect x="0.3" y="-0.3" width="102.4" height="27.4" rx="13.7" transform="matrix(1 0 0 -1 36.0078 51.9)" stroke="#0A2540" stroke-width="0.6" shape-rendering="crispEdges"/>
<path d="M59.8281 34.9336C60.5664 34.9336 61.1758 35.0234 61.6562 35.2031C62.1406 35.3828 62.5 35.6562 62.7344 36.0234C62.9727 36.3906 63.0918 36.8574 63.0918 37.4238C63.0918 37.8457 63.0137 38.2051 62.8574 38.502C62.7012 38.7988 62.4961 39.0449 62.2422 39.2402C61.9883 39.4355 61.7168 39.5918 61.4277 39.709L63.8594 43.5H62.2715L60.2031 40.0664H58.8262V43.5H57.4199V34.9336H59.8281ZM59.7344 36.1055H58.8262V38.9062H59.7988C60.4512 38.9062 60.9238 38.7852 61.2168 38.543C61.5137 38.3008 61.6621 37.9434 61.6621 37.4707C61.6621 36.9746 61.5039 36.623 61.1875 36.416C60.875 36.209 60.3906 36.1055 59.7344 36.1055ZM67.5273 36.8906C68.1055 36.8906 68.6016 37.0098 69.0156 37.248C69.4297 37.4863 69.748 37.8242 69.9707 38.2617C70.1934 38.6992 70.3047 39.2227 70.3047 39.832V40.5703H65.9746C65.9902 41.1992 66.1582 41.6836 66.4785 42.0234C66.8027 42.3633 67.2559 42.5332 67.8379 42.5332C68.252 42.5332 68.623 42.4941 68.9512 42.416C69.2832 42.334 69.625 42.2148 69.9766 42.0586V43.1777C69.6523 43.3301 69.3223 43.4414 68.9863 43.5117C68.6504 43.582 68.248 43.6172 67.7793 43.6172C67.1426 43.6172 66.582 43.4941 66.0977 43.248C65.6172 42.998 65.2402 42.627 64.9668 42.1348C64.6973 41.6426 64.5625 41.0312 64.5625 40.3008C64.5625 39.5742 64.6855 38.957 64.9316 38.4492C65.1777 37.9414 65.5234 37.5547 65.9688 37.2891C66.4141 37.0234 66.9336 36.8906 67.5273 36.8906ZM67.5273 37.9277C67.0938 37.9277 66.7422 38.0684 66.4727 38.3496C66.207 38.6309 66.0508 39.043 66.0039 39.5859H68.957C68.9531 39.2617 68.8984 38.9746 68.793 38.7246C68.6914 38.4746 68.5352 38.2793 68.3242 38.1387C68.1172 37.998 67.8516 37.9277 67.5273 37.9277ZM79.1875 36.8906C79.9141 36.8906 80.4609 37.0781 80.8281 37.4531C81.1992 37.8281 81.3848 38.4297 81.3848 39.2578V43.5H80.0078V39.5039C80.0078 39.0117 79.9121 38.6406 79.7207 38.3906C79.5293 38.1406 79.2383 38.0156 78.8477 38.0156C78.3008 38.0156 77.9062 38.1914 77.6641 38.543C77.4258 38.8906 77.3066 39.3965 77.3066 40.0605V43.5H75.9297V39.5039C75.9297 39.1758 75.8867 38.9023 75.8008 38.6836C75.7188 38.4609 75.5918 38.2949 75.4199 38.1855C75.248 38.0723 75.0312 38.0156 74.7695 38.0156C74.3906 38.0156 74.0879 38.1016 73.8613 38.2734C73.6387 38.4453 73.4785 38.6992 73.3809 39.0352C73.2832 39.3672 73.2344 39.7754 73.2344 40.2598V43.5H71.8574V37.0137H72.9297L73.123 37.8867H73.1992C73.332 37.6602 73.4961 37.4746 73.6914 37.3301C73.8906 37.1816 74.1113 37.0723 74.3535 37.002C74.5957 36.9277 74.8477 36.8906 75.1094 36.8906C75.5938 36.8906 76.002 36.9766 76.334 37.1484C76.666 37.3164 76.9141 37.5742 77.0781 37.9219H77.1836C77.3867 37.5703 77.6699 37.3105 78.0332 37.1426C78.3965 36.9746 78.7812 36.8906 79.1875 36.8906ZM84.6836 37.0137V43.5H83.3066V37.0137H84.6836ZM84.0039 34.5293C84.2148 34.5293 84.3965 34.5859 84.5488 34.6992C84.7051 34.8125 84.7832 35.0078 84.7832 35.2852C84.7832 35.5586 84.7051 35.7539 84.5488 35.8711C84.3965 35.9844 84.2148 36.041 84.0039 36.041C83.7852 36.041 83.5996 35.9844 83.4473 35.8711C83.2988 35.7539 83.2246 35.5586 83.2246 35.2852C83.2246 35.0078 83.2988 34.8125 83.4473 34.6992C83.5996 34.5859 83.7852 34.5293 84.0039 34.5293ZM90.0391 36.8906C90.7695 36.8906 91.3379 37.0801 91.7441 37.459C92.1543 37.834 92.3594 38.4375 92.3594 39.2695V43.5H90.9824V39.5273C90.9824 39.0234 90.8789 38.6465 90.6719 38.3965C90.4648 38.1426 90.1445 38.0156 89.7109 38.0156C89.082 38.0156 88.6445 38.209 88.3984 38.5957C88.1562 38.9824 88.0352 39.543 88.0352 40.2773V43.5H86.6582V37.0137H87.7305L87.9238 37.8926H88C88.1406 37.666 88.3145 37.4805 88.5215 37.3359C88.7324 37.1875 88.9668 37.0762 89.2246 37.002C89.4863 36.9277 89.7578 36.8906 90.0391 36.8906ZM96.4668 43.6172C95.6934 43.6172 95.0723 43.3359 94.6035 42.7734C94.1387 42.207 93.9062 41.373 93.9062 40.2715C93.9062 39.1582 94.1426 38.3164 94.6152 37.7461C95.0918 37.1758 95.7188 36.8906 96.4961 36.8906C96.8242 36.8906 97.1113 36.9355 97.3574 37.0254C97.6035 37.1113 97.8145 37.2285 97.9902 37.377C98.1699 37.5254 98.3223 37.6914 98.4473 37.875H98.5117C98.4922 37.7539 98.4688 37.5801 98.4414 37.3535C98.418 37.123 98.4062 36.9102 98.4062 36.7148V34.3828H99.7891V43.5H98.7109L98.4648 42.6152H98.4062C98.2891 42.8027 98.1406 42.9727 97.9609 43.125C97.7852 43.2734 97.5742 43.3926 97.3281 43.4824C97.0859 43.5723 96.7988 43.6172 96.4668 43.6172ZM96.8535 42.498C97.4434 42.498 97.8594 42.3281 98.1016 41.9883C98.3438 41.6484 98.4688 41.1387 98.4766 40.459V40.2773C98.4766 39.5508 98.3594 38.9941 98.125 38.6074C97.8906 38.2168 97.4629 38.0215 96.8418 38.0215C96.3457 38.0215 95.9668 38.2227 95.7051 38.625C95.4473 39.0234 95.3184 39.5801 95.3184 40.2949C95.3184 41.0098 95.4473 41.5566 95.7051 41.9355C95.9668 42.3105 96.3496 42.498 96.8535 42.498ZM104.348 36.8906C104.926 36.8906 105.422 37.0098 105.836 37.248C106.25 37.4863 106.568 37.8242 106.791 38.2617C107.014 38.6992 107.125 39.2227 107.125 39.832V40.5703H102.795C102.811 41.1992 102.979 41.6836 103.299 42.0234C103.623 42.3633 104.076 42.5332 104.658 42.5332C105.072 42.5332 105.443 42.4941 105.771 42.416C106.104 42.334 106.445 42.2148 106.797 42.0586V43.1777C106.473 43.3301 106.143 43.4414 105.807 43.5117C105.471 43.582 105.068 43.6172 104.6 43.6172C103.963 43.6172 103.402 43.4941 102.918 43.248C102.438 42.998 102.061 42.627 101.787 42.1348C101.518 41.6426 101.383 41.0312 101.383 40.3008C101.383 39.5742 101.506 38.957 101.752 38.4492C101.998 37.9414 102.344 37.5547 102.789 37.2891C103.234 37.0234 103.754 36.8906 104.348 36.8906ZM104.348 37.9277C103.914 37.9277 103.562 38.0684 103.293 38.3496C103.027 38.6309 102.871 39.043 102.824 39.5859H105.777C105.773 39.2617 105.719 38.9746 105.613 38.7246C105.512 38.4746 105.355 38.2793 105.145 38.1387C104.938 37.998 104.672 37.9277 104.348 37.9277ZM111.965 36.8906C112.074 36.8906 112.193 36.8965 112.322 36.9082C112.451 36.9199 112.562 36.9355 112.656 36.9551L112.527 38.2441C112.445 38.2207 112.344 38.2031 112.223 38.1914C112.105 38.1797 112 38.1738 111.906 38.1738C111.66 38.1738 111.426 38.2148 111.203 38.2969C110.98 38.375 110.783 38.4961 110.611 38.6602C110.439 38.8203 110.305 39.0215 110.207 39.2637C110.109 39.5059 110.061 39.7871 110.061 40.1074V43.5H108.678V37.0137H109.756L109.943 38.1562H110.008C110.137 37.9258 110.297 37.7148 110.488 37.5234C110.68 37.332 110.898 37.1797 111.145 37.0664C111.395 36.9492 111.668 36.8906 111.965 36.8906ZM118.217 41.6484C118.217 42.0742 118.113 42.4336 117.906 42.7266C117.699 43.0195 117.396 43.2422 116.998 43.3945C116.604 43.543 116.119 43.6172 115.545 43.6172C115.092 43.6172 114.701 43.584 114.373 43.5176C114.049 43.4551 113.742 43.3574 113.453 43.2246V42.0352C113.762 42.1797 114.107 42.3047 114.49 42.4102C114.877 42.5156 115.242 42.5684 115.586 42.5684C116.039 42.5684 116.365 42.498 116.564 42.3574C116.764 42.2129 116.863 42.0215 116.863 41.7832C116.863 41.6426 116.822 41.5176 116.74 41.4082C116.662 41.2949 116.514 41.1797 116.295 41.0625C116.08 40.9414 115.764 40.7969 115.346 40.6289C114.936 40.4648 114.59 40.3008 114.309 40.1367C114.027 39.9727 113.814 39.7754 113.67 39.5449C113.525 39.3105 113.453 39.0117 113.453 38.6484C113.453 38.0742 113.68 37.6387 114.133 37.3418C114.59 37.041 115.193 36.8906 115.943 36.8906C116.342 36.8906 116.717 36.9316 117.068 37.0137C117.424 37.0918 117.771 37.207 118.111 37.3594L117.678 38.3965C117.385 38.2676 117.09 38.1621 116.793 38.0801C116.5 37.9941 116.201 37.9512 115.896 37.9512C115.541 37.9512 115.27 38.0059 115.082 38.1152C114.898 38.2246 114.807 38.3809 114.807 38.584C114.807 38.7363 114.852 38.8652 114.941 38.9707C115.031 39.0762 115.186 39.1816 115.404 39.2871C115.627 39.3926 115.936 39.5234 116.33 39.6797C116.717 39.8281 117.051 39.9844 117.332 40.1484C117.617 40.3086 117.836 40.5059 117.988 40.7402C118.141 40.9746 118.217 41.2773 118.217 41.6484Z" fill="#333333"/>
</g>
<defs>
<filter id="filter0_d_8981_50113" x="30.0078" y="20.5" width="115" height="40" filterUnits="userSpaceOnUse" color-interpolation-filters="sRGB">
<feFlood flood-opacity="0" result="BackgroundImageFix"/>
<feColorMatrix in="SourceAlpha" type="matrix" values="0 0 0 0 0 0 0 0 0 0 0 0 0 0 0 0 0 0 127 0" result="hardAlpha"/>
<feOffset dy="2"/>
<feGaussianBlur stdDeviation="3"/>
<feComposite in2="hardAlpha" operator="out"/>
<feColorMatrix type="matrix" values="0 0 0 0 0 0 0 0 0 0 0 0 0 0 0 0 0 0 0.14 0"/>
<feBlend mode="normal" in2="BackgroundImageFix" result="effect1_dropShadow_8981_50113"/>
<feBlend mode="normal" in="SourceGraphic" in2="effect1_dropShadow_8981_50113" result="shape"/>
</filter>
<linearGradient id="paint0_linear_8981_50113" x1="3.00781" y1="21.25" x2="37.277" y2="21.25" gradientUnits="userSpaceOnUse">
<stop stop-color="#9A9A9A"/>
<stop offset="1" stop-color="#FAFAFF"/>
</linearGradient>
</defs>
</svg>
