<svg width="171" height="40" viewBox="0 0 171 40" fill="none" xmlns="http://www.w3.org/2000/svg">
<path d="M0.341146 18C0.341146 19.4728 1.53505 20.6667 3.00781 20.6667C4.48057 20.6667 5.67448 19.4728 5.67448 18C5.67448 16.5272 4.48057 15.3333 3.00781 15.3333C1.53505 15.3333 0.341146 16.5272 0.341146 18ZM3.00781 18V18.5H43.0078V18V17.5H3.00781V18Z" fill="url(#paint0_linear_8981_50117)"/>
<g filter="url(#filter0_d_8981_50117)">
<rect x="43.3078" y="4.3" width="121.4" height="27.4" rx="13.7" stroke="#0A2540" stroke-width="0.6" shape-rendering="crispEdges"/>
<path d="M69.2676 20.668C69.2676 21.1758 69.1426 21.6133 68.8926 21.9805C68.6465 22.3477 68.291 22.6289 67.8262 22.8242C67.3652 23.0195 66.8145 23.1172 66.1738 23.1172C65.8613 23.1172 65.5625 23.0996 65.2773 23.0645C64.9922 23.0293 64.7227 22.9785 64.4688 22.9121C64.2188 22.8418 63.9902 22.7578 63.7832 22.6602V21.3359C64.1309 21.4883 64.5195 21.627 64.9492 21.752C65.3789 21.873 65.8164 21.9336 66.2617 21.9336C66.625 21.9336 66.9258 21.8867 67.1641 21.793C67.4062 21.6953 67.5859 21.5586 67.7031 21.3828C67.8203 21.2031 67.8789 20.9941 67.8789 20.7559C67.8789 20.502 67.8105 20.2871 67.6738 20.1113C67.5371 19.9355 67.3301 19.7754 67.0527 19.6309C66.7793 19.4824 66.4355 19.3242 66.0215 19.1562C65.7402 19.043 65.4707 18.9141 65.2129 18.7695C64.959 18.625 64.7324 18.4551 64.5332 18.2598C64.334 18.0645 64.1758 17.834 64.0586 17.5684C63.9453 17.2988 63.8887 16.9824 63.8887 16.6191C63.8887 16.1348 64.0039 15.7207 64.2344 15.377C64.4688 15.0332 64.7969 14.7695 65.2188 14.5859C65.6445 14.4023 66.1406 14.3105 66.707 14.3105C67.1562 14.3105 67.5781 14.3574 67.9727 14.4512C68.3711 14.5449 68.7617 14.6777 69.1445 14.8496L68.6992 15.9805C68.3477 15.8359 68.0059 15.7207 67.6738 15.6348C67.3457 15.5488 67.0098 15.5059 66.666 15.5059C66.3691 15.5059 66.1172 15.5508 65.9102 15.6406C65.7031 15.7305 65.5449 15.8574 65.4355 16.0215C65.3301 16.1816 65.2773 16.373 65.2773 16.5957C65.2773 16.8457 65.3379 17.0566 65.459 17.2285C65.584 17.3965 65.7754 17.5508 66.0332 17.6914C66.2949 17.832 66.6309 17.9883 67.041 18.1602C67.5137 18.3555 67.9141 18.5605 68.2422 18.7754C68.5742 18.9902 68.8281 19.248 69.0039 19.5488C69.1797 19.8457 69.2676 20.2188 69.2676 20.668ZM69.8008 16.5137H71.3008L72.6309 20.2168C72.6895 20.3848 72.7422 20.5508 72.7891 20.7148C72.8398 20.875 72.8828 21.0332 72.918 21.1895C72.957 21.3457 72.9883 21.502 73.0117 21.6582H73.0469C73.0859 21.4551 73.1406 21.2285 73.2109 20.9785C73.2852 20.7246 73.3672 20.4707 73.457 20.2168L74.7344 16.5137H76.2168L73.4336 23.8906C73.2734 24.3125 73.0762 24.6719 72.8418 24.9688C72.6113 25.2695 72.3379 25.4961 72.0215 25.6484C71.7051 25.8047 71.3438 25.8828 70.9375 25.8828C70.7422 25.8828 70.5723 25.8711 70.4277 25.8477C70.2832 25.8281 70.1602 25.8066 70.0586 25.7832V24.6816C70.1406 24.7012 70.2441 24.7188 70.3691 24.7344C70.4941 24.75 70.623 24.7578 70.7559 24.7578C71.002 24.7578 71.2148 24.709 71.3945 24.6113C71.5742 24.5137 71.7266 24.375 71.8516 24.1953C71.9766 24.0195 72.0801 23.8184 72.1621 23.5918L72.3906 22.9824L69.8008 16.5137ZM81.5605 21.1484C81.5605 21.5742 81.457 21.9336 81.25 22.2266C81.043 22.5195 80.7402 22.7422 80.3418 22.8945C79.9473 23.043 79.4629 23.1172 78.8887 23.1172C78.4355 23.1172 78.0449 23.084 77.7168 23.0176C77.3926 22.9551 77.0859 22.8574 76.7969 22.7246V21.5352C77.1055 21.6797 77.4512 21.8047 77.834 21.9102C78.2207 22.0156 78.5859 22.0684 78.9297 22.0684C79.3828 22.0684 79.709 21.998 79.9082 21.8574C80.1074 21.7129 80.207 21.5215 80.207 21.2832C80.207 21.1426 80.166 21.0176 80.084 20.9082C80.0059 20.7949 79.8574 20.6797 79.6387 20.5625C79.4238 20.4414 79.1074 20.2969 78.6895 20.1289C78.2793 19.9648 77.9336 19.8008 77.6523 19.6367C77.3711 19.4727 77.1582 19.2754 77.0137 19.0449C76.8691 18.8105 76.7969 18.5117 76.7969 18.1484C76.7969 17.5742 77.0234 17.1387 77.4766 16.8418C77.9336 16.541 78.5371 16.3906 79.2871 16.3906C79.6855 16.3906 80.0605 16.4316 80.4121 16.5137C80.7676 16.5918 81.1152 16.707 81.4551 16.8594L81.0215 17.8965C80.7285 17.7676 80.4336 17.6621 80.1367 17.5801C79.8438 17.4941 79.5449 17.4512 79.2402 17.4512C78.8848 17.4512 78.6133 17.5059 78.4258 17.6152C78.2422 17.7246 78.1504 17.8809 78.1504 18.084C78.1504 18.2363 78.1953 18.3652 78.2852 18.4707C78.375 18.5762 78.5293 18.6816 78.748 18.7871C78.9707 18.8926 79.2793 19.0234 79.6738 19.1797C80.0605 19.3281 80.3945 19.4844 80.6758 19.6484C80.9609 19.8086 81.1797 20.0059 81.332 20.2402C81.4844 20.4746 81.5605 20.7773 81.5605 21.1484ZM85.4629 22.0039C85.6426 22.0039 85.8203 21.9883 85.9961 21.957C86.1719 21.9219 86.332 21.8809 86.4766 21.834V22.877C86.3242 22.9434 86.127 23 85.8848 23.0469C85.6426 23.0938 85.3906 23.1172 85.1289 23.1172C84.7617 23.1172 84.4316 23.0566 84.1387 22.9355C83.8457 22.8105 83.6133 22.5977 83.4414 22.2969C83.2695 21.9961 83.1836 21.5801 83.1836 21.0488V17.5625H82.2988V16.9473L83.248 16.4609L83.6992 15.0723H84.5664V16.5137H86.4238V17.5625H84.5664V21.0312C84.5664 21.3594 84.6484 21.6035 84.8125 21.7637C84.9766 21.9238 85.1934 22.0039 85.4629 22.0039ZM90.3789 16.3906C90.957 16.3906 91.4531 16.5098 91.8672 16.748C92.2812 16.9863 92.5996 17.3242 92.8223 17.7617C93.0449 18.1992 93.1562 18.7227 93.1562 19.332V20.0703H88.8262C88.8418 20.6992 89.0098 21.1836 89.3301 21.5234C89.6543 21.8633 90.1074 22.0332 90.6895 22.0332C91.1035 22.0332 91.4746 21.9941 91.8027 21.916C92.1348 21.834 92.4766 21.7148 92.8281 21.5586V22.6777C92.5039 22.8301 92.1738 22.9414 91.8379 23.0117C91.502 23.082 91.0996 23.1172 90.6309 23.1172C89.9941 23.1172 89.4336 22.9941 88.9492 22.748C88.4688 22.498 88.0918 22.127 87.8184 21.6348C87.5488 21.1426 87.4141 20.5312 87.4141 19.8008C87.4141 19.0742 87.5371 18.457 87.7832 17.9492C88.0293 17.4414 88.375 17.0547 88.8203 16.7891C89.2656 16.5234 89.7852 16.3906 90.3789 16.3906ZM90.3789 17.4277C89.9453 17.4277 89.5938 17.5684 89.3242 17.8496C89.0586 18.1309 88.9023 18.543 88.8555 19.0859H91.8086C91.8047 18.7617 91.75 18.4746 91.6445 18.2246C91.543 17.9746 91.3867 17.7793 91.1758 17.6387C90.9688 17.498 90.7031 17.4277 90.3789 17.4277ZM102.039 16.3906C102.766 16.3906 103.312 16.5781 103.68 16.9531C104.051 17.3281 104.236 17.9297 104.236 18.7578V23H102.859V19.0039C102.859 18.5117 102.764 18.1406 102.572 17.8906C102.381 17.6406 102.09 17.5156 101.699 17.5156C101.152 17.5156 100.758 17.6914 100.516 18.043C100.277 18.3906 100.158 18.8965 100.158 19.5605V23H98.7812V19.0039C98.7812 18.6758 98.7383 18.4023 98.6523 18.1836C98.5703 17.9609 98.4434 17.7949 98.2715 17.6855C98.0996 17.5723 97.8828 17.5156 97.6211 17.5156C97.2422 17.5156 96.9395 17.6016 96.7129 17.7734C96.4902 17.9453 96.3301 18.1992 96.2324 18.5352C96.1348 18.8672 96.0859 19.2754 96.0859 19.7598V23H94.709V16.5137H95.7812L95.9746 17.3867H96.0508C96.1836 17.1602 96.3477 16.9746 96.543 16.8301C96.7422 16.6816 96.9629 16.5723 97.2051 16.502C97.4473 16.4277 97.6992 16.3906 97.9609 16.3906C98.4453 16.3906 98.8535 16.4766 99.1855 16.6484C99.5176 16.8164 99.7656 17.0742 99.9297 17.4219H100.035C100.238 17.0703 100.521 16.8105 100.885 16.6426C101.248 16.4746 101.633 16.3906 102.039 16.3906ZM114.361 20.668C114.361 21.1758 114.236 21.6133 113.986 21.9805C113.74 22.3477 113.385 22.6289 112.92 22.8242C112.459 23.0195 111.908 23.1172 111.268 23.1172C110.955 23.1172 110.656 23.0996 110.371 23.0645C110.086 23.0293 109.816 22.9785 109.562 22.9121C109.312 22.8418 109.084 22.7578 108.877 22.6602V21.3359C109.225 21.4883 109.613 21.627 110.043 21.752C110.473 21.873 110.91 21.9336 111.355 21.9336C111.719 21.9336 112.02 21.8867 112.258 21.793C112.5 21.6953 112.68 21.5586 112.797 21.3828C112.914 21.2031 112.973 20.9941 112.973 20.7559C112.973 20.502 112.904 20.2871 112.768 20.1113C112.631 19.9355 112.424 19.7754 112.146 19.6309C111.873 19.4824 111.529 19.3242 111.115 19.1562C110.834 19.043 110.564 18.9141 110.307 18.7695C110.053 18.625 109.826 18.4551 109.627 18.2598C109.428 18.0645 109.27 17.834 109.152 17.5684C109.039 17.2988 108.982 16.9824 108.982 16.6191C108.982 16.1348 109.098 15.7207 109.328 15.377C109.562 15.0332 109.891 14.7695 110.312 14.5859C110.738 14.4023 111.234 14.3105 111.801 14.3105C112.25 14.3105 112.672 14.3574 113.066 14.4512C113.465 14.5449 113.855 14.6777 114.238 14.8496L113.793 15.9805C113.441 15.8359 113.1 15.7207 112.768 15.6348C112.439 15.5488 112.104 15.5059 111.76 15.5059C111.463 15.5059 111.211 15.5508 111.004 15.6406C110.797 15.7305 110.639 15.8574 110.529 16.0215C110.424 16.1816 110.371 16.373 110.371 16.5957C110.371 16.8457 110.432 17.0566 110.553 17.2285C110.678 17.3965 110.869 17.5508 111.127 17.6914C111.389 17.832 111.725 17.9883 112.135 18.1602C112.607 18.3555 113.008 18.5605 113.336 18.7754C113.668 18.9902 113.922 19.248 114.098 19.5488C114.273 19.8457 114.361 20.2188 114.361 20.668ZM118.287 22.0039C118.467 22.0039 118.645 21.9883 118.82 21.957C118.996 21.9219 119.156 21.8809 119.301 21.834V22.877C119.148 22.9434 118.951 23 118.709 23.0469C118.467 23.0938 118.215 23.1172 117.953 23.1172C117.586 23.1172 117.256 23.0566 116.963 22.9355C116.67 22.8105 116.438 22.5977 116.266 22.2969C116.094 21.9961 116.008 21.5801 116.008 21.0488V17.5625H115.123V16.9473L116.072 16.4609L116.523 15.0723H117.391V16.5137H119.248V17.5625H117.391V21.0312C117.391 21.3594 117.473 21.6035 117.637 21.7637C117.801 21.9238 118.018 22.0039 118.287 22.0039ZM123.162 16.3906C123.982 16.3906 124.602 16.5723 125.02 16.9355C125.441 17.2988 125.652 17.8652 125.652 18.6348V23H124.674L124.41 22.0801H124.363C124.18 22.3145 123.99 22.5078 123.795 22.6602C123.6 22.8125 123.373 22.9258 123.115 23C122.861 23.0781 122.551 23.1172 122.184 23.1172C121.797 23.1172 121.451 23.0469 121.146 22.9062C120.842 22.7617 120.602 22.543 120.426 22.25C120.25 21.957 120.162 21.5859 120.162 21.1367C120.162 20.4688 120.41 19.9668 120.906 19.6309C121.406 19.2949 122.16 19.1094 123.168 19.0742L124.293 19.0332V18.6934C124.293 18.2441 124.188 17.9238 123.977 17.7324C123.77 17.541 123.477 17.4453 123.098 17.4453C122.773 17.4453 122.459 17.4922 122.154 17.5859C121.85 17.6797 121.553 17.7949 121.264 17.9316L120.818 16.959C121.135 16.791 121.494 16.6543 121.896 16.5488C122.303 16.4434 122.725 16.3906 123.162 16.3906ZM124.287 19.9004L123.449 19.9297C122.762 19.9531 122.279 20.0703 122.002 20.2812C121.725 20.4922 121.586 20.7812 121.586 21.1484C121.586 21.4688 121.682 21.7031 121.873 21.8516C122.064 21.9961 122.316 22.0684 122.629 22.0684C123.105 22.0684 123.5 21.9336 123.812 21.6641C124.129 21.3906 124.287 20.9902 124.287 20.4629V19.9004ZM129.994 22.0039C130.174 22.0039 130.352 21.9883 130.527 21.957C130.703 21.9219 130.863 21.8809 131.008 21.834V22.877C130.855 22.9434 130.658 23 130.416 23.0469C130.174 23.0938 129.922 23.1172 129.66 23.1172C129.293 23.1172 128.963 23.0566 128.67 22.9355C128.377 22.8105 128.145 22.5977 127.973 22.2969C127.801 21.9961 127.715 21.5801 127.715 21.0488V17.5625H126.83V16.9473L127.779 16.4609L128.23 15.0723H129.098V16.5137H130.955V17.5625H129.098V21.0312C129.098 21.3594 129.18 21.6035 129.344 21.7637C129.508 21.9238 129.725 22.0039 129.994 22.0039ZM137.98 16.5137V23H136.896L136.709 22.127H136.633C136.496 22.3496 136.322 22.5352 136.111 22.6836C135.9 22.8281 135.666 22.9355 135.408 23.0059C135.15 23.0801 134.879 23.1172 134.594 23.1172C134.105 23.1172 133.688 23.0352 133.34 22.8711C132.996 22.7031 132.732 22.4453 132.549 22.0977C132.365 21.75 132.273 21.3008 132.273 20.75V16.5137H133.656V20.4922C133.656 20.9961 133.758 21.373 133.961 21.623C134.168 21.873 134.488 21.998 134.922 21.998C135.34 21.998 135.672 21.9121 135.918 21.7402C136.164 21.5684 136.338 21.3145 136.439 20.9785C136.545 20.6426 136.598 20.2305 136.598 19.7422V16.5137H137.98ZM144.314 21.1484C144.314 21.5742 144.211 21.9336 144.004 22.2266C143.797 22.5195 143.494 22.7422 143.096 22.8945C142.701 23.043 142.217 23.1172 141.643 23.1172C141.189 23.1172 140.799 23.084 140.471 23.0176C140.146 22.9551 139.84 22.8574 139.551 22.7246V21.5352C139.859 21.6797 140.205 21.8047 140.588 21.9102C140.975 22.0156 141.34 22.0684 141.684 22.0684C142.137 22.0684 142.463 21.998 142.662 21.8574C142.861 21.7129 142.961 21.5215 142.961 21.2832C142.961 21.1426 142.92 21.0176 142.838 20.9082C142.76 20.7949 142.611 20.6797 142.393 20.5625C142.178 20.4414 141.861 20.2969 141.443 20.1289C141.033 19.9648 140.688 19.8008 140.406 19.6367C140.125 19.4727 139.912 19.2754 139.768 19.0449C139.623 18.8105 139.551 18.5117 139.551 18.1484C139.551 17.5742 139.777 17.1387 140.23 16.8418C140.688 16.541 141.291 16.3906 142.041 16.3906C142.439 16.3906 142.814 16.4316 143.166 16.5137C143.521 16.5918 143.869 16.707 144.209 16.8594L143.775 17.8965C143.482 17.7676 143.188 17.6621 142.891 17.5801C142.598 17.4941 142.299 17.4512 141.994 17.4512C141.639 17.4512 141.367 17.5059 141.18 17.6152C140.996 17.7246 140.904 17.8809 140.904 18.084C140.904 18.2363 140.949 18.3652 141.039 18.4707C141.129 18.5762 141.283 18.6816 141.502 18.7871C141.725 18.8926 142.033 19.0234 142.428 19.1797C142.814 19.3281 143.148 19.4844 143.43 19.6484C143.715 19.8086 143.934 20.0059 144.086 20.2402C144.238 20.4746 144.314 20.7773 144.314 21.1484Z" fill="#333333"/>
</g>
<defs>
<filter id="filter0_d_8981_50117" x="37.0078" y="0" width="134" height="40" filterUnits="userSpaceOnUse" color-interpolation-filters="sRGB">
<feFlood flood-opacity="0" result="BackgroundImageFix"/>
<feColorMatrix in="SourceAlpha" type="matrix" values="0 0 0 0 0 0 0 0 0 0 0 0 0 0 0 0 0 0 127 0" result="hardAlpha"/>
<feOffset dy="2"/>
<feGaussianBlur stdDeviation="3"/>
<feComposite in2="hardAlpha" operator="out"/>
<feColorMatrix type="matrix" values="0 0 0 0 0 0 0 0 0 0 0 0 0 0 0 0 0 0 0.14 0"/>
<feBlend mode="normal" in2="BackgroundImageFix" result="effect1_dropShadow_8981_50117"/>
<feBlend mode="normal" in="SourceGraphic" in2="effect1_dropShadow_8981_50117" result="shape"/>
</filter>
<linearGradient id="paint0_linear_8981_50117" x1="3.00781" y1="18.5" x2="44.5463" y2="18.5" gradientUnits="userSpaceOnUse">
<stop stop-color="#9A9A9A"/>
<stop offset="1" stop-color="#FAFAFF"/>
</linearGradient>
</defs>
</svg>
